<svg width="2760" height="901" viewBox="0 0 2760 901" fill="none" xmlns="http://www.w3.org/2000/svg">
<rect width="2760" height="901" fill="white"/>
<mask id="mask0_130_19" style="mask-type:luminance" maskUnits="userSpaceOnUse" x="168" y="46" width="761" height="621">
<path d="M928.074 46.1838H168.994V666.051H928.074V46.1838Z" fill="white"/>
</mask>
<g mask="url(#mask0_130_19)">
<path d="M168.994 151.627V208.441L253.336 146.862L337.678 165.195L422.02 211.653L506.363 235.033L590.705 287.063L675.047 311.493L759.389 310.613L843.731 313.792L928.074 312.485V256.491L843.731 248.38L759.389 247.674L675.047 240.733L590.705 216.015L506.363 172.888L422.02 153.896L337.678 117.128L253.336 106.726L168.994 151.627Z" fill="#D62728" fill-opacity="0.08" stroke="#D62728" stroke-opacity="0.08" stroke-width="1.33333"/>
</g>
<mask id="mask1_130_19" style="mask-type:luminance" maskUnits="userSpaceOnUse" x="168" y="46" width="761" height="621">
<path d="M928.074 46.1838H168.994V666.051H928.074V46.1838Z" fill="white"/>
</mask>
<g mask="url(#mask1_130_19)">
<path d="M168.994 365.731V456.069L253.336 323.557L337.678 323.505L422.02 340.147L506.363 343.795L590.705 352.737L675.047 360.274L759.389 348.856L843.731 357.628L928.074 350.14V274.322L843.731 274.767L759.389 284.889L675.047 288.183L590.705 292.607L506.363 270.776L422.02 257.536L337.678 259.687L253.336 266.109L168.994 365.731Z" fill="#2CA02C" fill-opacity="0.08" stroke="#2CA02C" stroke-opacity="0.08" stroke-width="1.33333"/>
</g>
<mask id="mask2_130_19" style="mask-type:luminance" maskUnits="userSpaceOnUse" x="168" y="46" width="761" height="621">
<path d="M928.074 46.1838H168.994V666.051H928.074V46.1838Z" fill="white"/>
</mask>
<g mask="url(#mask2_130_19)">
<path d="M168.994 102.747V167.536L253.336 196.808L337.678 139.036L422.02 411.873L506.363 478.6L590.705 529.962L675.047 523.529L759.389 535.989L843.731 505.856L928.074 510.828V266.121L843.731 300.433L759.389 257.296L675.047 231.462L590.705 169.132L506.363 65.7472L422.02 -23.016L337.678 106.507L253.336 86.7546L168.994 102.747Z" fill="#9467BD" fill-opacity="0.08" stroke="#9467BD" stroke-opacity="0.08" stroke-width="1.33333"/>
</g>
<mask id="mask3_130_19" style="mask-type:luminance" maskUnits="userSpaceOnUse" x="168" y="46" width="761" height="621">
<path d="M928.074 46.1838H168.994V666.051H928.074V46.1838Z" fill="white"/>
</mask>
<g mask="url(#mask3_130_19)">
<path d="M168.994 176.174V254.448L253.336 119.294L337.678 124.129L422.02 138.289L506.363 160.949L590.705 177.526L675.047 195.814L759.389 206.464L843.731 223.832L928.074 240.463V189.195L843.731 171.388L759.389 154.761L675.047 146.787L590.705 140.859L506.363 119.169L422.02 110.23L337.678 93.0661L253.336 90.3794L168.994 176.174Z" fill="#1F77B4" fill-opacity="0.08" stroke="#1F77B4" stroke-opacity="0.08" stroke-width="1.33333"/>
</g>
<mask id="mask4_130_19" style="mask-type:luminance" maskUnits="userSpaceOnUse" x="168" y="46" width="761" height="621">
<path d="M928.074 46.1838H168.994V666.051H928.074V46.1838Z" fill="white"/>
</mask>
<g mask="url(#mask4_130_19)">
<path d="M168.994 329.297V412.801L253.336 296.317L337.678 281.635L422.02 288.13L506.363 296.306L590.705 322.849L675.047 324.272L759.389 328.421L843.731 318.375L928.074 329.804V261.212L843.731 263.908L759.389 252.401L675.047 257.184L590.705 242.903L506.363 244.349L422.02 237.153L337.678 222.489L253.336 225.081L168.994 329.297Z" fill="#FF7F0E" fill-opacity="0.08" stroke="#FF7F0E" stroke-opacity="0.08" stroke-width="1.33333"/>
</g>
<path d="M168.994 666.05V676.717V666.05Z" fill="black"/>
<path d="M168.994 666.05V676.717" stroke="black" stroke-width="6.66667"/>
<path d="M161.749 706.653H167.763V685.887L161.218 687.199V683.845L167.728 682.533H171.409V706.653H177.423V709.751H161.749V706.653Z" fill="black"/>
<path d="M506.363 666.05V676.717V666.05Z" fill="black"/>
<path d="M506.363 666.05V676.717" stroke="black" stroke-width="6.66667"/>
<path d="M498.517 682.533H512.972V685.636H501.888V692.304C502.421 692.121 502.954 691.985 503.487 691.895C504.023 691.806 504.56 691.761 505.097 691.761C508.134 691.761 510.539 692.593 512.313 694.258C514.09 695.922 514.978 698.176 514.978 701.019C514.978 703.947 514.066 706.224 512.243 707.849C510.419 709.471 507.848 710.282 504.531 710.282C503.388 710.282 502.223 710.185 501.037 709.99C499.854 709.796 498.631 709.504 497.368 709.115V705.411C498.46 706.006 499.59 706.449 500.757 706.741C501.923 707.033 503.156 707.179 504.455 707.179C506.559 707.179 508.223 706.626 509.448 705.522C510.677 704.418 511.292 702.916 511.292 701.019C511.292 699.125 510.677 697.626 509.448 696.521C508.223 695.413 506.559 694.859 504.455 694.859C503.471 694.859 502.489 694.968 501.509 695.185C500.533 695.403 499.536 695.743 498.517 696.206V682.533Z" fill="black"/>
<path d="M928.074 666.05V676.717V666.05Z" fill="black"/>
<path d="M928.074 666.05V676.717" stroke="black" stroke-width="6.66667"/>
<path d="M908.952 706.654H914.966V685.887L908.421 687.2V683.845L914.931 682.533H918.612V706.654H924.626V709.751H908.952V706.654Z" fill="black"/>
<path d="M939.938 684.959C938.044 684.959 936.619 685.893 935.662 687.759C934.709 689.622 934.233 692.426 934.233 696.171C934.233 699.901 934.709 702.699 935.662 704.565C936.619 706.432 938.044 707.365 939.938 707.365C941.847 707.365 943.278 706.432 944.231 704.565C945.188 702.699 945.666 699.901 945.666 696.171C945.666 692.426 945.188 689.622 944.231 687.759C943.278 685.893 941.847 684.959 939.938 684.959ZM939.938 682.043C942.991 682.043 945.322 683.25 946.932 685.665C948.542 688.076 949.347 691.578 949.347 696.171C949.347 700.752 948.542 704.25 946.932 706.665C945.322 709.076 942.991 710.282 939.938 710.282C936.889 710.282 934.56 709.076 932.95 706.665C931.34 704.25 930.535 700.752 930.535 696.171C930.535 691.578 931.34 688.076 932.95 685.665C934.56 683.25 936.889 682.043 939.938 682.043Z" fill="black"/>
<path d="M425.118 734.665H428.799V761.883H425.118V734.665Z" fill="black"/>
<path d="M452.957 749.557V761.883H449.603V749.668C449.603 747.735 449.226 746.291 448.472 745.334C447.717 744.373 446.587 743.893 445.082 743.893C443.27 743.893 441.841 744.471 440.795 745.626C439.749 746.777 439.226 748.35 439.226 750.345V761.883H435.854V741.466H439.226V744.64C440.031 743.411 440.976 742.493 442.061 741.886C443.15 741.28 444.406 740.976 445.829 740.976C448.174 740.976 449.947 741.702 451.149 743.152C452.355 744.603 452.957 746.738 452.957 749.557Z" fill="black"/>
<path d="M462.963 735.668V741.466H469.87V744.074H462.963V755.157C462.963 756.822 463.191 757.891 463.646 758.366C464.101 758.84 465.028 759.077 466.428 759.077H469.87V761.883H466.428C463.838 761.883 462.051 761.401 461.067 760.436C460.083 759.468 459.591 757.708 459.591 755.157V744.074H457.13V741.466H459.591V735.668H462.963Z" fill="black"/>
<path d="M486.112 744.599C485.735 744.381 485.324 744.222 484.881 744.121C484.438 744.016 483.95 743.963 483.417 743.963C481.519 743.963 480.063 744.579 479.048 745.812C478.033 747.045 477.525 748.816 477.525 751.126V761.883H474.154V741.466H477.525V744.64C478.233 743.399 479.151 742.479 480.279 741.881C481.41 741.278 482.785 740.976 484.403 740.976C484.632 740.976 484.887 740.992 485.167 741.023C485.447 741.05 485.756 741.095 486.094 741.157L486.112 744.599Z" fill="black"/>
<path d="M489.631 741.466H492.985V761.883H489.631V741.466ZM489.631 733.516H492.985V737.768H489.631V733.516Z" fill="black"/>
<path d="M516.978 749.557V761.883H513.624V749.668C513.624 747.735 513.247 746.291 512.492 745.334C511.738 744.373 510.608 743.893 509.103 743.893C507.291 743.893 505.862 744.471 504.816 745.626C503.77 746.777 503.247 748.35 503.247 750.345V761.883H499.875V741.466H503.247V744.64C504.052 743.411 504.997 742.493 506.082 741.886C507.171 741.28 508.427 740.976 509.85 740.976C512.195 740.976 513.968 741.702 515.17 743.152C516.376 744.603 516.978 746.738 516.978 749.557Z" fill="black"/>
<path d="M536.679 742.067V745.24C535.734 744.754 534.75 744.391 533.727 744.15C532.708 743.905 531.651 743.782 530.554 743.782C528.889 743.782 527.641 744.037 526.809 744.546C525.977 745.056 525.561 745.822 525.561 746.845C525.561 747.622 525.858 748.233 526.453 748.676C527.048 749.12 528.246 749.542 530.046 749.942L531.196 750.199C533.576 750.708 535.267 751.428 536.271 752.357C537.274 753.287 537.776 754.584 537.776 756.248C537.776 758.146 537.025 759.649 535.524 760.757C534.023 761.862 531.96 762.414 529.335 762.414C528.242 762.414 527.103 762.307 525.916 762.093C524.73 761.879 523.482 761.56 522.171 761.136V757.671C523.412 758.317 524.633 758.801 525.835 759.124C527.036 759.443 528.228 759.602 529.411 759.602C530.989 759.602 532.203 759.332 533.051 758.791C533.902 758.251 534.328 757.489 534.328 756.505C534.328 755.595 534.021 754.897 533.406 754.41C532.796 753.924 531.45 753.456 529.37 753.005L528.203 752.73C526.126 752.295 524.625 751.624 523.7 750.718C522.778 749.812 522.317 748.569 522.317 746.99C522.317 745.069 522.998 743.588 524.359 742.545C525.72 741.499 527.653 740.976 530.157 740.976C531.394 740.976 532.559 741.068 533.651 741.25C534.748 741.429 535.757 741.702 536.679 742.067Z" fill="black"/>
<path d="M543.115 741.466H546.469V761.883H543.115V741.466ZM543.115 733.516H546.469V737.768H543.115V733.516Z" fill="black"/>
<path d="M568.182 742.248V745.386C567.233 744.861 566.282 744.469 565.329 744.208C564.377 743.947 563.414 743.817 562.442 743.817C560.264 743.817 558.572 744.507 557.367 745.888C556.165 747.265 555.564 749.199 555.564 751.692C555.564 754.185 556.165 756.122 557.367 757.502C558.572 758.879 560.264 759.567 562.442 759.567C563.414 759.567 564.377 759.437 565.329 759.176C566.282 758.916 567.233 758.523 568.182 757.998V761.101C567.245 761.537 566.274 761.864 565.271 762.081C564.272 762.303 563.206 762.414 562.074 762.414C558.998 762.414 556.554 761.447 554.742 759.515C552.933 757.582 552.029 754.974 552.029 751.692C552.029 748.363 552.943 745.746 554.771 743.84C556.603 741.931 559.111 740.976 562.296 740.976C563.327 740.976 564.334 741.083 565.318 741.297C566.302 741.507 567.256 741.824 568.182 742.248Z" fill="black"/>
<path d="M598.936 749.12C599.725 749.388 600.493 749.96 601.24 750.835C601.987 751.71 602.737 752.913 603.492 754.446L607.231 761.883H603.27L599.793 754.901C598.891 753.077 598.018 751.867 597.174 751.272C596.33 750.677 595.179 750.38 593.721 750.38H589.708V761.883H586.027V734.665H594.339C597.45 734.665 599.772 735.316 601.304 736.619C602.836 737.918 603.603 739.88 603.603 742.505C603.603 744.22 603.204 745.643 602.407 746.775C601.61 747.903 600.453 748.684 598.936 749.12ZM589.708 737.692V747.352H594.339C596.113 747.352 597.452 746.942 598.358 746.121C599.265 745.301 599.718 744.095 599.718 742.505C599.718 740.914 599.265 739.714 598.358 738.906C597.452 738.097 596.113 737.692 594.339 737.692H589.708Z" fill="black"/>
<path d="M620.262 751.622C617.551 751.622 615.673 751.931 614.627 752.55C613.581 753.168 613.058 754.226 613.058 755.723C613.058 756.913 613.45 757.858 614.236 758.558C615.022 759.254 616.087 759.602 617.433 759.602C619.295 759.602 620.789 758.943 621.913 757.625C623.037 756.306 623.598 754.554 623.598 752.369V751.622H620.262ZM626.953 750.234V761.883H623.598V758.785C622.832 760.022 621.878 760.936 620.734 761.527C619.591 762.118 618.193 762.414 616.54 762.414C614.452 762.414 612.789 761.827 611.553 760.652C610.32 759.478 609.703 757.907 609.703 755.939C609.703 753.644 610.472 751.914 612.008 750.747C613.548 749.58 615.842 748.997 618.891 748.997H623.598V748.665C623.598 747.121 623.091 745.927 622.076 745.083C621.061 744.239 619.636 743.817 617.8 743.817C616.633 743.817 615.496 743.957 614.388 744.237C613.283 744.517 612.222 744.937 611.203 745.497V742.394C612.428 741.919 613.618 741.565 614.773 741.332C615.928 741.095 617.052 740.976 618.144 740.976C621.1 740.976 623.307 741.742 624.765 743.275C626.223 744.803 626.953 747.123 626.953 750.234Z" fill="black"/>
<path d="M650.834 749.557V761.883H647.479V749.668C647.479 747.735 647.102 746.291 646.348 745.334C645.593 744.373 644.464 743.893 642.959 743.893C641.146 743.893 639.717 744.471 638.671 745.626C637.625 746.777 637.102 748.35 637.102 750.345V761.883H633.73V741.466H637.102V744.64C637.907 743.411 638.852 742.493 639.937 741.886C641.026 741.28 642.282 740.976 643.705 740.976C646.05 740.976 647.824 741.702 649.025 743.152C650.231 744.603 650.834 746.738 650.834 749.557Z" fill="black"/>
<path d="M657.392 733.516H660.763V750.269L670.773 741.466H675.055L664.228 751.016L675.516 761.883H671.141L660.763 751.914V761.883H657.392V733.516Z" fill="black"/>
<path d="M168.994 666.05H158.327H168.994Z" fill="black"/>
<path d="M168.994 666.05H158.327" stroke="black" stroke-width="6.66667"/>
<path d="M82.4003 655.443C80.5065 655.443 79.0812 656.376 78.1245 658.243C77.1717 660.105 76.6953 662.909 76.6953 666.654C76.6953 670.384 77.1717 673.182 78.1245 675.048C79.0812 676.915 80.5065 677.848 82.4003 677.848C84.3098 677.848 85.7409 676.915 86.6937 675.048C87.6503 673.182 88.1287 670.384 88.1287 666.654C88.1287 662.909 87.6503 660.105 86.6937 658.243C85.7409 656.376 84.3098 655.443 82.4003 655.443ZM82.4003 652.526C85.4531 652.526 87.7845 653.733 89.3945 656.148C91.0045 658.56 91.8095 662.062 91.8095 666.654C91.8095 671.235 91.0045 674.733 89.3945 677.148C87.7845 679.56 85.4531 680.765 82.4003 680.765C79.3515 680.765 77.022 679.56 75.412 677.148C73.802 674.733 72.997 671.235 72.997 666.654C72.997 662.062 73.802 658.56 75.412 656.148C77.022 653.733 79.3515 652.526 82.4003 652.526Z" fill="black"/>
<path d="M98.278 675.603H102.128V680.234H98.278V675.603Z" fill="black"/>
<path d="M110.186 653.016H124.641V656.119H113.558V662.787C114.09 662.604 114.623 662.468 115.156 662.378C115.693 662.289 116.229 662.244 116.766 662.244C119.803 662.244 122.208 663.077 123.982 664.741C125.759 666.405 126.648 668.659 126.648 671.502C126.648 674.43 125.736 676.707 123.912 678.333C122.088 679.954 119.517 680.765 116.2 680.765C115.057 680.765 113.892 680.668 112.706 680.473C111.524 680.279 110.301 679.987 109.037 679.598V675.894C110.13 676.489 111.259 676.933 112.426 677.224C113.593 677.516 114.825 677.662 116.124 677.662C118.228 677.662 119.893 677.11 121.118 676.005C122.347 674.901 122.961 673.4 122.961 671.502C122.961 669.608 122.347 668.109 121.118 667.004C119.893 665.896 118.228 665.342 116.124 665.342C115.14 665.342 114.158 665.451 113.178 665.668C112.202 665.886 111.205 666.227 110.186 666.689V653.016Z" fill="black"/>
<path d="M141.773 655.443C139.879 655.443 138.454 656.376 137.497 658.243C136.544 660.105 136.068 662.909 136.068 666.654C136.068 670.384 136.544 673.182 137.497 675.048C138.454 676.915 139.879 677.848 141.773 677.848C143.682 677.848 145.113 676.915 146.066 675.048C147.023 673.182 147.501 670.384 147.501 666.654C147.501 662.909 147.023 660.105 146.066 658.243C145.113 656.376 143.682 655.443 141.773 655.443ZM141.773 652.526C144.826 652.526 147.157 653.733 148.767 656.148C150.377 658.56 151.182 662.062 151.182 666.654C151.182 671.235 150.377 674.733 148.767 677.148C147.157 679.56 144.826 680.765 141.773 680.765C138.724 680.765 136.394 679.56 134.784 677.148C133.174 674.733 132.369 671.235 132.369 666.654C132.369 662.062 133.174 658.56 134.784 656.148C136.394 653.733 138.724 652.526 141.773 652.526Z" fill="black"/>
<path d="M168.994 356.117H158.327H168.994Z" fill="black"/>
<path d="M168.994 356.117H158.327" stroke="black" stroke-width="6.66667"/>
<path d="M82.4003 345.509C80.5065 345.509 79.0812 346.443 78.1245 348.309C77.1717 350.172 76.6953 352.976 76.6953 356.721C76.6953 360.45 77.1717 363.248 78.1245 365.115C79.0812 366.982 80.5065 367.915 82.4003 367.915C84.3098 367.915 85.7409 366.982 86.6937 365.115C87.6503 363.248 88.1287 360.45 88.1287 356.721C88.1287 352.976 87.6503 350.172 86.6937 348.309C85.7409 346.443 84.3098 345.509 82.4003 345.509ZM82.4003 342.593C85.4531 342.593 87.7845 343.8 89.3945 346.215C91.0045 348.626 91.8095 352.128 91.8095 356.721C91.8095 361.302 91.0045 364.8 89.3945 367.215C87.7845 369.626 85.4531 370.832 82.4003 370.832C79.3515 370.832 77.022 369.626 75.412 367.215C73.802 364.8 72.997 361.302 72.997 356.721C72.997 352.128 73.802 348.626 75.412 346.215C77.022 343.8 79.3515 342.593 82.4003 342.593Z" fill="black"/>
<path d="M98.278 365.669H102.128V370.301H98.278V365.669Z" fill="black"/>
<path d="M109.218 343.083H126.718V344.652L116.836 370.301H112.992L122.29 346.186H109.218V343.083Z" fill="black"/>
<path d="M133.939 343.083H148.394V346.186H137.31V352.853C137.843 352.671 138.376 352.535 138.909 352.445C139.445 352.356 139.982 352.311 140.519 352.311C143.556 352.311 145.961 353.143 147.734 354.808C149.512 356.472 150.4 358.726 150.4 361.568C150.4 364.497 149.488 366.774 147.664 368.399C145.841 370.021 143.27 370.832 139.953 370.832C138.809 370.832 137.645 370.735 136.459 370.54C135.276 370.346 134.053 370.054 132.789 369.665V365.961C133.882 366.556 135.012 366.999 136.179 367.291C137.345 367.583 138.578 367.728 139.877 367.728C141.981 367.728 143.645 367.176 144.87 366.072C146.099 364.967 146.714 363.466 146.714 361.568C146.714 359.675 146.099 358.175 144.87 357.071C143.645 355.963 141.981 355.408 139.877 355.408C138.893 355.408 137.911 355.517 136.931 355.735C135.955 355.953 134.957 356.293 133.939 356.756V343.083Z" fill="black"/>
<path d="M168.994 46.1838H158.327H168.994Z" fill="black"/>
<path d="M168.994 46.1838H158.327" stroke="black" stroke-width="6.66667"/>
<path d="M75.167 57.2702H81.1812V36.5035L74.6362 37.816V34.4618L81.1462 33.1493H84.827V57.2702H90.8412V60.3677H75.167V57.2702Z" fill="black"/>
<path d="M98.2779 55.736H102.128V60.3677H98.2779V55.736Z" fill="black"/>
<path d="M118.02 35.5759C116.126 35.5759 114.701 36.5093 113.744 38.3759C112.792 40.2387 112.315 43.0426 112.315 46.7876C112.315 50.517 112.792 53.3151 113.744 55.1818C114.701 57.0484 116.126 57.9818 118.02 57.9818C119.93 57.9818 121.361 57.0484 122.313 55.1818C123.27 53.3151 123.748 50.517 123.748 46.7876C123.748 43.0426 123.27 40.2387 122.313 38.3759C121.361 36.5093 119.93 35.5759 118.02 35.5759ZM118.02 32.6593C121.073 32.6593 123.404 33.8668 125.014 36.2818C126.624 38.6929 127.429 42.1948 127.429 46.7876C127.429 51.3687 126.624 54.8668 125.014 57.2818C123.404 59.6929 121.073 60.8984 118.02 60.8984C114.971 60.8984 112.642 59.6929 111.032 57.2818C109.422 54.8668 108.617 51.3687 108.617 46.7876C108.617 42.1948 109.422 38.6929 111.032 36.2818C112.642 33.8668 114.971 32.6593 118.02 32.6593Z" fill="black"/>
<path d="M141.773 35.5759C139.879 35.5759 138.454 36.5093 137.497 38.3759C136.544 40.2387 136.068 43.0426 136.068 46.7876C136.068 50.517 136.544 53.3151 137.497 55.1818C138.454 57.0484 139.879 57.9818 141.773 57.9818C143.682 57.9818 145.113 57.0484 146.066 55.1818C147.023 53.3151 147.501 50.517 147.501 46.7876C147.501 43.0426 147.023 40.2387 146.066 38.3759C145.113 36.5093 143.682 35.5759 141.773 35.5759ZM141.773 32.6593C144.825 32.6593 147.157 33.8668 148.767 36.2818C150.377 38.6929 151.182 42.1948 151.182 46.7876C151.182 51.3687 150.377 54.8668 148.767 57.2818C147.157 59.6929 144.825 60.8984 141.773 60.8984C138.724 60.8984 136.394 59.6929 134.784 57.2818C133.174 54.8668 132.369 51.3687 132.369 46.7876C132.369 42.1948 133.174 38.6929 134.784 36.2818C136.394 33.8668 138.724 32.6593 141.773 32.6593Z" fill="black"/>
<path d="M20.1492 547.421V524.397H23.2525V534.057H47.3675V537.755H23.2525V547.421H20.1492Z" fill="black"/>
<path d="M36.3191 509.87H37.9583V525.293C40.2683 525.145 42.028 524.449 43.2375 523.205C44.4469 521.96 45.0516 520.226 45.0516 518.002C45.0516 516.714 44.8941 515.466 44.5791 514.257C44.2641 513.047 43.7897 511.845 43.1558 510.652H46.3291C46.8386 511.857 47.2275 513.092 47.4958 514.356C47.7641 515.62 47.8983 516.901 47.8983 518.2C47.8983 521.459 46.9514 524.039 45.0575 525.941C43.1597 527.842 40.593 528.793 37.3575 528.793C34.0169 528.793 31.3666 527.891 29.4066 526.087C27.4428 524.282 26.4608 521.848 26.4608 518.783C26.4608 516.038 27.3455 513.866 29.115 512.267C30.8805 510.669 33.2819 509.87 36.3191 509.87ZM35.3333 513.224C33.5016 513.247 32.0394 513.761 30.9466 514.764C29.85 515.767 29.3016 517.095 29.3016 518.748C29.3016 520.619 29.8305 522.116 30.8883 523.24C31.9461 524.364 33.4355 525.011 35.3566 525.182L35.3333 513.224Z" fill="black"/>
<path d="M27.5516 491.352H30.725C30.2389 492.297 29.8753 493.281 29.6341 494.304C29.3891 495.322 29.2666 496.38 29.2666 497.477C29.2666 499.141 29.5214 500.39 30.0308 501.222C30.5403 502.054 31.3064 502.47 32.3291 502.47C33.1069 502.47 33.7175 502.173 34.1608 501.578C34.6041 500.983 35.0261 499.785 35.4266 497.984L35.6833 496.835C36.1928 494.455 36.9122 492.764 37.8416 491.76C38.7711 490.757 40.068 490.255 41.7325 490.255C43.6303 490.255 45.1333 491.006 46.2416 492.507C47.3461 494.008 47.8983 496.071 47.8983 498.696C47.8983 499.789 47.7914 500.928 47.5775 502.114C47.3636 503.3 47.0447 504.549 46.6208 505.859H43.1558C43.8014 504.619 44.2855 503.398 44.6083 502.196C44.9272 500.994 45.0866 499.802 45.0866 498.62C45.0866 497.041 44.8164 495.828 44.2758 494.98C43.7353 494.129 42.973 493.703 41.9891 493.703C41.0791 493.703 40.3811 494.01 39.895 494.624C39.4089 495.235 38.9403 496.58 38.4891 498.661L38.215 499.828C37.7794 501.904 37.1086 503.405 36.2025 504.331C35.2964 505.253 34.0539 505.714 32.475 505.714C30.5539 505.714 29.0722 505.033 28.03 503.672C26.9839 502.311 26.4608 500.378 26.4608 497.874C26.4608 496.637 26.5522 495.472 26.735 494.379C26.9139 493.283 27.1861 492.274 27.5516 491.352Z" fill="black"/>
<path d="M21.1525 481.596H26.9508V474.69H29.5583V481.596H40.6417C42.3061 481.596 43.3755 481.369 43.85 480.914C44.3244 480.459 44.5617 479.531 44.5617 478.131V474.69H47.3675V478.131C47.3675 480.721 46.8853 482.508 45.9208 483.492C44.9525 484.476 43.1928 484.968 40.6417 484.968H29.5583V487.43H26.9508V484.968H21.1525V481.596Z" fill="black"/>
<path d="M20.1492 462.039V439.014H23.2525V448.674H47.3675V452.373H23.2525V462.039H20.1492Z" fill="black"/>
<path d="M30.0833 429.282C29.8655 429.66 29.7061 430.07 29.605 430.513C29.5 430.957 29.4475 431.445 29.4475 431.977C29.4475 433.875 30.0639 435.332 31.2967 436.347C32.5294 437.362 34.3008 437.869 36.6108 437.869H47.3675V441.241H26.9508V437.869H30.1242C28.8836 437.161 27.9639 436.243 27.365 435.116C26.7622 433.984 26.4608 432.609 26.4608 430.992C26.4608 430.762 26.4764 430.507 26.5075 430.227C26.5347 429.947 26.5794 429.638 26.6417 429.3L30.0833 429.282Z" fill="black"/>
<path d="M26.9508 425.763V422.409H47.3675V425.763H26.9508ZM19 425.763V422.409H23.2525V425.763H19Z" fill="black"/>
<path d="M44.305 412.148H55.1317V415.519H26.9508V412.148H30.0483C28.835 411.44 27.9347 410.549 27.3475 409.476C26.7564 408.399 26.4608 407.113 26.4608 405.62C26.4608 403.139 27.4447 401.125 29.4125 399.577C31.3803 398.025 33.9683 397.249 37.1767 397.249C40.385 397.249 42.975 398.025 44.9467 399.577C46.9144 401.125 47.8983 403.139 47.8983 405.62C47.8983 407.113 47.6028 408.399 47.0117 409.476C46.4205 410.549 45.5183 411.44 44.305 412.148ZM37.1767 400.732C34.7111 400.732 32.7764 401.239 31.3725 402.254C29.9686 403.269 29.2667 404.663 29.2667 406.437C29.2667 408.214 29.9686 409.61 31.3725 410.625C32.7764 411.64 34.7111 412.148 37.1767 412.148C39.6422 412.148 41.5769 411.64 42.9808 410.625C44.3847 409.61 45.0867 408.214 45.0867 406.437C45.0867 404.663 44.3847 403.269 42.9808 402.254C41.5769 401.239 39.6422 400.732 37.1767 400.732Z" fill="black"/>
<path d="M19 391.693V388.339H47.3675V391.693H19Z" fill="black"/>
<path d="M36.3191 363.855H37.9583V379.279C40.2683 379.131 42.028 378.435 43.2375 377.19C44.4469 375.946 45.0516 374.212 45.0516 371.987C45.0516 370.7 44.8941 369.452 44.5791 368.242C44.2641 367.033 43.7897 365.831 43.1558 364.637H46.3291C46.8386 365.843 47.2275 367.077 47.4958 368.341C47.7641 369.605 47.8983 370.887 47.8983 372.185C47.8983 375.444 46.9514 378.025 45.0575 379.926C43.1597 381.828 40.593 382.779 37.3575 382.779C34.0169 382.779 31.3666 381.877 29.4066 380.072C27.4428 378.268 26.4608 375.833 26.4608 372.769C26.4608 370.023 27.3455 367.851 29.115 366.253C30.8805 364.655 33.2819 363.855 36.3191 363.855ZM35.3333 367.21C33.5016 367.233 32.0394 367.746 30.9466 368.75C29.85 369.753 29.3016 371.081 29.3016 372.734C29.3016 374.604 29.8305 376.102 30.8883 377.225C31.9461 378.349 33.4355 378.997 35.3566 379.168L35.3333 367.21Z" fill="black"/>
<path d="M21.1525 355.033H26.9508V348.126H29.5583V355.033H40.6417C42.3061 355.033 43.3755 354.805 43.85 354.35C44.3244 353.895 44.5617 352.968 44.5617 351.568V348.126H47.3675V351.568C47.3675 354.158 46.8853 355.945 45.9208 356.928C44.9525 357.912 43.1928 358.404 40.6417 358.404H29.5583V360.866H26.9508V358.404H21.1525V355.033Z" fill="black"/>
<path d="M23.7775 322.601L37.3225 327.6V317.59L23.7775 322.601ZM20.1492 324.683V320.507L47.3675 310.135V313.962L40.385 316.441V328.708L47.3675 331.188V335.073L20.1492 324.683Z" fill="black"/>
<path d="M27.7325 292.267H30.8708C30.3458 293.216 29.953 294.166 29.6925 295.119C29.4319 296.072 29.3016 297.034 29.3016 298.007C29.3016 300.184 29.9919 301.876 31.3725 303.082C32.7491 304.283 34.6839 304.884 37.1766 304.884C39.6694 304.884 41.6061 304.283 42.9866 303.082C44.3633 301.876 45.0516 300.184 45.0516 298.007C45.0516 297.034 44.9214 296.072 44.6608 295.119C44.4003 294.166 44.0075 293.216 43.4825 292.267H46.5858C47.0214 293.204 47.348 294.174 47.5658 295.178C47.7875 296.177 47.8983 297.243 47.8983 298.374C47.8983 301.45 46.9319 303.894 44.9991 305.707C43.0664 307.515 40.4589 308.419 37.1766 308.419C33.8478 308.419 31.2305 307.505 29.325 305.678C27.4155 303.846 26.4608 301.338 26.4608 298.153C26.4608 297.122 26.5678 296.115 26.7816 295.131C26.9916 294.147 27.3086 293.192 27.7325 292.267Z" fill="black"/>
<path d="M27.7325 271.741H30.8708C30.3458 272.69 29.953 273.641 29.6925 274.593C29.4319 275.546 29.3016 276.509 29.3016 277.481C29.3016 279.659 29.9919 281.35 31.3725 282.556C32.7491 283.757 34.6839 284.358 37.1766 284.358C39.6694 284.358 41.6061 283.757 42.9866 282.556C44.3633 281.35 45.0516 279.659 45.0516 277.481C45.0516 276.509 44.9214 275.546 44.6608 274.593C44.4003 273.641 44.0075 272.69 43.4825 271.741H46.5858C47.0214 272.678 47.348 273.648 47.5658 274.652C47.7875 275.651 47.8983 276.717 47.8983 277.848C47.8983 280.924 46.9319 283.369 44.9991 285.181C43.0664 286.989 40.4589 287.893 37.1766 287.893C33.8478 287.893 31.2305 286.979 29.325 285.152C27.4155 283.32 26.4608 280.812 26.4608 277.627C26.4608 276.596 26.5678 275.589 26.7816 274.605C26.9916 273.621 27.3086 272.666 27.7325 271.741Z" fill="black"/>
<path d="M39.3116 266.253H26.9508V262.899H39.1833C41.1161 262.899 42.5666 262.523 43.535 261.773C44.4994 261.018 44.9816 259.887 44.9816 258.378C44.9816 256.57 44.4041 255.14 43.2491 254.09C42.0941 253.037 40.5191 252.51 38.5241 252.51H26.9508V249.155H47.3675V252.51H44.2291C45.4697 253.322 46.3914 254.267 46.9941 255.345C47.5969 256.418 47.8983 257.666 47.8983 259.09C47.8983 261.435 47.1691 263.216 45.7108 264.433C44.2525 265.646 42.1194 266.253 39.3116 266.253Z" fill="black"/>
<path d="M30.0833 230.417C29.8655 230.795 29.7061 231.205 29.605 231.648C29.5 232.092 29.4475 232.58 29.4475 233.112C29.4475 235.01 30.0639 236.467 31.2967 237.482C32.5294 238.497 34.3008 239.004 36.6108 239.004H47.3675V242.376H26.9508V239.004H30.1242C28.8836 238.296 27.9639 237.379 27.365 236.251C26.7622 235.119 26.4608 233.744 26.4608 232.127C26.4608 231.897 26.4764 231.642 26.5075 231.362C26.5347 231.082 26.5794 230.773 26.6417 230.435L30.0833 230.417Z" fill="black"/>
<path d="M37.1066 217.617C37.1066 220.328 37.4158 222.206 38.0341 223.252C38.6525 224.299 39.7103 224.822 41.2075 224.822C42.3975 224.822 43.3425 224.429 44.0425 223.643C44.7386 222.858 45.0866 221.792 45.0866 220.447C45.0866 218.584 44.4275 217.091 43.1091 215.967C41.7908 214.843 40.0389 214.281 37.8533 214.281H37.1066V217.617ZM35.7183 210.927H47.3675V214.281H44.27C45.5066 215.047 46.4205 216.002 47.0116 217.145C47.6028 218.288 47.8983 219.686 47.8983 221.339C47.8983 223.427 47.3111 225.09 46.1366 226.327C44.9622 227.559 43.3911 228.176 41.4233 228.176C39.1289 228.176 37.3983 227.408 36.2316 225.872C35.065 224.332 34.4816 222.037 34.4816 218.988V214.281H34.1491C32.6053 214.281 31.4114 214.788 30.5675 215.803C29.7236 216.818 29.3016 218.244 29.3016 220.079C29.3016 221.246 29.4416 222.383 29.7216 223.492C30.0016 224.596 30.4216 225.658 30.9816 226.677H27.8783C27.4039 225.452 27.05 224.262 26.8166 223.107C26.5794 221.952 26.4608 220.828 26.4608 219.735C26.4608 216.779 27.2269 214.572 28.7591 213.114C30.2875 211.656 32.6072 210.927 35.7183 210.927Z" fill="black"/>
<path d="M27.7325 189.327H30.8708C30.3458 190.276 29.953 191.226 29.6925 192.179C29.4319 193.132 29.3016 194.095 29.3016 195.067C29.3016 197.245 29.9919 198.936 31.3725 200.142C32.7491 201.343 34.6839 201.944 37.1766 201.944C39.6694 201.944 41.6061 201.343 42.9866 200.142C44.3633 198.936 45.0516 197.245 45.0516 195.067C45.0516 194.095 44.9214 193.132 44.6608 192.179C44.4003 191.226 44.0075 190.276 43.4825 189.327H46.5858C47.0214 190.264 47.348 191.234 47.5658 192.238C47.7875 193.237 47.8983 194.303 47.8983 195.434C47.8983 198.51 46.9319 200.955 44.9991 202.767C43.0664 204.575 40.4589 205.479 37.1766 205.479C33.8478 205.479 31.2305 204.565 29.325 202.738C27.4155 200.906 26.4608 198.398 26.4608 195.213C26.4608 194.182 26.5678 193.175 26.7816 192.191C26.9916 191.207 27.3086 190.252 27.7325 189.327Z" fill="black"/>
<path d="M49.2633 175.002C51.6939 175.947 53.2786 176.87 54.0175 177.772C54.7603 178.671 55.1317 179.872 55.1317 181.377V184.061H52.3258V182.089C52.3258 181.167 52.1061 180.452 51.6667 179.942C51.2311 179.429 50.1986 178.863 48.5692 178.245L47.0408 177.644L26.9508 185.898V182.346L42.9167 175.964L26.9508 169.582V166.03L49.2633 175.002Z" fill="black"/>
<mask id="mask5_130_19" style="mask-type:luminance" maskUnits="userSpaceOnUse" x="168" y="46" width="761" height="621">
<path d="M928.074 46.1838H168.994V666.051H928.074V46.1838Z" fill="white"/>
</mask>
<g mask="url(#mask5_130_19)">
<path d="M168.994 180.034L253.336 126.794L337.678 141.161L422.02 182.775L506.363 203.96L590.705 251.539L675.047 276.113L759.389 279.143L843.731 281.086L928.074 284.488" stroke="#D62728" stroke-width="10" stroke-linecap="square"/>
</g>
<mask id="mask6_130_19" style="mask-type:luminance" maskUnits="userSpaceOnUse" x="168" y="46" width="761" height="621">
<path d="M928.074 46.1838H168.994V666.051H928.074V46.1838Z" fill="white"/>
</mask>
<g mask="url(#mask6_130_19)">
<path d="M168.994 410.9L253.336 294.833L337.678 291.596L422.02 298.842L506.363 307.285L590.705 322.672L675.047 324.228L759.389 316.873L843.731 316.198L928.074 312.231" stroke="#2CA02C" stroke-width="10" stroke-linecap="square"/>
</g>
<mask id="mask7_130_19" style="mask-type:luminance" maskUnits="userSpaceOnUse" x="168" y="46" width="761" height="621">
<path d="M928.074 46.1838H168.994V666.051H928.074V46.1838Z" fill="white"/>
</mask>
<g mask="url(#mask7_130_19)">
<path d="M168.994 135.142L253.336 141.781L337.678 122.772L422.02 194.428L506.363 272.173L590.705 349.547L675.047 377.496L759.389 396.643L843.731 403.144L928.074 388.474" stroke="#9467BD" stroke-width="10" stroke-linecap="square"/>
</g>
<mask id="mask8_130_19" style="mask-type:luminance" maskUnits="userSpaceOnUse" x="168" y="46" width="761" height="621">
<path d="M928.074 46.1838H168.994V666.051H928.074V46.1838Z" fill="white"/>
</mask>
<g mask="url(#mask8_130_19)">
<path d="M168.994 215.311L253.336 104.837L337.678 108.597L422.02 124.259L506.363 140.059L590.705 159.192L675.047 171.3L759.389 180.612L843.731 197.61L928.074 214.829" stroke="#1F77B4" stroke-width="10" stroke-linecap="square"/>
</g>
<mask id="mask9_130_19" style="mask-type:luminance" maskUnits="userSpaceOnUse" x="168" y="46" width="761" height="621">
<path d="M928.074 46.1838H168.994V666.051H928.074V46.1838Z" fill="white"/>
</mask>
<g mask="url(#mask9_130_19)">
<path d="M168.994 371.049L253.336 260.699L337.678 252.062L422.02 262.641L506.363 270.328L590.705 282.877L675.047 290.728L759.389 290.411L843.731 291.141L928.074 295.508" stroke="#FF7F0E" stroke-width="10" stroke-linecap="square"/>
</g>
<path d="M168.994 666.051V46.1838" stroke="black" stroke-width="6.66667" stroke-linecap="square"/>
<path d="M168.994 666.05H928.074" stroke="black" stroke-width="6.66667" stroke-linecap="square"/>
<g clip-path="url(#clip0_130_19)">
<mask id="mask10_130_19" style="mask-type:luminance" maskUnits="userSpaceOnUse" x="1059" y="32" width="761" height="635">
<path d="M1819.07 32H1059.99V666.267H1819.07V32Z" fill="white"/>
</mask>
<g mask="url(#mask10_130_19)">
<path d="M1059.99 71.6416H1144.34H1228.68H1313.02H1397.36H1481.7H1566.05H1650.39H1734.73H1819.07H1734.73H1650.39H1566.05H1481.7H1397.36H1313.02H1228.68H1144.34H1059.99Z" fill="#D62728" fill-opacity="0.08" stroke="#D62728" stroke-opacity="0.08" stroke-width="1.33333"/>
</g>
<mask id="mask11_130_19" style="mask-type:luminance" maskUnits="userSpaceOnUse" x="1059" y="32" width="761" height="635">
<path d="M1819.07 32H1059.99V666.267H1819.07V32Z" fill="white"/>
</mask>
<g mask="url(#mask11_130_19)">
<path d="M1059.99 71.6416H1144.34H1228.68H1313.02H1397.36H1481.7H1566.05H1650.39H1734.73H1819.07H1734.73H1650.39H1566.05H1481.7H1397.36H1313.02H1228.68H1144.34H1059.99Z" fill="#2CA02C" fill-opacity="0.08" stroke="#2CA02C" stroke-opacity="0.08" stroke-width="1.33333"/>
</g>
<mask id="mask12_130_19" style="mask-type:luminance" maskUnits="userSpaceOnUse" x="1059" y="32" width="761" height="635">
<path d="M1819.07 32H1059.99V666.267H1819.07V32Z" fill="white"/>
</mask>
<g mask="url(#mask12_130_19)">
<path d="M1059.99 626.625L1144.34 651.425L1228.68 586.983L1313.02 636.697L1397.36 659.802L1481.7 664.504L1566.05 664.287L1650.39 663.383L1734.73 660.039L1819.07 668.952V539.371L1734.73 561.497L1650.39 547.582L1566.05 528.179L1481.7 514.748L1397.36 479.809L1313.02 500.271L1228.68 586.983L1144.34 575.398L1059.99 626.625Z" fill="#9467BD" fill-opacity="0.08" stroke="#9467BD" stroke-opacity="0.08" stroke-width="1.33333"/>
</g>
<mask id="mask13_130_19" style="mask-type:luminance" maskUnits="userSpaceOnUse" x="1059" y="32" width="761" height="635">
<path d="M1819.07 32H1059.99V666.267H1819.07V32Z" fill="white"/>
</mask>
<g mask="url(#mask13_130_19)">
<path d="M1059.99 427.722V521.608L1144.34 612.072L1228.68 560.495L1313.02 540.397L1397.36 507.7L1481.7 468.058L1566.05 444.213L1650.39 428.959L1734.73 421.792L1819.07 419.298V334.467L1734.73 350.472L1650.39 364.448L1566.05 415.263L1481.7 468.058L1397.36 507.7L1313.02 485.574L1228.68 531.545L1144.34 540.752L1059.99 427.722Z" fill="#1F77B4" fill-opacity="0.08" stroke="#1F77B4" stroke-opacity="0.08" stroke-width="1.33333"/>
</g>
<mask id="mask14_130_19" style="mask-type:luminance" maskUnits="userSpaceOnUse" x="1059" y="32" width="761" height="635">
<path d="M1819.07 32H1059.99V666.267H1819.07V32Z" fill="white"/>
</mask>
<g mask="url(#mask14_130_19)">
<path d="M1059.99 71.6416H1144.34H1228.68H1313.02H1397.36H1481.7H1566.05H1650.39H1734.73H1819.07H1734.73H1650.39H1566.05H1481.7H1397.36H1313.02H1228.68H1144.34H1059.99Z" fill="#FF7F0E" fill-opacity="0.08" stroke="#FF7F0E" stroke-opacity="0.08" stroke-width="1.33333"/>
</g>
<path d="M1059.99 666.267V676.933V666.267Z" fill="black"/>
<path d="M1059.99 666.267V676.933" stroke="black" stroke-width="6.66667"/>
<path d="M1052.75 706.87H1058.76V686.103L1052.22 687.416V684.061L1058.73 682.749H1062.41V706.87H1068.42V709.967H1052.75V706.87Z" fill="black"/>
<path d="M1397.36 666.267V676.933V666.267Z" fill="black"/>
<path d="M1397.36 666.267V676.933" stroke="black" stroke-width="6.66667"/>
<path d="M1389.52 682.749H1403.97V685.852H1392.89V692.52C1393.42 692.337 1393.95 692.201 1394.49 692.112C1395.02 692.022 1395.56 691.977 1396.1 691.977C1399.13 691.977 1401.54 692.81 1403.31 694.474C1405.09 696.139 1405.98 698.392 1405.98 701.235C1405.98 704.163 1405.07 706.44 1403.24 708.066C1401.42 709.687 1398.85 710.498 1395.53 710.498C1394.39 710.498 1393.22 710.401 1392.04 710.207C1390.85 710.012 1389.63 709.721 1388.37 709.332V705.627C1389.46 706.222 1390.59 706.666 1391.76 706.957C1392.92 707.249 1394.16 707.395 1395.46 707.395C1397.56 707.395 1399.22 706.843 1400.45 705.738C1401.68 704.634 1402.29 703.133 1402.29 701.235C1402.29 699.341 1401.68 697.842 1400.45 696.737C1399.22 695.629 1397.56 695.075 1395.46 695.075C1394.47 695.075 1393.49 695.184 1392.51 695.402C1391.53 695.619 1390.54 695.96 1389.52 696.422V682.749Z" fill="black"/>
<path d="M1819.07 666.267V676.933V666.267Z" fill="black"/>
<path d="M1819.07 666.267V676.933" stroke="black" stroke-width="6.66667"/>
<path d="M1799.95 706.87H1805.97V686.103L1799.42 687.416V684.062L1805.93 682.749H1809.61V706.87H1815.63V709.968H1799.95V706.87Z" fill="black"/>
<path d="M1830.94 685.176C1829.04 685.176 1827.62 686.109 1826.66 687.976C1825.71 689.839 1825.23 692.642 1825.23 696.387C1825.23 700.117 1825.71 702.915 1826.66 704.782C1827.62 706.648 1829.04 707.582 1830.94 707.582C1832.85 707.582 1834.28 706.648 1835.23 704.782C1836.19 702.915 1836.67 700.117 1836.67 696.387C1836.67 692.642 1836.19 689.839 1835.23 687.976C1834.28 686.109 1832.85 685.176 1830.94 685.176ZM1830.94 682.259C1833.99 682.259 1836.32 683.467 1837.93 685.882C1839.54 688.293 1840.35 691.795 1840.35 696.387C1840.35 700.969 1839.54 704.467 1837.93 706.882C1836.32 709.293 1833.99 710.498 1830.94 710.498C1827.89 710.498 1825.56 709.293 1823.95 706.882C1822.34 704.467 1821.53 700.969 1821.53 696.387C1821.53 691.795 1822.34 688.293 1823.95 685.882C1825.56 683.467 1827.89 682.259 1830.94 682.259Z" fill="black"/>
<path d="M1316.12 734.881H1319.8V762.099H1316.12V734.881Z" fill="black"/>
<path d="M1343.96 749.773V762.099H1340.6V749.884C1340.6 747.951 1340.23 746.507 1339.47 745.55C1338.72 744.589 1337.59 744.109 1336.08 744.109C1334.27 744.109 1332.84 744.687 1331.79 745.842C1330.75 746.993 1330.23 748.566 1330.23 750.561V762.099H1326.85V741.682H1330.23V744.856C1331.03 743.627 1331.98 742.709 1333.06 742.102C1334.15 741.496 1335.41 741.192 1336.83 741.192C1339.17 741.192 1340.95 741.918 1342.15 743.368C1343.35 744.819 1343.96 746.954 1343.96 749.773Z" fill="black"/>
<path d="M1353.96 735.884V741.682H1360.87V744.29H1353.96V755.373C1353.96 757.038 1354.19 758.107 1354.65 758.582C1355.1 759.056 1356.03 759.293 1357.43 759.293H1360.87V762.099H1357.43C1354.84 762.099 1353.05 761.617 1352.07 760.652C1351.08 759.684 1350.59 757.924 1350.59 755.373V744.29H1348.13V741.682H1350.59V735.884H1353.96Z" fill="black"/>
<path d="M1377.11 744.815C1376.73 744.597 1376.32 744.438 1375.88 744.337C1375.44 744.232 1374.95 744.179 1374.42 744.179C1372.52 744.179 1371.06 744.796 1370.05 746.028C1369.03 747.261 1368.53 749.032 1368.53 751.342V762.099H1365.15V741.682H1368.53V744.856C1369.23 743.615 1370.15 742.696 1371.28 742.097C1372.41 741.494 1373.78 741.192 1375.4 741.192C1375.63 741.192 1375.89 741.208 1376.17 741.239C1376.45 741.266 1376.76 741.311 1377.09 741.373L1377.11 744.815Z" fill="black"/>
<path d="M1380.63 741.682H1383.99V762.099H1380.63V741.682ZM1380.63 733.732H1383.99V737.984H1380.63V733.732Z" fill="black"/>
<path d="M1407.98 749.773V762.099H1404.62V749.884C1404.62 747.951 1404.25 746.507 1403.49 745.55C1402.74 744.589 1401.61 744.109 1400.1 744.109C1398.29 744.109 1396.86 744.687 1395.82 745.842C1394.77 746.993 1394.25 748.566 1394.25 750.561V762.099H1390.87V741.682H1394.25V744.856C1395.05 743.627 1396 742.709 1397.08 742.102C1398.17 741.496 1399.43 741.192 1400.85 741.192C1403.19 741.192 1404.97 741.918 1406.17 743.368C1407.38 744.819 1407.98 746.954 1407.98 749.773Z" fill="black"/>
<path d="M1427.68 742.283V745.457C1426.73 744.97 1425.75 744.607 1424.73 744.366C1423.71 744.121 1422.65 743.998 1421.55 743.998C1419.89 743.998 1418.64 744.253 1417.81 744.762C1416.98 745.272 1416.56 746.038 1416.56 747.061C1416.56 747.838 1416.86 748.449 1417.45 748.892C1418.05 749.336 1419.25 749.758 1421.05 750.158L1422.2 750.415C1424.58 750.924 1426.27 751.644 1427.27 752.573C1428.27 753.503 1428.78 754.8 1428.78 756.464C1428.78 758.362 1428.02 759.865 1426.52 760.973C1425.02 762.078 1422.96 762.63 1420.33 762.63C1419.24 762.63 1418.1 762.523 1416.92 762.309C1415.73 762.095 1414.48 761.776 1413.17 761.352V757.887C1414.41 758.533 1415.63 759.017 1416.83 759.34C1418.04 759.659 1419.23 759.818 1420.41 759.818C1421.99 759.818 1423.2 759.548 1424.05 759.007C1424.9 758.467 1425.33 757.705 1425.33 756.721C1425.33 755.811 1425.02 755.113 1424.41 754.627C1423.8 754.14 1422.45 753.672 1420.37 753.221L1419.2 752.947C1417.13 752.511 1415.63 751.84 1414.7 750.934C1413.78 750.028 1413.32 748.785 1413.32 747.207C1413.32 745.285 1414 743.804 1415.36 742.762C1416.72 741.715 1418.65 741.192 1421.16 741.192C1422.39 741.192 1423.56 741.284 1424.65 741.467C1425.75 741.645 1426.76 741.918 1427.68 742.283Z" fill="black"/>
<path d="M1434.12 741.682H1437.47V762.099H1434.12V741.682ZM1434.12 733.732H1437.47V737.984H1434.12V733.732Z" fill="black"/>
<path d="M1459.18 742.464V745.602C1458.23 745.077 1457.28 744.685 1456.33 744.424C1455.38 744.163 1454.41 744.033 1453.44 744.033C1451.26 744.033 1449.57 744.723 1448.37 746.104C1447.17 747.481 1446.56 749.415 1446.56 751.908C1446.56 754.401 1447.17 756.338 1448.37 757.718C1449.57 759.095 1451.26 759.783 1453.44 759.783C1454.41 759.783 1455.38 759.653 1456.33 759.392C1457.28 759.132 1458.23 758.739 1459.18 758.214V761.317C1458.24 761.753 1457.27 762.08 1456.27 762.297C1455.27 762.519 1454.21 762.63 1453.07 762.63C1450 762.63 1447.55 761.663 1445.74 759.731C1443.93 757.798 1443.03 755.19 1443.03 751.908C1443.03 748.579 1443.94 745.962 1445.77 744.057C1447.6 742.147 1450.11 741.192 1453.3 741.192C1454.33 741.192 1455.33 741.299 1456.32 741.513C1457.3 741.723 1458.26 742.04 1459.18 742.464Z" fill="black"/>
<path d="M1489.94 749.336C1490.73 749.604 1491.49 750.176 1492.24 751.051C1492.99 751.926 1493.74 753.129 1494.49 754.662L1498.23 762.099H1494.27L1490.79 755.117C1489.89 753.293 1489.02 752.083 1488.17 751.488C1487.33 750.893 1486.18 750.596 1484.72 750.596H1480.71V762.099H1477.03V734.881H1485.34C1488.45 734.881 1490.77 735.532 1492.3 736.835C1493.84 738.134 1494.6 740.096 1494.6 742.721C1494.6 744.436 1494.2 745.859 1493.41 746.991C1492.61 748.119 1491.45 748.9 1489.94 749.336ZM1480.71 737.908V747.568H1485.34C1487.11 747.568 1488.45 747.158 1489.36 746.337C1490.26 745.517 1490.72 744.311 1490.72 742.721C1490.72 741.13 1490.26 739.931 1489.36 739.122C1488.45 738.313 1487.11 737.908 1485.34 737.908H1480.71Z" fill="black"/>
<path d="M1511.26 751.838C1508.55 751.838 1506.67 752.147 1505.63 752.766C1504.58 753.384 1504.06 754.442 1504.06 755.939C1504.06 757.129 1504.45 758.074 1505.24 758.774C1506.02 759.47 1507.09 759.818 1508.43 759.818C1510.3 759.818 1511.79 759.159 1512.91 757.841C1514.04 756.522 1514.6 754.77 1514.6 752.585V751.838H1511.26ZM1517.95 750.45V762.099H1514.6V759.002C1513.83 760.238 1512.88 761.152 1511.73 761.743C1510.59 762.334 1509.19 762.63 1507.54 762.63C1505.45 762.63 1503.79 762.043 1502.55 760.868C1501.32 759.694 1500.7 758.123 1500.7 756.155C1500.7 753.86 1501.47 752.13 1503.01 750.963C1504.55 749.797 1506.84 749.213 1509.89 749.213H1514.6V748.881C1514.6 747.337 1514.09 746.143 1513.08 745.299C1512.06 744.455 1510.64 744.033 1508.8 744.033C1507.63 744.033 1506.5 744.173 1505.39 744.453C1504.28 744.733 1503.22 745.153 1502.2 745.713V742.61C1503.43 742.135 1504.62 741.782 1505.77 741.548C1506.93 741.311 1508.05 741.192 1509.14 741.192C1512.1 741.192 1514.31 741.958 1515.77 743.491C1517.22 745.019 1517.95 747.339 1517.95 750.45Z" fill="black"/>
<path d="M1541.83 749.773V762.099H1538.48V749.884C1538.48 747.951 1538.1 746.507 1537.35 745.55C1536.59 744.589 1535.46 744.109 1533.96 744.109C1532.15 744.109 1530.72 744.687 1529.67 745.842C1528.62 746.993 1528.1 748.566 1528.1 750.561V762.099H1524.73V741.682H1528.1V744.856C1528.91 743.627 1529.85 742.709 1530.94 742.102C1532.03 741.496 1533.28 741.192 1534.71 741.192C1537.05 741.192 1538.82 741.918 1540.03 743.368C1541.23 744.819 1541.83 746.954 1541.83 749.773Z" fill="black"/>
<path d="M1548.39 733.732H1551.76V750.485L1561.77 741.682H1566.06L1555.23 751.232L1566.52 762.099H1562.14L1551.76 752.13V762.099H1548.39V733.732Z" fill="black"/>
<path d="M1059.99 626.625H1049.33H1059.99Z" fill="black"/>
<path d="M1059.99 626.625H1049.33" stroke="black" stroke-width="6.66667"/>
<path d="M1025.54 637.711H1031.55V616.945L1025.01 618.257V614.903L1031.52 613.591H1035.2V637.711H1041.21V640.809H1025.54V637.711Z" fill="black"/>
<path d="M1059.99 468.059H1049.33H1059.99Z" fill="black"/>
<path d="M1059.99 468.059H1049.33" stroke="black" stroke-width="6.66667"/>
<path d="M1024.94 455.024H1039.39V458.127H1028.31V464.795C1028.84 464.612 1029.38 464.476 1029.91 464.387C1030.44 464.297 1030.98 464.252 1031.52 464.252C1034.56 464.252 1036.96 465.085 1038.73 466.749C1040.51 468.413 1041.4 470.667 1041.4 473.51C1041.4 476.438 1040.49 478.715 1038.66 480.341C1036.84 481.962 1034.27 482.773 1030.95 482.773C1029.81 482.773 1028.64 482.676 1027.46 482.482C1026.28 482.287 1025.05 481.995 1023.79 481.607V477.902C1024.88 478.497 1026.01 478.941 1027.18 479.232C1028.34 479.524 1029.58 479.67 1030.88 479.67C1032.98 479.67 1034.64 479.118 1035.87 478.013C1037.1 476.909 1037.71 475.408 1037.71 473.51C1037.71 471.616 1037.1 470.117 1035.87 469.012C1034.64 467.904 1032.98 467.35 1030.88 467.35C1029.89 467.35 1028.91 467.459 1027.93 467.677C1026.95 467.894 1025.96 468.235 1024.94 468.697V455.024Z" fill="black"/>
<path d="M1059.99 269.85H1049.33H1059.99Z" fill="black"/>
<path d="M1059.99 269.85H1049.33" stroke="black" stroke-width="6.66667"/>
<path d="M1001.79 280.936H1007.8V260.17L1001.25 261.482V258.128L1007.76 256.816H1011.45V280.936H1017.46V284.034H1001.79V280.936Z" fill="black"/>
<path d="M1032.77 259.242C1030.88 259.242 1029.45 260.176 1028.5 262.042C1027.54 263.905 1027.07 266.709 1027.07 270.454C1027.07 274.183 1027.54 276.981 1028.5 278.848C1029.45 280.715 1030.88 281.648 1032.77 281.648C1034.68 281.648 1036.11 280.715 1037.06 278.848C1038.02 276.981 1038.5 274.183 1038.5 270.454C1038.5 266.709 1038.02 263.905 1037.06 262.042C1036.11 260.176 1034.68 259.242 1032.77 259.242ZM1032.77 256.326C1035.82 256.326 1038.16 257.533 1039.77 259.948C1041.38 262.359 1042.18 265.861 1042.18 270.454C1042.18 275.035 1041.38 278.533 1039.77 280.948C1038.16 283.359 1035.82 284.565 1032.77 284.565C1029.72 284.565 1027.39 283.359 1025.78 280.948C1024.17 278.533 1023.37 275.035 1023.37 270.454C1023.37 265.861 1024.17 262.359 1025.78 259.948C1027.39 257.533 1029.72 256.326 1032.77 256.326Z" fill="black"/>
<path d="M1059.99 71.6418H1049.33H1059.99Z" fill="black"/>
<path d="M1059.99 71.6418H1049.33" stroke="black" stroke-width="6.66667"/>
<path d="M1001.79 82.7282H1007.8V61.9615L1001.25 63.274V59.9198L1007.76 58.6073H1011.45V82.7282H1017.46V85.8257H1001.79V82.7282Z" fill="black"/>
<path d="M1024.94 58.6073H1039.39V61.7106H1028.31V68.3781C1028.84 68.1953 1029.37 68.0592 1029.91 67.9698C1030.44 67.8803 1030.98 67.8356 1031.52 67.8356C1034.55 67.8356 1036.96 68.6678 1038.73 70.3323C1040.51 71.9967 1041.4 74.2503 1041.4 77.0931C1041.4 80.0214 1040.49 82.2984 1038.66 83.9239C1036.84 85.5456 1034.27 86.3564 1030.95 86.3564C1029.81 86.3564 1028.64 86.2592 1027.46 86.0648C1026.27 85.8703 1025.05 85.5787 1023.79 85.1898V81.4856C1024.88 82.0806 1026.01 82.5239 1027.18 82.8156C1028.34 83.1073 1029.58 83.2531 1030.88 83.2531C1032.98 83.2531 1034.64 82.7009 1035.87 81.5964C1037.1 80.492 1037.71 78.9909 1037.71 77.0931C1037.71 75.1992 1037.1 73.7001 1035.87 72.5956C1034.64 71.4873 1032.98 70.9331 1030.88 70.9331C1029.89 70.9331 1028.91 71.042 1027.93 71.2598C1026.95 71.4776 1025.96 71.8178 1024.94 72.2806V58.6073Z" fill="black"/>
<path d="M950.149 489.207V483.717L968.67 476.776L950.149 469.793V464.304H977.368V467.897H953.468L972.135 474.915V478.613L953.468 485.631H977.368V489.207H950.149Z" fill="black"/>
<path d="M966.319 439.677H967.958V455.1C970.268 454.952 972.028 454.256 973.238 453.012C974.447 451.767 975.052 450.033 975.052 447.808C975.052 446.521 974.894 445.273 974.579 444.063C974.264 442.854 973.79 441.652 973.156 440.458H976.329C976.839 441.664 977.228 442.898 977.496 444.162C977.764 445.426 977.898 446.708 977.898 448.007C977.898 451.265 976.951 453.846 975.058 455.747C973.16 457.649 970.593 458.6 967.358 458.6C964.017 458.6 961.367 457.698 959.407 455.893C957.443 454.089 956.461 451.654 956.461 448.59C956.461 445.844 957.346 443.672 959.115 442.074C960.881 440.476 963.282 439.677 966.319 439.677ZM965.333 443.031C963.502 443.054 962.039 443.567 960.947 444.571C959.85 445.574 959.302 446.902 959.302 448.555C959.302 450.425 959.831 451.923 960.888 453.047C961.946 454.17 963.436 454.818 965.357 454.989L965.333 443.031Z" fill="black"/>
<path d="M967.107 424.892C967.107 427.602 967.416 429.481 968.034 430.527C968.653 431.573 969.71 432.096 971.208 432.096C972.398 432.096 973.343 431.703 974.043 430.918C974.739 430.132 975.087 429.067 975.087 427.721C975.087 425.858 974.428 424.365 973.109 423.241C971.791 422.117 970.039 421.555 967.853 421.555H967.107V424.892ZM965.718 418.201H977.368V421.555H974.27C975.507 422.321 976.421 423.276 977.012 424.419C977.603 425.563 977.898 426.961 977.898 428.614C977.898 430.702 977.311 432.364 976.137 433.601C974.962 434.834 973.391 435.45 971.423 435.45C969.129 435.45 967.398 434.682 966.232 433.146C965.065 431.606 964.482 429.312 964.482 426.263V421.555H964.149C962.605 421.555 961.411 422.063 960.568 423.078C959.724 424.093 959.302 425.518 959.302 427.354C959.302 428.52 959.442 429.658 959.722 430.766C960.002 431.87 960.422 432.932 960.982 433.951H957.878C957.404 432.726 957.05 431.536 956.817 430.381C956.579 429.226 956.461 428.102 956.461 427.009C956.461 424.054 957.227 421.847 958.759 420.389C960.288 418.93 962.607 418.201 965.718 418.201Z" fill="black"/>
<path d="M957.552 398.281H960.725C960.239 399.226 959.875 400.21 959.634 401.232C959.389 402.251 959.267 403.309 959.267 404.406C959.267 406.07 959.521 407.319 960.031 408.151C960.54 408.983 961.306 409.399 962.329 409.399C963.107 409.399 963.718 409.102 964.161 408.507C964.604 407.912 965.026 406.714 965.427 404.913L965.683 403.764C966.193 401.384 966.912 399.692 967.842 398.689C968.771 397.686 970.068 397.184 971.733 397.184C973.63 397.184 975.133 397.935 976.242 399.436C977.346 400.937 977.898 403 977.898 405.625C977.898 406.718 977.791 407.857 977.578 409.043C977.364 410.229 977.045 411.478 976.621 412.788H973.156C973.801 411.548 974.286 410.327 974.608 409.125C974.927 407.923 975.087 406.731 975.087 405.549C975.087 403.97 974.816 402.757 974.276 401.909C973.735 401.057 972.973 400.632 971.989 400.632C971.079 400.632 970.381 400.939 969.895 401.553C969.409 402.164 968.94 403.509 968.489 405.59L968.215 406.757C967.779 408.833 967.109 410.334 966.203 411.26C965.296 412.182 964.054 412.642 962.475 412.642C960.554 412.642 959.072 411.962 958.03 410.601C956.984 409.24 956.461 407.307 956.461 404.802C956.461 403.566 956.552 402.401 956.735 401.308C956.914 400.212 957.186 399.202 957.552 398.281Z" fill="black"/>
<path d="M969.312 392.189H956.951V388.835H969.183C971.116 388.835 972.567 388.459 973.535 387.709C974.499 386.954 974.982 385.823 974.982 384.314C974.982 382.505 974.404 381.076 973.249 380.026C972.094 378.972 970.519 378.445 968.524 378.445H956.951V375.091H977.368V378.445H974.229C975.47 379.258 976.391 380.203 976.994 381.28C977.597 382.354 977.898 383.602 977.898 385.025C977.898 387.37 977.169 389.151 975.711 390.369C974.253 391.582 972.119 392.189 969.312 392.189Z" fill="black"/>
<path d="M960.083 356.353C959.866 356.73 959.706 357.141 959.605 357.584C959.5 358.027 959.448 358.515 959.448 359.048C959.448 360.946 960.064 362.402 961.297 363.417C962.529 364.432 964.301 364.94 966.611 364.94H977.368V368.312H956.951V364.94H960.124C958.884 364.232 957.964 363.314 957.365 362.187C956.762 361.055 956.461 359.68 956.461 358.062C956.461 357.833 956.476 357.578 956.508 357.298C956.535 357.018 956.579 356.709 956.642 356.371L960.083 356.353Z" fill="black"/>
<path d="M966.319 336.209H967.958V351.633C970.268 351.485 972.028 350.789 973.238 349.544C974.447 348.3 975.052 346.565 975.052 344.341C975.052 343.054 974.894 341.805 974.579 340.596C974.264 339.386 973.79 338.185 973.156 336.991H976.329C976.839 338.196 977.228 339.431 977.496 340.695C977.764 341.959 977.898 343.24 977.898 344.539C977.898 347.798 976.951 350.378 975.058 352.28C973.16 354.182 970.593 355.133 967.358 355.133C964.017 355.133 961.367 354.23 959.407 352.426C957.443 350.621 956.461 348.187 956.461 345.123C956.461 342.377 957.346 340.205 959.115 338.607C960.881 337.008 963.282 336.209 966.319 336.209ZM965.333 339.563C963.502 339.587 962.039 340.1 960.947 341.103C959.85 342.107 959.302 343.435 959.302 345.088C959.302 346.958 959.831 348.455 960.888 349.579C961.946 350.703 963.436 351.351 965.357 351.522L965.333 339.563Z" fill="black"/>
<path d="M960.048 317.271H949V313.917H977.368V317.271H974.305C975.518 317.975 976.421 318.866 977.012 319.943C977.603 321.016 977.898 322.307 977.898 323.816C977.898 326.282 976.914 328.29 974.947 329.842C972.975 331.39 970.385 332.164 967.177 332.164C963.968 332.164 961.38 331.39 959.413 329.842C957.445 328.29 956.461 326.282 956.461 323.816C956.461 322.307 956.756 321.016 957.348 319.943C957.935 318.866 958.835 317.975 960.048 317.271ZM967.177 328.699C969.642 328.699 971.577 328.191 972.981 327.176C974.385 326.161 975.087 324.767 975.087 322.994C975.087 321.22 974.385 319.824 972.981 318.805C971.577 317.783 969.642 317.271 967.177 317.271C964.711 317.271 962.776 317.783 961.373 318.805C959.969 319.824 959.267 321.22 959.267 322.994C959.267 324.767 959.969 326.161 961.373 327.176C962.776 328.191 964.711 328.699 967.177 328.699Z" fill="black"/>
<path d="M964.604 282.085C964.873 281.296 965.444 280.528 966.319 279.781C967.194 279.034 968.398 278.284 969.93 277.529L977.368 273.79V277.751L970.385 281.228C968.561 282.13 967.352 283.003 966.757 283.847C966.162 284.691 965.864 285.842 965.864 287.3V291.314H977.368V294.994H950.149V286.682C950.149 283.571 950.801 281.249 952.103 279.717C953.402 278.185 955.364 277.419 957.989 277.419C959.704 277.419 961.128 277.817 962.259 278.614C963.387 279.412 964.169 280.569 964.604 282.085ZM953.177 291.314H962.837V286.682C962.837 284.909 962.426 283.569 961.606 282.663C960.785 281.757 959.58 281.304 957.989 281.304C956.399 281.304 955.199 281.757 954.39 282.663C953.581 283.569 953.177 284.909 953.177 286.682V291.314Z" fill="black"/>
<path d="M967.107 260.759C967.107 263.47 967.416 265.348 968.034 266.394C968.653 267.44 969.71 267.963 971.208 267.963C972.398 267.963 973.343 267.571 974.043 266.785C974.739 266 975.087 264.934 975.087 263.588C975.087 261.726 974.428 260.232 973.109 259.108C971.791 257.985 970.039 257.423 967.853 257.423H967.107V260.759ZM965.718 254.068H977.368V257.423H974.27C975.507 258.189 976.421 259.143 977.012 260.287C977.603 261.43 977.898 262.828 977.898 264.481C977.898 266.569 977.311 268.232 976.137 269.468C974.962 270.701 973.391 271.318 971.423 271.318C969.129 271.318 967.398 270.55 966.232 269.013C965.065 267.473 964.482 265.179 964.482 262.13V257.423H964.149C962.605 257.423 961.411 257.93 960.568 258.945C959.724 259.96 959.302 261.385 959.302 263.221C959.302 264.388 959.442 265.525 959.722 266.633C960.002 267.738 960.422 268.8 960.982 269.818H957.878C957.404 268.593 957.05 267.403 956.817 266.248C956.579 265.093 956.461 263.97 956.461 262.877C956.461 259.921 957.227 257.714 958.759 256.256C960.288 254.798 962.607 254.068 965.718 254.068Z" fill="black"/>
<path d="M965.042 230.188H977.368V233.542H965.153C963.22 233.542 961.775 233.919 960.818 234.674C959.858 235.428 959.378 236.558 959.378 238.063C959.378 239.875 959.955 241.304 961.11 242.35C962.261 243.396 963.834 243.919 965.829 243.919H977.368V247.291H956.951V243.919H960.124C958.895 243.114 957.978 242.169 957.371 241.084C956.764 239.995 956.461 238.739 956.461 237.316C956.461 234.971 957.186 233.198 958.637 231.996C960.087 230.79 962.222 230.188 965.042 230.188Z" fill="black"/>
<path d="M949 223.629V220.258H965.753L956.951 210.248V205.966L966.5 216.793L977.368 205.505V209.88L967.398 220.258H977.368V223.629H949Z" fill="black"/>
<mask id="mask15_130_19" style="mask-type:luminance" maskUnits="userSpaceOnUse" x="1059" y="32" width="761" height="635">
<path d="M1819.07 32H1059.99V666.267H1819.07V32Z" fill="white"/>
</mask>
<g mask="url(#mask15_130_19)">
<path d="M1059.99 71.6416H1144.34H1228.68H1313.02H1397.36H1481.7H1566.05H1650.39H1734.73H1819.07" stroke="#D62728" stroke-width="10" stroke-linecap="square"/>
</g>
<mask id="mask16_130_19" style="mask-type:luminance" maskUnits="userSpaceOnUse" x="1059" y="32" width="761" height="635">
<path d="M1819.07 32H1059.99V666.267H1819.07V32Z" fill="white"/>
</mask>
<g mask="url(#mask16_130_19)">
<path d="M1059.99 71.6416H1144.34H1228.68H1313.02H1397.36H1481.7H1566.05H1650.39H1734.73H1819.07" stroke="#2CA02C" stroke-width="10" stroke-linecap="square"/>
</g>
<mask id="mask17_130_19" style="mask-type:luminance" maskUnits="userSpaceOnUse" x="1059" y="32" width="761" height="635">
<path d="M1819.07 32H1059.99V666.267H1819.07V32Z" fill="white"/>
</mask>
<g mask="url(#mask17_130_19)">
<path d="M1059.99 626.625L1144.34 613.411L1228.68 586.983L1313.02 568.484L1397.36 569.805L1481.7 589.626L1566.05 596.233L1650.39 605.483L1734.73 610.768L1819.07 604.161" stroke="#9467BD" stroke-width="10" stroke-linecap="square"/>
</g>
<mask id="mask18_130_19" style="mask-type:luminance" maskUnits="userSpaceOnUse" x="1059" y="32" width="761" height="635">
<path d="M1819.07 32H1059.99V666.267H1819.07V32Z" fill="white"/>
</mask>
<g mask="url(#mask18_130_19)">
<path d="M1059.99 474.665L1144.34 576.412L1228.68 546.02L1313.02 512.986L1397.36 507.7L1481.7 468.058L1566.05 429.738L1650.39 396.703L1734.73 386.132L1819.07 376.883" stroke="#1F77B4" stroke-width="10" stroke-linecap="square"/>
</g>
<mask id="mask19_130_19" style="mask-type:luminance" maskUnits="userSpaceOnUse" x="1059" y="32" width="761" height="635">
<path d="M1819.07 32H1059.99V666.267H1819.07V32Z" fill="white"/>
</mask>
<g mask="url(#mask19_130_19)">
<path d="M1059.99 71.6416H1144.34H1228.68H1313.02H1397.36H1481.7H1566.05H1650.39H1734.73H1819.07" stroke="#FF7F0E" stroke-width="10" stroke-linecap="square"/>
</g>
<mask id="mask20_130_19" style="mask-type:luminance" maskUnits="userSpaceOnUse" x="1059" y="32" width="761" height="635">
<path d="M1819.07 32H1059.99V666.267H1819.07V32Z" fill="white"/>
</mask>
<g mask="url(#mask20_130_19)">
<path d="M1059.99 626.625L1819.07 269.85" stroke="#808080" stroke-width="10" stroke-dasharray="24.67 10.67"/>
</g>
<path d="M1059.99 666.267V32" stroke="black" stroke-width="6.66667" stroke-linecap="square"/>
<path d="M1059.99 666.267H1819.07" stroke="black" stroke-width="6.66667" stroke-linecap="square"/>
</g>
<g clip-path="url(#clip1_130_19)">
<mask id="mask21_130_19" style="mask-type:luminance" maskUnits="userSpaceOnUse" x="1956" y="32" width="761" height="635">
<path d="M2716.07 32H1956.99V666.267H2716.07V32Z" fill="white"/>
</mask>
<g mask="url(#mask21_130_19)">
<path d="M1956.99 488.711V547.446L2041.34 595.805L2125.68 596.502L2210.02 589.357L2294.36 602.966L2378.7 590.712L2463.05 605.153L2547.39 586.62L2631.73 572.411L2716.07 574.045V494.752L2631.73 500.052L2547.39 516.288L2463.05 518.388L2378.7 523.945L2294.36 561.695L2210.02 528.713L2125.68 509.688L2041.34 440.996L1956.99 488.711Z" fill="#D62728" fill-opacity="0.08" stroke="#D62728" stroke-opacity="0.08" stroke-width="1.33333"/>
</g>
<mask id="mask22_130_19" style="mask-type:luminance" maskUnits="userSpaceOnUse" x="1956" y="32" width="761" height="635">
<path d="M2716.07 32H1956.99V666.267H2716.07V32Z" fill="white"/>
</mask>
<g mask="url(#mask22_130_19)">
<path d="M1956.99 462.109V559.874L2041.34 548.922L2125.68 563.003L2210.02 612.043L2294.36 639.59L2378.7 591.594L2463.05 569.918L2547.39 565.372L2631.73 552.954L2716.07 559.814V475.387L2631.73 471.664L2547.39 475.752L2463.05 471.066L2378.7 458.839L2294.36 448.316L2210.02 446.56L2125.68 461.194L2041.34 464.252L1956.99 462.109Z" fill="#2CA02C" fill-opacity="0.08" stroke="#2CA02C" stroke-opacity="0.08" stroke-width="1.33333"/>
</g>
<mask id="mask23_130_19" style="mask-type:luminance" maskUnits="userSpaceOnUse" x="1956" y="32" width="761" height="635">
<path d="M2716.07 32H1956.99V666.267H2716.07V32Z" fill="white"/>
</mask>
<g mask="url(#mask23_130_19)">
<path d="M1956.99 106.051V127.989L2041.34 134.93L2125.68 140.209L2210.02 141.514L2294.36 144.083L2378.7 142.702L2463.05 176.976L2547.39 167.608L2631.73 173.766L2716.07 170.003V132.059L2631.73 130.511L2547.39 136.407L2463.05 131.766L2378.7 122.112L2294.36 119.736L2210.02 118.795L2125.68 117.646L2041.34 108.985L1956.99 106.051Z" fill="#9467BD" fill-opacity="0.08" stroke="#9467BD" stroke-opacity="0.08" stroke-width="1.33333"/>
</g>
<mask id="mask24_130_19" style="mask-type:luminance" maskUnits="userSpaceOnUse" x="1956" y="32" width="761" height="635">
<path d="M2716.07 32H1956.99V666.267H2716.07V32Z" fill="white"/>
</mask>
<g mask="url(#mask24_130_19)">
<path d="M1956.99 280.205V605.317L2041.34 551.571L2125.68 455.615L2210.02 516.502L2294.36 499.348L2378.7 582.696L2463.05 377.367L2547.39 349.633L2631.73 352.454L2716.07 362.579V285.865L2631.73 283.466L2547.39 278.053L2463.05 274.956L2378.7 256.386L2294.36 260.353L2210.02 256.75L2125.68 261.868L2041.34 276.196L1956.99 280.205Z" fill="#1F77B4" fill-opacity="0.08" stroke="#1F77B4" stroke-opacity="0.08" stroke-width="1.33333"/>
</g>
<mask id="mask25_130_19" style="mask-type:luminance" maskUnits="userSpaceOnUse" x="1956" y="32" width="761" height="635">
<path d="M2716.07 32H1956.99V666.267H2716.07V32Z" fill="white"/>
</mask>
<g mask="url(#mask25_130_19)">
<path d="M1956.99 316.435V358.116L2041.34 399.516L2125.68 431.091L2210.02 409.157L2294.36 383.138L2378.7 388.896L2463.05 400.588L2547.39 401.456L2631.73 406.843L2716.07 393.913V309.892L2631.73 314.258L2547.39 313.867L2463.05 318.703L2378.7 320.275L2294.36 328.192L2210.02 323.663L2125.68 330.182L2041.34 327.186L1956.99 316.435Z" fill="#FF7F0E" fill-opacity="0.08" stroke="#FF7F0E" stroke-opacity="0.08" stroke-width="1.33333"/>
</g>
<path d="M1956.99 666.267V676.933V666.267Z" fill="black"/>
<path d="M1956.99 666.267V676.933" stroke="black" stroke-width="6.66667"/>
<path d="M1949.75 706.87H1955.76V686.103L1949.22 687.416V684.061L1955.73 682.749H1959.41V706.87H1965.42V709.967H1949.75V706.87Z" fill="black"/>
<path d="M2294.36 666.267V676.933V666.267Z" fill="black"/>
<path d="M2294.36 666.267V676.933" stroke="black" stroke-width="6.66667"/>
<path d="M2286.52 682.749H2300.97V685.852H2289.89V692.52C2290.42 692.337 2290.95 692.201 2291.49 692.112C2292.02 692.022 2292.56 691.977 2293.1 691.977C2296.13 691.977 2298.54 692.81 2300.31 694.474C2302.09 696.139 2302.98 698.392 2302.98 701.235C2302.98 704.163 2302.07 706.44 2300.24 708.066C2298.42 709.687 2295.85 710.498 2292.53 710.498C2291.39 710.498 2290.22 710.401 2289.04 710.207C2287.85 710.012 2286.63 709.721 2285.37 709.332V705.627C2286.46 706.222 2287.59 706.666 2288.76 706.957C2289.92 707.249 2291.16 707.395 2292.45 707.395C2294.56 707.395 2296.22 706.843 2297.45 705.738C2298.68 704.634 2299.29 703.133 2299.29 701.235C2299.29 699.341 2298.68 697.842 2297.45 696.737C2296.22 695.629 2294.56 695.075 2292.45 695.075C2291.47 695.075 2290.49 695.184 2289.51 695.402C2288.53 695.619 2287.54 695.96 2286.52 696.422V682.749Z" fill="black"/>
<path d="M2716.07 666.267V676.933V666.267Z" fill="black"/>
<path d="M2716.07 666.267V676.933" stroke="black" stroke-width="6.66667"/>
<path d="M2696.95 706.87H2702.97V686.103L2696.42 687.416V684.062L2702.93 682.749H2706.61V706.87H2712.63V709.968H2696.95V706.87Z" fill="black"/>
<path d="M2727.94 685.176C2726.04 685.176 2724.62 686.109 2723.66 687.976C2722.71 689.839 2722.23 692.642 2722.23 696.387C2722.23 700.117 2722.71 702.915 2723.66 704.782C2724.62 706.648 2726.04 707.582 2727.94 707.582C2729.85 707.582 2731.28 706.648 2732.23 704.782C2733.19 702.915 2733.67 700.117 2733.67 696.387C2733.67 692.642 2733.19 689.839 2732.23 687.976C2731.28 686.109 2729.85 685.176 2727.94 685.176ZM2727.94 682.259C2730.99 682.259 2733.32 683.467 2734.93 685.882C2736.54 688.293 2737.35 691.795 2737.35 696.387C2737.35 700.969 2736.54 704.467 2734.93 706.882C2733.32 709.293 2730.99 710.498 2727.94 710.498C2724.89 710.498 2722.56 709.293 2720.95 706.882C2719.34 704.467 2718.53 700.969 2718.53 696.387C2718.53 691.795 2719.34 688.293 2720.95 685.882C2722.56 683.467 2724.89 682.259 2727.94 682.259Z" fill="black"/>
<path d="M2213.12 734.881H2216.8V762.099H2213.12V734.881Z" fill="black"/>
<path d="M2240.96 749.773V762.099H2237.6V749.884C2237.6 747.951 2237.23 746.507 2236.47 745.55C2235.72 744.589 2234.59 744.109 2233.08 744.109C2231.27 744.109 2229.84 744.687 2228.79 745.842C2227.75 746.993 2227.23 748.566 2227.23 750.561V762.099H2223.85V741.682H2227.23V744.856C2228.03 743.627 2228.98 742.709 2230.06 742.102C2231.15 741.496 2232.41 741.192 2233.83 741.192C2236.17 741.192 2237.95 741.918 2239.15 743.368C2240.35 744.819 2240.96 746.954 2240.96 749.773Z" fill="black"/>
<path d="M2250.96 735.884V741.682H2257.87V744.29H2250.96V755.373C2250.96 757.038 2251.19 758.107 2251.65 758.582C2252.1 759.056 2253.03 759.293 2254.43 759.293H2257.87V762.099H2254.43C2251.84 762.099 2250.05 761.617 2249.07 760.652C2248.08 759.684 2247.59 757.924 2247.59 755.373V744.29H2245.13V741.682H2247.59V735.884H2250.96Z" fill="black"/>
<path d="M2274.11 744.815C2273.73 744.597 2273.32 744.438 2272.88 744.337C2272.44 744.232 2271.95 744.179 2271.42 744.179C2269.52 744.179 2268.06 744.796 2267.05 746.028C2266.03 747.261 2265.53 749.032 2265.53 751.342V762.099H2262.15V741.682H2265.53V744.856C2266.23 743.615 2267.15 742.696 2268.28 742.097C2269.41 741.494 2270.78 741.192 2272.4 741.192C2272.63 741.192 2272.89 741.208 2273.17 741.239C2273.45 741.266 2273.76 741.311 2274.09 741.373L2274.11 744.815Z" fill="black"/>
<path d="M2277.63 741.682H2280.99V762.099H2277.63V741.682ZM2277.63 733.732H2280.99V737.984H2277.63V733.732Z" fill="black"/>
<path d="M2304.98 749.773V762.099H2301.62V749.884C2301.62 747.951 2301.25 746.507 2300.49 745.55C2299.74 744.589 2298.61 744.109 2297.1 744.109C2295.29 744.109 2293.86 744.687 2292.82 745.842C2291.77 746.993 2291.25 748.566 2291.25 750.561V762.099H2287.87V741.682H2291.25V744.856C2292.05 743.627 2293 742.709 2294.08 742.102C2295.17 741.496 2296.43 741.192 2297.85 741.192C2300.19 741.192 2301.97 741.918 2303.17 743.368C2304.38 744.819 2304.98 746.954 2304.98 749.773Z" fill="black"/>
<path d="M2324.68 742.283V745.457C2323.73 744.97 2322.75 744.607 2321.73 744.366C2320.71 744.121 2319.65 743.998 2318.55 743.998C2316.89 743.998 2315.64 744.253 2314.81 744.762C2313.98 745.272 2313.56 746.038 2313.56 747.061C2313.56 747.838 2313.86 748.449 2314.45 748.892C2315.05 749.336 2316.25 749.758 2318.05 750.158L2319.2 750.415C2321.58 750.924 2323.27 751.644 2324.27 752.573C2325.27 753.503 2325.78 754.8 2325.78 756.464C2325.78 758.362 2325.02 759.865 2323.52 760.973C2322.02 762.078 2319.96 762.63 2317.33 762.63C2316.24 762.63 2315.1 762.523 2313.92 762.309C2312.73 762.095 2311.48 761.776 2310.17 761.352V757.887C2311.41 758.533 2312.63 759.017 2313.83 759.34C2315.04 759.659 2316.23 759.818 2317.41 759.818C2318.99 759.818 2320.2 759.548 2321.05 759.007C2321.9 758.467 2322.33 757.705 2322.33 756.721C2322.33 755.811 2322.02 755.113 2321.41 754.627C2320.8 754.14 2319.45 753.672 2317.37 753.221L2316.2 752.947C2314.13 752.511 2312.63 751.84 2311.7 750.934C2310.78 750.028 2310.32 748.785 2310.32 747.207C2310.32 745.285 2311 743.804 2312.36 742.762C2313.72 741.715 2315.65 741.192 2318.16 741.192C2319.39 741.192 2320.56 741.284 2321.65 741.467C2322.75 741.645 2323.76 741.918 2324.68 742.283Z" fill="black"/>
<path d="M2331.12 741.682H2334.47V762.099H2331.12V741.682ZM2331.12 733.732H2334.47V737.984H2331.12V733.732Z" fill="black"/>
<path d="M2356.18 742.464V745.602C2355.23 745.077 2354.28 744.685 2353.33 744.424C2352.38 744.163 2351.41 744.033 2350.44 744.033C2348.26 744.033 2346.57 744.723 2345.37 746.104C2344.17 747.481 2343.56 749.415 2343.56 751.908C2343.56 754.401 2344.17 756.338 2345.37 757.718C2346.57 759.095 2348.26 759.783 2350.44 759.783C2351.41 759.783 2352.38 759.653 2353.33 759.392C2354.28 759.132 2355.23 758.739 2356.18 758.214V761.317C2355.24 761.753 2354.27 762.08 2353.27 762.297C2352.27 762.519 2351.21 762.63 2350.07 762.63C2347 762.63 2344.55 761.663 2342.74 759.731C2340.93 757.798 2340.03 755.19 2340.03 751.908C2340.03 748.579 2340.94 745.962 2342.77 744.057C2344.6 742.147 2347.11 741.192 2350.3 741.192C2351.33 741.192 2352.33 741.299 2353.32 741.513C2354.3 741.723 2355.26 742.04 2356.18 742.464Z" fill="black"/>
<path d="M2386.94 749.336C2387.73 749.604 2388.49 750.176 2389.24 751.051C2389.99 751.926 2390.74 753.129 2391.49 754.662L2395.23 762.099H2391.27L2387.79 755.117C2386.89 753.293 2386.02 752.083 2385.17 751.488C2384.33 750.893 2383.18 750.596 2381.72 750.596H2377.71V762.099H2374.03V734.881H2382.34C2385.45 734.881 2387.77 735.532 2389.3 736.835C2390.84 738.134 2391.6 740.096 2391.6 742.721C2391.6 744.436 2391.2 745.859 2390.41 746.991C2389.61 748.119 2388.45 748.9 2386.94 749.336ZM2377.71 737.908V747.568H2382.34C2384.11 747.568 2385.45 747.158 2386.36 746.337C2387.26 745.517 2387.72 744.311 2387.72 742.721C2387.72 741.13 2387.26 739.931 2386.36 739.122C2385.45 738.313 2384.11 737.908 2382.34 737.908H2377.71Z" fill="black"/>
<path d="M2408.26 751.838C2405.55 751.838 2403.67 752.147 2402.63 752.766C2401.58 753.384 2401.06 754.442 2401.06 755.939C2401.06 757.129 2401.45 758.074 2402.24 758.774C2403.02 759.47 2404.09 759.818 2405.43 759.818C2407.3 759.818 2408.79 759.159 2409.91 757.841C2411.04 756.522 2411.6 754.77 2411.6 752.585V751.838H2408.26ZM2414.95 750.45V762.099H2411.6V759.002C2410.83 760.238 2409.88 761.152 2408.73 761.743C2407.59 762.334 2406.19 762.63 2404.54 762.63C2402.45 762.63 2400.79 762.043 2399.55 760.868C2398.32 759.694 2397.7 758.123 2397.7 756.155C2397.7 753.86 2398.47 752.13 2400.01 750.963C2401.55 749.797 2403.84 749.213 2406.89 749.213H2411.6V748.881C2411.6 747.337 2411.09 746.143 2410.08 745.299C2409.06 744.455 2407.64 744.033 2405.8 744.033C2404.63 744.033 2403.5 744.173 2402.39 744.453C2401.28 744.733 2400.22 745.153 2399.2 745.713V742.61C2400.43 742.135 2401.62 741.782 2402.77 741.548C2403.93 741.311 2405.05 741.192 2406.14 741.192C2409.1 741.192 2411.31 741.958 2412.77 743.491C2414.22 745.019 2414.95 747.339 2414.95 750.45Z" fill="black"/>
<path d="M2438.83 749.773V762.099H2435.48V749.884C2435.48 747.951 2435.1 746.507 2434.35 745.55C2433.59 744.589 2432.46 744.109 2430.96 744.109C2429.15 744.109 2427.72 744.687 2426.67 745.842C2425.62 746.993 2425.1 748.566 2425.1 750.561V762.099H2421.73V741.682H2425.1V744.856C2425.91 743.627 2426.85 742.709 2427.94 742.102C2429.03 741.496 2430.28 741.192 2431.71 741.192C2434.05 741.192 2435.82 741.918 2437.03 743.368C2438.23 744.819 2438.83 746.954 2438.83 749.773Z" fill="black"/>
<path d="M2445.39 733.732H2448.76V750.485L2458.77 741.682H2463.05L2452.23 751.232L2463.52 762.099H2459.14L2448.76 752.13V762.099H2445.39V733.732Z" fill="black"/>
<path d="M1956.99 428.555H1946.33H1956.99Z" fill="black"/>
<path d="M1956.99 428.555H1946.33" stroke="black" stroke-width="6.66667"/>
<path d="M1880.59 439.355H1886.6V418.589L1880.05 419.901V416.547L1886.56 415.235H1890.25V439.355H1896.26V442.453H1880.59V439.355Z" fill="black"/>
<path d="M1911.57 417.661C1909.68 417.661 1908.25 418.594 1907.3 420.461C1906.34 422.324 1905.87 425.128 1905.87 428.873C1905.87 432.602 1906.34 435.4 1907.3 437.267C1908.25 439.134 1909.68 440.067 1911.57 440.067C1913.48 440.067 1914.91 439.134 1915.86 437.267C1916.82 435.4 1917.3 432.602 1917.3 428.873C1917.3 425.128 1916.82 422.324 1915.86 420.461C1914.91 418.594 1913.48 417.661 1911.57 417.661ZM1911.57 414.744C1914.62 414.744 1916.96 415.952 1918.57 418.367C1920.18 420.778 1920.98 424.28 1920.98 428.873C1920.98 433.454 1920.18 436.952 1918.57 439.367C1916.96 441.778 1914.62 442.984 1911.57 442.984C1908.52 442.984 1906.19 441.778 1904.58 439.367C1902.97 436.952 1902.17 433.454 1902.17 428.873C1902.17 424.28 1902.97 420.778 1904.58 418.367C1906.19 415.952 1908.52 414.744 1911.57 414.744Z" fill="black"/>
<path d="M1932.12 410.807C1930.8 410.807 1929.8 411.46 1929.13 412.767C1928.46 414.071 1928.13 416.034 1928.13 418.655C1928.13 421.266 1928.46 423.224 1929.13 424.531C1929.8 425.838 1930.8 426.491 1932.12 426.491C1933.46 426.491 1934.46 425.838 1935.13 424.531C1935.8 423.224 1936.13 421.266 1936.13 418.655C1936.13 416.034 1935.8 414.071 1935.13 412.767C1934.46 411.46 1933.46 410.807 1932.12 410.807ZM1932.12 408.765C1934.26 408.765 1935.89 409.611 1937.02 411.301C1938.14 412.989 1938.71 415.44 1938.71 418.655C1938.71 421.862 1938.14 424.311 1937.02 426.001C1935.89 427.689 1934.26 428.533 1932.12 428.533C1929.99 428.533 1928.36 427.689 1927.23 426.001C1926.1 424.311 1925.54 421.862 1925.54 418.655C1925.54 415.44 1926.1 412.989 1927.23 411.301C1928.36 409.611 1929.99 408.765 1932.12 408.765Z" fill="black"/>
<path d="M1956.99 256.217H1946.33H1956.99Z" fill="black"/>
<path d="M1956.99 256.217H1946.33" stroke="black" stroke-width="6.66667"/>
<path d="M1880.59 267.048H1886.6V246.281L1880.05 247.593V244.239L1886.56 242.927H1890.25V267.048H1896.26V270.145H1880.59V267.048Z" fill="black"/>
<path d="M1911.57 245.353C1909.68 245.353 1908.25 246.287 1907.3 248.153C1906.34 250.016 1905.87 252.82 1905.87 256.565C1905.87 260.294 1906.34 263.092 1907.3 264.959C1908.25 266.826 1909.68 267.759 1911.57 267.759C1913.48 267.759 1914.91 266.826 1915.86 264.959C1916.82 263.092 1917.3 260.294 1917.3 256.565C1917.3 252.82 1916.82 250.016 1915.86 248.153C1914.91 246.287 1913.48 245.353 1911.57 245.353ZM1911.57 242.437C1914.62 242.437 1916.96 243.644 1918.57 246.059C1920.18 248.47 1920.98 251.972 1920.98 256.565C1920.98 261.146 1920.18 264.644 1918.57 267.059C1916.96 269.47 1914.62 270.676 1911.57 270.676C1908.52 270.676 1906.19 269.47 1904.58 267.059C1902.97 264.644 1902.17 261.146 1902.17 256.565C1902.17 251.972 1902.97 248.47 1904.58 246.059C1906.19 243.644 1908.52 242.437 1911.57 242.437Z" fill="black"/>
<path d="M1927.06 253.685H1931.27V239.148L1926.69 240.067V237.719L1931.24 236.8H1933.82V253.685H1938.03V255.853H1927.06V253.685Z" fill="black"/>
<path d="M1956.99 135.758H1946.33H1956.99Z" fill="black"/>
<path d="M1956.99 135.758H1946.33" stroke="black" stroke-width="6.66667"/>
<path d="M1956.99 83.8789H1946.33H1956.99Z" fill="black"/>
<path d="M1956.99 83.8789H1946.33" stroke="black" stroke-width="6.66667"/>
<path d="M1880.59 94.6794H1886.6V73.9127L1880.05 75.2252V71.871L1886.56 70.5585H1890.25V94.6794H1896.26V97.7769H1880.59V94.6794Z" fill="black"/>
<path d="M1911.57 72.9851C1909.68 72.9851 1908.25 73.9185 1907.3 75.7851C1906.34 77.6479 1905.87 80.4518 1905.87 84.1968C1905.87 87.9262 1906.34 90.7243 1907.3 92.591C1908.25 94.4576 1909.68 95.391 1911.57 95.391C1913.48 95.391 1914.91 94.4576 1915.86 92.591C1916.82 90.7243 1917.3 87.9262 1917.3 84.1968C1917.3 80.4518 1916.82 77.6479 1915.86 75.7851C1914.91 73.9185 1913.48 72.9851 1911.57 72.9851ZM1911.57 70.0685C1914.62 70.0685 1916.96 71.2759 1918.57 73.691C1920.18 76.1021 1920.98 79.604 1920.98 84.1968C1920.98 88.7779 1920.18 92.276 1918.57 94.691C1916.96 97.1021 1914.62 98.3076 1911.57 98.3076C1908.52 98.3076 1906.19 97.1021 1904.58 94.691C1902.97 92.276 1902.17 88.7779 1902.17 84.1968C1902.17 79.604 1902.97 76.1021 1904.58 73.691C1906.19 71.2759 1908.52 70.0685 1911.57 70.0685Z" fill="black"/>
<path d="M1928.83 81.3169H1937.83V83.4851H1925.73V81.3169C1926.71 80.3042 1928.04 78.9458 1929.73 77.2417C1931.42 75.5349 1932.48 74.4337 1932.91 73.9383C1933.74 73.0127 1934.31 72.2287 1934.64 71.5863C1934.97 70.9438 1935.14 70.3123 1935.14 69.6916C1935.14 68.6789 1934.78 67.8541 1934.07 67.2171C1933.36 66.5774 1932.43 66.2575 1931.29 66.2575C1930.48 66.2575 1929.63 66.3977 1928.73 66.6781C1927.84 66.9585 1926.88 67.3845 1925.86 67.9562V65.351C1926.89 64.9345 1927.86 64.6201 1928.77 64.4078C1929.67 64.1954 1930.5 64.0893 1931.24 64.0893C1933.22 64.0893 1934.79 64.5834 1935.96 65.5715C1937.14 66.557 1937.72 67.8745 1937.72 69.5242C1937.72 70.3082 1937.58 71.0514 1937.28 71.7537C1936.99 72.4533 1936.46 73.2795 1935.68 74.2323C1935.47 74.48 1934.79 75.1932 1933.65 76.3719C1932.51 77.5507 1930.91 79.199 1928.83 81.3169Z" fill="black"/>
<path d="M1956.99 32H1946.33H1956.99Z" fill="black"/>
<path d="M1956.99 32H1946.33" stroke="black" stroke-width="6.66667"/>
<path d="M1956.99 652.772H1954.33H1956.99Z" fill="black"/>
<path d="M1956.99 652.772H1954.33" stroke="black" stroke-width="0.8"/>
<path d="M1956.99 639.126H1954.33H1956.99Z" fill="black"/>
<path d="M1956.99 639.126H1954.33" stroke="black" stroke-width="0.8"/>
<path d="M1956.99 627.588H1954.33H1956.99Z" fill="black"/>
<path d="M1956.99 627.588H1954.33" stroke="black" stroke-width="0.8"/>
<path d="M1956.99 617.594H1954.33H1956.99Z" fill="black"/>
<path d="M1956.99 617.594H1954.33" stroke="black" stroke-width="0.8"/>
<path d="M1956.99 608.779H1954.33H1956.99Z" fill="black"/>
<path d="M1956.99 608.779H1954.33" stroke="black" stroke-width="0.8"/>
<path d="M1956.99 549.014H1954.33H1956.99Z" fill="black"/>
<path d="M1956.99 549.014H1954.33" stroke="black" stroke-width="0.8"/>
<path d="M1956.99 518.667H1954.33H1956.99Z" fill="black"/>
<path d="M1956.99 518.667H1954.33" stroke="black" stroke-width="0.8"/>
<path d="M1956.99 497.135H1954.33H1956.99Z" fill="black"/>
<path d="M1956.99 497.135H1954.33" stroke="black" stroke-width="0.8"/>
<path d="M1956.99 480.434H1954.33H1956.99Z" fill="black"/>
<path d="M1956.99 480.434H1954.33" stroke="black" stroke-width="0.8"/>
<path d="M1956.99 466.788H1954.33H1956.99Z" fill="black"/>
<path d="M1956.99 466.788H1954.33" stroke="black" stroke-width="0.8"/>
<path d="M1956.99 455.25H1954.33H1956.99Z" fill="black"/>
<path d="M1956.99 455.25H1954.33" stroke="black" stroke-width="0.8"/>
<path d="M1956.99 445.256H1954.33H1956.99Z" fill="black"/>
<path d="M1956.99 445.256H1954.33" stroke="black" stroke-width="0.8"/>
<path d="M1956.99 436.441H1954.33H1956.99Z" fill="black"/>
<path d="M1956.99 436.441H1954.33" stroke="black" stroke-width="0.8"/>
<path d="M1956.99 376.676H1954.33H1956.99Z" fill="black"/>
<path d="M1956.99 376.676H1954.33" stroke="black" stroke-width="0.8"/>
<path d="M1956.99 346.329H1954.33H1956.99Z" fill="black"/>
<path d="M1956.99 346.329H1954.33" stroke="black" stroke-width="0.8"/>
<path d="M1956.99 324.797H1954.33H1956.99Z" fill="black"/>
<path d="M1956.99 324.797H1954.33" stroke="black" stroke-width="0.8"/>
<path d="M1956.99 308.096H1954.33H1956.99Z" fill="black"/>
<path d="M1956.99 308.096H1954.33" stroke="black" stroke-width="0.8"/>
<path d="M1956.99 294.45H1954.33H1956.99Z" fill="black"/>
<path d="M1956.99 294.45H1954.33" stroke="black" stroke-width="0.8"/>
<path d="M1956.99 282.912H1954.33H1956.99Z" fill="black"/>
<path d="M1956.99 282.912H1954.33" stroke="black" stroke-width="0.8"/>
<path d="M1956.99 272.918H1954.33H1956.99Z" fill="black"/>
<path d="M1956.99 272.918H1954.33" stroke="black" stroke-width="0.8"/>
<path d="M1956.99 264.103H1954.33H1956.99Z" fill="black"/>
<path d="M1956.99 264.103H1954.33" stroke="black" stroke-width="0.8"/>
<path d="M1956.99 204.338H1954.33H1956.99Z" fill="black"/>
<path d="M1956.99 204.338H1954.33" stroke="black" stroke-width="0.8"/>
<path d="M1956.99 173.991H1954.33H1956.99Z" fill="black"/>
<path d="M1956.99 173.991H1954.33" stroke="black" stroke-width="0.8"/>
<path d="M1956.99 152.459H1954.33H1956.99Z" fill="black"/>
<path d="M1956.99 152.459H1954.33" stroke="black" stroke-width="0.8"/>
<path d="M1956.99 122.112H1954.33H1956.99Z" fill="black"/>
<path d="M1956.99 122.112H1954.33" stroke="black" stroke-width="0.8"/>
<path d="M1956.99 110.574H1954.33H1956.99Z" fill="black"/>
<path d="M1956.99 110.574H1954.33" stroke="black" stroke-width="0.8"/>
<path d="M1956.99 100.58H1954.33H1956.99Z" fill="black"/>
<path d="M1956.99 100.58H1954.33" stroke="black" stroke-width="0.8"/>
<path d="M1956.99 91.7646H1954.33H1956.99Z" fill="black"/>
<path d="M1956.99 91.7646H1954.33" stroke="black" stroke-width="0.8"/>
<path d="M1830.15 425.139V402.115H1833.25V411.775H1857.37V415.473H1833.25V425.139H1830.15Z" fill="black"/>
<path d="M1836.95 399.872V396.518H1857.37V399.872H1836.95ZM1829 399.872V396.518H1833.25V399.872H1829Z" fill="black"/>
<path d="M1840.87 373.604C1839.36 372.764 1838.25 371.761 1837.53 370.594C1836.82 369.427 1836.46 368.055 1836.46 366.476C1836.46 364.348 1837.21 362.707 1838.69 361.552C1840.18 360.397 1842.3 359.82 1845.04 359.82H1857.37V363.192H1845.15C1843.2 363.192 1841.75 363.54 1840.8 364.236C1839.85 364.928 1839.38 365.984 1839.38 367.403C1839.38 369.142 1839.95 370.516 1841.11 371.527C1842.26 372.535 1843.83 373.038 1845.83 373.038H1857.37V376.41H1845.15C1843.18 376.41 1841.73 376.756 1840.79 377.448C1839.85 378.14 1839.38 379.21 1839.38 380.657C1839.38 382.372 1839.96 383.735 1841.12 384.746C1842.27 385.753 1843.85 386.257 1845.83 386.257H1857.37V389.628H1836.95V386.257H1840.12C1838.87 385.49 1837.95 384.573 1837.35 383.503C1836.76 382.434 1836.46 381.164 1836.46 379.694C1836.46 378.208 1836.84 376.947 1837.59 375.908C1838.34 374.87 1839.44 374.102 1840.87 373.604Z" fill="black"/>
<path d="M1846.32 335.668H1847.96V351.091C1850.27 350.943 1852.03 350.247 1853.24 349.003C1854.45 347.758 1855.05 346.024 1855.05 343.799C1855.05 342.512 1854.89 341.264 1854.58 340.054C1854.26 338.845 1853.79 337.643 1853.16 336.449H1856.33C1856.84 337.655 1857.23 338.89 1857.5 340.154C1857.76 341.417 1857.9 342.699 1857.9 343.998C1857.9 347.257 1856.95 349.837 1855.06 351.739C1853.16 353.64 1850.59 354.591 1847.36 354.591C1844.02 354.591 1841.37 353.689 1839.41 351.884C1837.44 350.08 1836.46 347.646 1836.46 344.581C1836.46 341.836 1837.35 339.664 1839.11 338.065C1840.88 336.467 1843.28 335.668 1846.32 335.668ZM1845.33 339.022C1843.5 339.045 1842.04 339.559 1840.95 340.562C1839.85 341.565 1839.3 342.893 1839.3 344.546C1839.3 346.417 1839.83 347.914 1840.89 349.038C1841.95 350.162 1843.44 350.809 1845.36 350.98L1845.33 339.022Z" fill="black"/>
<path d="M1829.04 310.241C1831.83 311.867 1834.6 313.076 1837.34 313.869C1840.07 314.659 1842.84 315.053 1845.65 315.053C1848.45 315.053 1851.23 314.655 1853.98 313.858C1856.74 313.06 1859.51 311.855 1862.29 310.241V313.158C1859.43 314.978 1856.62 316.341 1853.87 317.247C1851.11 318.153 1848.37 318.606 1845.65 318.606C1842.94 318.606 1840.21 318.157 1837.46 317.258C1834.71 316.356 1831.91 314.989 1829.04 313.158V310.241Z" fill="black"/>
<path d="M1837.55 290.718H1840.72C1840.24 291.663 1839.88 292.646 1839.63 293.669C1839.39 294.688 1839.27 295.746 1839.27 296.843C1839.27 298.507 1839.52 299.755 1840.03 300.588C1840.54 301.42 1841.31 301.836 1842.33 301.836C1843.11 301.836 1843.72 301.538 1844.16 300.943C1844.6 300.348 1845.03 299.151 1845.43 297.35L1845.68 296.201C1846.19 293.821 1846.91 292.129 1847.84 291.126C1848.77 290.123 1850.07 289.621 1851.73 289.621C1853.63 289.621 1855.13 290.371 1856.24 291.873C1857.35 293.374 1857.9 295.437 1857.9 298.062C1857.9 299.155 1857.79 300.294 1857.58 301.48C1857.36 302.666 1857.04 303.915 1856.62 305.225H1853.16C1853.8 303.985 1854.29 302.763 1854.61 301.562C1854.93 300.36 1855.09 299.168 1855.09 297.986C1855.09 296.407 1854.82 295.194 1854.28 294.346C1853.74 293.494 1852.97 293.068 1851.99 293.068C1851.08 293.068 1850.38 293.376 1849.89 293.99C1849.41 294.601 1848.94 295.946 1848.49 298.027L1848.21 299.193C1847.78 301.27 1847.11 302.771 1846.2 303.697C1845.3 304.618 1844.05 305.079 1842.47 305.079C1840.55 305.079 1839.07 304.399 1838.03 303.038C1836.98 301.676 1836.46 299.744 1836.46 297.239C1836.46 296.003 1836.55 294.838 1836.73 293.745C1836.91 292.648 1837.19 291.639 1837.55 290.718Z" fill="black"/>
<path d="M1829.04 284.806V281.889C1831.91 280.069 1834.71 278.706 1837.46 277.8C1840.21 276.894 1842.94 276.441 1845.65 276.441C1848.37 276.441 1851.11 276.894 1853.87 277.8C1856.62 278.706 1859.43 280.069 1862.29 281.889V284.806C1859.51 283.192 1856.74 281.987 1853.98 281.189C1851.23 280.392 1848.45 279.994 1845.65 279.994C1842.84 279.994 1840.07 280.392 1837.34 281.189C1834.6 281.987 1831.83 283.192 1829.04 284.806Z" fill="black"/>
<mask id="mask26_130_19" style="mask-type:luminance" maskUnits="userSpaceOnUse" x="1956" y="32" width="761" height="635">
<path d="M2716.07 32H1956.99V666.267H2716.07V32Z" fill="white"/>
</mask>
<g mask="url(#mask26_130_19)">
<path d="M1956.99 512.459L2041.34 483.967L2125.68 541.156L2210.02 553.054L2294.36 579.521L2378.7 550.118L2463.05 549.844L2547.39 543.48L2631.73 527.807L2716.07 524.355" stroke="#D62728" stroke-width="10" stroke-linecap="square"/>
</g>
<mask id="mask27_130_19" style="mask-type:luminance" maskUnits="userSpaceOnUse" x="1956" y="32" width="761" height="635">
<path d="M2716.07 32H1956.99V666.267H2716.07V32Z" fill="white"/>
</mask>
<g mask="url(#mask27_130_19)">
<path d="M1956.99 496.049L2041.34 495.202L2125.68 495.978L2210.02 490.655L2294.36 494.598L2378.7 498.986L2463.05 505.237L2547.39 507.88L2631.73 501.776L2716.07 506.278" stroke="#2CA02C" stroke-width="10" stroke-linecap="square"/>
</g>
<mask id="mask28_130_19" style="mask-type:luminance" maskUnits="userSpaceOnUse" x="1956" y="32" width="761" height="635">
<path d="M2716.07 32H1956.99V666.267H2716.07V32Z" fill="white"/>
</mask>
<g mask="url(#mask28_130_19)">
<path d="M1956.99 116.219L2041.34 120.839L2125.68 128.081L2210.02 129.295L2294.36 130.924L2378.7 131.701L2463.05 151.008L2547.39 150.394L2631.73 149.056L2716.07 148.652" stroke="#9467BD" stroke-width="10" stroke-linecap="square"/>
</g>
<mask id="mask29_130_19" style="mask-type:luminance" maskUnits="userSpaceOnUse" x="1956" y="32" width="761" height="635">
<path d="M2716.07 32H1956.99V666.267H2716.07V32Z" fill="white"/>
</mask>
<g mask="url(#mask29_130_19)">
<path d="M1956.99 331.118L2041.34 326.209L2125.68 308.326L2210.02 306.336L2294.36 309.222L2378.7 307.315L2463.05 309.862L2547.39 305.593L2631.73 310.277L2716.07 314.796" stroke="#1F77B4" stroke-width="10" stroke-linecap="square"/>
</g>
<mask id="mask30_130_19" style="mask-type:luminance" maskUnits="userSpaceOnUse" x="1956" y="32" width="761" height="635">
<path d="M2716.07 32H1956.99V666.267H2716.07V32Z" fill="white"/>
</mask>
<g mask="url(#mask30_130_19)">
<path d="M1956.99 334.411L2041.34 354.933L2125.68 364.781L2210.02 354.814L2294.36 350.732L2378.7 346.982L2463.05 348.965L2547.39 345.519L2631.73 347.064L2716.07 340.684" stroke="#FF7F0E" stroke-width="10" stroke-linecap="square"/>
</g>
<path d="M1956.99 666.267V32" stroke="black" stroke-width="6.66667" stroke-linecap="square"/>
<path d="M1956.99 666.267H2716.07" stroke="black" stroke-width="6.66667" stroke-linecap="square"/>
</g>
<path d="M639 842.642H676.333H713.667" stroke="#1F77B4" stroke-width="10" stroke-linecap="square"/>
<path d="M743.907 822.55H748.839V854.85H766.588V859H743.907V822.55ZM784.776 825.895C781.196 825.895 778.347 827.229 776.231 829.898C774.132 832.568 773.082 836.205 773.082 840.812C773.082 845.401 774.132 849.031 776.231 851.7C778.347 854.369 781.196 855.704 784.776 855.704C788.357 855.704 791.189 854.369 793.272 851.7C795.372 849.031 796.422 845.401 796.422 840.812C796.422 836.205 795.372 832.568 793.272 829.898C791.189 827.229 788.357 825.895 784.776 825.895ZM784.776 821.891C789.887 821.891 793.972 823.608 797.032 827.042C800.092 830.46 801.622 835.05 801.622 840.812C801.622 846.557 800.092 851.147 797.032 854.581C793.972 857.999 789.887 859.708 784.776 859.708C779.649 859.708 775.548 857.999 772.472 854.581C769.412 851.163 767.882 846.573 767.882 840.812C767.882 835.05 769.412 830.46 772.472 827.042C775.548 823.608 779.649 821.891 784.776 821.891ZM826.622 841.91C827.68 842.268 828.705 843.033 829.698 844.205C830.707 845.377 831.716 846.988 832.726 849.039L837.73 859H832.433L827.77 849.649C826.565 847.208 825.393 845.589 824.254 844.791C823.131 843.993 821.593 843.595 819.64 843.595H814.269V859H809.337V822.55H820.47C824.636 822.55 827.745 823.421 829.796 825.162C831.847 826.904 832.872 829.532 832.872 833.048C832.872 835.343 832.335 837.247 831.261 838.761C830.203 840.274 828.657 841.324 826.622 841.91ZM814.269 826.603V839.542H820.47C822.846 839.542 824.636 838.997 825.841 837.906C827.062 836.799 827.672 835.18 827.672 833.048C827.672 830.916 827.062 829.312 825.841 828.238C824.636 827.148 822.846 826.603 820.47 826.603H814.269ZM844.103 822.55H867.149V826.7H849.034V837.491H866.393V841.642H849.034V854.85H867.589V859H844.103V822.55ZM902.208 821.061C900.027 824.804 898.408 828.507 897.35 832.169C896.292 835.831 895.763 839.542 895.763 843.302C895.763 847.062 896.292 850.789 897.35 854.483C898.424 858.162 900.043 861.865 902.208 865.592H898.302C895.86 861.767 894.029 858.007 892.809 854.312C891.604 850.618 891.002 846.948 891.002 843.302C891.002 839.672 891.604 836.018 892.809 832.34C894.013 828.661 895.844 824.902 898.302 821.061H902.208ZM921.544 834.806C919.135 834.806 917.231 835.75 915.831 837.638C914.431 839.509 913.731 842.081 913.731 845.353C913.731 848.624 914.423 851.204 915.807 853.092C917.206 854.964 919.119 855.899 921.544 855.899C923.937 855.899 925.833 854.955 927.232 853.067C928.632 851.179 929.332 848.608 929.332 845.353C929.332 842.114 928.632 839.55 927.232 837.662C925.833 835.758 923.937 834.806 921.544 834.806ZM921.544 830.997C925.45 830.997 928.518 832.267 930.748 834.806C932.978 837.345 934.093 840.86 934.093 845.353C934.093 849.828 932.978 853.344 930.748 855.899C928.518 858.438 925.45 859.708 921.544 859.708C917.621 859.708 914.545 858.438 912.315 855.899C910.102 853.344 908.995 849.828 908.995 845.353C908.995 840.86 910.102 837.345 912.315 834.806C914.545 832.267 917.621 830.997 921.544 830.997ZM941.1 848.209V831.656H945.592V848.038C945.592 850.626 946.096 852.571 947.105 853.873C948.115 855.159 949.628 855.802 951.646 855.802C954.072 855.802 955.984 855.029 957.384 853.482C958.8 851.936 959.508 849.828 959.508 847.159V831.656H964V859H959.508V854.801C958.417 856.461 957.148 857.698 955.699 858.512C954.267 859.309 952.599 859.708 950.694 859.708C947.553 859.708 945.169 858.731 943.541 856.778C941.913 854.825 941.1 851.969 941.1 848.209ZM989.098 835.855C988.593 835.562 988.04 835.351 987.438 835.221C986.852 835.074 986.201 835.001 985.484 835.001C982.945 835.001 980.992 835.831 979.625 837.491C978.274 839.135 977.599 841.503 977.599 844.596V859H973.082V831.656H977.599V835.904C978.543 834.244 979.771 833.015 981.285 832.218C982.799 831.404 984.638 830.997 986.803 830.997C987.112 830.997 987.454 831.021 987.828 831.07C988.202 831.103 988.618 831.16 989.073 831.241L989.098 835.855ZM1011.24 832.462V836.71C1009.97 836.059 1008.65 835.571 1007.29 835.245C1005.92 834.92 1004.5 834.757 1003.04 834.757C1000.81 834.757 999.132 835.099 998.009 835.782C996.902 836.466 996.349 837.491 996.349 838.858C996.349 839.9 996.747 840.722 997.545 841.324C998.342 841.91 999.946 842.472 1002.35 843.009L1003.89 843.351C1007.08 844.034 1009.35 845.003 1010.68 846.256C1012.03 847.493 1012.71 849.226 1012.71 851.456C1012.71 853.995 1011.7 856.005 1009.68 857.486C1007.68 858.967 1004.92 859.708 1001.4 859.708C999.938 859.708 998.408 859.562 996.812 859.269C995.234 858.992 993.565 858.569 991.808 857.999V853.36C993.468 854.223 995.104 854.874 996.715 855.313C998.326 855.737 999.921 855.948 1001.5 855.948C1003.62 855.948 1005.24 855.59 1006.38 854.874C1007.52 854.142 1008.09 853.116 1008.09 851.798C1008.09 850.577 1007.68 849.641 1006.85 848.99C1006.03 848.339 1004.23 847.713 1001.45 847.11L999.889 846.744C997.105 846.158 995.095 845.263 993.858 844.059C992.621 842.838 992.003 841.17 992.003 839.054C992.003 836.482 992.914 834.496 994.737 833.097C996.56 831.697 999.148 830.997 1002.5 830.997C1004.16 830.997 1005.72 831.119 1007.19 831.363C1008.65 831.607 1010 831.974 1011.24 832.462ZM1019.18 821.061H1023.08C1025.52 824.902 1027.35 828.661 1028.55 832.34C1029.77 836.018 1030.38 839.672 1030.38 843.302C1030.38 846.948 1029.77 850.618 1028.55 854.312C1027.35 858.007 1025.52 861.767 1023.08 865.592H1019.18C1021.34 861.865 1022.95 858.162 1024.01 854.483C1025.08 850.789 1025.62 847.062 1025.62 843.302C1025.62 839.542 1025.08 835.831 1024.01 832.169C1022.95 828.507 1021.34 824.804 1019.18 821.061Z" fill="black"/>
<path d="M1876 843H1913.33H1950.67" stroke="#9467BD" stroke-width="10" stroke-linecap="square"/>
<path d="M1985.84 826.603V854.947H1991.8C1996.83 854.947 2000.5 853.808 2002.83 851.529C2005.17 849.251 2006.35 845.654 2006.35 840.738C2006.35 835.855 2005.17 832.283 2002.83 830.021C2000.5 827.742 1996.83 826.603 1991.8 826.603H1985.84ZM1980.91 822.55H1991.04C1998.1 822.55 2003.29 824.023 2006.59 826.969C2009.89 829.898 2011.55 834.488 2011.55 840.738C2011.55 847.021 2009.89 851.635 2006.57 854.581C2003.25 857.527 1998.07 859 1991.04 859H1980.91V822.55ZM2019.24 831.656H2023.73V859H2019.24V831.656ZM2019.24 821.012H2023.73V826.7H2019.24V821.012ZM2054.44 836.905C2055.57 834.887 2056.91 833.398 2058.47 832.438C2060.03 831.477 2061.87 830.997 2063.99 830.997C2066.84 830.997 2069.03 831.998 2070.58 834C2072.13 835.986 2072.9 838.818 2072.9 842.496V859H2068.38V842.643C2068.38 840.022 2067.92 838.077 2066.99 836.808C2066.06 835.538 2064.65 834.903 2062.74 834.903C2060.42 834.903 2058.58 835.676 2057.23 837.223C2055.87 838.769 2055.2 840.877 2055.2 843.546V859H2050.68V842.643C2050.68 840.006 2050.22 838.061 2049.29 836.808C2048.36 835.538 2046.93 834.903 2044.99 834.903C2042.7 834.903 2040.88 835.685 2039.53 837.247C2038.17 838.793 2037.5 840.893 2037.5 843.546V859H2032.98V831.656H2037.5V835.904C2038.52 834.228 2039.75 832.991 2041.19 832.193C2042.62 831.396 2044.32 830.997 2046.29 830.997C2048.27 830.997 2049.96 831.502 2051.34 832.511C2052.74 833.52 2053.78 834.985 2054.44 836.905ZM2079.61 843.302H2092.77V847.306H2079.61V843.302ZM2127.44 825.357V830.558C2125.78 829.011 2124.01 827.856 2122.12 827.091C2120.25 826.326 2118.25 825.943 2116.14 825.943C2111.97 825.943 2108.78 827.221 2106.57 829.776C2104.35 832.315 2103.25 835.994 2103.25 840.812C2103.25 845.613 2104.35 849.291 2106.57 851.847C2108.78 854.386 2111.97 855.655 2116.14 855.655C2118.25 855.655 2120.25 855.273 2122.12 854.508C2124.01 853.743 2125.78 852.587 2127.44 851.041V856.192C2125.72 857.364 2123.88 858.243 2121.95 858.829C2120.03 859.415 2117.99 859.708 2115.84 859.708C2110.33 859.708 2105.98 858.023 2102.81 854.654C2099.63 851.269 2098.05 846.655 2098.05 840.812C2098.05 834.952 2099.63 830.338 2102.81 826.969C2105.98 823.583 2110.33 821.891 2115.84 821.891C2118.02 821.891 2120.08 822.184 2122 822.77C2123.93 823.339 2125.75 824.202 2127.44 825.357ZM2144.46 859L2130.54 822.55H2135.69L2147.24 853.238L2158.81 822.55H2163.94L2150.05 859H2144.46Z" fill="black"/>
<path d="M1633 843H1670.33H1707.67" stroke="#D62728" stroke-width="10" stroke-linecap="square"/>
<path d="M1765.2 825.357V830.558C1763.54 829.011 1761.77 827.856 1759.88 827.091C1758.01 826.326 1756.01 825.943 1753.9 825.943C1749.73 825.943 1746.54 827.221 1744.33 829.776C1742.11 832.315 1741.01 835.994 1741.01 840.812C1741.01 845.613 1742.11 849.291 1744.33 851.847C1746.54 854.386 1749.73 855.655 1753.9 855.655C1756.01 855.655 1758.01 855.273 1759.88 854.508C1761.77 853.743 1763.54 852.587 1765.2 851.041V856.192C1763.48 857.364 1761.65 858.243 1759.71 858.829C1757.79 859.415 1755.75 859.708 1753.61 859.708C1748.09 859.708 1743.74 858.023 1740.57 854.654C1737.39 851.269 1735.81 846.655 1735.81 840.812C1735.81 834.952 1737.39 830.338 1740.57 826.969C1743.74 823.583 1748.09 821.891 1753.61 821.891C1755.79 821.891 1757.84 822.184 1759.76 822.77C1761.69 823.339 1763.51 824.202 1765.2 825.357ZM1772.82 822.55H1777.75V837.955L1794.11 822.55H1800.46L1782.37 839.542L1801.75 859H1795.26L1777.75 841.446V859H1772.82V822.55ZM1805.63 822.55H1810.56V854.85H1828.31V859H1805.63V822.55Z" fill="black"/>
<path d="M1315 843H1352.33H1389.67" stroke="#2CA02C" stroke-width="10" stroke-linecap="square"/>
<path d="M1419.91 822.55H1440.85V826.7H1424.84V837.442H1439.29V841.593H1424.84V859H1419.91V822.55ZM1463.46 825.895C1459.88 825.895 1457.03 827.229 1454.92 829.898C1452.82 832.568 1451.77 836.205 1451.77 840.812C1451.77 845.401 1452.82 849.031 1454.92 851.7C1457.03 854.369 1459.88 855.704 1463.46 855.704C1467.04 855.704 1469.87 854.369 1471.96 851.7C1474.06 849.031 1475.11 845.401 1475.11 840.812C1475.11 836.205 1474.06 832.568 1471.96 829.898C1469.87 827.229 1467.04 825.895 1463.46 825.895ZM1463.46 821.891C1468.57 821.891 1472.66 823.608 1475.72 827.042C1478.78 830.46 1480.31 835.05 1480.31 840.812C1480.31 846.557 1478.78 851.147 1475.72 854.581C1472.66 857.999 1468.57 859.708 1463.46 859.708C1458.33 859.708 1454.23 857.999 1451.16 854.581C1448.1 851.163 1446.57 846.573 1446.57 840.812C1446.57 835.05 1448.1 830.46 1451.16 827.042C1454.23 823.608 1458.33 821.891 1463.46 821.891ZM1505.31 841.91C1506.37 842.268 1507.39 843.033 1508.38 844.205C1509.39 845.377 1510.4 846.988 1511.41 849.039L1516.42 859H1511.12L1506.46 849.649C1505.25 847.208 1504.08 845.589 1502.94 844.791C1501.82 843.993 1500.28 843.595 1498.33 843.595H1492.95V859H1488.02V822.55H1499.16C1503.32 822.55 1506.43 823.421 1508.48 825.162C1510.53 826.904 1511.56 829.532 1511.56 833.048C1511.56 835.343 1511.02 837.247 1509.95 838.761C1508.89 840.274 1507.34 841.324 1505.31 841.91ZM1492.95 826.603V839.542H1499.16C1501.53 839.542 1503.32 838.997 1504.53 837.906C1505.75 836.799 1506.36 835.18 1506.36 833.048C1506.36 830.916 1505.75 829.312 1504.53 828.238C1503.32 827.148 1501.53 826.603 1499.16 826.603H1492.95ZM1514.07 822.55H1544.91V826.7H1531.97V859H1527.01V826.7H1514.07V822.55ZM1549.69 822.55H1572.74V826.7H1554.62V837.491H1571.98V841.642H1554.62V854.85H1573.18V859H1549.69V822.55Z" fill="black"/>
<path d="M1072 843H1109.33H1146.67" stroke="#FF7F0E" stroke-width="10" stroke-linecap="square"/>
<path d="M1198.76 823.746V828.556C1196.89 827.66 1195.12 826.993 1193.46 826.554C1191.8 826.114 1190.2 825.895 1188.65 825.895C1185.96 825.895 1183.89 826.415 1182.42 827.457C1180.98 828.499 1180.25 829.98 1180.25 831.9C1180.25 833.512 1180.73 834.732 1181.69 835.562C1182.67 836.376 1184.51 837.035 1187.21 837.54L1190.19 838.15C1193.87 838.85 1196.58 840.087 1198.32 841.861C1200.08 843.619 1200.96 845.979 1200.96 848.941C1200.96 852.473 1199.77 855.151 1197.39 856.974C1195.03 858.797 1191.56 859.708 1186.99 859.708C1185.26 859.708 1183.43 859.513 1181.47 859.122C1179.54 858.731 1177.53 858.154 1175.44 857.389V852.311C1177.44 853.434 1179.41 854.28 1181.33 854.85C1183.25 855.419 1185.13 855.704 1186.99 855.704C1189.81 855.704 1191.98 855.151 1193.51 854.044C1195.04 852.937 1195.8 851.358 1195.8 849.308C1195.8 847.517 1195.25 846.118 1194.14 845.108C1193.05 844.099 1191.25 843.342 1188.75 842.838L1185.75 842.252C1182.07 841.52 1179.41 840.372 1177.76 838.81C1176.12 837.247 1175.3 835.074 1175.3 832.291C1175.3 829.068 1176.43 826.529 1178.69 824.674C1180.97 822.818 1184.1 821.891 1188.09 821.891C1189.8 821.891 1191.54 822.045 1193.31 822.354C1195.09 822.664 1196.9 823.128 1198.76 823.746ZM1223.44 825.895C1219.86 825.895 1217.01 827.229 1214.9 829.898C1212.8 832.568 1211.75 836.205 1211.75 840.812C1211.75 845.401 1212.8 849.031 1214.9 851.7C1217.01 854.369 1219.86 855.704 1223.44 855.704C1227.02 855.704 1229.85 854.369 1231.94 851.7C1234.04 849.031 1235.09 845.401 1235.09 840.812C1235.09 836.205 1234.04 832.568 1231.94 829.898C1229.85 827.229 1227.02 825.895 1223.44 825.895ZM1223.44 821.891C1228.55 821.891 1232.64 823.608 1235.7 827.042C1238.76 830.46 1240.29 835.05 1240.29 840.812C1240.29 846.557 1238.76 851.147 1235.7 854.581C1232.64 857.999 1228.55 859.708 1223.44 859.708C1218.31 859.708 1214.21 857.999 1211.14 854.581C1208.08 851.163 1206.55 846.573 1206.55 840.812C1206.55 835.05 1208.08 830.46 1211.14 827.042C1214.21 823.608 1218.31 821.891 1223.44 821.891ZM1248 822.55H1271.05V826.7H1252.93V837.491H1270.29V841.642H1252.93V854.85H1271.49V859H1248V822.55Z" fill="black"/>
<defs>
<clipPath id="clip0_130_19">
<rect width="932.827" height="737.863" fill="white" transform="translate(910 32)"/>
</clipPath>
<clipPath id="clip1_130_19">
<rect width="932.827" height="737.863" fill="white" transform="translate(1818 32)"/>
</clipPath>
</defs>
</svg>
