<svg width="2732" height="841" viewBox="0 0 2732 841" fill="none" xmlns="http://www.w3.org/2000/svg">
<mask id="mask0_130_18" style="mask-type:luminance" maskUnits="userSpaceOnUse" x="149" y="14" width="761" height="621">
<path d="M909.074 14.1838H149.994V634.051H909.074V14.1838Z" fill="white"/>
</mask>
<g mask="url(#mask0_130_18)">
<path d="M149.994 119.627V176.441L234.336 114.862L318.678 133.195L403.02 179.653L487.363 203.033L571.705 255.063L656.047 279.493L740.389 278.613L824.731 281.792L909.074 280.485V224.491L824.731 216.38L740.389 215.674L656.047 208.733L571.705 184.015L487.363 140.888L403.02 121.896L318.678 85.1277L234.336 74.7258L149.994 119.627Z" fill="#D62728" fill-opacity="0.08" stroke="#D62728" stroke-opacity="0.08" stroke-width="1.33333"/>
</g>
<mask id="mask1_130_18" style="mask-type:luminance" maskUnits="userSpaceOnUse" x="149" y="14" width="761" height="621">
<path d="M909.074 14.1838H149.994V634.051H909.074V14.1838Z" fill="white"/>
</mask>
<g mask="url(#mask1_130_18)">
<path d="M149.994 333.731V424.069L234.336 291.557L318.678 291.505L403.02 308.147L487.363 311.795L571.705 320.737L656.047 328.274L740.389 316.856L824.731 325.628L909.074 318.14V242.322L824.731 242.767L740.389 252.889L656.047 256.183L571.705 260.607L487.363 238.776L403.02 225.536L318.678 227.687L234.336 234.109L149.994 333.731Z" fill="#2CA02C" fill-opacity="0.08" stroke="#2CA02C" stroke-opacity="0.08" stroke-width="1.33333"/>
</g>
<mask id="mask2_130_18" style="mask-type:luminance" maskUnits="userSpaceOnUse" x="149" y="14" width="761" height="621">
<path d="M909.074 14.1838H149.994V634.051H909.074V14.1838Z" fill="white"/>
</mask>
<g mask="url(#mask2_130_18)">
<path d="M149.994 70.7471V135.536L234.336 164.808L318.678 107.036L403.02 379.873L487.363 446.6L571.705 497.962L656.047 491.529L740.389 503.989L824.731 473.856L909.074 478.828V234.121L824.731 268.433L740.389 225.296L656.047 199.462L571.705 137.132L487.363 33.7472L403.02 -55.016L318.678 74.5073L234.336 54.7546L149.994 70.7471Z" fill="#9467BD" fill-opacity="0.08" stroke="#9467BD" stroke-opacity="0.08" stroke-width="1.33333"/>
</g>
<mask id="mask3_130_18" style="mask-type:luminance" maskUnits="userSpaceOnUse" x="149" y="14" width="761" height="621">
<path d="M909.074 14.1838H149.994V634.051H909.074V14.1838Z" fill="white"/>
</mask>
<g mask="url(#mask3_130_18)">
<path d="M149.994 144.174V222.448L234.336 87.2945L318.678 92.1288L403.02 106.289L487.363 128.949L571.705 145.526L656.047 163.814L740.389 174.464L824.731 191.832L909.074 208.463V157.195L824.731 139.388L740.389 122.761L656.047 114.787L571.705 108.859L487.363 87.1695L403.02 78.2302L318.678 61.0661L234.336 58.3794L149.994 144.174Z" fill="#1F77B4" fill-opacity="0.08" stroke="#1F77B4" stroke-opacity="0.08" stroke-width="1.33333"/>
</g>
<mask id="mask4_130_18" style="mask-type:luminance" maskUnits="userSpaceOnUse" x="149" y="14" width="761" height="621">
<path d="M909.074 14.1838H149.994V634.051H909.074V14.1838Z" fill="white"/>
</mask>
<g mask="url(#mask4_130_18)">
<path d="M149.994 297.297V380.801L234.336 264.317L318.678 249.635L403.02 256.13L487.363 264.306L571.705 290.849L656.047 292.272L740.389 296.421L824.731 286.375L909.074 297.804V229.212L824.731 231.908L740.389 220.401L656.047 225.184L571.705 210.903L487.363 212.349L403.02 205.153L318.678 190.489L234.336 193.081L149.994 297.297Z" fill="#FF7F0E" fill-opacity="0.08" stroke="#FF7F0E" stroke-opacity="0.08" stroke-width="1.33333"/>
</g>
<path d="M149.994 634.05V644.717V634.05Z" fill="black"/>
<path d="M149.994 634.05V644.717" stroke="black" stroke-width="6.66667"/>
<path d="M142.749 674.653H148.763V653.887L142.218 655.199V651.845L148.728 650.533H152.409V674.653H158.423V677.751H142.749V674.653Z" fill="black"/>
<path d="M487.363 634.05V644.717V634.05Z" fill="black"/>
<path d="M487.363 634.05V644.717" stroke="black" stroke-width="6.66667"/>
<path d="M479.517 650.533H493.972V653.636H482.888V660.304C483.421 660.121 483.954 659.985 484.487 659.895C485.023 659.806 485.56 659.761 486.097 659.761C489.134 659.761 491.539 660.593 493.313 662.258C495.09 663.922 495.978 666.176 495.978 669.019C495.978 671.947 495.066 674.224 493.243 675.849C491.419 677.471 488.848 678.282 485.531 678.282C484.388 678.282 483.223 678.185 482.037 677.99C480.854 677.796 479.631 677.504 478.368 677.115V673.411C479.46 674.006 480.59 674.449 481.757 674.741C482.923 675.033 484.156 675.179 485.455 675.179C487.559 675.179 489.223 674.626 490.448 673.522C491.677 672.418 492.292 670.916 492.292 669.019C492.292 667.125 491.677 665.626 490.448 664.521C489.223 663.413 487.559 662.859 485.455 662.859C484.471 662.859 483.489 662.968 482.509 663.185C481.533 663.403 480.536 663.743 479.517 664.206V650.533Z" fill="black"/>
<path d="M909.074 634.05V644.717V634.05Z" fill="black"/>
<path d="M909.074 634.05V644.717" stroke="black" stroke-width="6.66667"/>
<path d="M889.952 674.654H895.966V653.887L889.421 655.2V651.845L895.931 650.533H899.612V674.654H905.626V677.751H889.952V674.654Z" fill="black"/>
<path d="M920.938 652.959C919.044 652.959 917.619 653.893 916.662 655.759C915.709 657.622 915.233 660.426 915.233 664.171C915.233 667.901 915.709 670.699 916.662 672.565C917.619 674.432 919.044 675.365 920.938 675.365C922.847 675.365 924.278 674.432 925.231 672.565C926.188 670.699 926.666 667.901 926.666 664.171C926.666 660.426 926.188 657.622 925.231 655.759C924.278 653.893 922.847 652.959 920.938 652.959ZM920.938 650.043C923.991 650.043 926.322 651.25 927.932 653.665C929.542 656.076 930.347 659.578 930.347 664.171C930.347 668.752 929.542 672.25 927.932 674.665C926.322 677.076 923.991 678.282 920.938 678.282C917.889 678.282 915.56 677.076 913.95 674.665C912.34 672.25 911.535 668.752 911.535 664.171C911.535 659.578 912.34 656.076 913.95 653.665C915.56 651.25 917.889 650.043 920.938 650.043Z" fill="black"/>
<path d="M406.118 702.665H409.799V729.883H406.118V702.665Z" fill="black"/>
<path d="M433.957 717.557V729.883H430.603V717.668C430.603 715.735 430.226 714.291 429.472 713.334C428.717 712.373 427.587 711.893 426.082 711.893C424.27 711.893 422.841 712.471 421.795 713.626C420.749 714.777 420.226 716.35 420.226 718.345V729.883H416.854V709.466H420.226V712.64C421.031 711.411 421.976 710.493 423.061 709.886C424.15 709.28 425.406 708.976 426.829 708.976C429.174 708.976 430.947 709.702 432.149 711.152C433.355 712.603 433.957 714.738 433.957 717.557Z" fill="black"/>
<path d="M443.963 703.668V709.466H450.87V712.074H443.963V723.157C443.963 724.822 444.191 725.891 444.646 726.366C445.101 726.84 446.028 727.077 447.428 727.077H450.87V729.883H447.428C444.838 729.883 443.051 729.401 442.067 728.436C441.083 727.468 440.591 725.708 440.591 723.157V712.074H438.13V709.466H440.591V703.668H443.963Z" fill="black"/>
<path d="M467.112 712.599C466.735 712.381 466.324 712.222 465.881 712.121C465.438 712.016 464.95 711.963 464.417 711.963C462.519 711.963 461.063 712.579 460.048 713.812C459.033 715.045 458.525 716.816 458.525 719.126V729.883H455.154V709.466H458.525V712.64C459.233 711.399 460.151 710.479 461.279 709.881C462.41 709.278 463.785 708.976 465.403 708.976C465.632 708.976 465.887 708.992 466.167 709.023C466.447 709.05 466.756 709.095 467.094 709.157L467.112 712.599Z" fill="black"/>
<path d="M470.631 709.466H473.985V729.883H470.631V709.466ZM470.631 701.516H473.985V705.768H470.631V701.516Z" fill="black"/>
<path d="M497.978 717.557V729.883H494.624V717.668C494.624 715.735 494.247 714.291 493.492 713.334C492.738 712.373 491.608 711.893 490.103 711.893C488.291 711.893 486.862 712.471 485.816 713.626C484.77 714.777 484.247 716.35 484.247 718.345V729.883H480.875V709.466H484.247V712.64C485.052 711.411 485.997 710.493 487.082 709.886C488.171 709.28 489.427 708.976 490.85 708.976C493.195 708.976 494.968 709.702 496.17 711.152C497.376 712.603 497.978 714.738 497.978 717.557Z" fill="black"/>
<path d="M517.679 710.067V713.24C516.734 712.754 515.75 712.391 514.727 712.15C513.708 711.905 512.651 711.782 511.554 711.782C509.889 711.782 508.641 712.037 507.809 712.546C506.977 713.056 506.561 713.822 506.561 714.845C506.561 715.622 506.858 716.233 507.453 716.676C508.048 717.12 509.246 717.542 511.046 717.942L512.196 718.199C514.576 718.708 516.267 719.428 517.271 720.357C518.274 721.287 518.776 722.584 518.776 724.248C518.776 726.146 518.025 727.649 516.524 728.757C515.023 729.862 512.96 730.414 510.335 730.414C509.242 730.414 508.103 730.307 506.916 730.093C505.73 729.879 504.482 729.56 503.171 729.136V725.671C504.412 726.317 505.633 726.801 506.835 727.124C508.036 727.443 509.228 727.602 510.411 727.602C511.989 727.602 513.203 727.332 514.051 726.791C514.902 726.251 515.328 725.489 515.328 724.505C515.328 723.595 515.021 722.897 514.406 722.41C513.796 721.924 512.45 721.456 510.37 721.005L509.203 720.73C507.126 720.295 505.625 719.624 504.7 718.718C503.778 717.812 503.317 716.569 503.317 714.99C503.317 713.069 503.998 711.588 505.359 710.545C506.72 709.499 508.653 708.976 511.157 708.976C512.394 708.976 513.559 709.068 514.651 709.25C515.748 709.429 516.757 709.702 517.679 710.067Z" fill="black"/>
<path d="M524.115 709.466H527.469V729.883H524.115V709.466ZM524.115 701.516H527.469V705.768H524.115V701.516Z" fill="black"/>
<path d="M549.182 710.248V713.386C548.233 712.861 547.282 712.469 546.329 712.208C545.377 711.947 544.414 711.817 543.442 711.817C541.264 711.817 539.572 712.507 538.367 713.888C537.165 715.265 536.564 717.199 536.564 719.692C536.564 722.185 537.165 724.122 538.367 725.502C539.572 726.879 541.264 727.567 543.442 727.567C544.414 727.567 545.377 727.437 546.329 727.176C547.282 726.916 548.233 726.523 549.182 725.998V729.101C548.245 729.537 547.274 729.864 546.271 730.081C545.272 730.303 544.206 730.414 543.074 730.414C539.998 730.414 537.554 729.447 535.742 727.515C533.933 725.582 533.029 722.974 533.029 719.692C533.029 716.363 533.943 713.746 535.771 711.84C537.603 709.931 540.111 708.976 543.296 708.976C544.327 708.976 545.334 709.083 546.318 709.297C547.302 709.507 548.256 709.824 549.182 710.248Z" fill="black"/>
<path d="M579.936 717.12C580.725 717.388 581.493 717.96 582.24 718.835C582.987 719.71 583.737 720.913 584.492 722.446L588.231 729.883H584.27L580.793 722.901C579.891 721.077 579.018 719.867 578.174 719.272C577.33 718.677 576.179 718.38 574.721 718.38H570.708V729.883H567.027V702.665H575.339C578.45 702.665 580.772 703.316 582.304 704.619C583.836 705.918 584.603 707.88 584.603 710.505C584.603 712.22 584.204 713.643 583.407 714.775C582.61 715.903 581.453 716.684 579.936 717.12ZM570.708 705.692V715.352H575.339C577.113 715.352 578.452 714.942 579.358 714.121C580.265 713.301 580.718 712.095 580.718 710.505C580.718 708.914 580.265 707.714 579.358 706.906C578.452 706.097 577.113 705.692 575.339 705.692H570.708Z" fill="black"/>
<path d="M601.262 719.622C598.551 719.622 596.673 719.931 595.627 720.55C594.581 721.168 594.058 722.226 594.058 723.723C594.058 724.913 594.45 725.858 595.236 726.558C596.022 727.254 597.087 727.602 598.433 727.602C600.295 727.602 601.789 726.943 602.913 725.625C604.037 724.306 604.598 722.554 604.598 720.369V719.622H601.262ZM607.953 718.234V729.883H604.598V726.785C603.832 728.022 602.878 728.936 601.734 729.527C600.591 730.118 599.193 730.414 597.54 730.414C595.452 730.414 593.789 729.827 592.553 728.652C591.32 727.478 590.703 725.907 590.703 723.939C590.703 721.644 591.472 719.914 593.008 718.747C594.548 717.58 596.842 716.997 599.891 716.997H604.598V716.665C604.598 715.121 604.091 713.927 603.076 713.083C602.061 712.239 600.636 711.817 598.8 711.817C597.633 711.817 596.496 711.957 595.388 712.237C594.283 712.517 593.222 712.937 592.203 713.497V710.394C593.428 709.919 594.618 709.565 595.773 709.332C596.928 709.095 598.052 708.976 599.144 708.976C602.1 708.976 604.307 709.742 605.765 711.275C607.223 712.803 607.953 715.123 607.953 718.234Z" fill="black"/>
<path d="M631.834 717.557V729.883H628.479V717.668C628.479 715.735 628.102 714.291 627.348 713.334C626.593 712.373 625.464 711.893 623.959 711.893C622.146 711.893 620.717 712.471 619.671 713.626C618.625 714.777 618.102 716.35 618.102 718.345V729.883H614.73V709.466H618.102V712.64C618.907 711.411 619.852 710.493 620.937 709.886C622.026 709.28 623.282 708.976 624.705 708.976C627.05 708.976 628.824 709.702 630.025 711.152C631.231 712.603 631.834 714.738 631.834 717.557Z" fill="black"/>
<path d="M638.392 701.516H641.763V718.269L651.773 709.466H656.055L645.228 719.016L656.516 729.883H652.141L641.763 719.914V729.883H638.392V701.516Z" fill="black"/>
<path d="M149.994 634.05H139.327H149.994Z" fill="black"/>
<path d="M149.994 634.05H139.327" stroke="black" stroke-width="6.66667"/>
<path d="M63.4003 623.443C61.5065 623.443 60.0812 624.376 59.1245 626.243C58.1717 628.105 57.6953 630.909 57.6953 634.654C57.6953 638.384 58.1717 641.182 59.1245 643.048C60.0812 644.915 61.5065 645.848 63.4003 645.848C65.3098 645.848 66.7409 644.915 67.6937 643.048C68.6503 641.182 69.1287 638.384 69.1287 634.654C69.1287 630.909 68.6503 628.105 67.6937 626.243C66.7409 624.376 65.3098 623.443 63.4003 623.443ZM63.4003 620.526C66.4531 620.526 68.7845 621.733 70.3945 624.148C72.0045 626.56 72.8095 630.062 72.8095 634.654C72.8095 639.235 72.0045 642.733 70.3945 645.148C68.7845 647.56 66.4531 648.765 63.4003 648.765C60.3515 648.765 58.022 647.56 56.412 645.148C54.802 642.733 53.997 639.235 53.997 634.654C53.997 630.062 54.802 626.56 56.412 624.148C58.022 621.733 60.3515 620.526 63.4003 620.526Z" fill="black"/>
<path d="M79.278 643.603H83.128V648.234H79.278V643.603Z" fill="black"/>
<path d="M91.186 621.016H105.641V624.119H94.5576V630.787C95.0904 630.604 95.6232 630.468 96.156 630.378C96.6926 630.289 97.2293 630.244 97.766 630.244C100.803 630.244 103.208 631.077 104.982 632.741C106.759 634.405 107.648 636.659 107.648 639.502C107.648 642.43 106.736 644.707 104.912 646.333C103.088 647.954 100.517 648.765 97.2001 648.765C96.0568 648.765 94.8921 648.668 93.706 648.473C92.5237 648.279 91.3007 647.987 90.0368 647.598V643.894C91.1296 644.489 92.2593 644.933 93.426 645.224C94.5926 645.516 95.8254 645.662 97.1243 645.662C99.2282 645.662 100.893 645.11 102.118 644.005C103.347 642.901 103.961 641.4 103.961 639.502C103.961 637.608 103.347 636.109 102.118 635.004C100.893 633.896 99.2282 633.342 97.1243 633.342C96.1404 633.342 95.1585 633.451 94.1785 633.668C93.2024 633.886 92.2049 634.227 91.186 634.689V621.016Z" fill="black"/>
<path d="M122.773 623.443C120.879 623.443 119.454 624.376 118.497 626.243C117.544 628.105 117.068 630.909 117.068 634.654C117.068 638.384 117.544 641.182 118.497 643.048C119.454 644.915 120.879 645.848 122.773 645.848C124.682 645.848 126.113 644.915 127.066 643.048C128.023 641.182 128.501 638.384 128.501 634.654C128.501 630.909 128.023 628.105 127.066 626.243C126.113 624.376 124.682 623.443 122.773 623.443ZM122.773 620.526C125.826 620.526 128.157 621.733 129.767 624.148C131.377 626.56 132.182 630.062 132.182 634.654C132.182 639.235 131.377 642.733 129.767 645.148C128.157 647.56 125.826 648.765 122.773 648.765C119.724 648.765 117.394 647.56 115.784 645.148C114.174 642.733 113.369 639.235 113.369 634.654C113.369 630.062 114.174 626.56 115.784 624.148C117.394 621.733 119.724 620.526 122.773 620.526Z" fill="black"/>
<path d="M149.994 324.117H139.327H149.994Z" fill="black"/>
<path d="M149.994 324.117H139.327" stroke="black" stroke-width="6.66667"/>
<path d="M63.4003 313.509C61.5065 313.509 60.0812 314.443 59.1245 316.309C58.1717 318.172 57.6953 320.976 57.6953 324.721C57.6953 328.45 58.1717 331.248 59.1245 333.115C60.0812 334.982 61.5065 335.915 63.4003 335.915C65.3098 335.915 66.7409 334.982 67.6937 333.115C68.6503 331.248 69.1287 328.45 69.1287 324.721C69.1287 320.976 68.6503 318.172 67.6937 316.309C66.7409 314.443 65.3098 313.509 63.4003 313.509ZM63.4003 310.593C66.4531 310.593 68.7845 311.8 70.3945 314.215C72.0045 316.626 72.8095 320.128 72.8095 324.721C72.8095 329.302 72.0045 332.8 70.3945 335.215C68.7845 337.626 66.4531 338.832 63.4003 338.832C60.3515 338.832 58.022 337.626 56.412 335.215C54.802 332.8 53.997 329.302 53.997 324.721C53.997 320.128 54.802 316.626 56.412 314.215C58.022 311.8 60.3515 310.593 63.4003 310.593Z" fill="black"/>
<path d="M79.278 333.669H83.128V338.301H79.278V333.669Z" fill="black"/>
<path d="M90.2177 311.083H107.718V312.652L97.836 338.301H93.9918L103.29 314.186H90.2177V311.083Z" fill="black"/>
<path d="M114.939 311.083H129.394V314.186H118.31V320.853C118.843 320.671 119.376 320.535 119.909 320.445C120.445 320.356 120.982 320.311 121.519 320.311C124.556 320.311 126.961 321.143 128.734 322.808C130.512 324.472 131.4 326.726 131.4 329.568C131.4 332.497 130.488 334.774 128.664 336.399C126.841 338.021 124.27 338.832 120.953 338.832C119.809 338.832 118.645 338.735 117.459 338.54C116.276 338.346 115.053 338.054 113.789 337.665V333.961C114.882 334.556 116.012 334.999 117.179 335.291C118.345 335.583 119.578 335.728 120.877 335.728C122.981 335.728 124.645 335.176 125.87 334.072C127.099 332.967 127.714 331.466 127.714 329.568C127.714 327.675 127.099 326.175 125.87 325.071C124.645 323.963 122.981 323.408 120.877 323.408C119.893 323.408 118.911 323.517 117.931 323.735C116.955 323.953 115.957 324.293 114.939 324.756V311.083Z" fill="black"/>
<path d="M149.994 14.1838H139.327H149.994Z" fill="black"/>
<path d="M149.994 14.1838H139.327" stroke="black" stroke-width="6.66667"/>
<path d="M56.167 25.2702H62.1812V4.50351L55.6362 5.81601V2.46184L62.1462 1.14934H65.827V25.2702H71.8412V28.3677H56.167V25.2702Z" fill="black"/>
<path d="M79.2779 23.736H83.1279V28.3677H79.2779V23.736Z" fill="black"/>
<path d="M99.0201 3.57594C97.1262 3.57594 95.701 4.50927 94.7443 6.37594C93.7915 8.23872 93.3151 11.0426 93.3151 14.7876C93.3151 18.517 93.7915 21.3151 94.7443 23.1818C95.701 25.0484 97.1262 25.9818 99.0201 25.9818C100.93 25.9818 102.361 25.0484 103.313 23.1818C104.27 21.3151 104.748 18.517 104.748 14.7876C104.748 11.0426 104.27 8.23872 103.313 6.37594C102.361 4.50927 100.93 3.57594 99.0201 3.57594ZM99.0201 0.659271C102.073 0.659271 104.404 1.86677 106.014 4.28177C107.624 6.69288 108.429 10.1948 108.429 14.7876C108.429 19.3687 107.624 22.8668 106.014 25.2818C104.404 27.6929 102.073 28.8984 99.0201 28.8984C95.9712 28.8984 93.6418 27.6929 92.0318 25.2818C90.4218 22.8668 89.6168 19.3687 89.6168 14.7876C89.6168 10.1948 90.4218 6.69288 92.0318 4.28177C93.6418 1.86677 95.9712 0.659271 99.0201 0.659271Z" fill="black"/>
<path d="M122.773 3.57594C120.879 3.57594 119.454 4.50927 118.497 6.37594C117.544 8.23872 117.068 11.0426 117.068 14.7876C117.068 18.517 117.544 21.3151 118.497 23.1818C119.454 25.0484 120.879 25.9818 122.773 25.9818C124.682 25.9818 126.113 25.0484 127.066 23.1818C128.023 21.3151 128.501 18.517 128.501 14.7876C128.501 11.0426 128.023 8.23872 127.066 6.37594C126.113 4.50927 124.682 3.57594 122.773 3.57594ZM122.773 0.659271C125.825 0.659271 128.157 1.86677 129.767 4.28177C131.377 6.69288 132.182 10.1948 132.182 14.7876C132.182 19.3687 131.377 22.8668 129.767 25.2818C128.157 27.6929 125.825 28.8984 122.773 28.8984C119.724 28.8984 117.394 27.6929 115.784 25.2818C114.174 22.8668 113.369 19.3687 113.369 14.7876C113.369 10.1948 114.174 6.69288 115.784 4.28177C117.394 1.86677 119.724 0.659271 122.773 0.659271Z" fill="black"/>
<path d="M1.14916 515.421V492.397H4.25249V502.057H28.3675V505.755H4.25249V515.421H1.14916Z" fill="black"/>
<path d="M17.3191 477.87H18.9583V493.293C21.2683 493.145 23.028 492.449 24.2375 491.205C25.4469 489.96 26.0516 488.226 26.0516 486.002C26.0516 484.714 25.8941 483.466 25.5791 482.257C25.2641 481.047 24.7897 479.845 24.1558 478.652H27.3291C27.8386 479.857 28.2275 481.092 28.4958 482.356C28.7641 483.62 28.8983 484.901 28.8983 486.2C28.8983 489.459 27.9514 492.039 26.0575 493.941C24.1597 495.842 21.593 496.793 18.3575 496.793C15.0169 496.793 12.3666 495.891 10.4066 494.087C8.44276 492.282 7.46082 489.848 7.46082 486.783C7.46082 484.038 8.34554 481.866 10.115 480.267C11.8805 478.669 14.2819 477.87 17.3191 477.87ZM16.3333 481.224C14.5016 481.247 13.0394 481.761 11.9466 482.764C10.85 483.767 10.3016 485.095 10.3016 486.748C10.3016 488.619 10.8305 490.116 11.8883 491.24C12.9461 492.364 14.4355 493.011 16.3566 493.182L16.3333 481.224Z" fill="black"/>
<path d="M8.55165 459.352H11.725C11.2389 460.297 10.8753 461.281 10.6341 462.304C10.3891 463.322 10.2666 464.38 10.2666 465.477C10.2666 467.141 10.5214 468.39 11.0308 469.222C11.5403 470.054 12.3064 470.47 13.3291 470.47C14.1069 470.47 14.7175 470.173 15.1608 469.578C15.6041 468.983 16.0261 467.785 16.4266 465.984L16.6833 464.835C17.1928 462.455 17.9122 460.764 18.8416 459.76C19.7711 458.757 21.068 458.255 22.7325 458.255C24.6303 458.255 26.1333 459.006 27.2416 460.507C28.3461 462.008 28.8983 464.071 28.8983 466.696C28.8983 467.789 28.7914 468.928 28.5775 470.114C28.3636 471.3 28.0447 472.549 27.6208 473.859H24.1558C24.8014 472.619 25.2855 471.398 25.6083 470.196C25.9272 468.994 26.0866 467.802 26.0866 466.62C26.0866 465.041 25.8164 463.828 25.2758 462.98C24.7353 462.129 23.973 461.703 22.9891 461.703C22.0791 461.703 21.3811 462.01 20.895 462.624C20.4089 463.235 19.9403 464.58 19.4891 466.661L19.215 467.828C18.7794 469.904 18.1086 471.405 17.2025 472.331C16.2964 473.253 15.0539 473.714 13.475 473.714C11.5539 473.714 10.0722 473.033 9.02998 471.672C7.98387 470.311 7.46082 468.378 7.46082 465.874C7.46082 464.637 7.5522 463.472 7.73498 462.379C7.91387 461.283 8.18609 460.274 8.55165 459.352Z" fill="black"/>
<path d="M2.15249 449.596H7.95083V442.69H10.5583V449.596H21.6417C23.3061 449.596 24.3755 449.369 24.85 448.914C25.3244 448.459 25.5617 447.531 25.5617 446.131V442.69H28.3675V446.131C28.3675 448.721 27.8853 450.508 26.9208 451.492C25.9525 452.476 24.1928 452.968 21.6417 452.968H10.5583V455.43H7.95083V452.968H2.15249V449.596Z" fill="black"/>
<path d="M1.14916 430.039V407.014H4.25249V416.674H28.3675V420.373H4.25249V430.039H1.14916Z" fill="black"/>
<path d="M11.0833 397.282C10.8655 397.66 10.7061 398.07 10.605 398.513C10.5 398.957 10.4475 399.445 10.4475 399.977C10.4475 401.875 11.0639 403.332 12.2967 404.347C13.5294 405.362 15.3008 405.869 17.6108 405.869H28.3675V409.241H7.95082V405.869H11.1242C9.8836 405.161 8.96388 404.243 8.36499 403.116C7.76221 401.984 7.46082 400.609 7.46082 398.992C7.46082 398.762 7.47638 398.507 7.50749 398.227C7.53471 397.947 7.57944 397.638 7.64166 397.3L11.0833 397.282Z" fill="black"/>
<path d="M7.95083 393.763V390.409H28.3675V393.763H7.95083ZM-7.62939e-06 393.763V390.409H4.25249V393.763H-7.62939e-06Z" fill="black"/>
<path d="M25.305 380.148H36.1317V383.519H7.95082V380.148H11.0483C9.83499 379.44 8.93471 378.549 8.34749 377.476C7.75637 376.399 7.46082 375.113 7.46082 373.62C7.46082 371.139 8.44471 369.125 10.4125 367.577C12.3803 366.025 14.9683 365.249 18.1767 365.249C21.385 365.249 23.975 366.025 25.9467 367.577C27.9144 369.125 28.8983 371.139 28.8983 373.62C28.8983 375.113 28.6028 376.399 28.0117 377.476C27.4205 378.549 26.5183 379.44 25.305 380.148ZM18.1767 368.732C15.7111 368.732 13.7764 369.239 12.3725 370.254C10.9686 371.269 10.2667 372.663 10.2667 374.437C10.2667 376.214 10.9686 377.61 12.3725 378.625C13.7764 379.64 15.7111 380.148 18.1767 380.148C20.6422 380.148 22.5769 379.64 23.9808 378.625C25.3847 377.61 26.0867 376.214 26.0867 374.437C26.0867 372.663 25.3847 371.269 23.9808 370.254C22.5769 369.239 20.6422 368.732 18.1767 368.732Z" fill="black"/>
<path d="M-7.62939e-06 359.693V356.339H28.3675V359.693H-7.62939e-06Z" fill="black"/>
<path d="M17.3191 331.855H18.9583V347.279C21.2683 347.131 23.028 346.435 24.2375 345.19C25.4469 343.946 26.0516 342.212 26.0516 339.987C26.0516 338.7 25.8941 337.452 25.5791 336.242C25.2641 335.033 24.7897 333.831 24.1558 332.637H27.3291C27.8386 333.843 28.2275 335.077 28.4958 336.341C28.7641 337.605 28.8983 338.887 28.8983 340.185C28.8983 343.444 27.9514 346.025 26.0575 347.926C24.1597 349.828 21.593 350.779 18.3575 350.779C15.0169 350.779 12.3666 349.877 10.4066 348.072C8.44276 346.268 7.46082 343.833 7.46082 340.769C7.46082 338.023 8.34554 335.851 10.115 334.253C11.8805 332.655 14.2819 331.855 17.3191 331.855ZM16.3333 335.21C14.5016 335.233 13.0394 335.746 11.9466 336.75C10.85 337.753 10.3016 339.081 10.3016 340.734C10.3016 342.604 10.8305 344.102 11.8883 345.225C12.9461 346.349 14.4355 346.997 16.3566 347.168L16.3333 335.21Z" fill="black"/>
<path d="M2.15249 323.033H7.95083V316.126H10.5583V323.033H21.6417C23.3061 323.033 24.3755 322.805 24.85 322.35C25.3244 321.895 25.5617 320.968 25.5617 319.568V316.126H28.3675V319.568C28.3675 322.158 27.8853 323.945 26.9208 324.928C25.9525 325.912 24.1928 326.404 21.6417 326.404H10.5583V328.866H7.95083V326.404H2.15249V323.033Z" fill="black"/>
<path d="M4.77749 290.601L18.3225 295.6V285.59L4.77749 290.601ZM1.14916 292.683V288.507L28.3675 278.135V281.962L21.385 284.441V296.708L28.3675 299.188V303.073L1.14916 292.683Z" fill="black"/>
<path d="M8.73248 260.267H11.8708C11.3458 261.216 10.953 262.166 10.6925 263.119C10.4319 264.072 10.3016 265.034 10.3016 266.007C10.3016 268.184 10.9919 269.876 12.3725 271.082C13.7491 272.283 15.6839 272.884 18.1766 272.884C20.6694 272.884 22.6061 272.283 23.9866 271.082C25.3633 269.876 26.0516 268.184 26.0516 266.007C26.0516 265.034 25.9214 264.072 25.6608 263.119C25.4003 262.166 25.0075 261.216 24.4825 260.267H27.5858C28.0214 261.204 28.348 262.174 28.5658 263.178C28.7875 264.177 28.8983 265.243 28.8983 266.374C28.8983 269.45 27.9319 271.894 25.9991 273.707C24.0664 275.515 21.4589 276.419 18.1766 276.419C14.8478 276.419 12.2305 275.505 10.325 273.678C8.41554 271.846 7.46082 269.338 7.46082 266.153C7.46082 265.122 7.56776 264.115 7.78165 263.131C7.99165 262.147 8.30859 261.192 8.73248 260.267Z" fill="black"/>
<path d="M8.73248 239.741H11.8708C11.3458 240.69 10.953 241.641 10.6925 242.593C10.4319 243.546 10.3016 244.509 10.3016 245.481C10.3016 247.659 10.9919 249.35 12.3725 250.556C13.7491 251.757 15.6839 252.358 18.1766 252.358C20.6694 252.358 22.6061 251.757 23.9866 250.556C25.3633 249.35 26.0516 247.659 26.0516 245.481C26.0516 244.509 25.9214 243.546 25.6608 242.593C25.4003 241.641 25.0075 240.69 24.4825 239.741H27.5858C28.0214 240.678 28.348 241.648 28.5658 242.652C28.7875 243.651 28.8983 244.717 28.8983 245.848C28.8983 248.924 27.9319 251.369 25.9991 253.181C24.0664 254.989 21.4589 255.893 18.1766 255.893C14.8478 255.893 12.2305 254.979 10.325 253.152C8.41554 251.32 7.46082 248.812 7.46082 245.627C7.46082 244.596 7.56776 243.589 7.78165 242.605C7.99165 241.621 8.30859 240.666 8.73248 239.741Z" fill="black"/>
<path d="M20.3116 234.253H7.95082V230.899H20.1833C22.1161 230.899 23.5666 230.523 24.535 229.773C25.4994 229.018 25.9816 227.887 25.9816 226.378C25.9816 224.57 25.4041 223.14 24.2491 222.09C23.0941 221.037 21.5191 220.51 19.5241 220.51H7.95082V217.155H28.3675V220.51H25.2291C26.4697 221.322 27.3914 222.267 27.9941 223.345C28.5969 224.418 28.8983 225.666 28.8983 227.09C28.8983 229.435 28.1691 231.216 26.7108 232.433C25.2525 233.646 23.1194 234.253 20.3116 234.253Z" fill="black"/>
<path d="M11.0833 198.417C10.8655 198.795 10.7061 199.205 10.605 199.648C10.5 200.092 10.4475 200.58 10.4475 201.112C10.4475 203.01 11.0639 204.467 12.2967 205.482C13.5294 206.497 15.3008 207.004 17.6108 207.004H28.3675V210.376H7.95082V207.004H11.1242C9.8836 206.296 8.96388 205.379 8.36499 204.251C7.76221 203.119 7.46082 201.744 7.46082 200.127C7.46082 199.897 7.47638 199.642 7.50749 199.362C7.53471 199.082 7.57944 198.773 7.64166 198.435L11.0833 198.417Z" fill="black"/>
<path d="M18.1066 185.617C18.1066 188.328 18.4158 190.206 19.0341 191.252C19.6525 192.299 20.7103 192.822 22.2075 192.822C23.3975 192.822 24.3425 192.429 25.0425 191.643C25.7386 190.858 26.0866 189.792 26.0866 188.447C26.0866 186.584 25.4275 185.091 24.1091 183.967C22.7908 182.843 21.0389 182.281 18.8533 182.281H18.1066V185.617ZM16.7183 178.927H28.3675V182.281H25.27C26.5066 183.047 27.4205 184.002 28.0116 185.145C28.6028 186.288 28.8983 187.686 28.8983 189.339C28.8983 191.427 28.3111 193.09 27.1366 194.327C25.9622 195.559 24.3911 196.176 22.4233 196.176C20.1289 196.176 18.3983 195.408 17.2316 193.872C16.065 192.332 15.4816 190.037 15.4816 186.988V182.281H15.1491C13.6053 182.281 12.4114 182.788 11.5675 183.803C10.7236 184.818 10.3016 186.244 10.3016 188.079C10.3016 189.246 10.4416 190.383 10.7216 191.492C11.0016 192.596 11.4216 193.658 11.9816 194.677H8.87831C8.40387 193.452 8.04998 192.262 7.81665 191.107C7.57943 189.952 7.46082 188.828 7.46082 187.735C7.46082 184.779 8.22693 182.572 9.75915 181.114C11.2875 179.656 13.6072 178.927 16.7183 178.927Z" fill="black"/>
<path d="M8.73248 157.327H11.8708C11.3458 158.276 10.953 159.226 10.6925 160.179C10.4319 161.132 10.3016 162.095 10.3016 163.067C10.3016 165.245 10.9919 166.936 12.3725 168.142C13.7491 169.343 15.6839 169.944 18.1766 169.944C20.6694 169.944 22.6061 169.343 23.9866 168.142C25.3633 166.936 26.0516 165.245 26.0516 163.067C26.0516 162.095 25.9214 161.132 25.6608 160.179C25.4003 159.226 25.0075 158.276 24.4825 157.327H27.5858C28.0214 158.264 28.348 159.234 28.5658 160.238C28.7875 161.237 28.8983 162.303 28.8983 163.434C28.8983 166.51 27.9319 168.955 25.9991 170.767C24.0664 172.575 21.4589 173.479 18.1766 173.479C14.8478 173.479 12.2305 172.565 10.325 170.738C8.41554 168.906 7.46082 166.398 7.46082 163.213C7.46082 162.182 7.56776 161.175 7.78165 160.191C7.99165 159.207 8.30859 158.252 8.73248 157.327Z" fill="black"/>
<path d="M30.2633 143.002C32.6939 143.947 34.2786 144.87 35.0175 145.772C35.7603 146.671 36.1317 147.872 36.1317 149.377V152.061H33.3258V150.089C33.3258 149.167 33.1061 148.452 32.6667 147.942C32.2311 147.429 31.1986 146.863 29.5692 146.245L28.0408 145.644L7.95082 153.898V150.346L23.9167 143.964L7.95082 137.582V134.03L30.2633 143.002Z" fill="black"/>
<mask id="mask5_130_18" style="mask-type:luminance" maskUnits="userSpaceOnUse" x="149" y="14" width="761" height="621">
<path d="M909.074 14.1838H149.994V634.051H909.074V14.1838Z" fill="white"/>
</mask>
<g mask="url(#mask5_130_18)">
<path d="M149.994 148.034L234.336 94.7939L318.678 109.161L403.02 150.775L487.363 171.96L571.705 219.539L656.047 244.113L740.389 247.143L824.731 249.086L909.074 252.488" stroke="#D62728" stroke-width="10" stroke-linecap="square"/>
</g>
<mask id="mask6_130_18" style="mask-type:luminance" maskUnits="userSpaceOnUse" x="149" y="14" width="761" height="621">
<path d="M909.074 14.1838H149.994V634.051H909.074V14.1838Z" fill="white"/>
</mask>
<g mask="url(#mask6_130_18)">
<path d="M149.994 378.9L234.336 262.833L318.678 259.596L403.02 266.842L487.363 275.285L571.705 290.672L656.047 292.228L740.389 284.873L824.731 284.198L909.074 280.231" stroke="#2CA02C" stroke-width="10" stroke-linecap="square"/>
</g>
<mask id="mask7_130_18" style="mask-type:luminance" maskUnits="userSpaceOnUse" x="149" y="14" width="761" height="621">
<path d="M909.074 14.1838H149.994V634.051H909.074V14.1838Z" fill="white"/>
</mask>
<g mask="url(#mask7_130_18)">
<path d="M149.994 103.142L234.336 109.781L318.678 90.7717L403.02 162.428L487.363 240.173L571.705 317.547L656.047 345.496L740.389 364.643L824.731 371.144L909.074 356.474" stroke="#9467BD" stroke-width="10" stroke-linecap="square"/>
</g>
<mask id="mask8_130_18" style="mask-type:luminance" maskUnits="userSpaceOnUse" x="149" y="14" width="761" height="621">
<path d="M909.074 14.1838H149.994V634.051H909.074V14.1838Z" fill="white"/>
</mask>
<g mask="url(#mask8_130_18)">
<path d="M149.994 183.311L234.336 72.8369L318.678 76.5974L403.02 92.2594L487.363 108.059L571.705 127.192L656.047 139.3L740.389 148.612L824.731 165.61L909.074 182.829" stroke="#1F77B4" stroke-width="10" stroke-linecap="square"/>
</g>
<mask id="mask9_130_18" style="mask-type:luminance" maskUnits="userSpaceOnUse" x="149" y="14" width="761" height="621">
<path d="M909.074 14.1838H149.994V634.051H909.074V14.1838Z" fill="white"/>
</mask>
<g mask="url(#mask9_130_18)">
<path d="M149.994 339.049L234.336 228.699L318.678 220.062L403.02 230.641L487.363 238.328L571.705 250.877L656.047 258.728L740.389 258.411L824.731 259.141L909.074 263.508" stroke="#FF7F0E" stroke-width="10" stroke-linecap="square"/>
</g>
<path d="M149.994 634.051V14.1838" stroke="black" stroke-width="6.66667" stroke-linecap="square"/>
<path d="M149.994 634.05H909.074" stroke="black" stroke-width="6.66667" stroke-linecap="square"/>
<g clip-path="url(#clip0_130_18)">
<mask id="mask10_130_18" style="mask-type:luminance" maskUnits="userSpaceOnUse" x="1040" y="0" width="761" height="635">
<path d="M1800.07 0H1040.99V634.267H1800.07V0Z" fill="white"/>
</mask>
<g mask="url(#mask10_130_18)">
<path d="M1040.99 39.6416H1125.34H1209.68H1294.02H1378.36H1462.7H1547.05H1631.39H1715.73H1800.07H1715.73H1631.39H1547.05H1462.7H1378.36H1294.02H1209.68H1125.34H1040.99Z" fill="#D62728" fill-opacity="0.08" stroke="#D62728" stroke-opacity="0.08" stroke-width="1.33333"/>
</g>
<mask id="mask11_130_18" style="mask-type:luminance" maskUnits="userSpaceOnUse" x="1040" y="0" width="761" height="635">
<path d="M1800.07 0H1040.99V634.267H1800.07V0Z" fill="white"/>
</mask>
<g mask="url(#mask11_130_18)">
<path d="M1040.99 39.6416H1125.34H1209.68H1294.02H1378.36H1462.7H1547.05H1631.39H1715.73H1800.07H1715.73H1631.39H1547.05H1462.7H1378.36H1294.02H1209.68H1125.34H1040.99Z" fill="#2CA02C" fill-opacity="0.08" stroke="#2CA02C" stroke-opacity="0.08" stroke-width="1.33333"/>
</g>
<mask id="mask12_130_18" style="mask-type:luminance" maskUnits="userSpaceOnUse" x="1040" y="0" width="761" height="635">
<path d="M1800.07 0H1040.99V634.267H1800.07V0Z" fill="white"/>
</mask>
<g mask="url(#mask12_130_18)">
<path d="M1040.99 594.625L1125.34 619.425L1209.68 554.983L1294.02 604.697L1378.36 627.802L1462.7 632.504L1547.05 632.287L1631.39 631.383L1715.73 628.039L1800.07 636.952V507.371L1715.73 529.497L1631.39 515.582L1547.05 496.179L1462.7 482.748L1378.36 447.809L1294.02 468.271L1209.68 554.983L1125.34 543.398L1040.99 594.625Z" fill="#9467BD" fill-opacity="0.08" stroke="#9467BD" stroke-opacity="0.08" stroke-width="1.33333"/>
</g>
<mask id="mask13_130_18" style="mask-type:luminance" maskUnits="userSpaceOnUse" x="1040" y="0" width="761" height="635">
<path d="M1800.07 0H1040.99V634.267H1800.07V0Z" fill="white"/>
</mask>
<g mask="url(#mask13_130_18)">
<path d="M1040.99 395.722V489.608L1125.34 580.072L1209.68 528.495L1294.02 508.397L1378.36 475.7L1462.7 436.058L1547.05 412.213L1631.39 396.959L1715.73 389.792L1800.07 387.298V302.467L1715.73 318.472L1631.39 332.448L1547.05 383.263L1462.7 436.058L1378.36 475.7L1294.02 453.574L1209.68 499.545L1125.34 508.752L1040.99 395.722Z" fill="#1F77B4" fill-opacity="0.08" stroke="#1F77B4" stroke-opacity="0.08" stroke-width="1.33333"/>
</g>
<mask id="mask14_130_18" style="mask-type:luminance" maskUnits="userSpaceOnUse" x="1040" y="0" width="761" height="635">
<path d="M1800.07 0H1040.99V634.267H1800.07V0Z" fill="white"/>
</mask>
<g mask="url(#mask14_130_18)">
<path d="M1040.99 39.6416H1125.34H1209.68H1294.02H1378.36H1462.7H1547.05H1631.39H1715.73H1800.07H1715.73H1631.39H1547.05H1462.7H1378.36H1294.02H1209.68H1125.34H1040.99Z" fill="#FF7F0E" fill-opacity="0.08" stroke="#FF7F0E" stroke-opacity="0.08" stroke-width="1.33333"/>
</g>
<path d="M1040.99 634.267V644.933V634.267Z" fill="black"/>
<path d="M1040.99 634.267V644.933" stroke="black" stroke-width="6.66667"/>
<path d="M1033.75 674.87H1039.76V654.103L1033.22 655.416V652.061L1039.73 650.749H1043.41V674.87H1049.42V677.967H1033.75V674.87Z" fill="black"/>
<path d="M1378.36 634.267V644.933V634.267Z" fill="black"/>
<path d="M1378.36 634.267V644.933" stroke="black" stroke-width="6.66667"/>
<path d="M1370.52 650.749H1384.97V653.852H1373.89V660.52C1374.42 660.337 1374.95 660.201 1375.49 660.112C1376.02 660.022 1376.56 659.977 1377.1 659.977C1380.13 659.977 1382.54 660.81 1384.31 662.474C1386.09 664.139 1386.98 666.392 1386.98 669.235C1386.98 672.163 1386.07 674.44 1384.24 676.066C1382.42 677.687 1379.85 678.498 1376.53 678.498C1375.39 678.498 1374.22 678.401 1373.04 678.207C1371.85 678.012 1370.63 677.721 1369.37 677.332V673.627C1370.46 674.222 1371.59 674.666 1372.76 674.957C1373.92 675.249 1375.16 675.395 1376.46 675.395C1378.56 675.395 1380.22 674.843 1381.45 673.738C1382.68 672.634 1383.29 671.133 1383.29 669.235C1383.29 667.341 1382.68 665.842 1381.45 664.737C1380.22 663.629 1378.56 663.075 1376.46 663.075C1375.47 663.075 1374.49 663.184 1373.51 663.402C1372.53 663.619 1371.54 663.96 1370.52 664.422V650.749Z" fill="black"/>
<path d="M1800.07 634.267V644.933V634.267Z" fill="black"/>
<path d="M1800.07 634.267V644.933" stroke="black" stroke-width="6.66667"/>
<path d="M1780.95 674.87H1786.97V654.103L1780.42 655.416V652.062L1786.93 650.749H1790.61V674.87H1796.63V677.968H1780.95V674.87Z" fill="black"/>
<path d="M1811.94 653.176C1810.04 653.176 1808.62 654.109 1807.66 655.976C1806.71 657.839 1806.23 660.642 1806.23 664.387C1806.23 668.117 1806.71 670.915 1807.66 672.782C1808.62 674.648 1810.04 675.582 1811.94 675.582C1813.85 675.582 1815.28 674.648 1816.23 672.782C1817.19 670.915 1817.67 668.117 1817.67 664.387C1817.67 660.642 1817.19 657.839 1816.23 655.976C1815.28 654.109 1813.85 653.176 1811.94 653.176ZM1811.94 650.259C1814.99 650.259 1817.32 651.467 1818.93 653.882C1820.54 656.293 1821.35 659.795 1821.35 664.387C1821.35 668.969 1820.54 672.467 1818.93 674.882C1817.32 677.293 1814.99 678.498 1811.94 678.498C1808.89 678.498 1806.56 677.293 1804.95 674.882C1803.34 672.467 1802.53 668.969 1802.53 664.387C1802.53 659.795 1803.34 656.293 1804.95 653.882C1806.56 651.467 1808.89 650.259 1811.94 650.259Z" fill="black"/>
<path d="M1297.12 702.881H1300.8V730.099H1297.12V702.881Z" fill="black"/>
<path d="M1324.96 717.773V730.099H1321.6V717.884C1321.6 715.951 1321.23 714.507 1320.47 713.55C1319.72 712.589 1318.59 712.109 1317.08 712.109C1315.27 712.109 1313.84 712.687 1312.79 713.842C1311.75 714.993 1311.23 716.566 1311.23 718.561V730.099H1307.85V709.682H1311.23V712.856C1312.03 711.627 1312.98 710.709 1314.06 710.102C1315.15 709.496 1316.41 709.192 1317.83 709.192C1320.17 709.192 1321.95 709.918 1323.15 711.368C1324.35 712.819 1324.96 714.954 1324.96 717.773Z" fill="black"/>
<path d="M1334.96 703.884V709.682H1341.87V712.29H1334.96V723.373C1334.96 725.038 1335.19 726.107 1335.65 726.582C1336.1 727.056 1337.03 727.293 1338.43 727.293H1341.87V730.099H1338.43C1335.84 730.099 1334.05 729.617 1333.07 728.652C1332.08 727.684 1331.59 725.924 1331.59 723.373V712.29H1329.13V709.682H1331.59V703.884H1334.96Z" fill="black"/>
<path d="M1358.11 712.815C1357.73 712.597 1357.32 712.438 1356.88 712.337C1356.44 712.232 1355.95 712.179 1355.42 712.179C1353.52 712.179 1352.06 712.796 1351.05 714.028C1350.03 715.261 1349.53 717.032 1349.53 719.342V730.099H1346.15V709.682H1349.53V712.856C1350.23 711.615 1351.15 710.696 1352.28 710.097C1353.41 709.494 1354.78 709.192 1356.4 709.192C1356.63 709.192 1356.89 709.208 1357.17 709.239C1357.45 709.266 1357.76 709.311 1358.09 709.373L1358.11 712.815Z" fill="black"/>
<path d="M1361.63 709.682H1364.99V730.099H1361.63V709.682ZM1361.63 701.732H1364.99V705.984H1361.63V701.732Z" fill="black"/>
<path d="M1388.98 717.773V730.099H1385.62V717.884C1385.62 715.951 1385.25 714.507 1384.49 713.55C1383.74 712.589 1382.61 712.109 1381.1 712.109C1379.29 712.109 1377.86 712.687 1376.82 713.842C1375.77 714.993 1375.25 716.566 1375.25 718.561V730.099H1371.87V709.682H1375.25V712.856C1376.05 711.627 1377 710.709 1378.08 710.102C1379.17 709.496 1380.43 709.192 1381.85 709.192C1384.19 709.192 1385.97 709.918 1387.17 711.368C1388.38 712.819 1388.98 714.954 1388.98 717.773Z" fill="black"/>
<path d="M1408.68 710.283V713.457C1407.73 712.97 1406.75 712.607 1405.73 712.366C1404.71 712.121 1403.65 711.998 1402.55 711.998C1400.89 711.998 1399.64 712.253 1398.81 712.762C1397.98 713.272 1397.56 714.038 1397.56 715.061C1397.56 715.838 1397.86 716.449 1398.45 716.892C1399.05 717.336 1400.25 717.758 1402.05 718.158L1403.2 718.415C1405.58 718.924 1407.27 719.644 1408.27 720.573C1409.27 721.503 1409.78 722.8 1409.78 724.464C1409.78 726.362 1409.02 727.865 1407.52 728.973C1406.02 730.078 1403.96 730.63 1401.33 730.63C1400.24 730.63 1399.1 730.523 1397.92 730.309C1396.73 730.095 1395.48 729.776 1394.17 729.352V725.887C1395.41 726.533 1396.63 727.017 1397.83 727.34C1399.04 727.659 1400.23 727.818 1401.41 727.818C1402.99 727.818 1404.2 727.548 1405.05 727.007C1405.9 726.467 1406.33 725.705 1406.33 724.721C1406.33 723.811 1406.02 723.113 1405.41 722.627C1404.8 722.14 1403.45 721.672 1401.37 721.221L1400.2 720.947C1398.13 720.511 1396.63 719.84 1395.7 718.934C1394.78 718.028 1394.32 716.785 1394.32 715.207C1394.32 713.285 1395 711.804 1396.36 710.762C1397.72 709.715 1399.65 709.192 1402.16 709.192C1403.39 709.192 1404.56 709.284 1405.65 709.467C1406.75 709.645 1407.76 709.918 1408.68 710.283Z" fill="black"/>
<path d="M1415.12 709.682H1418.47V730.099H1415.12V709.682ZM1415.12 701.732H1418.47V705.984H1415.12V701.732Z" fill="black"/>
<path d="M1440.18 710.464V713.602C1439.23 713.077 1438.28 712.685 1437.33 712.424C1436.38 712.163 1435.41 712.033 1434.44 712.033C1432.26 712.033 1430.57 712.723 1429.37 714.104C1428.17 715.481 1427.56 717.415 1427.56 719.908C1427.56 722.401 1428.17 724.338 1429.37 725.718C1430.57 727.095 1432.26 727.783 1434.44 727.783C1435.41 727.783 1436.38 727.653 1437.33 727.392C1438.28 727.132 1439.23 726.739 1440.18 726.214V729.317C1439.24 729.753 1438.27 730.08 1437.27 730.297C1436.27 730.519 1435.21 730.63 1434.07 730.63C1431 730.63 1428.55 729.663 1426.74 727.731C1424.93 725.798 1424.03 723.19 1424.03 719.908C1424.03 716.579 1424.94 713.962 1426.77 712.057C1428.6 710.147 1431.11 709.192 1434.3 709.192C1435.33 709.192 1436.33 709.299 1437.32 709.513C1438.3 709.723 1439.26 710.04 1440.18 710.464Z" fill="black"/>
<path d="M1470.94 717.336C1471.73 717.604 1472.49 718.176 1473.24 719.051C1473.99 719.926 1474.74 721.129 1475.49 722.662L1479.23 730.099H1475.27L1471.79 723.117C1470.89 721.293 1470.02 720.083 1469.17 719.488C1468.33 718.893 1467.18 718.596 1465.72 718.596H1461.71V730.099H1458.03V702.881H1466.34C1469.45 702.881 1471.77 703.532 1473.3 704.835C1474.84 706.134 1475.6 708.096 1475.6 710.721C1475.6 712.436 1475.2 713.859 1474.41 714.991C1473.61 716.119 1472.45 716.9 1470.94 717.336ZM1461.71 705.908V715.568H1466.34C1468.11 715.568 1469.45 715.158 1470.36 714.337C1471.26 713.517 1471.72 712.311 1471.72 710.721C1471.72 709.13 1471.26 707.931 1470.36 707.122C1469.45 706.313 1468.11 705.908 1466.34 705.908H1461.71Z" fill="black"/>
<path d="M1492.26 719.838C1489.55 719.838 1487.67 720.147 1486.63 720.766C1485.58 721.384 1485.06 722.442 1485.06 723.939C1485.06 725.129 1485.45 726.074 1486.24 726.774C1487.02 727.47 1488.09 727.818 1489.43 727.818C1491.3 727.818 1492.79 727.159 1493.91 725.841C1495.04 724.522 1495.6 722.77 1495.6 720.585V719.838H1492.26ZM1498.95 718.45V730.099H1495.6V727.002C1494.83 728.238 1493.88 729.152 1492.73 729.743C1491.59 730.334 1490.19 730.63 1488.54 730.63C1486.45 730.63 1484.79 730.043 1483.55 728.868C1482.32 727.694 1481.7 726.123 1481.7 724.155C1481.7 721.86 1482.47 720.13 1484.01 718.963C1485.55 717.797 1487.84 717.213 1490.89 717.213H1495.6V716.881C1495.6 715.337 1495.09 714.143 1494.08 713.299C1493.06 712.455 1491.64 712.033 1489.8 712.033C1488.63 712.033 1487.5 712.173 1486.39 712.453C1485.28 712.733 1484.22 713.153 1483.2 713.713V710.61C1484.43 710.135 1485.62 709.782 1486.77 709.548C1487.93 709.311 1489.05 709.192 1490.14 709.192C1493.1 709.192 1495.31 709.958 1496.77 711.491C1498.22 713.019 1498.95 715.339 1498.95 718.45Z" fill="black"/>
<path d="M1522.83 717.773V730.099H1519.48V717.884C1519.48 715.951 1519.1 714.507 1518.35 713.55C1517.59 712.589 1516.46 712.109 1514.96 712.109C1513.15 712.109 1511.72 712.687 1510.67 713.842C1509.62 714.993 1509.1 716.566 1509.1 718.561V730.099H1505.73V709.682H1509.1V712.856C1509.91 711.627 1510.85 710.709 1511.94 710.102C1513.03 709.496 1514.28 709.192 1515.71 709.192C1518.05 709.192 1519.82 709.918 1521.03 711.368C1522.23 712.819 1522.83 714.954 1522.83 717.773Z" fill="black"/>
<path d="M1529.39 701.732H1532.76V718.485L1542.77 709.682H1547.06L1536.23 719.232L1547.52 730.099H1543.14L1532.76 720.13V730.099H1529.39V701.732Z" fill="black"/>
<path d="M1040.99 594.625H1030.33H1040.99Z" fill="black"/>
<path d="M1040.99 594.625H1030.33" stroke="black" stroke-width="6.66667"/>
<path d="M1006.54 605.711H1012.55V584.945L1006.01 586.257V582.903L1012.52 581.591H1016.2V605.711H1022.21V608.809H1006.54V605.711Z" fill="black"/>
<path d="M1040.99 436.059H1030.33H1040.99Z" fill="black"/>
<path d="M1040.99 436.059H1030.33" stroke="black" stroke-width="6.66667"/>
<path d="M1005.94 423.024H1020.39V426.127H1009.31V432.795C1009.84 432.612 1010.38 432.476 1010.91 432.387C1011.44 432.297 1011.98 432.252 1012.52 432.252C1015.56 432.252 1017.96 433.085 1019.73 434.749C1021.51 436.413 1022.4 438.667 1022.4 441.51C1022.4 444.438 1021.49 446.715 1019.66 448.341C1017.84 449.962 1015.27 450.773 1011.95 450.773C1010.81 450.773 1009.64 450.676 1008.46 450.482C1007.28 450.287 1006.05 449.995 1004.79 449.607V445.902C1005.88 446.497 1007.01 446.941 1008.18 447.232C1009.34 447.524 1010.58 447.67 1011.88 447.67C1013.98 447.67 1015.64 447.118 1016.87 446.013C1018.1 444.909 1018.71 443.408 1018.71 441.51C1018.71 439.616 1018.1 438.117 1016.87 437.012C1015.64 435.904 1013.98 435.35 1011.88 435.35C1010.89 435.35 1009.91 435.459 1008.93 435.677C1007.95 435.894 1006.96 436.235 1005.94 436.697V423.024Z" fill="black"/>
<path d="M1040.99 237.85H1030.33H1040.99Z" fill="black"/>
<path d="M1040.99 237.85H1030.33" stroke="black" stroke-width="6.66667"/>
<path d="M982.785 248.936H988.8V228.17L982.255 229.482V226.128L988.765 224.816H992.445V248.936H998.46V252.034H982.785V248.936Z" fill="black"/>
<path d="M1013.77 227.242C1011.88 227.242 1010.45 228.176 1009.5 230.042C1008.54 231.905 1008.07 234.709 1008.07 238.454C1008.07 242.183 1008.54 244.981 1009.5 246.848C1010.45 248.715 1011.88 249.648 1013.77 249.648C1015.68 249.648 1017.11 248.715 1018.06 246.848C1019.02 244.981 1019.5 242.183 1019.5 238.454C1019.5 234.709 1019.02 231.905 1018.06 230.042C1017.11 228.176 1015.68 227.242 1013.77 227.242ZM1013.77 224.326C1016.82 224.326 1019.16 225.533 1020.77 227.948C1022.38 230.359 1023.18 233.861 1023.18 238.454C1023.18 243.035 1022.38 246.533 1020.77 248.948C1019.16 251.359 1016.82 252.565 1013.77 252.565C1010.72 252.565 1008.39 251.359 1006.78 248.948C1005.17 246.533 1004.37 243.035 1004.37 238.454C1004.37 233.861 1005.17 230.359 1006.78 227.948C1008.39 225.533 1010.72 224.326 1013.77 224.326Z" fill="black"/>
<path d="M1040.99 39.6418H1030.33H1040.99Z" fill="black"/>
<path d="M1040.99 39.6418H1030.33" stroke="black" stroke-width="6.66667"/>
<path d="M982.785 50.7282H988.8V29.9615L982.255 31.274V27.9198L988.765 26.6073H992.445V50.7282H998.46V53.8257H982.785V50.7282Z" fill="black"/>
<path d="M1005.94 26.6073H1020.39V29.7106H1009.31V36.3781C1009.84 36.1953 1010.37 36.0592 1010.91 35.9698C1011.44 35.8803 1011.98 35.8356 1012.52 35.8356C1015.55 35.8356 1017.96 36.6678 1019.73 38.3323C1021.51 39.9967 1022.4 42.2503 1022.4 45.0931C1022.4 48.0214 1021.49 50.2984 1019.66 51.9239C1017.84 53.5456 1015.27 54.3564 1011.95 54.3564C1010.81 54.3564 1009.64 54.2592 1008.46 54.0648C1007.27 53.8703 1006.05 53.5787 1004.79 53.1898V49.4856C1005.88 50.0806 1007.01 50.5239 1008.18 50.8156C1009.34 51.1073 1010.58 51.2531 1011.88 51.2531C1013.98 51.2531 1015.64 50.7009 1016.87 49.5964C1018.1 48.492 1018.71 46.9909 1018.71 45.0931C1018.71 43.1992 1018.1 41.7001 1016.87 40.5956C1015.64 39.4873 1013.98 38.9331 1011.88 38.9331C1010.89 38.9331 1009.91 39.042 1008.93 39.2598C1007.95 39.4776 1006.96 39.8178 1005.94 40.2806V26.6073Z" fill="black"/>
<path d="M931.149 457.207V451.717L949.67 444.776L931.149 437.793V432.304H958.368V435.897H934.468L953.135 442.915V446.613L934.468 453.631H958.368V457.207H931.149Z" fill="black"/>
<path d="M947.319 407.677H948.958V423.1C951.268 422.952 953.028 422.256 954.238 421.012C955.447 419.767 956.052 418.033 956.052 415.808C956.052 414.521 955.894 413.273 955.579 412.063C955.264 410.854 954.79 409.652 954.156 408.458H957.329C957.839 409.664 958.228 410.898 958.496 412.162C958.764 413.426 958.898 414.708 958.898 416.007C958.898 419.265 957.951 421.846 956.058 423.747C954.16 425.649 951.593 426.6 948.358 426.6C945.017 426.6 942.367 425.698 940.407 423.893C938.443 422.089 937.461 419.654 937.461 416.59C937.461 413.844 938.346 411.672 940.115 410.074C941.881 408.476 944.282 407.677 947.319 407.677ZM946.333 411.031C944.502 411.054 943.039 411.567 941.947 412.571C940.85 413.574 940.302 414.902 940.302 416.555C940.302 418.425 940.831 419.923 941.888 421.047C942.946 422.17 944.436 422.818 946.357 422.989L946.333 411.031Z" fill="black"/>
<path d="M948.107 392.892C948.107 395.602 948.416 397.481 949.034 398.527C949.653 399.573 950.71 400.096 952.208 400.096C953.398 400.096 954.343 399.703 955.043 398.918C955.739 398.132 956.087 397.067 956.087 395.721C956.087 393.858 955.428 392.365 954.109 391.241C952.791 390.117 951.039 389.555 948.853 389.555H948.107V392.892ZM946.718 386.201H958.368V389.555H955.27C956.507 390.321 957.421 391.276 958.012 392.419C958.603 393.563 958.898 394.961 958.898 396.614C958.898 398.702 958.311 400.364 957.137 401.601C955.962 402.834 954.391 403.45 952.423 403.45C950.129 403.45 948.398 402.682 947.232 401.146C946.065 399.606 945.482 397.312 945.482 394.263V389.555H945.149C943.605 389.555 942.411 390.063 941.568 391.078C940.724 392.093 940.302 393.518 940.302 395.354C940.302 396.52 940.442 397.658 940.722 398.766C941.002 399.87 941.422 400.932 941.982 401.951H938.878C938.404 400.726 938.05 399.536 937.817 398.381C937.579 397.226 937.461 396.102 937.461 395.009C937.461 392.054 938.227 389.847 939.759 388.389C941.288 386.93 943.607 386.201 946.718 386.201Z" fill="black"/>
<path d="M938.552 366.281H941.725C941.239 367.226 940.875 368.21 940.634 369.232C940.389 370.251 940.267 371.309 940.267 372.406C940.267 374.07 940.521 375.319 941.031 376.151C941.54 376.983 942.306 377.399 943.329 377.399C944.107 377.399 944.718 377.102 945.161 376.507C945.604 375.912 946.026 374.714 946.427 372.913L946.683 371.764C947.193 369.384 947.912 367.692 948.842 366.689C949.771 365.686 951.068 365.184 952.733 365.184C954.63 365.184 956.133 365.935 957.242 367.436C958.346 368.937 958.898 371 958.898 373.625C958.898 374.718 958.791 375.857 958.578 377.043C958.364 378.229 958.045 379.478 957.621 380.788H954.156C954.801 379.548 955.286 378.327 955.608 377.125C955.927 375.923 956.087 374.731 956.087 373.549C956.087 371.97 955.816 370.757 955.276 369.909C954.735 369.057 953.973 368.632 952.989 368.632C952.079 368.632 951.381 368.939 950.895 369.553C950.409 370.164 949.94 371.509 949.489 373.59L949.215 374.757C948.779 376.833 948.109 378.334 947.203 379.26C946.296 380.182 945.054 380.642 943.475 380.642C941.554 380.642 940.072 379.962 939.03 378.601C937.984 377.24 937.461 375.307 937.461 372.802C937.461 371.566 937.552 370.401 937.735 369.308C937.914 368.212 938.186 367.202 938.552 366.281Z" fill="black"/>
<path d="M950.312 360.189H937.951V356.835H950.183C952.116 356.835 953.567 356.459 954.535 355.709C955.499 354.954 955.982 353.823 955.982 352.314C955.982 350.505 955.404 349.076 954.249 348.026C953.094 346.972 951.519 346.445 949.524 346.445H937.951V343.091H958.368V346.445H955.229C956.47 347.258 957.391 348.203 957.994 349.28C958.597 350.354 958.898 351.602 958.898 353.025C958.898 355.37 958.169 357.151 956.711 358.369C955.253 359.582 953.119 360.189 950.312 360.189Z" fill="black"/>
<path d="M941.083 324.353C940.866 324.73 940.706 325.141 940.605 325.584C940.5 326.027 940.448 326.515 940.448 327.048C940.448 328.946 941.064 330.402 942.297 331.417C943.529 332.432 945.301 332.94 947.611 332.94H958.368V336.312H937.951V332.94H941.124C939.884 332.232 938.964 331.314 938.365 330.187C937.762 329.055 937.461 327.68 937.461 326.062C937.461 325.833 937.476 325.578 937.508 325.298C937.535 325.018 937.579 324.709 937.642 324.371L941.083 324.353Z" fill="black"/>
<path d="M947.319 304.209H948.958V319.633C951.268 319.485 953.028 318.789 954.238 317.544C955.447 316.3 956.052 314.565 956.052 312.341C956.052 311.054 955.894 309.805 955.579 308.596C955.264 307.386 954.79 306.185 954.156 304.991H957.329C957.839 306.196 958.228 307.431 958.496 308.695C958.764 309.959 958.898 311.24 958.898 312.539C958.898 315.798 957.951 318.378 956.058 320.28C954.16 322.182 951.593 323.133 948.358 323.133C945.017 323.133 942.367 322.23 940.407 320.426C938.443 318.621 937.461 316.187 937.461 313.123C937.461 310.377 938.346 308.205 940.115 306.607C941.881 305.008 944.282 304.209 947.319 304.209ZM946.333 307.563C944.502 307.587 943.039 308.1 941.947 309.103C940.85 310.107 940.302 311.435 940.302 313.088C940.302 314.958 940.831 316.455 941.888 317.579C942.946 318.703 944.436 319.351 946.357 319.522L946.333 307.563Z" fill="black"/>
<path d="M941.048 285.271H930V281.917H958.368V285.271H955.305C956.518 285.975 957.421 286.866 958.012 287.943C958.603 289.016 958.898 290.307 958.898 291.816C958.898 294.282 957.914 296.29 955.947 297.842C953.975 299.39 951.385 300.164 948.177 300.164C944.968 300.164 942.38 299.39 940.413 297.842C938.445 296.29 937.461 294.282 937.461 291.816C937.461 290.307 937.756 289.016 938.348 287.943C938.935 286.866 939.835 285.975 941.048 285.271ZM948.177 296.699C950.642 296.699 952.577 296.191 953.981 295.176C955.385 294.161 956.087 292.767 956.087 290.994C956.087 289.22 955.385 287.824 953.981 286.805C952.577 285.783 950.642 285.271 948.177 285.271C945.711 285.271 943.776 285.783 942.373 286.805C940.969 287.824 940.267 289.22 940.267 290.994C940.267 292.767 940.969 294.161 942.373 295.176C943.776 296.191 945.711 296.699 948.177 296.699Z" fill="black"/>
<path d="M945.604 250.085C945.873 249.296 946.444 248.528 947.319 247.781C948.194 247.034 949.398 246.284 950.93 245.529L958.368 241.79V245.751L951.385 249.228C949.561 250.13 948.352 251.003 947.757 251.847C947.162 252.691 946.864 253.842 946.864 255.3V259.314H958.368V262.994H931.149V254.682C931.149 251.571 931.801 249.249 933.103 247.717C934.402 246.185 936.364 245.419 938.989 245.419C940.704 245.419 942.128 245.817 943.259 246.614C944.387 247.412 945.169 248.569 945.604 250.085ZM934.177 259.314H943.837V254.682C943.837 252.909 943.426 251.569 942.606 250.663C941.785 249.757 940.58 249.304 938.989 249.304C937.399 249.304 936.199 249.757 935.39 250.663C934.581 251.569 934.177 252.909 934.177 254.682V259.314Z" fill="black"/>
<path d="M948.107 228.759C948.107 231.47 948.416 233.348 949.034 234.394C949.653 235.44 950.71 235.963 952.208 235.963C953.398 235.963 954.343 235.571 955.043 234.785C955.739 234 956.087 232.934 956.087 231.588C956.087 229.726 955.428 228.232 954.109 227.108C952.791 225.985 951.039 225.423 948.853 225.423H948.107V228.759ZM946.718 222.068H958.368V225.423H955.27C956.507 226.189 957.421 227.143 958.012 228.287C958.603 229.43 958.898 230.828 958.898 232.481C958.898 234.569 958.311 236.232 957.137 237.468C955.962 238.701 954.391 239.318 952.423 239.318C950.129 239.318 948.398 238.55 947.232 237.013C946.065 235.473 945.482 233.179 945.482 230.13V225.423H945.149C943.605 225.423 942.411 225.93 941.568 226.945C940.724 227.96 940.302 229.385 940.302 231.221C940.302 232.388 940.442 233.525 940.722 234.633C941.002 235.738 941.422 236.8 941.982 237.818H938.878C938.404 236.593 938.05 235.403 937.817 234.248C937.579 233.093 937.461 231.97 937.461 230.877C937.461 227.921 938.227 225.714 939.759 224.256C941.288 222.798 943.607 222.068 946.718 222.068Z" fill="black"/>
<path d="M946.042 198.188H958.368V201.542H946.153C944.22 201.542 942.775 201.919 941.818 202.674C940.858 203.428 940.378 204.558 940.378 206.063C940.378 207.875 940.955 209.304 942.11 210.35C943.261 211.396 944.834 211.919 946.829 211.919H958.368V215.291H937.951V211.919H941.124C939.895 211.114 938.978 210.169 938.371 209.084C937.764 207.995 937.461 206.739 937.461 205.316C937.461 202.971 938.186 201.198 939.637 199.996C941.087 198.79 943.222 198.188 946.042 198.188Z" fill="black"/>
<path d="M930 191.629V188.258H946.753L937.951 178.248V173.966L947.5 184.793L958.368 173.505V177.88L948.398 188.258H958.368V191.629H930Z" fill="black"/>
<mask id="mask15_130_18" style="mask-type:luminance" maskUnits="userSpaceOnUse" x="1040" y="0" width="761" height="635">
<path d="M1800.07 0H1040.99V634.267H1800.07V0Z" fill="white"/>
</mask>
<g mask="url(#mask15_130_18)">
<path d="M1040.99 39.6416H1125.34H1209.68H1294.02H1378.36H1462.7H1547.05H1631.39H1715.73H1800.07" stroke="#D62728" stroke-width="10" stroke-linecap="square"/>
</g>
<mask id="mask16_130_18" style="mask-type:luminance" maskUnits="userSpaceOnUse" x="1040" y="0" width="761" height="635">
<path d="M1800.07 0H1040.99V634.267H1800.07V0Z" fill="white"/>
</mask>
<g mask="url(#mask16_130_18)">
<path d="M1040.99 39.6416H1125.34H1209.68H1294.02H1378.36H1462.7H1547.05H1631.39H1715.73H1800.07" stroke="#2CA02C" stroke-width="10" stroke-linecap="square"/>
</g>
<mask id="mask17_130_18" style="mask-type:luminance" maskUnits="userSpaceOnUse" x="1040" y="0" width="761" height="635">
<path d="M1800.07 0H1040.99V634.267H1800.07V0Z" fill="white"/>
</mask>
<g mask="url(#mask17_130_18)">
<path d="M1040.99 594.625L1125.34 581.411L1209.68 554.983L1294.02 536.484L1378.36 537.805L1462.7 557.626L1547.05 564.233L1631.39 573.483L1715.73 578.768L1800.07 572.161" stroke="#9467BD" stroke-width="10" stroke-linecap="square"/>
</g>
<mask id="mask18_130_18" style="mask-type:luminance" maskUnits="userSpaceOnUse" x="1040" y="0" width="761" height="635">
<path d="M1800.07 0H1040.99V634.267H1800.07V0Z" fill="white"/>
</mask>
<g mask="url(#mask18_130_18)">
<path d="M1040.99 442.665L1125.34 544.412L1209.68 514.02L1294.02 480.986L1378.36 475.7L1462.7 436.058L1547.05 397.738L1631.39 364.703L1715.73 354.132L1800.07 344.883" stroke="#1F77B4" stroke-width="10" stroke-linecap="square"/>
</g>
<mask id="mask19_130_18" style="mask-type:luminance" maskUnits="userSpaceOnUse" x="1040" y="0" width="761" height="635">
<path d="M1800.07 0H1040.99V634.267H1800.07V0Z" fill="white"/>
</mask>
<g mask="url(#mask19_130_18)">
<path d="M1040.99 39.6416H1125.34H1209.68H1294.02H1378.36H1462.7H1547.05H1631.39H1715.73H1800.07" stroke="#FF7F0E" stroke-width="10" stroke-linecap="square"/>
</g>
<mask id="mask20_130_18" style="mask-type:luminance" maskUnits="userSpaceOnUse" x="1040" y="0" width="761" height="635">
<path d="M1800.07 0H1040.99V634.267H1800.07V0Z" fill="white"/>
</mask>
<g mask="url(#mask20_130_18)">
<path d="M1040.99 594.625L1800.07 237.85" stroke="#808080" stroke-width="10" stroke-dasharray="24.67 10.67"/>
</g>
<path d="M1040.99 634.267V0" stroke="black" stroke-width="6.66667" stroke-linecap="square"/>
<path d="M1040.99 634.267H1800.07" stroke="black" stroke-width="6.66667" stroke-linecap="square"/>
</g>
<g clip-path="url(#clip1_130_18)">
<mask id="mask21_130_18" style="mask-type:luminance" maskUnits="userSpaceOnUse" x="1937" y="0" width="761" height="635">
<path d="M2697.07 0H1937.99V634.267H2697.07V0Z" fill="white"/>
</mask>
<g mask="url(#mask21_130_18)">
<path d="M1937.99 456.711V515.446L2022.34 563.805L2106.68 564.502L2191.02 557.357L2275.36 570.966L2359.7 558.712L2444.05 573.153L2528.39 554.62L2612.73 540.411L2697.07 542.045V462.752L2612.73 468.052L2528.39 484.288L2444.05 486.388L2359.7 491.945L2275.36 529.695L2191.02 496.713L2106.68 477.688L2022.34 408.996L1937.99 456.711Z" fill="#D62728" fill-opacity="0.08" stroke="#D62728" stroke-opacity="0.08" stroke-width="1.33333"/>
</g>
<mask id="mask22_130_18" style="mask-type:luminance" maskUnits="userSpaceOnUse" x="1937" y="0" width="761" height="635">
<path d="M2697.07 0H1937.99V634.267H2697.07V0Z" fill="white"/>
</mask>
<g mask="url(#mask22_130_18)">
<path d="M1937.99 430.109V527.874L2022.34 516.922L2106.68 531.003L2191.02 580.043L2275.36 607.59L2359.7 559.594L2444.05 537.918L2528.39 533.372L2612.73 520.954L2697.07 527.814V443.387L2612.73 439.664L2528.39 443.752L2444.05 439.066L2359.7 426.839L2275.36 416.316L2191.02 414.56L2106.68 429.194L2022.34 432.252L1937.99 430.109Z" fill="#2CA02C" fill-opacity="0.08" stroke="#2CA02C" stroke-opacity="0.08" stroke-width="1.33333"/>
</g>
<mask id="mask23_130_18" style="mask-type:luminance" maskUnits="userSpaceOnUse" x="1937" y="0" width="761" height="635">
<path d="M2697.07 0H1937.99V634.267H2697.07V0Z" fill="white"/>
</mask>
<g mask="url(#mask23_130_18)">
<path d="M1937.99 74.0505V95.9895L2022.34 102.93L2106.68 108.209L2191.02 109.514L2275.36 112.083L2359.7 110.702L2444.05 144.976L2528.39 135.608L2612.73 141.766L2697.07 138.003V100.059L2612.73 98.5113L2528.39 104.407L2444.05 99.7655L2359.7 90.1124L2275.36 87.7362L2191.02 86.7946L2106.68 85.6461L2022.34 76.9855L1937.99 74.0505Z" fill="#9467BD" fill-opacity="0.08" stroke="#9467BD" stroke-opacity="0.08" stroke-width="1.33333"/>
</g>
<mask id="mask24_130_18" style="mask-type:luminance" maskUnits="userSpaceOnUse" x="1937" y="0" width="761" height="635">
<path d="M2697.07 0H1937.99V634.267H2697.07V0Z" fill="white"/>
</mask>
<g mask="url(#mask24_130_18)">
<path d="M1937.99 248.205V573.317L2022.34 519.571L2106.68 423.615L2191.02 484.502L2275.36 467.348L2359.7 550.696L2444.05 345.367L2528.39 317.633L2612.73 320.454L2697.07 330.579V253.865L2612.73 251.466L2528.39 246.053L2444.05 242.956L2359.7 224.386L2275.36 228.353L2191.02 224.75L2106.68 229.868L2022.34 244.196L1937.99 248.205Z" fill="#1F77B4" fill-opacity="0.08" stroke="#1F77B4" stroke-opacity="0.08" stroke-width="1.33333"/>
</g>
<mask id="mask25_130_18" style="mask-type:luminance" maskUnits="userSpaceOnUse" x="1937" y="0" width="761" height="635">
<path d="M2697.07 0H1937.99V634.267H2697.07V0Z" fill="white"/>
</mask>
<g mask="url(#mask25_130_18)">
<path d="M1937.99 284.435V326.116L2022.34 367.516L2106.68 399.091L2191.02 377.157L2275.36 351.138L2359.7 356.896L2444.05 368.588L2528.39 369.456L2612.73 374.843L2697.07 361.913V277.892L2612.73 282.258L2528.39 281.867L2444.05 286.703L2359.7 288.275L2275.36 296.192L2191.02 291.663L2106.68 298.182L2022.34 295.186L1937.99 284.435Z" fill="#FF7F0E" fill-opacity="0.08" stroke="#FF7F0E" stroke-opacity="0.08" stroke-width="1.33333"/>
</g>
<path d="M1937.99 634.267V644.933V634.267Z" fill="black"/>
<path d="M1937.99 634.267V644.933" stroke="black" stroke-width="6.66667"/>
<path d="M1930.75 674.87H1936.76V654.103L1930.22 655.416V652.061L1936.73 650.749H1940.41V674.87H1946.42V677.967H1930.75V674.87Z" fill="black"/>
<path d="M2275.36 634.267V644.933V634.267Z" fill="black"/>
<path d="M2275.36 634.267V644.933" stroke="black" stroke-width="6.66667"/>
<path d="M2267.52 650.749H2281.97V653.852H2270.89V660.52C2271.42 660.337 2271.95 660.201 2272.49 660.112C2273.02 660.022 2273.56 659.977 2274.1 659.977C2277.13 659.977 2279.54 660.81 2281.31 662.474C2283.09 664.139 2283.98 666.392 2283.98 669.235C2283.98 672.163 2283.07 674.44 2281.24 676.066C2279.42 677.687 2276.85 678.498 2273.53 678.498C2272.39 678.498 2271.22 678.401 2270.04 678.207C2268.85 678.012 2267.63 677.721 2266.37 677.332V673.627C2267.46 674.222 2268.59 674.666 2269.76 674.957C2270.92 675.249 2272.16 675.395 2273.45 675.395C2275.56 675.395 2277.22 674.843 2278.45 673.738C2279.68 672.634 2280.29 671.133 2280.29 669.235C2280.29 667.341 2279.68 665.842 2278.45 664.737C2277.22 663.629 2275.56 663.075 2273.45 663.075C2272.47 663.075 2271.49 663.184 2270.51 663.402C2269.53 663.619 2268.54 663.96 2267.52 664.422V650.749Z" fill="black"/>
<path d="M2697.07 634.267V644.933V634.267Z" fill="black"/>
<path d="M2697.07 634.267V644.933" stroke="black" stroke-width="6.66667"/>
<path d="M2677.95 674.87H2683.97V654.103L2677.42 655.416V652.062L2683.93 650.749H2687.61V674.87H2693.63V677.968H2677.95V674.87Z" fill="black"/>
<path d="M2708.94 653.176C2707.04 653.176 2705.62 654.109 2704.66 655.976C2703.71 657.839 2703.23 660.642 2703.23 664.387C2703.23 668.117 2703.71 670.915 2704.66 672.782C2705.62 674.648 2707.04 675.582 2708.94 675.582C2710.85 675.582 2712.28 674.648 2713.23 672.782C2714.19 670.915 2714.67 668.117 2714.67 664.387C2714.67 660.642 2714.19 657.839 2713.23 655.976C2712.28 654.109 2710.85 653.176 2708.94 653.176ZM2708.94 650.259C2711.99 650.259 2714.32 651.467 2715.93 653.882C2717.54 656.293 2718.35 659.795 2718.35 664.387C2718.35 668.969 2717.54 672.467 2715.93 674.882C2714.32 677.293 2711.99 678.498 2708.94 678.498C2705.89 678.498 2703.56 677.293 2701.95 674.882C2700.34 672.467 2699.53 668.969 2699.53 664.387C2699.53 659.795 2700.34 656.293 2701.95 653.882C2703.56 651.467 2705.89 650.259 2708.94 650.259Z" fill="black"/>
<path d="M2194.12 702.881H2197.8V730.099H2194.12V702.881Z" fill="black"/>
<path d="M2221.96 717.773V730.099H2218.6V717.884C2218.6 715.951 2218.23 714.507 2217.47 713.55C2216.72 712.589 2215.59 712.109 2214.08 712.109C2212.27 712.109 2210.84 712.687 2209.79 713.842C2208.75 714.993 2208.23 716.566 2208.23 718.561V730.099H2204.85V709.682H2208.23V712.856C2209.03 711.627 2209.98 710.709 2211.06 710.102C2212.15 709.496 2213.41 709.192 2214.83 709.192C2217.17 709.192 2218.95 709.918 2220.15 711.368C2221.35 712.819 2221.96 714.954 2221.96 717.773Z" fill="black"/>
<path d="M2231.96 703.884V709.682H2238.87V712.29H2231.96V723.373C2231.96 725.038 2232.19 726.107 2232.65 726.582C2233.1 727.056 2234.03 727.293 2235.43 727.293H2238.87V730.099H2235.43C2232.84 730.099 2231.05 729.617 2230.07 728.652C2229.08 727.684 2228.59 725.924 2228.59 723.373V712.29H2226.13V709.682H2228.59V703.884H2231.96Z" fill="black"/>
<path d="M2255.11 712.815C2254.73 712.597 2254.32 712.438 2253.88 712.337C2253.44 712.232 2252.95 712.179 2252.42 712.179C2250.52 712.179 2249.06 712.796 2248.05 714.028C2247.03 715.261 2246.53 717.032 2246.53 719.342V730.099H2243.15V709.682H2246.53V712.856C2247.23 711.615 2248.15 710.696 2249.28 710.097C2250.41 709.494 2251.78 709.192 2253.4 709.192C2253.63 709.192 2253.89 709.208 2254.17 709.239C2254.45 709.266 2254.76 709.311 2255.09 709.373L2255.11 712.815Z" fill="black"/>
<path d="M2258.63 709.682H2261.99V730.099H2258.63V709.682ZM2258.63 701.732H2261.99V705.984H2258.63V701.732Z" fill="black"/>
<path d="M2285.98 717.773V730.099H2282.62V717.884C2282.62 715.951 2282.25 714.507 2281.49 713.55C2280.74 712.589 2279.61 712.109 2278.1 712.109C2276.29 712.109 2274.86 712.687 2273.82 713.842C2272.77 714.993 2272.25 716.566 2272.25 718.561V730.099H2268.87V709.682H2272.25V712.856C2273.05 711.627 2274 710.709 2275.08 710.102C2276.17 709.496 2277.43 709.192 2278.85 709.192C2281.19 709.192 2282.97 709.918 2284.17 711.368C2285.38 712.819 2285.98 714.954 2285.98 717.773Z" fill="black"/>
<path d="M2305.68 710.283V713.457C2304.73 712.97 2303.75 712.607 2302.73 712.366C2301.71 712.121 2300.65 711.998 2299.55 711.998C2297.89 711.998 2296.64 712.253 2295.81 712.762C2294.98 713.272 2294.56 714.038 2294.56 715.061C2294.56 715.838 2294.86 716.449 2295.45 716.892C2296.05 717.336 2297.25 717.758 2299.05 718.158L2300.2 718.415C2302.58 718.924 2304.27 719.644 2305.27 720.573C2306.27 721.503 2306.78 722.8 2306.78 724.464C2306.78 726.362 2306.02 727.865 2304.52 728.973C2303.02 730.078 2300.96 730.63 2298.33 730.63C2297.24 730.63 2296.1 730.523 2294.92 730.309C2293.73 730.095 2292.48 729.776 2291.17 729.352V725.887C2292.41 726.533 2293.63 727.017 2294.83 727.34C2296.04 727.659 2297.23 727.818 2298.41 727.818C2299.99 727.818 2301.2 727.548 2302.05 727.007C2302.9 726.467 2303.33 725.705 2303.33 724.721C2303.33 723.811 2303.02 723.113 2302.41 722.627C2301.8 722.14 2300.45 721.672 2298.37 721.221L2297.2 720.947C2295.13 720.511 2293.63 719.84 2292.7 718.934C2291.78 718.028 2291.32 716.785 2291.32 715.207C2291.32 713.285 2292 711.804 2293.36 710.762C2294.72 709.715 2296.65 709.192 2299.16 709.192C2300.39 709.192 2301.56 709.284 2302.65 709.467C2303.75 709.645 2304.76 709.918 2305.68 710.283Z" fill="black"/>
<path d="M2312.12 709.682H2315.47V730.099H2312.12V709.682ZM2312.12 701.732H2315.47V705.984H2312.12V701.732Z" fill="black"/>
<path d="M2337.18 710.464V713.602C2336.23 713.077 2335.28 712.685 2334.33 712.424C2333.38 712.163 2332.41 712.033 2331.44 712.033C2329.26 712.033 2327.57 712.723 2326.37 714.104C2325.17 715.481 2324.56 717.415 2324.56 719.908C2324.56 722.401 2325.17 724.338 2326.37 725.718C2327.57 727.095 2329.26 727.783 2331.44 727.783C2332.41 727.783 2333.38 727.653 2334.33 727.392C2335.28 727.132 2336.23 726.739 2337.18 726.214V729.317C2336.24 729.753 2335.27 730.08 2334.27 730.297C2333.27 730.519 2332.21 730.63 2331.07 730.63C2328 730.63 2325.55 729.663 2323.74 727.731C2321.93 725.798 2321.03 723.19 2321.03 719.908C2321.03 716.579 2321.94 713.962 2323.77 712.057C2325.6 710.147 2328.11 709.192 2331.3 709.192C2332.33 709.192 2333.33 709.299 2334.32 709.513C2335.3 709.723 2336.26 710.04 2337.18 710.464Z" fill="black"/>
<path d="M2367.94 717.336C2368.73 717.604 2369.49 718.176 2370.24 719.051C2370.99 719.926 2371.74 721.129 2372.49 722.662L2376.23 730.099H2372.27L2368.79 723.117C2367.89 721.293 2367.02 720.083 2366.17 719.488C2365.33 718.893 2364.18 718.596 2362.72 718.596H2358.71V730.099H2355.03V702.881H2363.34C2366.45 702.881 2368.77 703.532 2370.3 704.835C2371.84 706.134 2372.6 708.096 2372.6 710.721C2372.6 712.436 2372.2 713.859 2371.41 714.991C2370.61 716.119 2369.45 716.9 2367.94 717.336ZM2358.71 705.908V715.568H2363.34C2365.11 715.568 2366.45 715.158 2367.36 714.337C2368.26 713.517 2368.72 712.311 2368.72 710.721C2368.72 709.13 2368.26 707.931 2367.36 707.122C2366.45 706.313 2365.11 705.908 2363.34 705.908H2358.71Z" fill="black"/>
<path d="M2389.26 719.838C2386.55 719.838 2384.67 720.147 2383.63 720.766C2382.58 721.384 2382.06 722.442 2382.06 723.939C2382.06 725.129 2382.45 726.074 2383.24 726.774C2384.02 727.47 2385.09 727.818 2386.43 727.818C2388.3 727.818 2389.79 727.159 2390.91 725.841C2392.04 724.522 2392.6 722.77 2392.6 720.585V719.838H2389.26ZM2395.95 718.45V730.099H2392.6V727.002C2391.83 728.238 2390.88 729.152 2389.73 729.743C2388.59 730.334 2387.19 730.63 2385.54 730.63C2383.45 730.63 2381.79 730.043 2380.55 728.868C2379.32 727.694 2378.7 726.123 2378.7 724.155C2378.7 721.86 2379.47 720.13 2381.01 718.963C2382.55 717.797 2384.84 717.213 2387.89 717.213H2392.6V716.881C2392.6 715.337 2392.09 714.143 2391.08 713.299C2390.06 712.455 2388.64 712.033 2386.8 712.033C2385.63 712.033 2384.5 712.173 2383.39 712.453C2382.28 712.733 2381.22 713.153 2380.2 713.713V710.61C2381.43 710.135 2382.62 709.782 2383.77 709.548C2384.93 709.311 2386.05 709.192 2387.14 709.192C2390.1 709.192 2392.31 709.958 2393.77 711.491C2395.22 713.019 2395.95 715.339 2395.95 718.45Z" fill="black"/>
<path d="M2419.83 717.773V730.099H2416.48V717.884C2416.48 715.951 2416.1 714.507 2415.35 713.55C2414.59 712.589 2413.46 712.109 2411.96 712.109C2410.15 712.109 2408.72 712.687 2407.67 713.842C2406.62 714.993 2406.1 716.566 2406.1 718.561V730.099H2402.73V709.682H2406.1V712.856C2406.91 711.627 2407.85 710.709 2408.94 710.102C2410.03 709.496 2411.28 709.192 2412.71 709.192C2415.05 709.192 2416.82 709.918 2418.03 711.368C2419.23 712.819 2419.83 714.954 2419.83 717.773Z" fill="black"/>
<path d="M2426.39 701.732H2429.76V718.485L2439.77 709.682H2444.05L2433.23 719.232L2444.52 730.099H2440.14L2429.76 720.13V730.099H2426.39V701.732Z" fill="black"/>
<path d="M1937.99 396.555H1927.33H1937.99Z" fill="black"/>
<path d="M1937.99 396.555H1927.33" stroke="black" stroke-width="6.66667"/>
<path d="M1861.59 407.355H1867.6V386.589L1861.05 387.901V384.547L1867.56 383.235H1871.25V407.355H1877.26V410.453H1861.59V407.355Z" fill="black"/>
<path d="M1892.57 385.661C1890.68 385.661 1889.25 386.594 1888.3 388.461C1887.34 390.324 1886.87 393.128 1886.87 396.873C1886.87 400.602 1887.34 403.4 1888.3 405.267C1889.25 407.134 1890.68 408.067 1892.57 408.067C1894.48 408.067 1895.91 407.134 1896.86 405.267C1897.82 403.4 1898.3 400.602 1898.3 396.873C1898.3 393.128 1897.82 390.324 1896.86 388.461C1895.91 386.594 1894.48 385.661 1892.57 385.661ZM1892.57 382.744C1895.62 382.744 1897.96 383.952 1899.57 386.367C1901.18 388.778 1901.98 392.28 1901.98 396.873C1901.98 401.454 1901.18 404.952 1899.57 407.367C1897.96 409.778 1895.62 410.984 1892.57 410.984C1889.52 410.984 1887.19 409.778 1885.58 407.367C1883.97 404.952 1883.17 401.454 1883.17 396.873C1883.17 392.28 1883.97 388.778 1885.58 386.367C1887.19 383.952 1889.52 382.744 1892.57 382.744Z" fill="black"/>
<path d="M1913.12 378.807C1911.8 378.807 1910.8 379.46 1910.13 380.767C1909.46 382.071 1909.13 384.034 1909.13 386.655C1909.13 389.266 1909.46 391.224 1910.13 392.531C1910.8 393.838 1911.8 394.491 1913.12 394.491C1914.46 394.491 1915.46 393.838 1916.13 392.531C1916.8 391.224 1917.13 389.266 1917.13 386.655C1917.13 384.034 1916.8 382.071 1916.13 380.767C1915.46 379.46 1914.46 378.807 1913.12 378.807ZM1913.12 376.765C1915.26 376.765 1916.89 377.611 1918.02 379.301C1919.14 380.989 1919.71 383.44 1919.71 386.655C1919.71 389.862 1919.14 392.311 1918.02 394.001C1916.89 395.689 1915.26 396.533 1913.12 396.533C1910.99 396.533 1909.36 395.689 1908.23 394.001C1907.1 392.311 1906.54 389.862 1906.54 386.655C1906.54 383.44 1907.1 380.989 1908.23 379.301C1909.36 377.611 1910.99 376.765 1913.12 376.765Z" fill="black"/>
<path d="M1937.99 224.217H1927.33H1937.99Z" fill="black"/>
<path d="M1937.99 224.217H1927.33" stroke="black" stroke-width="6.66667"/>
<path d="M1861.59 235.048H1867.6V214.281L1861.05 215.593V212.239L1867.56 210.927H1871.25V235.048H1877.26V238.145H1861.59V235.048Z" fill="black"/>
<path d="M1892.57 213.353C1890.68 213.353 1889.25 214.287 1888.3 216.153C1887.34 218.016 1886.87 220.82 1886.87 224.565C1886.87 228.294 1887.34 231.092 1888.3 232.959C1889.25 234.826 1890.68 235.759 1892.57 235.759C1894.48 235.759 1895.91 234.826 1896.86 232.959C1897.82 231.092 1898.3 228.294 1898.3 224.565C1898.3 220.82 1897.82 218.016 1896.86 216.153C1895.91 214.287 1894.48 213.353 1892.57 213.353ZM1892.57 210.437C1895.62 210.437 1897.96 211.644 1899.57 214.059C1901.18 216.47 1901.98 219.972 1901.98 224.565C1901.98 229.146 1901.18 232.644 1899.57 235.059C1897.96 237.47 1895.62 238.676 1892.57 238.676C1889.52 238.676 1887.19 237.47 1885.58 235.059C1883.97 232.644 1883.17 229.146 1883.17 224.565C1883.17 219.972 1883.97 216.47 1885.58 214.059C1887.19 211.644 1889.52 210.437 1892.57 210.437Z" fill="black"/>
<path d="M1908.06 221.685H1912.27V207.148L1907.69 208.067V205.719L1912.24 204.8H1914.82V221.685H1919.03V223.853H1908.06V221.685Z" fill="black"/>
<path d="M1937.99 103.758H1927.33H1937.99Z" fill="black"/>
<path d="M1937.99 103.758H1927.33" stroke="black" stroke-width="6.66667"/>
<path d="M1937.99 51.8789H1927.33H1937.99Z" fill="black"/>
<path d="M1937.99 51.8789H1927.33" stroke="black" stroke-width="6.66667"/>
<path d="M1861.59 62.6794H1867.6V41.9127L1861.05 43.2252V39.871L1867.56 38.5585H1871.25V62.6794H1877.26V65.7769H1861.59V62.6794Z" fill="black"/>
<path d="M1892.57 40.9851C1890.68 40.9851 1889.25 41.9185 1888.3 43.7851C1887.34 45.6479 1886.87 48.4518 1886.87 52.1968C1886.87 55.9262 1887.34 58.7243 1888.3 60.591C1889.25 62.4576 1890.68 63.391 1892.57 63.391C1894.48 63.391 1895.91 62.4576 1896.86 60.591C1897.82 58.7243 1898.3 55.9262 1898.3 52.1968C1898.3 48.4518 1897.82 45.6479 1896.86 43.7851C1895.91 41.9185 1894.48 40.9851 1892.57 40.9851ZM1892.57 38.0685C1895.62 38.0685 1897.96 39.2759 1899.57 41.691C1901.18 44.1021 1901.98 47.604 1901.98 52.1968C1901.98 56.7779 1901.18 60.276 1899.57 62.691C1897.96 65.1021 1895.62 66.3076 1892.57 66.3076C1889.52 66.3076 1887.19 65.1021 1885.58 62.691C1883.97 60.276 1883.17 56.7779 1883.17 52.1968C1883.17 47.604 1883.97 44.1021 1885.58 41.691C1887.19 39.2759 1889.52 38.0685 1892.57 38.0685Z" fill="black"/>
<path d="M1909.83 49.3169H1918.83V51.4851H1906.73V49.3169C1907.71 48.3042 1909.04 46.9458 1910.73 45.2417C1912.42 43.5349 1913.48 42.4337 1913.91 41.9383C1914.74 41.0127 1915.31 40.2287 1915.64 39.5863C1915.97 38.9438 1916.14 38.3123 1916.14 37.6916C1916.14 36.6789 1915.78 35.8541 1915.07 35.2171C1914.36 34.5774 1913.43 34.2575 1912.29 34.2575C1911.48 34.2575 1910.63 34.3977 1909.73 34.6781C1908.84 34.9585 1907.88 35.3845 1906.86 35.9562V33.351C1907.89 32.9345 1908.86 32.6201 1909.77 32.4078C1910.67 32.1954 1911.5 32.0893 1912.24 32.0893C1914.22 32.0893 1915.79 32.5834 1916.96 33.5715C1918.14 34.557 1918.72 35.8745 1918.72 37.5242C1918.72 38.3082 1918.58 39.0514 1918.28 39.7537C1917.99 40.4533 1917.46 41.2795 1916.68 42.2323C1916.47 42.48 1915.79 43.1932 1914.65 44.3719C1913.51 45.5507 1911.91 47.199 1909.83 49.3169Z" fill="black"/>
<path d="M1937.99 0H1927.33H1937.99Z" fill="black"/>
<path d="M1937.99 0H1927.33" stroke="black" stroke-width="6.66667"/>
<path d="M1937.99 620.772H1935.33H1937.99Z" fill="black"/>
<path d="M1937.99 620.772H1935.33" stroke="black" stroke-width="0.8"/>
<path d="M1937.99 607.126H1935.33H1937.99Z" fill="black"/>
<path d="M1937.99 607.126H1935.33" stroke="black" stroke-width="0.8"/>
<path d="M1937.99 595.588H1935.33H1937.99Z" fill="black"/>
<path d="M1937.99 595.588H1935.33" stroke="black" stroke-width="0.8"/>
<path d="M1937.99 585.594H1935.33H1937.99Z" fill="black"/>
<path d="M1937.99 585.594H1935.33" stroke="black" stroke-width="0.8"/>
<path d="M1937.99 576.779H1935.33H1937.99Z" fill="black"/>
<path d="M1937.99 576.779H1935.33" stroke="black" stroke-width="0.8"/>
<path d="M1937.99 517.014H1935.33H1937.99Z" fill="black"/>
<path d="M1937.99 517.014H1935.33" stroke="black" stroke-width="0.8"/>
<path d="M1937.99 486.667H1935.33H1937.99Z" fill="black"/>
<path d="M1937.99 486.667H1935.33" stroke="black" stroke-width="0.8"/>
<path d="M1937.99 465.135H1935.33H1937.99Z" fill="black"/>
<path d="M1937.99 465.135H1935.33" stroke="black" stroke-width="0.8"/>
<path d="M1937.99 448.434H1935.33H1937.99Z" fill="black"/>
<path d="M1937.99 448.434H1935.33" stroke="black" stroke-width="0.8"/>
<path d="M1937.99 434.788H1935.33H1937.99Z" fill="black"/>
<path d="M1937.99 434.788H1935.33" stroke="black" stroke-width="0.8"/>
<path d="M1937.99 423.25H1935.33H1937.99Z" fill="black"/>
<path d="M1937.99 423.25H1935.33" stroke="black" stroke-width="0.8"/>
<path d="M1937.99 413.256H1935.33H1937.99Z" fill="black"/>
<path d="M1937.99 413.256H1935.33" stroke="black" stroke-width="0.8"/>
<path d="M1937.99 404.441H1935.33H1937.99Z" fill="black"/>
<path d="M1937.99 404.441H1935.33" stroke="black" stroke-width="0.8"/>
<path d="M1937.99 344.676H1935.33H1937.99Z" fill="black"/>
<path d="M1937.99 344.676H1935.33" stroke="black" stroke-width="0.8"/>
<path d="M1937.99 314.329H1935.33H1937.99Z" fill="black"/>
<path d="M1937.99 314.329H1935.33" stroke="black" stroke-width="0.8"/>
<path d="M1937.99 292.797H1935.33H1937.99Z" fill="black"/>
<path d="M1937.99 292.797H1935.33" stroke="black" stroke-width="0.8"/>
<path d="M1937.99 276.096H1935.33H1937.99Z" fill="black"/>
<path d="M1937.99 276.096H1935.33" stroke="black" stroke-width="0.8"/>
<path d="M1937.99 262.45H1935.33H1937.99Z" fill="black"/>
<path d="M1937.99 262.45H1935.33" stroke="black" stroke-width="0.8"/>
<path d="M1937.99 250.912H1935.33H1937.99Z" fill="black"/>
<path d="M1937.99 250.912H1935.33" stroke="black" stroke-width="0.8"/>
<path d="M1937.99 240.918H1935.33H1937.99Z" fill="black"/>
<path d="M1937.99 240.918H1935.33" stroke="black" stroke-width="0.8"/>
<path d="M1937.99 232.103H1935.33H1937.99Z" fill="black"/>
<path d="M1937.99 232.103H1935.33" stroke="black" stroke-width="0.8"/>
<path d="M1937.99 172.338H1935.33H1937.99Z" fill="black"/>
<path d="M1937.99 172.338H1935.33" stroke="black" stroke-width="0.8"/>
<path d="M1937.99 141.991H1935.33H1937.99Z" fill="black"/>
<path d="M1937.99 141.991H1935.33" stroke="black" stroke-width="0.8"/>
<path d="M1937.99 120.459H1935.33H1937.99Z" fill="black"/>
<path d="M1937.99 120.459H1935.33" stroke="black" stroke-width="0.8"/>
<path d="M1937.99 90.1118H1935.33H1937.99Z" fill="black"/>
<path d="M1937.99 90.1118H1935.33" stroke="black" stroke-width="0.8"/>
<path d="M1937.99 78.5745H1935.33H1937.99Z" fill="black"/>
<path d="M1937.99 78.5745H1935.33" stroke="black" stroke-width="0.8"/>
<path d="M1937.99 68.5801H1935.33H1937.99Z" fill="black"/>
<path d="M1937.99 68.5801H1935.33" stroke="black" stroke-width="0.8"/>
<path d="M1937.99 59.7646H1935.33H1937.99Z" fill="black"/>
<path d="M1937.99 59.7646H1935.33" stroke="black" stroke-width="0.8"/>
<path d="M1811.15 393.139V370.115H1814.25V379.775H1838.37V383.473H1814.25V393.139H1811.15Z" fill="black"/>
<path d="M1817.95 367.872V364.518H1838.37V367.872H1817.95ZM1810 367.872V364.518H1814.25V367.872H1810Z" fill="black"/>
<path d="M1821.87 341.604C1820.36 340.764 1819.25 339.761 1818.53 338.594C1817.82 337.427 1817.46 336.055 1817.46 334.476C1817.46 332.348 1818.21 330.707 1819.69 329.552C1821.18 328.397 1823.3 327.82 1826.04 327.82H1838.37V331.192H1826.15C1824.2 331.192 1822.75 331.54 1821.8 332.236C1820.85 332.928 1820.38 333.984 1820.38 335.403C1820.38 337.142 1820.95 338.516 1822.11 339.527C1823.26 340.535 1824.83 341.038 1826.83 341.038H1838.37V344.41H1826.15C1824.18 344.41 1822.73 344.756 1821.79 345.448C1820.85 346.14 1820.38 347.21 1820.38 348.657C1820.38 350.372 1820.96 351.735 1822.12 352.746C1823.27 353.753 1824.85 354.257 1826.83 354.257H1838.37V357.628H1817.95V354.257H1821.12C1819.87 353.49 1818.95 352.573 1818.35 351.503C1817.76 350.434 1817.46 349.164 1817.46 347.694C1817.46 346.208 1817.84 344.947 1818.59 343.908C1819.34 342.87 1820.44 342.102 1821.87 341.604Z" fill="black"/>
<path d="M1827.32 303.668H1828.96V319.091C1831.27 318.943 1833.03 318.247 1834.24 317.003C1835.45 315.758 1836.05 314.024 1836.05 311.799C1836.05 310.512 1835.89 309.264 1835.58 308.054C1835.26 306.845 1834.79 305.643 1834.16 304.449H1837.33C1837.84 305.655 1838.23 306.89 1838.5 308.154C1838.76 309.417 1838.9 310.699 1838.9 311.998C1838.9 315.257 1837.95 317.837 1836.06 319.739C1834.16 321.64 1831.59 322.591 1828.36 322.591C1825.02 322.591 1822.37 321.689 1820.41 319.884C1818.44 318.08 1817.46 315.646 1817.46 312.581C1817.46 309.836 1818.35 307.664 1820.11 306.065C1821.88 304.467 1824.28 303.668 1827.32 303.668ZM1826.33 307.022C1824.5 307.045 1823.04 307.559 1821.95 308.562C1820.85 309.565 1820.3 310.893 1820.3 312.546C1820.3 314.417 1820.83 315.914 1821.89 317.038C1822.95 318.162 1824.44 318.809 1826.36 318.98L1826.33 307.022Z" fill="black"/>
<path d="M1810.04 278.241C1812.83 279.867 1815.6 281.076 1818.34 281.869C1821.07 282.659 1823.84 283.053 1826.65 283.053C1829.45 283.053 1832.23 282.655 1834.98 281.858C1837.74 281.06 1840.51 279.855 1843.29 278.241V281.158C1840.43 282.978 1837.62 284.341 1834.87 285.247C1832.11 286.153 1829.37 286.606 1826.65 286.606C1823.94 286.606 1821.21 286.157 1818.46 285.258C1815.71 284.356 1812.91 282.989 1810.04 281.158V278.241Z" fill="black"/>
<path d="M1818.55 258.718H1821.72C1821.24 259.663 1820.88 260.646 1820.63 261.669C1820.39 262.688 1820.27 263.746 1820.27 264.843C1820.27 266.507 1820.52 267.755 1821.03 268.588C1821.54 269.42 1822.31 269.836 1823.33 269.836C1824.11 269.836 1824.72 269.538 1825.16 268.943C1825.6 268.348 1826.03 267.151 1826.43 265.35L1826.68 264.201C1827.19 261.821 1827.91 260.129 1828.84 259.126C1829.77 258.123 1831.07 257.621 1832.73 257.621C1834.63 257.621 1836.13 258.371 1837.24 259.873C1838.35 261.374 1838.9 263.437 1838.9 266.062C1838.9 267.155 1838.79 268.294 1838.58 269.48C1838.36 270.666 1838.04 271.915 1837.62 273.225H1834.16C1834.8 271.985 1835.29 270.763 1835.61 269.562C1835.93 268.36 1836.09 267.168 1836.09 265.986C1836.09 264.407 1835.82 263.194 1835.28 262.346C1834.74 261.494 1833.97 261.068 1832.99 261.068C1832.08 261.068 1831.38 261.376 1830.89 261.99C1830.41 262.601 1829.94 263.946 1829.49 266.027L1829.21 267.193C1828.78 269.27 1828.11 270.771 1827.2 271.697C1826.3 272.618 1825.05 273.079 1823.47 273.079C1821.55 273.079 1820.07 272.399 1819.03 271.038C1817.98 269.676 1817.46 267.744 1817.46 265.239C1817.46 264.003 1817.55 262.838 1817.73 261.745C1817.91 260.648 1818.19 259.639 1818.55 258.718Z" fill="black"/>
<path d="M1810.04 252.806V249.889C1812.91 248.069 1815.71 246.706 1818.46 245.8C1821.21 244.894 1823.94 244.441 1826.65 244.441C1829.37 244.441 1832.11 244.894 1834.87 245.8C1837.62 246.706 1840.43 248.069 1843.29 249.889V252.806C1840.51 251.192 1837.74 249.987 1834.98 249.189C1832.23 248.392 1829.45 247.994 1826.65 247.994C1823.84 247.994 1821.07 248.392 1818.34 249.189C1815.6 249.987 1812.83 251.192 1810.04 252.806Z" fill="black"/>
<mask id="mask26_130_18" style="mask-type:luminance" maskUnits="userSpaceOnUse" x="1937" y="0" width="761" height="635">
<path d="M2697.07 0H1937.99V634.267H2697.07V0Z" fill="white"/>
</mask>
<g mask="url(#mask26_130_18)">
<path d="M1937.99 480.459L2022.34 451.967L2106.68 509.156L2191.02 521.054L2275.36 547.521L2359.7 518.118L2444.05 517.844L2528.39 511.48L2612.73 495.807L2697.07 492.355" stroke="#D62728" stroke-width="10" stroke-linecap="square"/>
</g>
<mask id="mask27_130_18" style="mask-type:luminance" maskUnits="userSpaceOnUse" x="1937" y="0" width="761" height="635">
<path d="M2697.07 0H1937.99V634.267H2697.07V0Z" fill="white"/>
</mask>
<g mask="url(#mask27_130_18)">
<path d="M1937.99 464.049L2022.34 463.202L2106.68 463.978L2191.02 458.655L2275.36 462.598L2359.7 466.986L2444.05 473.237L2528.39 475.88L2612.73 469.776L2697.07 474.278" stroke="#2CA02C" stroke-width="10" stroke-linecap="square"/>
</g>
<mask id="mask28_130_18" style="mask-type:luminance" maskUnits="userSpaceOnUse" x="1937" y="0" width="761" height="635">
<path d="M2697.07 0H1937.99V634.267H2697.07V0Z" fill="white"/>
</mask>
<g mask="url(#mask28_130_18)">
<path d="M1937.99 84.219L2022.34 88.839L2106.68 96.0805L2191.02 97.2953L2275.36 98.9241L2359.7 99.7014L2444.05 119.008L2528.39 118.394L2612.73 117.056L2697.07 116.652" stroke="#9467BD" stroke-width="10" stroke-linecap="square"/>
</g>
<mask id="mask29_130_18" style="mask-type:luminance" maskUnits="userSpaceOnUse" x="1937" y="0" width="761" height="635">
<path d="M2697.07 0H1937.99V634.267H2697.07V0Z" fill="white"/>
</mask>
<g mask="url(#mask29_130_18)">
<path d="M1937.99 299.118L2022.34 294.209L2106.68 276.326L2191.02 274.336L2275.36 277.222L2359.7 275.315L2444.05 277.862L2528.39 273.593L2612.73 278.277L2697.07 282.796" stroke="#1F77B4" stroke-width="10" stroke-linecap="square"/>
</g>
<mask id="mask30_130_18" style="mask-type:luminance" maskUnits="userSpaceOnUse" x="1937" y="0" width="761" height="635">
<path d="M2697.07 0H1937.99V634.267H2697.07V0Z" fill="white"/>
</mask>
<g mask="url(#mask30_130_18)">
<path d="M1937.99 302.411L2022.34 322.933L2106.68 332.781L2191.02 322.814L2275.36 318.732L2359.7 314.982L2444.05 316.965L2528.39 313.519L2612.73 315.064L2697.07 308.684" stroke="#FF7F0E" stroke-width="10" stroke-linecap="square"/>
</g>
<path d="M1937.99 634.267V0" stroke="black" stroke-width="6.66667" stroke-linecap="square"/>
<path d="M1937.99 634.267H2697.07" stroke="black" stroke-width="6.66667" stroke-linecap="square"/>
</g>
<path d="M620 810.642H657.333H694.667" stroke="#1F77B4" stroke-width="10" stroke-linecap="square"/>
<path d="M724.907 790.55H729.839V822.85H747.588V827H724.907V790.55ZM765.776 793.895C762.196 793.895 759.347 795.229 757.231 797.898C755.132 800.568 754.082 804.205 754.082 808.812C754.082 813.401 755.132 817.031 757.231 819.7C759.347 822.369 762.196 823.704 765.776 823.704C769.357 823.704 772.189 822.369 774.272 819.7C776.372 817.031 777.422 813.401 777.422 808.812C777.422 804.205 776.372 800.568 774.272 797.898C772.189 795.229 769.357 793.895 765.776 793.895ZM765.776 789.891C770.887 789.891 774.972 791.608 778.032 795.042C781.092 798.46 782.622 803.05 782.622 808.812C782.622 814.557 781.092 819.147 778.032 822.581C774.972 825.999 770.887 827.708 765.776 827.708C760.649 827.708 756.548 825.999 753.472 822.581C750.412 819.163 748.882 814.573 748.882 808.812C748.882 803.05 750.412 798.46 753.472 795.042C756.548 791.608 760.649 789.891 765.776 789.891ZM807.622 809.91C808.68 810.268 809.705 811.033 810.698 812.205C811.707 813.377 812.716 814.988 813.726 817.039L818.73 827H813.433L808.77 817.649C807.565 815.208 806.393 813.589 805.254 812.791C804.131 811.993 802.593 811.595 800.64 811.595H795.269V827H790.337V790.55H801.47C805.636 790.55 808.745 791.421 810.796 793.162C812.847 794.904 813.872 797.532 813.872 801.048C813.872 803.343 813.335 805.247 812.261 806.761C811.203 808.274 809.657 809.324 807.622 809.91ZM795.269 794.603V807.542H801.47C803.846 807.542 805.636 806.997 806.841 805.906C808.062 804.799 808.672 803.18 808.672 801.048C808.672 798.916 808.062 797.312 806.841 796.238C805.636 795.148 803.846 794.603 801.47 794.603H795.269ZM825.103 790.55H848.149V794.7H830.034V805.491H847.393V809.642H830.034V822.85H848.589V827H825.103V790.55ZM883.208 789.061C881.027 792.804 879.408 796.507 878.35 800.169C877.292 803.831 876.763 807.542 876.763 811.302C876.763 815.062 877.292 818.789 878.35 822.483C879.424 826.162 881.043 829.865 883.208 833.592H879.302C876.86 829.767 875.029 826.007 873.809 822.312C872.604 818.618 872.002 814.948 872.002 811.302C872.002 807.672 872.604 804.018 873.809 800.34C875.013 796.661 876.844 792.902 879.302 789.061H883.208ZM902.544 802.806C900.135 802.806 898.231 803.75 896.831 805.638C895.431 807.509 894.731 810.081 894.731 813.353C894.731 816.624 895.423 819.204 896.807 821.092C898.206 822.964 900.119 823.899 902.544 823.899C904.937 823.899 906.833 822.955 908.232 821.067C909.632 819.179 910.332 816.608 910.332 813.353C910.332 810.114 909.632 807.55 908.232 805.662C906.833 803.758 904.937 802.806 902.544 802.806ZM902.544 798.997C906.45 798.997 909.518 800.267 911.748 802.806C913.978 805.345 915.093 808.86 915.093 813.353C915.093 817.828 913.978 821.344 911.748 823.899C909.518 826.438 906.45 827.708 902.544 827.708C898.621 827.708 895.545 826.438 893.315 823.899C891.102 821.344 889.995 817.828 889.995 813.353C889.995 808.86 891.102 805.345 893.315 802.806C895.545 800.267 898.621 798.997 902.544 798.997ZM922.1 816.209V799.656H926.592V816.038C926.592 818.626 927.096 820.571 928.105 821.873C929.115 823.159 930.628 823.802 932.646 823.802C935.072 823.802 936.984 823.029 938.384 821.482C939.8 819.936 940.508 817.828 940.508 815.159V799.656H945V827H940.508V822.801C939.417 824.461 938.148 825.698 936.699 826.512C935.267 827.309 933.599 827.708 931.694 827.708C928.553 827.708 926.169 826.731 924.541 824.778C922.913 822.825 922.1 819.969 922.1 816.209ZM970.098 803.855C969.593 803.562 969.04 803.351 968.438 803.221C967.852 803.074 967.201 803.001 966.484 803.001C963.945 803.001 961.992 803.831 960.625 805.491C959.274 807.135 958.599 809.503 958.599 812.596V827H954.082V799.656H958.599V803.904C959.543 802.244 960.771 801.015 962.285 800.218C963.799 799.404 965.638 798.997 967.803 798.997C968.112 798.997 968.454 799.021 968.828 799.07C969.202 799.103 969.618 799.16 970.073 799.241L970.098 803.855ZM992.241 800.462V804.71C990.972 804.059 989.653 803.571 988.286 803.245C986.919 802.92 985.503 802.757 984.038 802.757C981.808 802.757 980.132 803.099 979.009 803.782C977.902 804.466 977.349 805.491 977.349 806.858C977.349 807.9 977.747 808.722 978.545 809.324C979.342 809.91 980.946 810.472 983.354 811.009L984.893 811.351C988.083 812.034 990.345 813.003 991.68 814.256C993.031 815.493 993.706 817.226 993.706 819.456C993.706 821.995 992.697 824.005 990.679 825.486C988.677 826.967 985.918 827.708 982.402 827.708C980.938 827.708 979.408 827.562 977.812 827.269C976.234 826.992 974.565 826.569 972.808 825.999V821.36C974.468 822.223 976.104 822.874 977.715 823.313C979.326 823.737 980.921 823.948 982.5 823.948C984.616 823.948 986.243 823.59 987.383 822.874C988.522 822.142 989.092 821.116 989.092 819.798C989.092 818.577 988.677 817.641 987.847 816.99C987.033 816.339 985.234 815.713 982.451 815.11L980.889 814.744C978.105 814.158 976.095 813.263 974.858 812.059C973.621 810.838 973.003 809.17 973.003 807.054C973.003 804.482 973.914 802.496 975.737 801.097C977.56 799.697 980.148 798.997 983.501 798.997C985.161 798.997 986.724 799.119 988.188 799.363C989.653 799.607 991.004 799.974 992.241 800.462ZM1000.18 789.061H1004.08C1006.52 792.902 1008.35 796.661 1009.55 800.34C1010.77 804.018 1011.38 807.672 1011.38 811.302C1011.38 814.948 1010.77 818.618 1009.55 822.312C1008.35 826.007 1006.52 829.767 1004.08 833.592H1000.18C1002.34 829.865 1003.95 826.162 1005.01 822.483C1006.08 818.789 1006.62 815.062 1006.62 811.302C1006.62 807.542 1006.08 803.831 1005.01 800.169C1003.95 796.507 1002.34 792.804 1000.18 789.061Z" fill="black"/>
<path d="M1857 811H1894.33H1931.67" stroke="#9467BD" stroke-width="10" stroke-linecap="square"/>
<path d="M1966.84 794.603V822.947H1972.8C1977.83 822.947 1981.5 821.808 1983.83 819.529C1986.17 817.251 1987.35 813.654 1987.35 808.738C1987.35 803.855 1986.17 800.283 1983.83 798.021C1981.5 795.742 1977.83 794.603 1972.8 794.603H1966.84ZM1961.91 790.55H1972.04C1979.1 790.55 1984.29 792.023 1987.59 794.969C1990.89 797.898 1992.55 802.488 1992.55 808.738C1992.55 815.021 1990.89 819.635 1987.57 822.581C1984.25 825.527 1979.07 827 1972.04 827H1961.91V790.55ZM2000.24 799.656H2004.73V827H2000.24V799.656ZM2000.24 789.012H2004.73V794.7H2000.24V789.012ZM2035.44 804.905C2036.57 802.887 2037.91 801.398 2039.47 800.438C2041.03 799.477 2042.87 798.997 2044.99 798.997C2047.84 798.997 2050.03 799.998 2051.58 802C2053.13 803.986 2053.9 806.818 2053.9 810.496V827H2049.38V810.643C2049.38 808.022 2048.92 806.077 2047.99 804.808C2047.06 803.538 2045.65 802.903 2043.74 802.903C2041.42 802.903 2039.58 803.676 2038.23 805.223C2036.87 806.769 2036.2 808.877 2036.2 811.546V827H2031.68V810.643C2031.68 808.006 2031.22 806.061 2030.29 804.808C2029.36 803.538 2027.93 802.903 2025.99 802.903C2023.7 802.903 2021.88 803.685 2020.53 805.247C2019.17 806.793 2018.5 808.893 2018.5 811.546V827H2013.98V799.656H2018.5V803.904C2019.52 802.228 2020.75 800.991 2022.19 800.193C2023.62 799.396 2025.32 798.997 2027.29 798.997C2029.27 798.997 2030.96 799.502 2032.34 800.511C2033.74 801.52 2034.78 802.985 2035.44 804.905ZM2060.61 811.302H2073.77V815.306H2060.61V811.302ZM2108.44 793.357V798.558C2106.78 797.011 2105.01 795.856 2103.12 795.091C2101.25 794.326 2099.25 793.943 2097.14 793.943C2092.97 793.943 2089.78 795.221 2087.57 797.776C2085.35 800.315 2084.25 803.994 2084.25 808.812C2084.25 813.613 2085.35 817.291 2087.57 819.847C2089.78 822.386 2092.97 823.655 2097.14 823.655C2099.25 823.655 2101.25 823.273 2103.12 822.508C2105.01 821.743 2106.78 820.587 2108.44 819.041V824.192C2106.72 825.364 2104.88 826.243 2102.95 826.829C2101.03 827.415 2098.99 827.708 2096.84 827.708C2091.33 827.708 2086.98 826.023 2083.81 822.654C2080.63 819.269 2079.05 814.655 2079.05 808.812C2079.05 802.952 2080.63 798.338 2083.81 794.969C2086.98 791.583 2091.33 789.891 2096.84 789.891C2099.02 789.891 2101.08 790.184 2103 790.77C2104.93 791.339 2106.75 792.202 2108.44 793.357ZM2125.46 827L2111.54 790.55H2116.69L2128.24 821.238L2139.81 790.55H2144.94L2131.05 827H2125.46Z" fill="black"/>
<path d="M1614 811H1651.33H1688.67" stroke="#D62728" stroke-width="10" stroke-linecap="square"/>
<path d="M1746.2 793.357V798.558C1744.54 797.011 1742.77 795.856 1740.88 795.091C1739.01 794.326 1737.01 793.943 1734.9 793.943C1730.73 793.943 1727.54 795.221 1725.33 797.776C1723.11 800.315 1722.01 803.994 1722.01 808.812C1722.01 813.613 1723.11 817.291 1725.33 819.847C1727.54 822.386 1730.73 823.655 1734.9 823.655C1737.01 823.655 1739.01 823.273 1740.88 822.508C1742.77 821.743 1744.54 820.587 1746.2 819.041V824.192C1744.48 825.364 1742.65 826.243 1740.71 826.829C1738.79 827.415 1736.75 827.708 1734.61 827.708C1729.09 827.708 1724.74 826.023 1721.57 822.654C1718.39 819.269 1716.81 814.655 1716.81 808.812C1716.81 802.952 1718.39 798.338 1721.57 794.969C1724.74 791.583 1729.09 789.891 1734.61 789.891C1736.79 789.891 1738.84 790.184 1740.76 790.77C1742.69 791.339 1744.51 792.202 1746.2 793.357ZM1753.82 790.55H1758.75V805.955L1775.11 790.55H1781.46L1763.37 807.542L1782.75 827H1776.26L1758.75 809.446V827H1753.82V790.55ZM1786.63 790.55H1791.56V822.85H1809.31V827H1786.63V790.55Z" fill="black"/>
<path d="M1296 811H1333.33H1370.67" stroke="#2CA02C" stroke-width="10" stroke-linecap="square"/>
<path d="M1400.91 790.55H1421.85V794.7H1405.84V805.442H1420.29V809.593H1405.84V827H1400.91V790.55ZM1444.46 793.895C1440.88 793.895 1438.03 795.229 1435.92 797.898C1433.82 800.568 1432.77 804.205 1432.77 808.812C1432.77 813.401 1433.82 817.031 1435.92 819.7C1438.03 822.369 1440.88 823.704 1444.46 823.704C1448.04 823.704 1450.87 822.369 1452.96 819.7C1455.06 817.031 1456.11 813.401 1456.11 808.812C1456.11 804.205 1455.06 800.568 1452.96 797.898C1450.87 795.229 1448.04 793.895 1444.46 793.895ZM1444.46 789.891C1449.57 789.891 1453.66 791.608 1456.72 795.042C1459.78 798.46 1461.31 803.05 1461.31 808.812C1461.31 814.557 1459.78 819.147 1456.72 822.581C1453.66 825.999 1449.57 827.708 1444.46 827.708C1439.33 827.708 1435.23 825.999 1432.16 822.581C1429.1 819.163 1427.57 814.573 1427.57 808.812C1427.57 803.05 1429.1 798.46 1432.16 795.042C1435.23 791.608 1439.33 789.891 1444.46 789.891ZM1486.31 809.91C1487.37 810.268 1488.39 811.033 1489.38 812.205C1490.39 813.377 1491.4 814.988 1492.41 817.039L1497.42 827H1492.12L1487.46 817.649C1486.25 815.208 1485.08 813.589 1483.94 812.791C1482.82 811.993 1481.28 811.595 1479.33 811.595H1473.95V827H1469.02V790.55H1480.16C1484.32 790.55 1487.43 791.421 1489.48 793.162C1491.53 794.904 1492.56 797.532 1492.56 801.048C1492.56 803.343 1492.02 805.247 1490.95 806.761C1489.89 808.274 1488.34 809.324 1486.31 809.91ZM1473.95 794.603V807.542H1480.16C1482.53 807.542 1484.32 806.997 1485.53 805.906C1486.75 804.799 1487.36 803.18 1487.36 801.048C1487.36 798.916 1486.75 797.312 1485.53 796.238C1484.32 795.148 1482.53 794.603 1480.16 794.603H1473.95ZM1495.07 790.55H1525.91V794.7H1512.97V827H1508.01V794.7H1495.07V790.55ZM1530.69 790.55H1553.74V794.7H1535.62V805.491H1552.98V809.642H1535.62V822.85H1554.18V827H1530.69V790.55Z" fill="black"/>
<path d="M1053 811H1090.33H1127.67" stroke="#FF7F0E" stroke-width="10" stroke-linecap="square"/>
<path d="M1179.76 791.746V796.556C1177.89 795.66 1176.12 794.993 1174.46 794.554C1172.8 794.114 1171.2 793.895 1169.65 793.895C1166.96 793.895 1164.89 794.415 1163.42 795.457C1161.98 796.499 1161.25 797.98 1161.25 799.9C1161.25 801.512 1161.73 802.732 1162.69 803.562C1163.67 804.376 1165.51 805.035 1168.21 805.54L1171.19 806.15C1174.87 806.85 1177.58 808.087 1179.32 809.861C1181.08 811.619 1181.96 813.979 1181.96 816.941C1181.96 820.473 1180.77 823.151 1178.39 824.974C1176.03 826.797 1172.56 827.708 1167.99 827.708C1166.26 827.708 1164.43 827.513 1162.47 827.122C1160.54 826.731 1158.53 826.154 1156.44 825.389V820.311C1158.44 821.434 1160.41 822.28 1162.33 822.85C1164.25 823.419 1166.13 823.704 1167.99 823.704C1170.81 823.704 1172.98 823.151 1174.51 822.044C1176.04 820.937 1176.8 819.358 1176.8 817.308C1176.8 815.517 1176.25 814.118 1175.14 813.108C1174.05 812.099 1172.25 811.342 1169.75 810.838L1166.75 810.252C1163.07 809.52 1160.41 808.372 1158.76 806.81C1157.12 805.247 1156.3 803.074 1156.3 800.291C1156.3 797.068 1157.43 794.529 1159.69 792.674C1161.97 790.818 1165.1 789.891 1169.09 789.891C1170.8 789.891 1172.54 790.045 1174.31 790.354C1176.09 790.664 1177.9 791.128 1179.76 791.746ZM1204.44 793.895C1200.86 793.895 1198.01 795.229 1195.9 797.898C1193.8 800.568 1192.75 804.205 1192.75 808.812C1192.75 813.401 1193.8 817.031 1195.9 819.7C1198.01 822.369 1200.86 823.704 1204.44 823.704C1208.02 823.704 1210.85 822.369 1212.94 819.7C1215.04 817.031 1216.09 813.401 1216.09 808.812C1216.09 804.205 1215.04 800.568 1212.94 797.898C1210.85 795.229 1208.02 793.895 1204.44 793.895ZM1204.44 789.891C1209.55 789.891 1213.64 791.608 1216.7 795.042C1219.76 798.46 1221.29 803.05 1221.29 808.812C1221.29 814.557 1219.76 819.147 1216.7 822.581C1213.64 825.999 1209.55 827.708 1204.44 827.708C1199.31 827.708 1195.21 825.999 1192.14 822.581C1189.08 819.163 1187.55 814.573 1187.55 808.812C1187.55 803.05 1189.08 798.46 1192.14 795.042C1195.21 791.608 1199.31 789.891 1204.44 789.891ZM1229 790.55H1252.05V794.7H1233.93V805.491H1251.29V809.642H1233.93V822.85H1252.49V827H1229V790.55Z" fill="black"/>
<defs>
<clipPath id="clip0_130_18">
<rect width="932.827" height="737.863" fill="white" transform="translate(891)"/>
</clipPath>
<clipPath id="clip1_130_18">
<rect width="932.827" height="737.863" fill="white" transform="translate(1799)"/>
</clipPath>
</defs>
</svg>
