<svg width="359" height="226" viewBox="0 0 359 226" fill="none" xmlns="http://www.w3.org/2000/svg">
<g opacity="0.8">
<rect width="359" height="226" fill="white" fill-opacity="0.84"/>
<path fill-rule="evenodd" clip-rule="evenodd" d="M217.806 186.848L214.922 184.521C221.351 177.437 221.351 166.608 214.922 159.524L217.806 157.198C225.311 165.648 225.311 178.398 217.806 186.848ZM210.494 163.096L207.607 165.425C211.055 169.145 211.055 174.901 207.607 178.62L210.494 180.949C215.018 175.862 215.018 168.183 210.494 163.096ZM203.115 157L193.51 164.622H186.5V179.533H193.52L203.115 187V157ZM190.197 168.349H194.791L199.418 164.678V179.413L194.78 175.805H190.197V168.349Z" fill="black"/>
<path fill-rule="evenodd" clip-rule="evenodd" d="M310.657 180.949L307.77 178.62C311.218 174.901 311.218 169.145 307.77 165.426L310.657 163.096C315.181 168.183 315.181 175.862 310.657 180.949ZM303.278 157L293.673 164.622H286.663V179.533H293.683L303.278 187V157ZM290.36 168.349H294.954L299.581 164.678V179.413L294.943 175.805H290.36V168.349Z" fill="black"/>
<path d="M249.164 110.803C241.788 110.803 235.788 104.792 235.788 97.4025C235.788 90.0127 241.788 84 249.164 84C256.54 84 262.541 90.0121 262.541 97.4022C262.541 104.792 256.54 110.803 249.164 110.803ZM245.242 150.971C245.354 146.631 249.009 143.236 253.35 143.236H266.073V139.998C266.073 139.307 266.632 138.747 267.321 138.747C268.011 138.747 268.569 139.307 268.569 139.998V145.75H253.35C250.386 145.75 247.892 148.044 247.748 151.09C247.595 154.329 250.39 156.986 253.626 156.986H275.838C277.983 156.986 279.721 155.245 279.721 153.096V130.779C279.472 121.914 272.181 114.798 263.52 114.798H251.794C252.839 116.978 252.901 119.596 251.754 121.92L236.076 154.991C235.704 155.742 235.227 156.415 234.672 157H247.615C247.567 156.952 245.14 154.977 245.242 150.971ZM226.316 156.414C227.115 156.814 227.962 156.999 228.798 156.999C230.865 156.999 232.849 155.853 233.828 153.873L249.499 120.815C250.816 118.155 249.869 114.897 247.21 113.417C246.387 112.959 245.498 112.749 244.617 112.749C242.464 112.749 240.344 114.015 239.327 116.081L233.804 127.228C233.629 127.726 233.161 128.085 232.604 128.085C231.899 128.085 231.327 127.513 231.327 126.806C231.327 126.519 231.426 126.256 231.586 126.042L237.075 114.963C237.08 114.953 237.086 114.944 237.091 114.933C229.224 115.935 223.194 122.613 223.194 130.779C223.194 130.779 223.193 145.134 223.193 150.703C223.194 152.886 224.124 155.327 226.316 156.414Z" fill="black"/>
<path d="M321.871 20.5004C321.049 18.9244 319.762 17.6113 318.167 16.6588C316.573 15.7105 314.649 15.1315 312.56 15.1315C309.986 15.125 307.847 15.8013 306.233 16.7379C304.612 17.6712 303.914 18.7577 303.914 18.7577C303.641 18.9961 303.488 19.3428 303.494 19.7055C303.501 20.0687 303.667 20.4096 303.948 20.6361L306.191 22.4477C306.648 22.8168 307.303 22.8029 307.744 22.4151C307.744 22.4151 308.019 21.9129 308.883 21.4155C309.751 20.9213 310.877 20.5233 312.56 20.518C314.028 20.5148 315.308 21.0672 316.182 21.822C316.616 22.196 316.94 22.6148 317.139 22.9979C317.339 23.3841 317.412 23.7218 317.411 23.9782C317.407 24.8447 317.24 25.4115 316.999 25.8944C316.815 26.255 316.575 26.5751 316.266 26.8855C315.805 27.3503 315.18 27.7797 314.479 28.1745C313.777 28.5741 313.02 28.9256 312.256 29.3504C311.383 29.8376 310.46 30.5374 309.777 31.5877C309.437 32.107 309.171 32.701 309.002 33.3276C308.831 33.9548 308.754 34.6125 308.754 35.2835C308.754 35.9993 308.754 36.5869 308.754 36.5869C308.754 37.2617 309.296 37.8087 309.965 37.8087H312.885C313.554 37.8087 314.096 37.2617 314.096 36.5869C314.096 36.5869 314.096 35.9993 314.096 35.2835C314.096 35.0249 314.125 34.8582 314.153 34.7524C314.202 34.5943 314.229 34.5548 314.308 34.4586C314.388 34.3672 314.551 34.2273 314.851 34.0601C315.289 33.8117 315.993 33.4762 316.79 33.0419C317.984 32.3837 319.435 31.4905 320.659 30.0165C321.268 29.2809 321.806 28.3952 322.177 27.3748C322.552 26.3544 322.754 25.2075 322.753 23.9782C322.752 22.7329 322.417 21.5501 321.871 20.5004Z" fill="black"/>
<path d="M311.426 40.7153C309.606 40.7153 308.131 42.2037 308.131 44.0382C308.131 45.8722 309.606 47.36 311.426 47.36C313.245 47.36 314.72 45.8722 314.72 44.0382C314.72 42.2037 313.245 40.7153 311.426 40.7153Z" fill="black"/>
<path d="M296.302 55.9543C282.622 55.9543 271.532 47.4064 271.532 36.8621C271.532 28.123 279.789 20.0496 292.174 18.4886C296.059 11.3036 305.254 6 315.978 6C329.715 6 340.942 14.2871 341.714 24.7329C349.005 27.2124 354.099 33.2975 354.099 39.8865C354.099 48.7605 344.858 55.9543 333.458 55.9543H296.302Z" stroke="black" stroke-width="3" stroke-linecap="round" stroke-linejoin="round"/>
<path d="M272.221 94.8754C274.104 94.8754 275.631 93.3362 275.631 91.4377C275.631 89.539 274.104 88 272.221 88C270.339 88 268.812 89.539 268.812 91.4377C268.812 93.3362 270.339 94.8754 272.221 94.8754Z" stroke="black" stroke-width="2.5" stroke-miterlimit="10"/>
<path d="M287.544 74.7777C291.318 74.7777 294.376 71.6935 294.376 67.8889C294.376 64.0842 291.318 61 287.544 61C283.771 61 280.713 64.0842 280.713 67.8889C280.713 71.6935 283.771 74.7777 287.544 74.7777Z" stroke="black" stroke-width="2.5" stroke-miterlimit="10"/>
<path d="M280.848 86.272C283.113 86.272 284.949 84.4202 284.949 82.136C284.949 79.8517 283.113 78 280.848 78C278.582 78 276.746 79.8517 276.746 82.136C276.746 84.4202 278.582 86.272 280.848 86.272Z" stroke="black" stroke-width="2.5" stroke-miterlimit="10"/>
<path d="M118 93.1406H28C26.6341 93.1406 23.9658 92.7677 23 93.2365C22.0342 93.7054 21 97.7161 21 98.3792C21 99.0422 21.5426 99.6781 22.5084 100.147C23.4742 100.616 24.7841 100.879 26.15 100.879H31.3V143.379C31.3 144.042 31.8426 144.678 32.8084 145.147C33.7742 145.616 35.0841 145.879 36.45 145.879C37.8159 145.879 39.1258 145.616 40.0916 145.147C41.0574 144.678 41.6 144.042 41.6 143.379L40.0916 118.379H105.5L103.4 143.379C103.4 144.042 103.943 144.678 104.908 145.147C105.874 145.616 107.184 145.879 108.55 145.879C109.916 145.879 111.226 145.616 112.192 145.147C113.157 144.678 113.7 144.042 113.7 143.379V100.879H118.85C120.216 100.879 121.526 100.616 122.492 100.147C123.457 99.6781 124 99.0422 124 98.3792C124 97.7161 122.966 93.9688 122 93.5C121.034 93.0312 119.366 93.1406 118 93.1406ZM82.8 110.879H62.2C60.8341 110.879 59.5242 110.616 58.5584 110.147C57.5926 109.678 57.05 109.042 57.05 108.379C57.05 107.716 57.5926 107.08 58.5584 106.611C59.5242 106.143 60.8341 105.879 62.2 105.879H82.8C84.1659 105.879 85.4758 106.143 86.4416 106.611C87.4074 107.08 87.95 107.716 87.95 108.379C87.95 109.042 87.4074 109.678 86.4416 110.147C85.4758 110.616 84.1659 110.879 82.8 110.879Z" fill="black"/>
<path d="M21 169.629C21 166.454 25.6115 163.879 31.3 163.879H113.7C119.389 163.879 124 166.454 124 169.629V181.129C124 184.305 119.389 186.879 113.7 186.879H31.3C25.6115 186.879 21 184.305 21 181.129V169.629ZM27.8667 169.629V181.129C27.8667 182.112 29.1921 182.922 30.8996 183.033L31.3 183.046H113.7C115.461 183.046 116.912 182.306 117.11 181.353L117.133 181.129V169.629C117.133 168.646 115.808 167.836 114.1 167.725L113.7 167.712H110.267V177.296C110.267 178.354 108.73 179.212 106.833 179.212C104.937 179.212 103.4 178.354 103.4 177.296V167.712H96.5333V173.462C96.5333 174.521 94.9962 175.379 93.1 175.379C91.2038 175.379 89.6667 174.521 89.6667 173.462V167.712H82.8V177.296C82.8 178.354 81.2628 179.212 79.3667 179.212C77.4705 179.212 75.9333 178.354 75.9333 177.296V167.712H69.0667V173.462C69.0667 174.521 67.5295 175.379 65.6333 175.379C63.7372 175.379 62.2 174.521 62.2 173.462V167.712H55.3333V177.296C55.3333 178.354 53.7962 179.212 51.9 179.212C50.0038 179.212 48.4667 178.354 48.4667 177.296V167.712H41.6V173.462C41.6 174.521 40.0628 175.379 38.1667 175.379C36.2705 175.379 34.7333 174.521 34.7333 173.462V167.712H31.3C29.5393 167.712 28.0881 168.452 27.8898 169.406L27.8667 169.629Z" fill="black"/>
<path d="M8.6543 199.252H9.83789V207.004H14.0977V208H8.6543V199.252ZM20.7012 204.449V204.977H15.7441C15.791 205.719 16.0137 206.285 16.4121 206.676C16.8145 207.062 17.373 207.256 18.0879 207.256C18.502 207.256 18.9023 207.205 19.2891 207.104C19.6797 207.002 20.0664 206.85 20.4492 206.646V207.666C20.0625 207.83 19.666 207.955 19.2598 208.041C18.8535 208.127 18.4414 208.17 18.0234 208.17C16.9766 208.17 16.1465 207.865 15.5332 207.256C14.9238 206.646 14.6191 205.822 14.6191 204.783C14.6191 203.709 14.9082 202.857 15.4863 202.229C16.0684 201.596 16.8516 201.279 17.8359 201.279C18.7188 201.279 19.416 201.564 19.9277 202.135C20.4434 202.701 20.7012 203.473 20.7012 204.449ZM19.623 204.133C19.6152 203.543 19.4492 203.072 19.125 202.721C18.8047 202.369 18.3789 202.193 17.8477 202.193C17.2461 202.193 16.7637 202.363 16.4004 202.703C16.041 203.043 15.834 203.521 15.7793 204.139L19.623 204.133ZM27.9258 204.039V208H26.8477V204.074C26.8477 203.453 26.7266 202.988 26.4844 202.68C26.2422 202.371 25.8789 202.217 25.3945 202.217C24.8125 202.217 24.3535 202.402 24.0176 202.773C23.6816 203.145 23.5137 203.65 23.5137 204.291V208H22.4297V201.438H23.5137V202.457C23.7715 202.062 24.0742 201.768 24.4219 201.572C24.7734 201.377 25.1777 201.279 25.6348 201.279C26.3887 201.279 26.959 201.514 27.3457 201.982C27.7324 202.447 27.9258 203.133 27.9258 204.039ZM34.3945 204.643C34.3945 203.861 34.2324 203.256 33.9082 202.826C33.5879 202.396 33.1367 202.182 32.5547 202.182C31.9766 202.182 31.5254 202.396 31.2012 202.826C30.8809 203.256 30.7207 203.861 30.7207 204.643C30.7207 205.42 30.8809 206.023 31.2012 206.453C31.5254 206.883 31.9766 207.098 32.5547 207.098C33.1367 207.098 33.5879 206.883 33.9082 206.453C34.2324 206.023 34.3945 205.42 34.3945 204.643ZM35.4727 207.186C35.4727 208.303 35.2246 209.133 34.7285 209.676C34.2324 210.223 33.4727 210.496 32.4492 210.496C32.0703 210.496 31.7129 210.467 31.377 210.408C31.041 210.354 30.7148 210.268 30.3984 210.15V209.102C30.7148 209.273 31.0273 209.4 31.3359 209.482C31.6445 209.564 31.959 209.605 32.2793 209.605C32.9863 209.605 33.5156 209.42 33.8672 209.049C34.2188 208.682 34.3945 208.125 34.3945 207.379V206.846C34.1719 207.232 33.8867 207.521 33.5391 207.713C33.1914 207.904 32.7754 208 32.291 208C31.4863 208 30.8379 207.693 30.3457 207.08C29.8535 206.467 29.6074 205.654 29.6074 204.643C29.6074 203.627 29.8535 202.812 30.3457 202.199C30.8379 201.586 31.4863 201.279 32.291 201.279C32.7754 201.279 33.1914 201.375 33.5391 201.566C33.8867 201.758 34.1719 202.047 34.3945 202.434V201.438H35.4727V207.186ZM38.7598 199.574V201.438H40.9805V202.275H38.7598V205.838C38.7598 206.373 38.832 206.717 38.9766 206.869C39.125 207.021 39.4238 207.098 39.873 207.098H40.9805V208H39.873C39.041 208 38.4668 207.846 38.1504 207.537C37.834 207.225 37.6758 206.658 37.6758 205.838V202.275H36.8848V201.438H37.6758V199.574H38.7598ZM47.8594 204.039V208H46.7812V204.074C46.7812 203.453 46.6602 202.988 46.418 202.68C46.1758 202.371 45.8125 202.217 45.3281 202.217C44.7461 202.217 44.2871 202.402 43.9512 202.773C43.6152 203.145 43.4473 203.65 43.4473 204.291V208H42.3633V198.883H43.4473V202.457C43.7051 202.062 44.0078 201.768 44.3555 201.572C44.707 201.377 45.1113 201.279 45.5684 201.279C46.3223 201.279 46.8926 201.514 47.2793 201.982C47.666 202.447 47.8594 203.133 47.8594 204.039ZM53.8301 201.438H54.9082V208H53.8301V201.438ZM53.8301 198.883H54.9082V200.248H53.8301V198.883ZM61.3535 201.631V202.65C61.0488 202.494 60.7324 202.377 60.4043 202.299C60.0762 202.221 59.7363 202.182 59.3848 202.182C58.8496 202.182 58.4473 202.264 58.1777 202.428C57.9121 202.592 57.7793 202.838 57.7793 203.166C57.7793 203.416 57.875 203.613 58.0664 203.758C58.2578 203.898 58.6426 204.033 59.2207 204.162L59.5898 204.244C60.3555 204.408 60.8984 204.641 61.2188 204.941C61.543 205.238 61.7051 205.654 61.7051 206.189C61.7051 206.799 61.4629 207.281 60.9785 207.637C60.498 207.992 59.8359 208.17 58.9922 208.17C58.6406 208.17 58.2734 208.135 57.8906 208.064C57.5117 207.998 57.1113 207.896 56.6895 207.76V206.646C57.0879 206.854 57.4805 207.01 57.8672 207.115C58.2539 207.217 58.6367 207.268 59.0156 207.268C59.5234 207.268 59.9141 207.182 60.1875 207.01C60.4609 206.834 60.5977 206.588 60.5977 206.271C60.5977 205.979 60.498 205.754 60.2988 205.598C60.1035 205.441 59.6719 205.291 59.0039 205.146L58.6289 205.059C57.9609 204.918 57.4785 204.703 57.1816 204.414C56.8848 204.121 56.7363 203.721 56.7363 203.213C56.7363 202.596 56.9551 202.119 57.3926 201.783C57.8301 201.447 58.4512 201.279 59.2559 201.279C59.6543 201.279 60.0293 201.309 60.3809 201.367C60.7324 201.426 61.0566 201.514 61.3535 201.631ZM70.2305 204.701C69.3594 204.701 68.7559 204.801 68.4199 205C68.084 205.199 67.916 205.539 67.916 206.02C67.916 206.402 68.041 206.707 68.291 206.934C68.5449 207.156 68.8887 207.268 69.3223 207.268C69.9199 207.268 70.3984 207.057 70.7578 206.635C71.1211 206.209 71.3027 205.645 71.3027 204.941V204.701H70.2305ZM72.3809 204.256V208H71.3027V207.004C71.0566 207.402 70.75 207.697 70.3828 207.889C70.0156 208.076 69.5664 208.17 69.0352 208.17C68.3633 208.17 67.8281 207.982 67.4297 207.607C67.0352 207.229 66.8379 206.723 66.8379 206.09C66.8379 205.352 67.084 204.795 67.5762 204.42C68.0723 204.045 68.8105 203.857 69.791 203.857H71.3027V203.752C71.3027 203.256 71.1387 202.873 70.8105 202.604C70.4863 202.33 70.0293 202.193 69.4395 202.193C69.0645 202.193 68.6992 202.238 68.3438 202.328C67.9883 202.418 67.6465 202.553 67.3184 202.732V201.736C67.7129 201.584 68.0957 201.471 68.4668 201.396C68.8379 201.318 69.1992 201.279 69.5508 201.279C70.5 201.279 71.209 201.525 71.6777 202.018C72.1465 202.51 72.3809 203.256 72.3809 204.256ZM80.0625 204.039V208H78.9844V204.074C78.9844 203.453 78.8633 202.988 78.6211 202.68C78.3789 202.371 78.0156 202.217 77.5312 202.217C76.9492 202.217 76.4902 202.402 76.1543 202.773C75.8184 203.145 75.6504 203.65 75.6504 204.291V208H74.5664V201.438H75.6504V202.457C75.9082 202.062 76.2109 201.768 76.5586 201.572C76.9102 201.377 77.3145 201.279 77.7715 201.279C78.5254 201.279 79.0957 201.514 79.4824 201.982C79.8691 202.447 80.0625 203.133 80.0625 204.039ZM89.0156 204.701C88.1445 204.701 87.541 204.801 87.2051 205C86.8691 205.199 86.7012 205.539 86.7012 206.02C86.7012 206.402 86.8262 206.707 87.0762 206.934C87.3301 207.156 87.6738 207.268 88.1074 207.268C88.7051 207.268 89.1836 207.057 89.543 206.635C89.9062 206.209 90.0879 205.645 90.0879 204.941V204.701H89.0156ZM91.166 204.256V208H90.0879V207.004C89.8418 207.402 89.5352 207.697 89.168 207.889C88.8008 208.076 88.3516 208.17 87.8203 208.17C87.1484 208.17 86.6133 207.982 86.2148 207.607C85.8203 207.229 85.623 206.723 85.623 206.09C85.623 205.352 85.8691 204.795 86.3613 204.42C86.8574 204.045 87.5957 203.857 88.5762 203.857H90.0879V203.752C90.0879 203.256 89.9238 202.873 89.5957 202.604C89.2715 202.33 88.8145 202.193 88.2246 202.193C87.8496 202.193 87.4844 202.238 87.1289 202.328C86.7734 202.418 86.4316 202.553 86.1035 202.732V201.736C86.498 201.584 86.8809 201.471 87.252 201.396C87.623 201.318 87.9844 201.279 88.3359 201.279C89.2852 201.279 89.9941 201.525 90.4629 202.018C90.9316 202.51 91.166 203.256 91.166 204.256ZM98.1035 204.725C98.1035 203.932 97.9395 203.311 97.6113 202.861C97.2871 202.408 96.8398 202.182 96.2695 202.182C95.6992 202.182 95.25 202.408 94.9219 202.861C94.5977 203.311 94.4355 203.932 94.4355 204.725C94.4355 205.518 94.5977 206.141 94.9219 206.594C95.25 207.043 95.6992 207.268 96.2695 207.268C96.8398 207.268 97.2871 207.043 97.6113 206.594C97.9395 206.141 98.1035 205.518 98.1035 204.725ZM94.4355 202.434C94.6621 202.043 94.9473 201.754 95.291 201.566C95.6387 201.375 96.0527 201.279 96.5332 201.279C97.3301 201.279 97.9766 201.596 98.4727 202.229C98.9727 202.861 99.2227 203.693 99.2227 204.725C99.2227 205.756 98.9727 206.588 98.4727 207.221C97.9766 207.854 97.3301 208.17 96.5332 208.17C96.0527 208.17 95.6387 208.076 95.291 207.889C94.9473 207.697 94.6621 207.406 94.4355 207.016V208H93.3516V198.883H94.4355V202.434ZM105.193 201.631V202.65C104.889 202.494 104.572 202.377 104.244 202.299C103.916 202.221 103.576 202.182 103.225 202.182C102.689 202.182 102.287 202.264 102.018 202.428C101.752 202.592 101.619 202.838 101.619 203.166C101.619 203.416 101.715 203.613 101.906 203.758C102.098 203.898 102.482 204.033 103.061 204.162L103.43 204.244C104.195 204.408 104.738 204.641 105.059 204.941C105.383 205.238 105.545 205.654 105.545 206.189C105.545 206.799 105.303 207.281 104.818 207.637C104.338 207.992 103.676 208.17 102.832 208.17C102.48 208.17 102.113 208.135 101.73 208.064C101.352 207.998 100.951 207.896 100.529 207.76V206.646C100.928 206.854 101.32 207.01 101.707 207.115C102.094 207.217 102.477 207.268 102.855 207.268C103.363 207.268 103.754 207.182 104.027 207.01C104.301 206.834 104.438 206.588 104.438 206.271C104.438 205.979 104.338 205.754 104.139 205.598C103.943 205.441 103.512 205.291 102.844 205.146L102.469 205.059C101.801 204.918 101.318 204.703 101.021 204.414C100.725 204.121 100.576 203.721 100.576 203.213C100.576 202.596 100.795 202.119 101.232 201.783C101.67 201.447 102.291 201.279 103.096 201.279C103.494 201.279 103.869 201.309 104.221 201.367C104.572 201.426 104.896 201.514 105.193 201.631ZM109.811 202.193C109.232 202.193 108.775 202.42 108.439 202.873C108.104 203.322 107.936 203.939 107.936 204.725C107.936 205.51 108.102 206.129 108.434 206.582C108.77 207.031 109.229 207.256 109.811 207.256C110.385 207.256 110.84 207.029 111.176 206.576C111.512 206.123 111.68 205.506 111.68 204.725C111.68 203.947 111.512 203.332 111.176 202.879C110.84 202.422 110.385 202.193 109.811 202.193ZM109.811 201.279C110.748 201.279 111.484 201.584 112.02 202.193C112.555 202.803 112.822 203.646 112.822 204.725C112.822 205.799 112.555 206.643 112.02 207.256C111.484 207.865 110.748 208.17 109.811 208.17C108.869 208.17 108.131 207.865 107.596 207.256C107.064 206.643 106.799 205.799 106.799 204.725C106.799 203.646 107.064 202.803 107.596 202.193C108.131 201.584 108.869 201.279 109.811 201.279ZM114.615 198.883H115.693V208H114.615V198.883ZM117.844 205.41V201.438H118.922V205.369C118.922 205.99 119.043 206.457 119.285 206.77C119.527 207.078 119.891 207.232 120.375 207.232C120.957 207.232 121.416 207.047 121.752 206.676C122.092 206.305 122.262 205.799 122.262 205.158V201.438H123.34V208H122.262V206.992C122 207.391 121.695 207.688 121.348 207.883C121.004 208.074 120.604 208.17 120.146 208.17C119.393 208.17 118.82 207.936 118.43 207.467C118.039 206.998 117.844 206.312 117.844 205.41ZM126.627 199.574V201.438H128.848V202.275H126.627V205.838C126.627 206.373 126.699 206.717 126.844 206.869C126.992 207.021 127.291 207.098 127.74 207.098H128.848V208H127.74C126.908 208 126.334 207.846 126.018 207.537C125.701 207.225 125.543 206.658 125.543 205.838V202.275H124.752V201.438H125.543V199.574H126.627ZM135.885 204.449V204.977H130.928C130.975 205.719 131.197 206.285 131.596 206.676C131.998 207.062 132.557 207.256 133.271 207.256C133.686 207.256 134.086 207.205 134.473 207.104C134.863 207.002 135.25 206.85 135.633 206.646V207.666C135.246 207.83 134.85 207.955 134.443 208.041C134.037 208.127 133.625 208.17 133.207 208.17C132.16 208.17 131.33 207.865 130.717 207.256C130.107 206.646 129.803 205.822 129.803 204.783C129.803 203.709 130.092 202.857 130.67 202.229C131.252 201.596 132.035 201.279 133.02 201.279C133.902 201.279 134.6 201.564 135.111 202.135C135.627 202.701 135.885 203.473 135.885 204.449ZM134.807 204.133C134.799 203.543 134.633 203.072 134.309 202.721C133.988 202.369 133.562 202.193 133.031 202.193C132.43 202.193 131.947 202.363 131.584 202.703C131.225 203.043 131.018 203.521 130.963 204.139L134.807 204.133ZM30.8848 216.193C30.3066 216.193 29.8496 216.42 29.5137 216.873C29.1777 217.322 29.0098 217.939 29.0098 218.725C29.0098 219.51 29.1758 220.129 29.5078 220.582C29.8438 221.031 30.3027 221.256 30.8848 221.256C31.459 221.256 31.9141 221.029 32.25 220.576C32.5859 220.123 32.7539 219.506 32.7539 218.725C32.7539 217.947 32.5859 217.332 32.25 216.879C31.9141 216.422 31.459 216.193 30.8848 216.193ZM30.8848 215.279C31.8223 215.279 32.5586 215.584 33.0938 216.193C33.6289 216.803 33.8965 217.646 33.8965 218.725C33.8965 219.799 33.6289 220.643 33.0938 221.256C32.5586 221.865 31.8223 222.17 30.8848 222.17C29.9434 222.17 29.2051 221.865 28.6699 221.256C28.1387 220.643 27.873 219.799 27.873 218.725C27.873 217.646 28.1387 216.803 28.6699 216.193C29.2051 215.584 29.9434 215.279 30.8848 215.279ZM40.4004 218.725C40.4004 217.932 40.2363 217.311 39.9082 216.861C39.584 216.408 39.1367 216.182 38.5664 216.182C37.9961 216.182 37.5469 216.408 37.2188 216.861C36.8945 217.311 36.7324 217.932 36.7324 218.725C36.7324 219.518 36.8945 220.141 37.2188 220.594C37.5469 221.043 37.9961 221.268 38.5664 221.268C39.1367 221.268 39.584 221.043 39.9082 220.594C40.2363 220.141 40.4004 219.518 40.4004 218.725ZM36.7324 216.434C36.959 216.043 37.2441 215.754 37.5879 215.566C37.9355 215.375 38.3496 215.279 38.8301 215.279C39.627 215.279 40.2734 215.596 40.7695 216.229C41.2695 216.861 41.5195 217.693 41.5195 218.725C41.5195 219.756 41.2695 220.588 40.7695 221.221C40.2734 221.854 39.627 222.17 38.8301 222.17C38.3496 222.17 37.9355 222.076 37.5879 221.889C37.2441 221.697 36.959 221.406 36.7324 221.016V222H35.6484V212.883H36.7324V216.434ZM43.3066 215.438H44.3848V222.117C44.3848 222.953 44.2246 223.559 43.9043 223.934C43.5879 224.309 43.0762 224.496 42.3691 224.496H41.959V223.582H42.2461C42.6562 223.582 42.9355 223.486 43.084 223.295C43.2324 223.107 43.3066 222.715 43.3066 222.117V215.438ZM43.3066 212.883H44.3848V214.248H43.3066V212.883ZM52.2598 218.449V218.977H47.3027C47.3496 219.719 47.5723 220.285 47.9707 220.676C48.373 221.062 48.9316 221.256 49.6465 221.256C50.0605 221.256 50.4609 221.205 50.8477 221.104C51.2383 221.002 51.625 220.85 52.0078 220.646V221.666C51.6211 221.83 51.2246 221.955 50.8184 222.041C50.4121 222.127 50 222.17 49.582 222.17C48.5352 222.17 47.7051 221.865 47.0918 221.256C46.4824 220.646 46.1777 219.822 46.1777 218.783C46.1777 217.709 46.4668 216.857 47.0449 216.229C47.627 215.596 48.4102 215.279 49.3945 215.279C50.2773 215.279 50.9746 215.564 51.4863 216.135C52.002 216.701 52.2598 217.473 52.2598 218.449ZM51.1816 218.133C51.1738 217.543 51.0078 217.072 50.6836 216.721C50.3633 216.369 49.9375 216.193 49.4062 216.193C48.8047 216.193 48.3223 216.363 47.959 216.703C47.5996 217.043 47.3926 217.521 47.3379 218.139L51.1816 218.133ZM58.752 215.689V216.697C58.4473 216.529 58.1406 216.404 57.832 216.322C57.5273 216.236 57.2188 216.193 56.9062 216.193C56.207 216.193 55.6641 216.416 55.2773 216.861C54.8906 217.303 54.6973 217.924 54.6973 218.725C54.6973 219.525 54.8906 220.148 55.2773 220.594C55.6641 221.035 56.207 221.256 56.9062 221.256C57.2188 221.256 57.5273 221.215 57.832 221.133C58.1406 221.047 58.4473 220.92 58.752 220.752V221.748C58.4512 221.889 58.1387 221.994 57.8145 222.064C57.4941 222.135 57.1523 222.17 56.7891 222.17C55.8008 222.17 55.0156 221.859 54.4336 221.238C53.8516 220.617 53.5605 219.779 53.5605 218.725C53.5605 217.654 53.8535 216.812 54.4395 216.199C55.0293 215.586 55.8359 215.279 56.8594 215.279C57.1914 215.279 57.5156 215.314 57.832 215.385C58.1484 215.451 58.4551 215.553 58.752 215.689ZM61.6934 213.574V215.438H63.9141V216.275H61.6934V219.838C61.6934 220.373 61.7656 220.717 61.9102 220.869C62.0586 221.021 62.3574 221.098 62.8066 221.098H63.9141V222H62.8066C61.9746 222 61.4004 221.846 61.084 221.537C60.7676 221.225 60.6094 220.658 60.6094 219.838V216.275H59.8184V215.438H60.6094V213.574H61.6934ZM65.3379 215.438H66.416V222H65.3379V215.438ZM65.3379 212.883H66.416V214.248H65.3379V212.883ZM67.9043 215.438H69.0469L71.0977 220.945L73.1484 215.438H74.291L71.8301 222H70.3652L67.9043 215.438ZM81.3926 218.449V218.977H76.4355C76.4824 219.719 76.7051 220.285 77.1035 220.676C77.5059 221.062 78.0645 221.256 78.7793 221.256C79.1934 221.256 79.5938 221.205 79.9805 221.104C80.3711 221.002 80.7578 220.85 81.1406 220.646V221.666C80.7539 221.83 80.3574 221.955 79.9512 222.041C79.5449 222.127 79.1328 222.17 78.7148 222.17C77.668 222.17 76.8379 221.865 76.2246 221.256C75.6152 220.646 75.3105 219.822 75.3105 218.783C75.3105 217.709 75.5996 216.857 76.1777 216.229C76.7598 215.596 77.543 215.279 78.5273 215.279C79.4102 215.279 80.1074 215.564 80.6191 216.135C81.1348 216.701 81.3926 217.473 81.3926 218.449ZM80.3145 218.133C80.3066 217.543 80.1406 217.072 79.8164 216.721C79.4961 216.369 79.0703 216.193 78.5391 216.193C77.9375 216.193 77.4551 216.363 77.0918 216.703C76.7324 217.043 76.5254 217.521 76.4707 218.139L80.3145 218.133ZM91.166 215.631V216.65C90.8613 216.494 90.5449 216.377 90.2168 216.299C89.8887 216.221 89.5488 216.182 89.1973 216.182C88.6621 216.182 88.2598 216.264 87.9902 216.428C87.7246 216.592 87.5918 216.838 87.5918 217.166C87.5918 217.416 87.6875 217.613 87.8789 217.758C88.0703 217.898 88.4551 218.033 89.0332 218.162L89.4023 218.244C90.168 218.408 90.7109 218.641 91.0312 218.941C91.3555 219.238 91.5176 219.654 91.5176 220.189C91.5176 220.799 91.2754 221.281 90.791 221.637C90.3105 221.992 89.6484 222.17 88.8047 222.17C88.4531 222.17 88.0859 222.135 87.7031 222.064C87.3242 221.998 86.9238 221.896 86.502 221.76V220.646C86.9004 220.854 87.293 221.01 87.6797 221.115C88.0664 221.217 88.4492 221.268 88.8281 221.268C89.3359 221.268 89.7266 221.182 90 221.01C90.2734 220.834 90.4102 220.588 90.4102 220.271C90.4102 219.979 90.3105 219.754 90.1113 219.598C89.916 219.441 89.4844 219.291 88.8164 219.146L88.4414 219.059C87.7734 218.918 87.291 218.703 86.9941 218.414C86.6973 218.121 86.5488 217.721 86.5488 217.213C86.5488 216.596 86.7676 216.119 87.2051 215.783C87.6426 215.447 88.2637 215.279 89.0684 215.279C89.4668 215.279 89.8418 215.309 90.1934 215.367C90.5449 215.426 90.8691 215.514 91.166 215.631ZM97.9629 215.689V216.697C97.6582 216.529 97.3516 216.404 97.043 216.322C96.7383 216.236 96.4297 216.193 96.1172 216.193C95.418 216.193 94.875 216.416 94.4883 216.861C94.1016 217.303 93.9082 217.924 93.9082 218.725C93.9082 219.525 94.1016 220.148 94.4883 220.594C94.875 221.035 95.418 221.256 96.1172 221.256C96.4297 221.256 96.7383 221.215 97.043 221.133C97.3516 221.047 97.6582 220.92 97.9629 220.752V221.748C97.6621 221.889 97.3496 221.994 97.0254 222.064C96.7051 222.135 96.3633 222.17 96 222.17C95.0117 222.17 94.2266 221.859 93.6445 221.238C93.0625 220.617 92.7715 219.779 92.7715 218.725C92.7715 217.654 93.0645 216.812 93.6504 216.199C94.2402 215.586 95.0469 215.279 96.0703 215.279C96.4023 215.279 96.7266 215.314 97.043 215.385C97.3594 215.451 97.666 215.553 97.9629 215.689ZM102.82 218.701C101.949 218.701 101.346 218.801 101.01 219C100.674 219.199 100.506 219.539 100.506 220.02C100.506 220.402 100.631 220.707 100.881 220.934C101.135 221.156 101.479 221.268 101.912 221.268C102.51 221.268 102.988 221.057 103.348 220.635C103.711 220.209 103.893 219.645 103.893 218.941V218.701H102.82ZM104.971 218.256V222H103.893V221.004C103.646 221.402 103.34 221.697 102.973 221.889C102.605 222.076 102.156 222.17 101.625 222.17C100.953 222.17 100.418 221.982 100.02 221.607C99.625 221.229 99.4277 220.723 99.4277 220.09C99.4277 219.352 99.6738 218.795 100.166 218.42C100.662 218.045 101.4 217.857 102.381 217.857H103.893V217.752C103.893 217.256 103.729 216.873 103.4 216.604C103.076 216.33 102.619 216.193 102.029 216.193C101.654 216.193 101.289 216.238 100.934 216.328C100.578 216.418 100.236 216.553 99.9082 216.732V215.736C100.303 215.584 100.686 215.471 101.057 215.396C101.428 215.318 101.789 215.279 102.141 215.279C103.09 215.279 103.799 215.525 104.268 216.018C104.736 216.51 104.971 217.256 104.971 218.256ZM107.197 212.883H108.275V222H107.197V212.883ZM116.15 218.449V218.977H111.193C111.24 219.719 111.463 220.285 111.861 220.676C112.264 221.062 112.822 221.256 113.537 221.256C113.951 221.256 114.352 221.205 114.738 221.104C115.129 221.002 115.516 220.85 115.898 220.646V221.666C115.512 221.83 115.115 221.955 114.709 222.041C114.303 222.127 113.891 222.17 113.473 222.17C112.426 222.17 111.596 221.865 110.982 221.256C110.373 220.646 110.068 219.822 110.068 218.783C110.068 217.709 110.357 216.857 110.936 216.229C111.518 215.596 112.301 215.279 113.285 215.279C114.168 215.279 114.865 215.564 115.377 216.135C115.893 216.701 116.15 217.473 116.15 218.449ZM115.072 218.133C115.064 217.543 114.898 217.072 114.574 216.721C114.254 216.369 113.828 216.193 113.297 216.193C112.695 216.193 112.213 216.363 111.85 216.703C111.49 217.043 111.283 217.521 111.229 218.139L115.072 218.133Z" fill="black"/>
<path d="M175.508 200.225V203.512H176.996C177.547 203.512 177.973 203.369 178.273 203.084C178.574 202.799 178.725 202.393 178.725 201.865C178.725 201.342 178.574 200.938 178.273 200.652C177.973 200.367 177.547 200.225 176.996 200.225H175.508ZM174.324 199.252H176.996C177.977 199.252 178.717 199.475 179.217 199.92C179.721 200.361 179.973 201.01 179.973 201.865C179.973 202.729 179.721 203.381 179.217 203.822C178.717 204.264 177.977 204.484 176.996 204.484H175.508V208H174.324V199.252ZM186.699 204.449V204.977H181.742C181.789 205.719 182.012 206.285 182.41 206.676C182.812 207.062 183.371 207.256 184.086 207.256C184.5 207.256 184.9 207.205 185.287 207.104C185.678 207.002 186.064 206.85 186.447 206.646V207.666C186.061 207.83 185.664 207.955 185.258 208.041C184.852 208.127 184.439 208.17 184.021 208.17C182.975 208.17 182.145 207.865 181.531 207.256C180.922 206.646 180.617 205.822 180.617 204.783C180.617 203.709 180.906 202.857 181.484 202.229C182.066 201.596 182.85 201.279 183.834 201.279C184.717 201.279 185.414 201.564 185.926 202.135C186.441 202.701 186.699 203.473 186.699 204.449ZM185.621 204.133C185.613 203.543 185.447 203.072 185.123 202.721C184.803 202.369 184.377 202.193 183.846 202.193C183.244 202.193 182.762 202.363 182.398 202.703C182.039 203.043 181.832 203.521 181.777 204.139L185.621 204.133ZM192.271 202.445C192.15 202.375 192.018 202.324 191.873 202.293C191.732 202.258 191.576 202.24 191.404 202.24C190.795 202.24 190.326 202.439 189.998 202.838C189.674 203.232 189.512 203.801 189.512 204.543V208H188.428V201.438H189.512V202.457C189.738 202.059 190.033 201.764 190.396 201.572C190.76 201.377 191.201 201.279 191.721 201.279C191.795 201.279 191.877 201.285 191.967 201.297C192.057 201.305 192.156 201.318 192.266 201.338L192.271 202.445ZM197.855 201.689V202.697C197.551 202.529 197.244 202.404 196.936 202.322C196.631 202.236 196.322 202.193 196.01 202.193C195.311 202.193 194.768 202.416 194.381 202.861C193.994 203.303 193.801 203.924 193.801 204.725C193.801 205.525 193.994 206.148 194.381 206.594C194.768 207.035 195.311 207.256 196.01 207.256C196.322 207.256 196.631 207.215 196.936 207.133C197.244 207.047 197.551 206.92 197.855 206.752V207.748C197.555 207.889 197.242 207.994 196.918 208.064C196.598 208.135 196.256 208.17 195.893 208.17C194.904 208.17 194.119 207.859 193.537 207.238C192.955 206.617 192.664 205.779 192.664 204.725C192.664 203.654 192.957 202.812 193.543 202.199C194.133 201.586 194.939 201.279 195.963 201.279C196.295 201.279 196.619 201.314 196.936 201.385C197.252 201.451 197.559 201.553 197.855 201.689ZM205.344 204.449V204.977H200.387C200.434 205.719 200.656 206.285 201.055 206.676C201.457 207.062 202.016 207.256 202.73 207.256C203.145 207.256 203.545 207.205 203.932 207.104C204.322 207.002 204.709 206.85 205.092 206.646V207.666C204.705 207.83 204.309 207.955 203.902 208.041C203.496 208.127 203.084 208.17 202.666 208.17C201.619 208.17 200.789 207.865 200.176 207.256C199.566 206.646 199.262 205.822 199.262 204.783C199.262 203.709 199.551 202.857 200.129 202.229C200.711 201.596 201.494 201.279 202.479 201.279C203.361 201.279 204.059 201.564 204.57 202.135C205.086 202.701 205.344 203.473 205.344 204.449ZM204.266 204.133C204.258 203.543 204.092 203.072 203.768 202.721C203.447 202.369 203.021 202.193 202.49 202.193C201.889 202.193 201.406 202.363 201.043 202.703C200.684 203.043 200.477 203.521 200.422 204.139L204.266 204.133ZM208.156 207.016V210.496H207.072V201.438H208.156V202.434C208.383 202.043 208.668 201.754 209.012 201.566C209.359 201.375 209.773 201.279 210.254 201.279C211.051 201.279 211.697 201.596 212.193 202.229C212.693 202.861 212.943 203.693 212.943 204.725C212.943 205.756 212.693 206.588 212.193 207.221C211.697 207.854 211.051 208.17 210.254 208.17C209.773 208.17 209.359 208.076 209.012 207.889C208.668 207.697 208.383 207.406 208.156 207.016ZM211.824 204.725C211.824 203.932 211.66 203.311 211.332 202.861C211.008 202.408 210.561 202.182 209.99 202.182C209.42 202.182 208.971 202.408 208.643 202.861C208.318 203.311 208.156 203.932 208.156 204.725C208.156 205.518 208.318 206.141 208.643 206.594C208.971 207.043 209.42 207.268 209.99 207.268C210.561 207.268 211.008 207.043 211.332 206.594C211.66 206.141 211.824 205.518 211.824 204.725ZM215.797 199.574V201.438H218.018V202.275H215.797V205.838C215.797 206.373 215.869 206.717 216.014 206.869C216.162 207.021 216.461 207.098 216.91 207.098H218.018V208H216.91C216.078 208 215.504 207.846 215.188 207.537C214.871 207.225 214.713 206.658 214.713 205.838V202.275H213.922V201.438H214.713V199.574H215.797ZM219.441 201.438H220.52V208H219.441V201.438ZM219.441 198.883H220.52V200.248H219.441V198.883ZM225.324 202.193C224.746 202.193 224.289 202.42 223.953 202.873C223.617 203.322 223.449 203.939 223.449 204.725C223.449 205.51 223.615 206.129 223.947 206.582C224.283 207.031 224.742 207.256 225.324 207.256C225.898 207.256 226.354 207.029 226.689 206.576C227.025 206.123 227.193 205.506 227.193 204.725C227.193 203.947 227.025 203.332 226.689 202.879C226.354 202.422 225.898 202.193 225.324 202.193ZM225.324 201.279C226.262 201.279 226.998 201.584 227.533 202.193C228.068 202.803 228.336 203.646 228.336 204.725C228.336 205.799 228.068 206.643 227.533 207.256C226.998 207.865 226.262 208.17 225.324 208.17C224.383 208.17 223.645 207.865 223.109 207.256C222.578 206.643 222.312 205.799 222.312 204.725C222.312 203.646 222.578 202.803 223.109 202.193C223.645 201.584 224.383 201.279 225.324 201.279ZM235.584 204.039V208H234.506V204.074C234.506 203.453 234.385 202.988 234.143 202.68C233.9 202.371 233.537 202.217 233.053 202.217C232.471 202.217 232.012 202.402 231.676 202.773C231.34 203.145 231.172 203.65 231.172 204.291V208H230.088V201.438H231.172V202.457C231.43 202.062 231.732 201.768 232.08 201.572C232.432 201.377 232.836 201.279 233.293 201.279C234.047 201.279 234.617 201.514 235.004 201.982C235.391 202.447 235.584 203.133 235.584 204.039ZM241.555 198.883H242.633V208H241.555V198.883ZM247.877 204.701C247.006 204.701 246.402 204.801 246.066 205C245.73 205.199 245.562 205.539 245.562 206.02C245.562 206.402 245.688 206.707 245.938 206.934C246.191 207.156 246.535 207.268 246.969 207.268C247.566 207.268 248.045 207.057 248.404 206.635C248.768 206.209 248.949 205.645 248.949 204.941V204.701H247.877ZM250.027 204.256V208H248.949V207.004C248.703 207.402 248.396 207.697 248.029 207.889C247.662 208.076 247.213 208.17 246.682 208.17C246.01 208.17 245.475 207.982 245.076 207.607C244.682 207.229 244.484 206.723 244.484 206.09C244.484 205.352 244.73 204.795 245.223 204.42C245.719 204.045 246.457 203.857 247.438 203.857H248.949V203.752C248.949 203.256 248.785 202.873 248.457 202.604C248.133 202.33 247.676 202.193 247.086 202.193C246.711 202.193 246.346 202.238 245.99 202.328C245.635 202.418 245.293 202.553 244.965 202.732V201.736C245.359 201.584 245.742 201.471 246.113 201.396C246.484 201.318 246.846 201.279 247.197 201.279C248.146 201.279 248.855 201.525 249.324 202.018C249.793 202.51 250.027 203.256 250.027 204.256ZM256.977 201.689V202.697C256.672 202.529 256.365 202.404 256.057 202.322C255.752 202.236 255.443 202.193 255.131 202.193C254.432 202.193 253.889 202.416 253.502 202.861C253.115 203.303 252.922 203.924 252.922 204.725C252.922 205.525 253.115 206.148 253.502 206.594C253.889 207.035 254.432 207.256 255.131 207.256C255.443 207.256 255.752 207.215 256.057 207.133C256.365 207.047 256.672 206.92 256.977 206.752V207.748C256.676 207.889 256.363 207.994 256.039 208.064C255.719 208.135 255.377 208.17 255.014 208.17C254.025 208.17 253.24 207.859 252.658 207.238C252.076 206.617 251.785 205.779 251.785 204.725C251.785 203.654 252.078 202.812 252.664 202.199C253.254 201.586 254.061 201.279 255.084 201.279C255.416 201.279 255.74 201.314 256.057 201.385C256.373 201.451 256.68 201.553 256.977 201.689ZM258.811 198.883H259.895V204.268L263.111 201.438H264.488L261.008 204.508L264.635 208H263.229L259.895 204.795V208H258.811V198.883ZM269.984 201.631V202.65C269.68 202.494 269.363 202.377 269.035 202.299C268.707 202.221 268.367 202.182 268.016 202.182C267.48 202.182 267.078 202.264 266.809 202.428C266.543 202.592 266.41 202.838 266.41 203.166C266.41 203.416 266.506 203.613 266.697 203.758C266.889 203.898 267.273 204.033 267.852 204.162L268.221 204.244C268.986 204.408 269.529 204.641 269.85 204.941C270.174 205.238 270.336 205.654 270.336 206.189C270.336 206.799 270.094 207.281 269.609 207.637C269.129 207.992 268.467 208.17 267.623 208.17C267.271 208.17 266.904 208.135 266.521 208.064C266.143 207.998 265.742 207.896 265.32 207.76V206.646C265.719 206.854 266.111 207.01 266.498 207.115C266.885 207.217 267.268 207.268 267.646 207.268C268.154 207.268 268.545 207.182 268.818 207.01C269.092 206.834 269.229 206.588 269.229 206.271C269.229 205.979 269.129 205.754 268.93 205.598C268.734 205.441 268.303 205.291 267.635 205.146L267.26 205.059C266.592 204.918 266.109 204.703 265.812 204.414C265.516 204.121 265.367 203.721 265.367 203.213C265.367 202.596 265.586 202.119 266.023 201.783C266.461 201.447 267.082 201.279 267.887 201.279C268.285 201.279 268.66 201.309 269.012 201.367C269.363 201.426 269.688 201.514 269.984 201.631ZM278.861 204.701C277.99 204.701 277.387 204.801 277.051 205C276.715 205.199 276.547 205.539 276.547 206.02C276.547 206.402 276.672 206.707 276.922 206.934C277.176 207.156 277.52 207.268 277.953 207.268C278.551 207.268 279.029 207.057 279.389 206.635C279.752 206.209 279.934 205.645 279.934 204.941V204.701H278.861ZM281.012 204.256V208H279.934V207.004C279.688 207.402 279.381 207.697 279.014 207.889C278.646 208.076 278.197 208.17 277.666 208.17C276.994 208.17 276.459 207.982 276.061 207.607C275.666 207.229 275.469 206.723 275.469 206.09C275.469 205.352 275.715 204.795 276.207 204.42C276.703 204.045 277.441 203.857 278.422 203.857H279.934V203.752C279.934 203.256 279.77 202.873 279.441 202.604C279.117 202.33 278.66 202.193 278.07 202.193C277.695 202.193 277.33 202.238 276.975 202.328C276.619 202.418 276.277 202.553 275.949 202.732V201.736C276.344 201.584 276.727 201.471 277.098 201.396C277.469 201.318 277.83 201.279 278.182 201.279C279.131 201.279 279.84 201.525 280.309 202.018C280.777 202.51 281.012 203.256 281.012 204.256ZM286.947 205.41V201.438H288.025V205.369C288.025 205.99 288.146 206.457 288.389 206.77C288.631 207.078 288.994 207.232 289.479 207.232C290.061 207.232 290.52 207.047 290.855 206.676C291.195 206.305 291.365 205.799 291.365 205.158V201.438H292.443V208H291.365V206.992C291.104 207.391 290.799 207.688 290.451 207.883C290.107 208.074 289.707 208.17 289.25 208.17C288.496 208.17 287.924 207.936 287.533 207.467C287.143 206.998 286.947 206.312 286.947 205.41ZM300.119 204.039V208H299.041V204.074C299.041 203.453 298.92 202.988 298.678 202.68C298.436 202.371 298.072 202.217 297.588 202.217C297.006 202.217 296.547 202.402 296.211 202.773C295.875 203.145 295.707 203.65 295.707 204.291V208H294.623V201.438H295.707V202.457C295.965 202.062 296.268 201.768 296.615 201.572C296.967 201.377 297.371 201.279 297.828 201.279C298.582 201.279 299.152 201.514 299.539 201.982C299.926 202.447 300.119 203.133 300.119 204.039ZM302.27 201.438H303.348V208H302.27V201.438ZM302.27 198.883H303.348V200.248H302.27V198.883ZM304.836 201.438H305.979L308.029 206.945L310.08 201.438H311.223L308.762 208H307.297L304.836 201.438ZM318.324 204.449V204.977H313.367C313.414 205.719 313.637 206.285 314.035 206.676C314.438 207.062 314.996 207.256 315.711 207.256C316.125 207.256 316.525 207.205 316.912 207.104C317.303 207.002 317.689 206.85 318.072 206.646V207.666C317.686 207.83 317.289 207.955 316.883 208.041C316.477 208.127 316.064 208.17 315.646 208.17C314.6 208.17 313.77 207.865 313.156 207.256C312.547 206.646 312.242 205.822 312.242 204.783C312.242 203.709 312.531 202.857 313.109 202.229C313.691 201.596 314.475 201.279 315.459 201.279C316.342 201.279 317.039 201.564 317.551 202.135C318.066 202.701 318.324 203.473 318.324 204.449ZM317.246 204.133C317.238 203.543 317.072 203.072 316.748 202.721C316.428 202.369 316.002 202.193 315.471 202.193C314.869 202.193 314.387 202.363 314.023 202.703C313.664 203.043 313.457 203.521 313.402 204.139L317.246 204.133ZM323.896 202.445C323.775 202.375 323.643 202.324 323.498 202.293C323.357 202.258 323.201 202.24 323.029 202.24C322.42 202.24 321.951 202.439 321.623 202.838C321.299 203.232 321.137 203.801 321.137 204.543V208H320.053V201.438H321.137V202.457C321.363 202.059 321.658 201.764 322.021 201.572C322.385 201.377 322.826 201.279 323.346 201.279C323.42 201.279 323.502 201.285 323.592 201.297C323.682 201.305 323.781 201.318 323.891 201.338L323.896 202.445ZM329.211 201.631V202.65C328.906 202.494 328.59 202.377 328.262 202.299C327.934 202.221 327.594 202.182 327.242 202.182C326.707 202.182 326.305 202.264 326.035 202.428C325.77 202.592 325.637 202.838 325.637 203.166C325.637 203.416 325.732 203.613 325.924 203.758C326.115 203.898 326.5 204.033 327.078 204.162L327.447 204.244C328.213 204.408 328.756 204.641 329.076 204.941C329.4 205.238 329.562 205.654 329.562 206.189C329.562 206.799 329.32 207.281 328.836 207.637C328.355 207.992 327.693 208.17 326.85 208.17C326.498 208.17 326.131 208.135 325.748 208.064C325.369 207.998 324.969 207.896 324.547 207.76V206.646C324.945 206.854 325.338 207.01 325.725 207.115C326.111 207.217 326.494 207.268 326.873 207.268C327.381 207.268 327.771 207.182 328.045 207.01C328.318 206.834 328.455 206.588 328.455 206.271C328.455 205.979 328.355 205.754 328.156 205.598C327.961 205.441 327.529 205.291 326.861 205.146L326.486 205.059C325.818 204.918 325.336 204.703 325.039 204.414C324.742 204.121 324.594 203.721 324.594 203.213C324.594 202.596 324.812 202.119 325.25 201.783C325.688 201.447 326.309 201.279 327.113 201.279C327.512 201.279 327.887 201.309 328.238 201.367C328.59 201.426 328.914 201.514 329.211 201.631ZM334.268 204.701C333.396 204.701 332.793 204.801 332.457 205C332.121 205.199 331.953 205.539 331.953 206.02C331.953 206.402 332.078 206.707 332.328 206.934C332.582 207.156 332.926 207.268 333.359 207.268C333.957 207.268 334.436 207.057 334.795 206.635C335.158 206.209 335.34 205.645 335.34 204.941V204.701H334.268ZM336.418 204.256V208H335.34V207.004C335.094 207.402 334.787 207.697 334.42 207.889C334.053 208.076 333.604 208.17 333.072 208.17C332.4 208.17 331.865 207.982 331.467 207.607C331.072 207.229 330.875 206.723 330.875 206.09C330.875 205.352 331.121 204.795 331.613 204.42C332.109 204.045 332.848 203.857 333.828 203.857H335.34V203.752C335.34 203.256 335.176 202.873 334.848 202.604C334.523 202.33 334.066 202.193 333.477 202.193C333.102 202.193 332.736 202.238 332.381 202.328C332.025 202.418 331.684 202.553 331.355 202.732V201.736C331.75 201.584 332.133 201.471 332.504 201.396C332.875 201.318 333.236 201.279 333.588 201.279C334.537 201.279 335.246 201.525 335.715 202.018C336.184 202.51 336.418 203.256 336.418 204.256ZM338.645 198.883H339.723V208H338.645V198.883ZM217.924 218.701C217.053 218.701 216.449 218.801 216.113 219C215.777 219.199 215.609 219.539 215.609 220.02C215.609 220.402 215.734 220.707 215.984 220.934C216.238 221.156 216.582 221.268 217.016 221.268C217.613 221.268 218.092 221.057 218.451 220.635C218.814 220.209 218.996 219.645 218.996 218.941V218.701H217.924ZM220.074 218.256V222H218.996V221.004C218.75 221.402 218.443 221.697 218.076 221.889C217.709 222.076 217.26 222.17 216.729 222.17C216.057 222.17 215.521 221.982 215.123 221.607C214.729 221.229 214.531 220.723 214.531 220.09C214.531 219.352 214.777 218.795 215.27 218.42C215.766 218.045 216.504 217.857 217.484 217.857H218.996V217.752C218.996 217.256 218.832 216.873 218.504 216.604C218.18 216.33 217.723 216.193 217.133 216.193C216.758 216.193 216.393 216.238 216.037 216.328C215.682 216.418 215.34 216.553 215.012 216.732V215.736C215.406 215.584 215.789 215.471 216.16 215.396C216.531 215.318 216.893 215.279 217.244 215.279C218.193 215.279 218.902 215.525 219.371 216.018C219.84 216.51 220.074 217.256 220.074 218.256ZM227.012 218.725C227.012 217.932 226.848 217.311 226.52 216.861C226.195 216.408 225.748 216.182 225.178 216.182C224.607 216.182 224.158 216.408 223.83 216.861C223.506 217.311 223.344 217.932 223.344 218.725C223.344 219.518 223.506 220.141 223.83 220.594C224.158 221.043 224.607 221.268 225.178 221.268C225.748 221.268 226.195 221.043 226.52 220.594C226.848 220.141 227.012 219.518 227.012 218.725ZM223.344 216.434C223.57 216.043 223.855 215.754 224.199 215.566C224.547 215.375 224.961 215.279 225.441 215.279C226.238 215.279 226.885 215.596 227.381 216.229C227.881 216.861 228.131 217.693 228.131 218.725C228.131 219.756 227.881 220.588 227.381 221.221C226.885 221.854 226.238 222.17 225.441 222.17C224.961 222.17 224.547 222.076 224.199 221.889C223.855 221.697 223.57 221.406 223.344 221.016V222H222.26V212.883H223.344V216.434ZM234.102 215.631V216.65C233.797 216.494 233.48 216.377 233.152 216.299C232.824 216.221 232.484 216.182 232.133 216.182C231.598 216.182 231.195 216.264 230.926 216.428C230.66 216.592 230.527 216.838 230.527 217.166C230.527 217.416 230.623 217.613 230.814 217.758C231.006 217.898 231.391 218.033 231.969 218.162L232.338 218.244C233.104 218.408 233.646 218.641 233.967 218.941C234.291 219.238 234.453 219.654 234.453 220.189C234.453 220.799 234.211 221.281 233.727 221.637C233.246 221.992 232.584 222.17 231.74 222.17C231.389 222.17 231.021 222.135 230.639 222.064C230.26 221.998 229.859 221.896 229.438 221.76V220.646C229.836 220.854 230.229 221.01 230.615 221.115C231.002 221.217 231.385 221.268 231.764 221.268C232.271 221.268 232.662 221.182 232.936 221.01C233.209 220.834 233.346 220.588 233.346 220.271C233.346 219.979 233.246 219.754 233.047 219.598C232.852 219.441 232.42 219.291 231.752 219.146L231.377 219.059C230.709 218.918 230.227 218.703 229.93 218.414C229.633 218.121 229.484 217.721 229.484 217.213C229.484 216.596 229.703 216.119 230.141 215.783C230.578 215.447 231.199 215.279 232.004 215.279C232.402 215.279 232.777 215.309 233.129 215.367C233.48 215.426 233.805 215.514 234.102 215.631ZM238.719 216.193C238.141 216.193 237.684 216.42 237.348 216.873C237.012 217.322 236.844 217.939 236.844 218.725C236.844 219.51 237.01 220.129 237.342 220.582C237.678 221.031 238.137 221.256 238.719 221.256C239.293 221.256 239.748 221.029 240.084 220.576C240.42 220.123 240.588 219.506 240.588 218.725C240.588 217.947 240.42 217.332 240.084 216.879C239.748 216.422 239.293 216.193 238.719 216.193ZM238.719 215.279C239.656 215.279 240.393 215.584 240.928 216.193C241.463 216.803 241.73 217.646 241.73 218.725C241.73 219.799 241.463 220.643 240.928 221.256C240.393 221.865 239.656 222.17 238.719 222.17C237.777 222.17 237.039 221.865 236.504 221.256C235.973 220.643 235.707 219.799 235.707 218.725C235.707 217.646 235.973 216.803 236.504 216.193C237.039 215.584 237.777 215.279 238.719 215.279ZM243.523 212.883H244.602V222H243.523V212.883ZM246.752 219.41V215.438H247.83V219.369C247.83 219.99 247.951 220.457 248.193 220.77C248.436 221.078 248.799 221.232 249.283 221.232C249.865 221.232 250.324 221.047 250.66 220.676C251 220.305 251.17 219.799 251.17 219.158V215.438H252.248V222H251.17V220.992C250.908 221.391 250.604 221.688 250.256 221.883C249.912 222.074 249.512 222.17 249.055 222.17C248.301 222.17 247.729 221.936 247.338 221.467C246.947 220.998 246.752 220.312 246.752 219.41ZM255.535 213.574V215.438H257.756V216.275H255.535V219.838C255.535 220.373 255.607 220.717 255.752 220.869C255.9 221.021 256.199 221.098 256.648 221.098H257.756V222H256.648C255.816 222 255.242 221.846 254.926 221.537C254.609 221.225 254.451 220.658 254.451 219.838V216.275H253.66V215.438H254.451V213.574H255.535ZM264.793 218.449V218.977H259.836C259.883 219.719 260.105 220.285 260.504 220.676C260.906 221.062 261.465 221.256 262.18 221.256C262.594 221.256 262.994 221.205 263.381 221.104C263.771 221.002 264.158 220.85 264.541 220.646V221.666C264.154 221.83 263.758 221.955 263.352 222.041C262.945 222.127 262.533 222.17 262.115 222.17C261.068 222.17 260.238 221.865 259.625 221.256C259.016 220.646 258.711 219.822 258.711 218.783C258.711 217.709 259 216.857 259.578 216.229C260.16 215.596 260.943 215.279 261.928 215.279C262.811 215.279 263.508 215.564 264.02 216.135C264.535 216.701 264.793 217.473 264.793 218.449ZM263.715 218.133C263.707 217.543 263.541 217.072 263.217 216.721C262.896 216.369 262.471 216.193 261.939 216.193C261.338 216.193 260.855 216.363 260.492 216.703C260.133 217.043 259.926 217.521 259.871 218.139L263.715 218.133ZM274.566 215.631V216.65C274.262 216.494 273.945 216.377 273.617 216.299C273.289 216.221 272.949 216.182 272.598 216.182C272.062 216.182 271.66 216.264 271.391 216.428C271.125 216.592 270.992 216.838 270.992 217.166C270.992 217.416 271.088 217.613 271.279 217.758C271.471 217.898 271.855 218.033 272.434 218.162L272.803 218.244C273.568 218.408 274.111 218.641 274.432 218.941C274.756 219.238 274.918 219.654 274.918 220.189C274.918 220.799 274.676 221.281 274.191 221.637C273.711 221.992 273.049 222.17 272.205 222.17C271.854 222.17 271.486 222.135 271.104 222.064C270.725 221.998 270.324 221.896 269.902 221.76V220.646C270.301 220.854 270.693 221.01 271.08 221.115C271.467 221.217 271.85 221.268 272.229 221.268C272.736 221.268 273.127 221.182 273.4 221.01C273.674 220.834 273.811 220.588 273.811 220.271C273.811 219.979 273.711 219.754 273.512 219.598C273.316 219.441 272.885 219.291 272.217 219.146L271.842 219.059C271.174 218.918 270.691 218.703 270.395 218.414C270.098 218.121 269.949 217.721 269.949 217.213C269.949 216.596 270.168 216.119 270.605 215.783C271.043 215.447 271.664 215.279 272.469 215.279C272.867 215.279 273.242 215.309 273.594 215.367C273.945 215.426 274.27 215.514 274.566 215.631ZM281.363 215.689V216.697C281.059 216.529 280.752 216.404 280.443 216.322C280.139 216.236 279.83 216.193 279.518 216.193C278.818 216.193 278.275 216.416 277.889 216.861C277.502 217.303 277.309 217.924 277.309 218.725C277.309 219.525 277.502 220.148 277.889 220.594C278.275 221.035 278.818 221.256 279.518 221.256C279.83 221.256 280.139 221.215 280.443 221.133C280.752 221.047 281.059 220.92 281.363 220.752V221.748C281.062 221.889 280.75 221.994 280.426 222.064C280.105 222.135 279.764 222.17 279.4 222.17C278.412 222.17 277.627 221.859 277.045 221.238C276.463 220.617 276.172 219.779 276.172 218.725C276.172 217.654 276.465 216.812 277.051 216.199C277.641 215.586 278.447 215.279 279.471 215.279C279.803 215.279 280.127 215.314 280.443 215.385C280.76 215.451 281.066 215.553 281.363 215.689ZM286.221 218.701C285.35 218.701 284.746 218.801 284.41 219C284.074 219.199 283.906 219.539 283.906 220.02C283.906 220.402 284.031 220.707 284.281 220.934C284.535 221.156 284.879 221.268 285.312 221.268C285.91 221.268 286.389 221.057 286.748 220.635C287.111 220.209 287.293 219.645 287.293 218.941V218.701H286.221ZM288.371 218.256V222H287.293V221.004C287.047 221.402 286.74 221.697 286.373 221.889C286.006 222.076 285.557 222.17 285.025 222.17C284.354 222.17 283.818 221.982 283.42 221.607C283.025 221.229 282.828 220.723 282.828 220.09C282.828 219.352 283.074 218.795 283.566 218.42C284.062 218.045 284.801 217.857 285.781 217.857H287.293V217.752C287.293 217.256 287.129 216.873 286.801 216.604C286.477 216.33 286.02 216.193 285.43 216.193C285.055 216.193 284.689 216.238 284.334 216.328C283.979 216.418 283.637 216.553 283.309 216.732V215.736C283.703 215.584 284.086 215.471 284.457 215.396C284.828 215.318 285.189 215.279 285.541 215.279C286.49 215.279 287.199 215.525 287.668 216.018C288.137 216.51 288.371 217.256 288.371 218.256ZM290.598 212.883H291.676V222H290.598V212.883ZM299.551 218.449V218.977H294.594C294.641 219.719 294.863 220.285 295.262 220.676C295.664 221.062 296.223 221.256 296.938 221.256C297.352 221.256 297.752 221.205 298.139 221.104C298.529 221.002 298.916 220.85 299.299 220.646V221.666C298.912 221.83 298.516 221.955 298.109 222.041C297.703 222.127 297.291 222.17 296.873 222.17C295.826 222.17 294.996 221.865 294.383 221.256C293.773 220.646 293.469 219.822 293.469 218.783C293.469 217.709 293.758 216.857 294.336 216.229C294.918 215.596 295.701 215.279 296.686 215.279C297.568 215.279 298.266 215.564 298.777 216.135C299.293 216.701 299.551 217.473 299.551 218.449ZM298.473 218.133C298.465 217.543 298.299 217.072 297.975 216.721C297.654 216.369 297.229 216.193 296.697 216.193C296.096 216.193 295.613 216.363 295.25 216.703C294.891 217.043 294.684 217.521 294.629 218.139L298.473 218.133Z" fill="black"/>
</g>
</svg>
