<svg width="718" height="76" viewBox="0 0 718 76" fill="none" xmlns="http://www.w3.org/2000/svg">
<g opacity="0.84">
<rect width="718" height="76" fill="white"/>
<g filter="url(#filter0_d_6_8292)">
<rect x="336.036" y="7" width="44" height="61" fill="#80ACFF"/>
</g>
<g filter="url(#filter1_d_6_8292)">
<rect x="406.036" y="7" width="57" height="61" fill="#80ACFF"/>
</g>
<path d="M17.7893 32.0547C17.7893 29.5174 15.9267 28.432 13.7413 28.432H7.88933C7.596 28.432 7.34667 28.432 7.34667 28.8574C7.34667 29.1214 7.53733 29.1214 7.96267 29.1214C8.27067 29.1214 8.54933 29.136 8.85733 29.1507L6.76 37.5107C6.70133 37.7454 6.68667 37.76 6.42267 37.7894C6.17333 37.804 5.88 37.804 5.64533 37.804C5.264 37.804 5.23467 37.804 5.176 37.8334C5 37.936 5 38.1707 5 38.2294C5 38.4934 5.264 38.4934 5.49867 38.4934H11.2333C15.4427 38.4934 17.7893 35.032 17.7893 32.0547ZM15.8387 31.5414C15.8387 32.568 15.296 34.592 14.9 35.4134C14.0493 37.1294 12.524 37.804 10.8373 37.804H9.01867C8.79867 37.804 8.76933 37.804 8.66667 37.7894L10.764 29.3854C10.8227 29.1654 10.8373 29.1507 10.9253 29.136C11.0573 29.1214 11.16 29.1214 11.3213 29.1214H12.9933C13.4187 29.1214 14.4013 29.1654 15.1053 29.7227C15.8387 30.3387 15.8387 31.204 15.8387 31.5414Z" fill="black"/>
<path d="M32.5114 33.1107H23.4474C23.2127 33.1107 23.0954 33.228 23.0954 33.448C23.0954 33.668 23.2127 33.7854 23.4474 33.7854H32.5114C32.7461 33.7854 32.8634 33.668 32.8634 33.448C32.8634 33.272 32.7021 33.1107 32.5114 33.1107ZM32.5114 35.868H23.4474C23.2127 35.868 23.0954 35.9854 23.0954 36.2054C23.0954 36.4254 23.2127 36.5427 23.4474 36.5427H32.5114C32.7461 36.5427 32.8634 36.4254 32.8634 36.2054C32.8634 36.0147 32.7021 35.868 32.5114 35.868Z" fill="black"/>
<path d="M49.4628 62.1566C49.7121 62.1566 49.8295 62.0392 49.8295 61.7899C49.8295 61.6579 49.7708 61.5699 49.6681 61.5112C48.4801 60.6019 47.4095 59.1939 46.4415 57.2579C44.7108 53.8112 43.4055 48.9126 43.4055 43.9406V40.2299H41.8215V43.9406C41.8215 48.7512 43.4495 53.7232 45.2681 57.0966C46.4708 59.3259 47.8055 60.9832 49.2575 62.0832C49.3161 62.1272 49.3895 62.1566 49.4628 62.1566Z" fill="black"/>
<path d="M41.8215 41.238H43.4055V33.934H41.8215V41.238Z" fill="black"/>
<path d="M41.8215 35.7194H43.4055V28.4154H41.8215V35.7194Z" fill="black"/>
<path d="M49.6828 8.15682C49.7855 8.08349 49.8295 7.98082 49.8295 7.86348C49.8295 7.61415 49.7121 7.49682 49.4628 7.49682C49.3895 7.49682 49.3161 7.52615 49.2575 7.57015C47.9815 8.55282 46.7641 10.0048 45.6201 11.9408C43.6108 15.4022 41.8215 20.5795 41.8215 25.7128V29.4235H43.4055V25.7128C43.4055 23.4542 43.6695 21.1808 44.1828 18.8782C45.0921 14.7715 46.9988 10.1662 49.6828 8.15682Z" fill="black"/>
<path d="M74.5167 11.3747C74.5461 11.2427 74.5607 11.1547 74.5607 11.1254C74.5607 10.9934 74.4874 10.9347 74.3261 10.9347H68.0194C67.6527 10.9347 67.6087 10.9787 67.5207 11.272L66.7287 13.868C66.6994 13.9414 66.6847 14.0294 66.6701 14.1027C66.7141 14.22 66.7434 14.308 66.9047 14.308C66.9781 14.308 67.0661 14.2494 67.1541 14.132C67.4621 13.1787 67.8727 12.4894 68.3861 12.0934C68.8994 11.6974 69.6621 11.5067 70.6594 11.5067H72.8887L64.8661 20.468L64.8074 20.7614C64.8074 20.8934 64.8954 20.952 65.0567 20.952H71.5247C71.9061 20.952 71.9501 20.9227 72.0381 20.6147L73.0647 17.4027C73.0794 17.344 73.1234 17.2414 73.1234 17.1827C73.1234 17.036 73.0354 16.9627 72.8741 16.9627C72.7714 16.9627 72.6687 17.0947 72.5807 17.3734C72.2581 18.3707 71.8621 19.104 71.3781 19.5734C70.8647 20.0867 70.0141 20.336 68.8407 20.336H66.4941L74.5167 11.3747Z" fill="black"/>
<path d="M79.6354 24.5894C79.7674 24.5894 79.8408 24.516 79.8408 24.384C79.8408 24.34 79.8114 24.2814 79.7674 24.2227C79.0048 23.636 78.3888 22.668 77.9341 21.3334C77.5381 20.1747 77.3328 19.0307 77.3328 17.9014V16.6694C77.3328 15.54 77.5381 14.396 77.9341 13.2374C78.3888 11.9027 79.0048 10.9347 79.7674 10.348C79.8114 10.304 79.8408 10.2454 79.8408 10.1867C79.8408 10.0547 79.7674 9.98136 79.6354 9.98136C79.6208 9.98136 79.5768 9.99602 79.5328 10.0254C78.6528 10.7 77.9194 11.6974 77.3181 13.032C76.7461 14.308 76.4528 15.5107 76.4528 16.6694V17.9014C76.4528 19.06 76.7461 20.2627 77.3181 21.5387C77.9194 22.8734 78.6528 23.8707 79.5328 24.5454C79.5768 24.5747 79.6208 24.5894 79.6354 24.5894Z" fill="black"/>
<path d="M88.8167 10.9347H84.1234C83.7861 10.9347 83.6247 10.9494 83.6247 11.272C83.6247 11.4334 83.7861 11.5067 84.1087 11.5067C84.4021 11.5067 84.9887 11.4627 84.9887 11.6974C84.9887 11.7267 84.9741 11.8147 84.9301 11.9614L82.9941 19.7494C82.9061 20.072 82.7594 20.2627 82.5541 20.336C82.4514 20.3654 82.1874 20.38 81.7327 20.38C81.4101 20.38 81.2634 20.4094 81.2634 20.7174C81.2634 20.8787 81.3514 20.952 81.5421 20.952L83.3754 20.908L84.3141 20.9227C84.4754 20.9227 85.0621 20.952 85.2527 20.952C85.4874 20.952 85.6047 20.8347 85.6047 20.6C85.6047 20.4534 85.4434 20.38 85.1354 20.38C84.5487 20.38 84.2554 20.3214 84.2554 20.1894C84.2554 20.1894 84.2701 20.1454 84.2994 19.9547L85.1794 16.376H87.5994C88.5527 16.376 89.4621 16.0827 90.3127 15.5107C91.2661 14.88 91.7354 14.1027 91.7354 13.1787C91.7354 11.7267 90.3567 10.9347 88.8167 10.9347ZM88.3621 11.5067C89.6381 11.5067 90.2687 11.9467 90.2687 12.8267C90.2687 13.648 89.8581 14.748 89.4327 15.1294C88.8754 15.628 88.1421 15.8774 87.2327 15.8774H85.2674L86.2354 12.0054C86.3527 11.5067 86.3527 11.5067 86.9687 11.5067H88.3621Z" fill="black"/>
<path d="M96.8101 24.5894C96.9421 24.5894 97.0154 24.516 97.0154 24.384C97.0154 24.34 96.9861 24.2814 96.9421 24.2227C96.1794 23.636 95.5634 22.668 95.1087 21.3334C94.7127 20.1747 94.5074 19.0307 94.5074 17.9014V16.6694C94.5074 15.54 94.7127 14.396 95.1087 13.2374C95.5634 11.9027 96.1794 10.9347 96.9421 10.348C96.9861 10.304 97.0154 10.2454 97.0154 10.1867C97.0154 10.0547 96.9421 9.98136 96.8101 9.98136C96.7954 9.98136 96.7514 9.99602 96.7074 10.0254C95.8274 10.7 95.0941 11.6974 94.4927 13.032C93.9207 14.308 93.6274 15.5107 93.6274 16.6694V17.9014C93.6274 19.06 93.9207 20.2627 94.4927 21.5387C95.0941 22.8734 95.8274 23.8707 96.7074 24.5454C96.7514 24.5747 96.7954 24.5894 96.8101 24.5894Z" fill="black"/>
<path d="M101.503 21.2747C103.571 21.2747 104.598 19.6027 104.598 16.2587C104.598 14.0147 104.129 12.5187 103.205 11.7854C102.691 11.3894 102.119 11.184 101.518 11.184C99.4501 11.184 98.4234 12.8707 98.4234 16.2587C98.4234 18.9574 99.1421 21.2747 101.503 21.2747ZM103.146 13.2667C103.249 13.78 103.293 14.7187 103.293 16.0827C103.293 17.432 103.234 18.4294 103.131 19.0747C102.941 20.248 102.398 20.8347 101.503 20.8347C101.166 20.8347 100.829 20.7027 100.521 20.4534C100.125 20.116 99.8901 19.4267 99.7874 18.3707C99.7434 18.004 99.7287 17.2414 99.7287 16.0827C99.7287 14.8067 99.7727 13.912 99.8461 13.428C99.9781 12.6214 100.242 12.108 100.653 11.888C100.975 11.712 101.254 11.624 101.503 11.624C102.457 11.624 102.985 12.4014 103.146 13.2667Z" fill="black"/>
<path d="M107.223 19.3974C106.754 19.3974 106.446 19.7494 106.446 20.2187C106.446 20.6587 106.783 21.0254 107.223 21.0254C107.429 21.0254 107.605 20.9667 107.737 20.8347L107.751 20.952C107.751 21.876 107.443 22.668 106.827 23.2987C106.725 23.416 106.666 23.504 106.666 23.5627C106.666 23.7094 106.725 23.7827 106.857 23.7827C106.989 23.7827 107.165 23.6067 107.414 23.2694C107.913 22.5654 108.162 21.788 108.162 20.952C108.162 20.1747 107.898 19.3974 107.223 19.3974Z" fill="black"/>
<path d="M115.359 21.2747C117.427 21.2747 118.453 19.6027 118.453 16.2587C118.453 14.0147 117.984 12.5187 117.06 11.7854C116.547 11.3894 115.975 11.184 115.373 11.184C113.305 11.184 112.279 12.8707 112.279 16.2587C112.279 18.9574 112.997 21.2747 115.359 21.2747ZM117.001 13.2667C117.104 13.78 117.148 14.7187 117.148 16.0827C117.148 17.432 117.089 18.4294 116.987 19.0747C116.796 20.248 116.253 20.8347 115.359 20.8347C115.021 20.8347 114.684 20.7027 114.376 20.4534C113.98 20.116 113.745 19.4267 113.643 18.3707C113.599 18.004 113.584 17.2414 113.584 16.0827C113.584 14.8067 113.628 13.912 113.701 13.428C113.833 12.6214 114.097 12.108 114.508 11.888C114.831 11.712 115.109 11.624 115.359 11.624C116.312 11.624 116.84 12.4014 117.001 13.2667Z" fill="black"/>
<path d="M120.184 24.5454C121.064 23.8707 121.797 22.8734 122.399 21.5387C122.971 20.2627 123.264 19.06 123.264 17.9014V16.6694C123.264 15.5107 122.971 14.308 122.399 13.032C121.797 11.6974 121.064 10.7 120.184 10.0254C120.14 9.99602 120.096 9.98136 120.081 9.98136C119.949 9.98136 119.876 10.0547 119.876 10.1867C119.876 10.2454 119.905 10.304 119.949 10.348C120.712 10.9347 121.328 11.9027 121.783 13.2374C122.179 14.396 122.384 15.54 122.384 16.6694V17.9014C122.384 19.0307 122.179 20.1747 121.783 21.3334C121.328 22.668 120.712 23.636 119.949 24.2227C119.905 24.2814 119.876 24.34 119.876 24.384C119.876 24.516 119.949 24.5894 120.081 24.5894C120.096 24.5894 120.14 24.5747 120.184 24.5454Z" fill="black"/>
<path d="M125.889 24.5454C126.769 23.8707 127.503 22.8734 128.104 21.5387C128.676 20.2627 128.969 19.06 128.969 17.9014V16.6694C128.969 15.5107 128.676 14.308 128.104 13.032C127.503 11.6974 126.769 10.7 125.889 10.0254C125.845 9.99602 125.801 9.98136 125.787 9.98136C125.655 9.98136 125.581 10.0547 125.581 10.1867C125.581 10.2454 125.611 10.304 125.655 10.348C126.417 10.9347 127.033 11.9027 127.488 13.2374C127.884 14.396 128.089 15.54 128.089 16.6694V17.9014C128.089 19.0307 127.884 20.1747 127.488 21.3334C127.033 22.668 126.417 23.636 125.655 24.2227C125.611 24.2814 125.581 24.34 125.581 24.384C125.581 24.516 125.655 24.5894 125.787 24.5894C125.801 24.5894 125.845 24.5747 125.889 24.5454Z" fill="black"/>
<path d="M97.9809 30.7787C97.9809 30.3387 97.6436 29.9574 97.2036 29.9574C96.7636 29.9574 96.4263 30.3387 96.4263 30.7787C96.4263 31.2334 96.7636 31.6147 97.2036 31.6147C97.6436 31.6147 97.9809 31.2187 97.9809 30.7787ZM97.9809 34.8267C97.9809 34.3867 97.6436 34.0054 97.2036 34.0054C96.7636 34.0054 96.4263 34.372 96.4263 34.8267C96.4263 35.2814 96.7636 35.648 97.2036 35.648C97.6436 35.648 97.9809 35.2667 97.9809 34.8267ZM97.9809 38.8747C97.9809 38.42 97.6436 38.0387 97.2036 38.0387C96.7636 38.0387 96.4263 38.42 96.4263 38.8747C96.4263 39.3147 96.7636 39.696 97.2036 39.696C97.6436 39.696 97.9809 39.3147 97.9809 38.8747Z" fill="black"/>
<path d="M61.1521 46.4573C61.1815 46.3253 61.1961 46.2373 61.1961 46.208C61.1961 46.076 61.1228 46.0173 60.9615 46.0173H54.6548C54.2881 46.0173 54.2441 46.0613 54.1561 46.3547L53.3641 48.9507C53.3348 49.024 53.3201 49.112 53.3055 49.1853C53.3495 49.3027 53.3788 49.3907 53.5401 49.3907C53.6135 49.3907 53.7015 49.332 53.7895 49.2147C54.0975 48.2613 54.5081 47.572 55.0215 47.176C55.5348 46.78 56.2975 46.5893 57.2948 46.5893H59.5241L51.5015 55.5507L51.4428 55.844C51.4428 55.976 51.5308 56.0347 51.6921 56.0347H58.1601C58.5415 56.0347 58.5855 56.0053 58.6735 55.6973L59.7001 52.4853C59.7148 52.4267 59.7588 52.324 59.7588 52.2653C59.7588 52.1187 59.6708 52.0453 59.5095 52.0453C59.4068 52.0453 59.3041 52.1773 59.2161 52.456C58.8935 53.4533 58.4975 54.1867 58.0135 54.656C57.5001 55.1693 56.6495 55.4187 55.4761 55.4187H53.1295L61.1521 46.4573Z" fill="black"/>
<path d="M66.2708 59.672C66.4028 59.672 66.4761 59.5987 66.4761 59.4667C66.4761 59.4227 66.4468 59.364 66.4028 59.3054C65.6401 58.7187 65.0241 57.7507 64.5695 56.416C64.1735 55.2574 63.9681 54.1134 63.9681 52.984V51.752C63.9681 50.6227 64.1735 49.4787 64.5695 48.32C65.0241 46.9854 65.6401 46.0174 66.4028 45.4307C66.4468 45.3867 66.4761 45.328 66.4761 45.2694C66.4761 45.1374 66.4028 45.064 66.2708 45.064C66.2561 45.064 66.2121 45.0787 66.1681 45.108C65.2881 45.7827 64.5548 46.78 63.9535 48.1147C63.3815 49.3907 63.0881 50.5934 63.0881 51.752V52.984C63.0881 54.1427 63.3815 55.3454 63.9535 56.6214C64.5548 57.956 65.2881 58.9534 66.1681 59.628C66.2121 59.6574 66.2561 59.672 66.2708 59.672Z" fill="black"/>
<path d="M75.4521 46.0173H70.7588C70.4215 46.0173 70.2601 46.032 70.2601 46.3547C70.2601 46.516 70.4215 46.5893 70.7441 46.5893C71.0375 46.5893 71.6241 46.5453 71.6241 46.78C71.6241 46.8093 71.6095 46.8973 71.5655 47.044L69.6295 54.832C69.5415 55.1547 69.3948 55.3453 69.1895 55.4187C69.0868 55.448 68.8228 55.4627 68.3681 55.4627C68.0455 55.4627 67.8988 55.492 67.8988 55.8C67.8988 55.9613 67.9868 56.0347 68.1775 56.0347L70.0108 55.9907L70.9495 56.0053C71.1108 56.0053 71.6975 56.0347 71.8881 56.0347C72.1228 56.0347 72.2401 55.9173 72.2401 55.6827C72.2401 55.536 72.0788 55.4627 71.7708 55.4627C71.1841 55.4627 70.8908 55.404 70.8908 55.272C70.8908 55.272 70.9055 55.228 70.9348 55.0373L71.8148 51.4587H74.2348C75.1881 51.4587 76.0975 51.1653 76.9481 50.5933C77.9015 49.9627 78.3708 49.1853 78.3708 48.2613C78.3708 46.8093 76.9921 46.0173 75.4521 46.0173ZM74.9975 46.5893C76.2735 46.5893 76.9041 47.0293 76.9041 47.9093C76.9041 48.7307 76.4935 49.8307 76.0681 50.212C75.5108 50.7107 74.7775 50.96 73.8681 50.96H71.9028L72.8708 47.088C72.9881 46.5893 72.9881 46.5893 73.6041 46.5893H74.9975Z" fill="black"/>
<path d="M83.4455 59.672C83.5775 59.672 83.6508 59.5987 83.6508 59.4667C83.6508 59.4227 83.6215 59.364 83.5775 59.3054C82.8148 58.7187 82.1988 57.7507 81.7442 56.416C81.3482 55.2574 81.1428 54.1134 81.1428 52.984V51.752C81.1428 50.6227 81.3482 49.4787 81.7442 48.32C82.1988 46.9854 82.8148 46.0174 83.5775 45.4307C83.6215 45.3867 83.6508 45.328 83.6508 45.2694C83.6508 45.1374 83.5775 45.064 83.4455 45.064C83.4308 45.064 83.3868 45.0787 83.3428 45.108C82.4628 45.7827 81.7295 46.78 81.1282 48.1147C80.5562 49.3907 80.2628 50.5934 80.2628 51.752V52.984C80.2628 54.1427 80.5562 55.3454 81.1282 56.6214C81.7295 57.956 82.4628 58.9534 83.3428 59.628C83.3868 59.6574 83.4308 59.672 83.4455 59.672Z" fill="black"/>
<path d="M92.3628 54.0253C92.0255 55.184 91.5415 55.7707 90.9401 55.7707C90.7495 55.7707 90.6468 55.624 90.6468 55.3453C90.6468 55.14 90.7348 54.8027 90.9108 54.348C91.4975 52.7493 91.7908 51.6933 91.7908 51.1507C91.7908 50.124 91.1015 49.552 90.0748 49.552C89.2095 49.552 88.4615 49.9333 87.8601 50.7107C87.7428 50.0653 87.2295 49.552 86.4815 49.552C85.6601 49.552 85.3375 50.3147 85.1321 50.9747C84.9855 51.444 84.9121 51.7227 84.9121 51.8253C84.9121 51.9573 84.9855 52.0307 85.1468 52.0307C85.2201 52.0307 85.2641 52.016 85.3081 51.9867C85.3815 51.8547 85.4255 51.752 85.4401 51.6493C85.7041 50.5347 86.0415 49.9773 86.4375 49.9773C86.7015 49.9773 86.8335 50.1827 86.8335 50.5933C86.8335 50.784 86.7601 51.18 86.5988 51.7813L85.7628 55.1107C85.7188 55.3013 85.6308 55.6827 85.6308 55.756C85.6308 56.0493 85.7921 56.196 86.1148 56.196C86.3935 56.196 86.5988 56.0493 86.7015 55.756C86.7308 55.6827 86.8188 55.316 86.9801 54.6853L87.2881 53.38L87.7281 51.708C87.8895 51.3707 88.1388 51.0333 88.4468 50.6813C88.8721 50.212 89.4001 49.9773 90.0308 49.9773C90.5148 49.9773 90.7495 50.3 90.7495 50.9307C90.7495 51.488 90.4415 52.6027 89.8108 54.2747C89.7081 54.5387 89.6641 54.7587 89.6641 54.9493C89.6641 55.668 90.2068 56.196 90.9108 56.196C91.5561 56.196 92.0695 55.8293 92.4361 55.096C92.7148 54.5093 92.8615 54.1133 92.8615 53.9227C92.8615 53.7907 92.7881 53.7173 92.6268 53.7173C92.5828 53.7173 92.3628 53.8493 92.3628 54.0253Z" fill="black"/>
<path d="M106.783 52.0747H97.7194C97.4847 52.0747 97.3674 52.1774 97.3674 52.368C97.3674 52.5587 97.4847 52.6614 97.7194 52.6614H106.783C107.018 52.6614 107.135 52.5587 107.135 52.368C107.135 52.192 106.959 52.0747 106.783 52.0747Z" fill="black"/>
<path d="M115.161 46.2667C114.56 46.8827 113.68 47.1907 112.521 47.1907V47.7627C113.284 47.7627 113.915 47.6453 114.399 47.4107V54.832C114.399 55.096 114.34 55.272 114.208 55.3453C114.076 55.4187 113.709 55.4627 113.123 55.4627H112.609V56.0347C112.976 56.0053 113.768 55.9907 114.985 55.9907C116.203 55.9907 116.995 56.0053 117.361 56.0347V55.4627H116.848C116.247 55.4627 115.88 55.4187 115.763 55.3453C115.645 55.272 115.572 55.096 115.572 54.832V46.7067C115.572 46.3547 115.543 46.2667 115.161 46.2667Z" fill="black"/>
<path d="M120.588 54.48C120.119 54.48 119.811 54.832 119.811 55.3014C119.811 55.7414 120.148 56.108 120.588 56.108C120.793 56.108 120.969 56.0494 121.101 55.9174L121.116 56.0347C121.116 56.9587 120.808 57.7507 120.192 58.3814C120.089 58.4987 120.031 58.5867 120.031 58.6454C120.031 58.792 120.089 58.8654 120.221 58.8654C120.353 58.8654 120.529 58.6894 120.779 58.352C121.277 57.648 121.527 56.8707 121.527 56.0347C121.527 55.2574 121.263 54.48 120.588 54.48Z" fill="black"/>
<path d="M128.723 56.3574C130.791 56.3574 131.818 54.6854 131.818 51.3414C131.818 49.0974 131.348 47.6014 130.424 46.868C129.911 46.472 129.339 46.2667 128.738 46.2667C126.67 46.2667 125.643 47.9534 125.643 51.3414C125.643 54.04 126.362 56.3574 128.723 56.3574ZM130.366 48.3494C130.468 48.8627 130.512 49.8014 130.512 51.1654C130.512 52.5147 130.454 53.512 130.351 54.1574C130.16 55.3307 129.618 55.9174 128.723 55.9174C128.386 55.9174 128.048 55.7854 127.74 55.536C127.344 55.1987 127.11 54.5094 127.007 53.4534C126.963 53.0867 126.948 52.324 126.948 51.1654C126.948 49.8894 126.992 48.9947 127.066 48.5107C127.198 47.704 127.462 47.1907 127.872 46.9707C128.195 46.7947 128.474 46.7067 128.723 46.7067C129.676 46.7067 130.204 47.484 130.366 48.3494Z" fill="black"/>
<path d="M133.548 59.628C134.428 58.9534 135.162 57.956 135.763 56.6214C136.335 55.3454 136.628 54.1427 136.628 52.984V51.752C136.628 50.5934 136.335 49.3907 135.763 48.1147C135.162 46.78 134.428 45.7827 133.548 45.108C133.504 45.0787 133.46 45.064 133.446 45.064C133.314 45.064 133.24 45.1374 133.24 45.2694C133.24 45.328 133.27 45.3867 133.314 45.4307C134.076 46.0174 134.692 46.9854 135.147 48.32C135.543 49.4787 135.748 50.6227 135.748 51.752V52.984C135.748 54.1134 135.543 55.2574 135.147 56.416C134.692 57.7507 134.076 58.7187 133.314 59.3054C133.27 59.364 133.24 59.4227 133.24 59.4667C133.24 59.5987 133.314 59.672 133.446 59.672C133.46 59.672 133.504 59.6574 133.548 59.628Z" fill="black"/>
<path d="M139.254 59.628C140.134 58.9534 140.867 57.956 141.468 56.6214C142.04 55.3454 142.334 54.1427 142.334 52.984V51.752C142.334 50.5934 142.04 49.3907 141.468 48.1147C140.867 46.78 140.134 45.7827 139.254 45.108C139.21 45.0787 139.166 45.064 139.151 45.064C139.019 45.064 138.946 45.1374 138.946 45.2694C138.946 45.328 138.975 45.3867 139.019 45.4307C139.782 46.0174 140.398 46.9854 140.852 48.32C141.248 49.4787 141.454 50.6227 141.454 51.752V52.984C141.454 54.1134 141.248 55.2574 140.852 56.416C140.398 57.7507 139.782 58.7187 139.019 59.3054C138.975 59.364 138.946 59.4227 138.946 59.4667C138.946 59.5987 139.019 59.672 139.151 59.672C139.166 59.672 139.21 59.6574 139.254 59.628Z" fill="black"/>
<path d="M162.163 20.1747C162.163 19.7347 161.782 19.3974 161.342 19.3974C160.887 19.3974 160.506 19.7347 160.506 20.1747C160.506 20.6147 160.887 20.952 161.342 20.952C161.782 20.952 162.163 20.6147 162.163 20.1747ZM158.115 20.1747C158.115 19.7347 157.734 19.3974 157.294 19.3974C156.839 19.3974 156.472 19.7347 156.472 20.1747C156.472 20.6147 156.839 20.952 157.294 20.952C157.734 20.952 158.115 20.6147 158.115 20.1747ZM154.082 20.1747C154.082 19.7347 153.7 19.3974 153.246 19.3974C152.806 19.3974 152.424 19.7347 152.424 20.1747C152.424 20.6147 152.806 20.952 153.246 20.952C153.686 20.952 154.082 20.6147 154.082 20.1747Z" fill="black"/>
<path d="M160.96 37.672C160.96 37.2174 160.594 36.8507 160.139 36.8507C159.67 36.8507 159.318 37.2027 159.318 37.672C159.318 38.1267 159.684 38.4934 160.139 38.4934C160.608 38.4934 160.96 38.1414 160.96 37.672ZM155.27 31.9814C155.27 31.5414 154.888 31.16 154.448 31.16C153.979 31.16 153.627 31.512 153.627 31.9814C153.627 32.436 153.994 32.8027 154.448 32.8027C154.918 32.8027 155.27 32.4507 155.27 31.9814ZM158.115 34.8267C158.115 34.3867 157.734 34.0054 157.294 34.0054C156.854 34.0054 156.472 34.3867 156.472 34.8267C156.472 35.2667 156.854 35.648 157.294 35.648C157.734 35.648 158.115 35.2667 158.115 34.8267Z" fill="black"/>
<path d="M162.163 55.2573C162.163 54.8173 161.782 54.48 161.342 54.48C160.887 54.48 160.506 54.8173 160.506 55.2573C160.506 55.6973 160.887 56.0347 161.342 56.0347C161.782 56.0347 162.163 55.6973 162.163 55.2573ZM158.115 55.2573C158.115 54.8173 157.734 54.48 157.294 54.48C156.839 54.48 156.472 54.8173 156.472 55.2573C156.472 55.6973 156.839 56.0347 157.294 56.0347C157.734 56.0347 158.115 55.6973 158.115 55.2573ZM154.082 55.2573C154.082 54.8173 153.7 54.48 153.246 54.48C152.806 54.48 152.424 54.8173 152.424 55.2573C152.424 55.6973 152.806 56.0347 153.246 56.0347C153.686 56.0347 154.082 55.6973 154.082 55.2573Z" fill="black"/>
<path d="M194.682 11.3747C194.712 11.2427 194.726 11.1547 194.726 11.1254C194.726 10.9934 194.653 10.9347 194.492 10.9347H188.185C187.818 10.9347 187.774 10.9787 187.686 11.272L186.894 13.868C186.865 13.9414 186.85 14.0294 186.836 14.1027C186.88 14.22 186.909 14.308 187.07 14.308C187.144 14.308 187.232 14.2494 187.32 14.132C187.628 13.1787 188.038 12.4894 188.552 12.0934C189.065 11.6974 189.828 11.5067 190.825 11.5067H193.054L185.032 20.468L184.973 20.7614C184.973 20.8934 185.061 20.952 185.222 20.952H191.69C192.072 20.952 192.116 20.9227 192.204 20.6147L193.23 17.4027C193.245 17.344 193.289 17.2414 193.289 17.1827C193.289 17.036 193.201 16.9627 193.04 16.9627C192.937 16.9627 192.834 17.0947 192.746 17.3734C192.424 18.3707 192.028 19.104 191.544 19.5734C191.03 20.0867 190.18 20.336 189.006 20.336H186.66L194.682 11.3747Z" fill="black"/>
<path d="M199.801 24.5894C199.933 24.5894 200.006 24.516 200.006 24.384C200.006 24.34 199.977 24.2814 199.933 24.2227C199.17 23.636 198.554 22.668 198.1 21.3334C197.704 20.1747 197.498 19.0307 197.498 17.9014V16.6694C197.498 15.54 197.704 14.396 198.1 13.2374C198.554 11.9027 199.17 10.9347 199.933 10.348C199.977 10.304 200.006 10.2454 200.006 10.1867C200.006 10.0547 199.933 9.98136 199.801 9.98136C199.786 9.98136 199.742 9.99602 199.698 10.0254C198.818 10.7 198.085 11.6974 197.484 13.032C196.912 14.308 196.618 15.5107 196.618 16.6694V17.9014C196.618 19.06 196.912 20.2627 197.484 21.5387C198.085 22.8734 198.818 23.8707 199.698 24.5454C199.742 24.5747 199.786 24.5894 199.801 24.5894Z" fill="black"/>
<path d="M208.982 10.9347H204.289C203.952 10.9347 203.79 10.9494 203.79 11.272C203.79 11.4334 203.952 11.5067 204.274 11.5067C204.568 11.5067 205.154 11.4627 205.154 11.6974C205.154 11.7267 205.14 11.8147 205.096 11.9614L203.16 19.7494C203.072 20.072 202.925 20.2627 202.72 20.336C202.617 20.3654 202.353 20.38 201.898 20.38C201.576 20.38 201.429 20.4094 201.429 20.7174C201.429 20.8787 201.517 20.952 201.708 20.952L203.541 20.908L204.48 20.9227C204.641 20.9227 205.228 20.952 205.418 20.952C205.653 20.952 205.77 20.8347 205.77 20.6C205.77 20.4534 205.609 20.38 205.301 20.38C204.714 20.38 204.421 20.3214 204.421 20.1894C204.421 20.1894 204.436 20.1454 204.465 19.9547L205.345 16.376H207.765C208.718 16.376 209.628 16.0827 210.478 15.5107C211.432 14.88 211.901 14.1027 211.901 13.1787C211.901 11.7267 210.522 10.9347 208.982 10.9347ZM208.528 11.5067C209.804 11.5067 210.434 11.9467 210.434 12.8267C210.434 13.648 210.024 14.748 209.598 15.1294C209.041 15.628 208.308 15.8774 207.398 15.8774H205.433L206.401 12.0054C206.518 11.5067 206.518 11.5067 207.134 11.5067H208.528Z" fill="black"/>
<path d="M216.976 24.5894C217.108 24.5894 217.181 24.516 217.181 24.384C217.181 24.34 217.152 24.2814 217.108 24.2227C216.345 23.636 215.729 22.668 215.274 21.3334C214.878 20.1747 214.673 19.0307 214.673 17.9014V16.6694C214.673 15.54 214.878 14.396 215.274 13.2374C215.729 11.9027 216.345 10.9347 217.108 10.348C217.152 10.304 217.181 10.2454 217.181 10.1867C217.181 10.0547 217.108 9.98136 216.976 9.98136C216.961 9.98136 216.917 9.99602 216.873 10.0254C215.993 10.7 215.26 11.6974 214.658 13.032C214.086 14.308 213.793 15.5107 213.793 16.6694V17.9014C213.793 19.06 214.086 20.2627 214.658 21.5387C215.26 22.8734 215.993 23.8707 216.873 24.5454C216.917 24.5747 216.961 24.5894 216.976 24.5894Z" fill="black"/>
<path d="M221.669 21.2747C223.737 21.2747 224.764 19.6027 224.764 16.2587C224.764 14.0147 224.294 12.5187 223.37 11.7854C222.857 11.3894 222.285 11.184 221.684 11.184C219.616 11.184 218.589 12.8707 218.589 16.2587C218.589 18.9574 219.308 21.2747 221.669 21.2747ZM223.312 13.2667C223.414 13.78 223.458 14.7187 223.458 16.0827C223.458 17.432 223.4 18.4294 223.297 19.0747C223.106 20.248 222.564 20.8347 221.669 20.8347C221.332 20.8347 220.994 20.7027 220.686 20.4534C220.29 20.116 220.056 19.4267 219.953 18.3707C219.909 18.004 219.894 17.2414 219.894 16.0827C219.894 14.8067 219.938 13.912 220.012 13.428C220.144 12.6214 220.408 12.108 220.818 11.888C221.141 11.712 221.42 11.624 221.669 11.624C222.622 11.624 223.15 12.4014 223.312 13.2667Z" fill="black"/>
<path d="M227.389 19.3974C226.92 19.3974 226.612 19.7494 226.612 20.2187C226.612 20.6587 226.949 21.0254 227.389 21.0254C227.594 21.0254 227.77 20.9667 227.902 20.8347L227.917 20.952C227.917 21.876 227.609 22.668 226.993 23.2987C226.89 23.416 226.832 23.504 226.832 23.5627C226.832 23.7094 226.89 23.7827 227.022 23.7827C227.154 23.7827 227.33 23.6067 227.58 23.2694C228.078 22.5654 228.328 21.788 228.328 20.952C228.328 20.1747 228.064 19.3974 227.389 19.3974Z" fill="black"/>
<path d="M239.748 18.9427C239.411 20.1013 238.927 20.688 238.325 20.688C238.135 20.688 238.032 20.5413 238.032 20.2627C238.032 20.0573 238.12 19.72 238.296 19.2653C238.883 17.6667 239.176 16.6107 239.176 16.068C239.176 15.0413 238.487 14.4693 237.46 14.4693C236.595 14.4693 235.847 14.8507 235.245 15.628C235.128 14.9827 234.615 14.4693 233.867 14.4693C233.045 14.4693 232.723 15.232 232.517 15.892C232.371 16.3613 232.297 16.64 232.297 16.7427C232.297 16.8747 232.371 16.948 232.532 16.948C232.605 16.948 232.649 16.9333 232.693 16.904C232.767 16.772 232.811 16.6693 232.825 16.5667C233.089 15.452 233.427 14.8947 233.823 14.8947C234.087 14.8947 234.219 15.1 234.219 15.5107C234.219 15.7013 234.145 16.0973 233.984 16.6987L233.148 20.028C233.104 20.2187 233.016 20.6 233.016 20.6733C233.016 20.9667 233.177 21.1133 233.5 21.1133C233.779 21.1133 233.984 20.9667 234.087 20.6733C234.116 20.6 234.204 20.2333 234.365 19.6027L234.673 18.2973L235.113 16.6253C235.275 16.288 235.524 15.9507 235.832 15.5987C236.257 15.1293 236.785 14.8947 237.416 14.8947C237.9 14.8947 238.135 15.2173 238.135 15.848C238.135 16.4053 237.827 17.52 237.196 19.192C237.093 19.456 237.049 19.676 237.049 19.8667C237.049 20.5853 237.592 21.1133 238.296 21.1133C238.941 21.1133 239.455 20.7467 239.821 20.0133C240.1 19.4267 240.247 19.0307 240.247 18.84C240.247 18.708 240.173 18.6347 240.012 18.6347C239.968 18.6347 239.748 18.7667 239.748 18.9427Z" fill="black"/>
<path d="M254.169 16.992H245.105C244.87 16.992 244.753 17.0947 244.753 17.2853C244.753 17.476 244.87 17.5787 245.105 17.5787H254.169C254.403 17.5787 254.521 17.476 254.521 17.2853C254.521 17.1093 254.345 16.992 254.169 16.992Z" fill="black"/>
<path d="M262.547 11.184C261.945 11.8 261.065 12.108 259.907 12.108V12.68C260.669 12.68 261.3 12.5627 261.784 12.328V19.7494C261.784 20.0134 261.725 20.1894 261.593 20.2627C261.461 20.336 261.095 20.38 260.508 20.38H259.995V20.952C260.361 20.9227 261.153 20.908 262.371 20.908C263.588 20.908 264.38 20.9227 264.747 20.952V20.38H264.233C263.632 20.38 263.265 20.336 263.148 20.2627C263.031 20.1894 262.957 20.0134 262.957 19.7494V11.624C262.957 11.272 262.928 11.184 262.547 11.184Z" fill="black"/>
<path d="M267.079 24.5454C267.959 23.8707 268.692 22.8734 269.293 21.5387C269.865 20.2627 270.159 19.06 270.159 17.9014V16.6694C270.159 15.5107 269.865 14.308 269.293 13.032C268.692 11.6974 267.959 10.7 267.079 10.0254C267.035 9.99602 266.991 9.98136 266.976 9.98136C266.844 9.98136 266.771 10.0547 266.771 10.1867C266.771 10.2454 266.8 10.304 266.844 10.348C267.607 10.9347 268.223 11.9027 268.677 13.2374C269.073 14.396 269.279 15.54 269.279 16.6694V17.9014C269.279 19.0307 269.073 20.1747 268.677 21.3334C268.223 22.668 267.607 23.636 266.844 24.2227C266.8 24.2814 266.771 24.34 266.771 24.384C266.771 24.516 266.844 24.5894 266.976 24.5894C266.991 24.5894 267.035 24.5747 267.079 24.5454Z" fill="black"/>
<path d="M272.784 24.5454C273.664 23.8707 274.397 22.8734 274.999 21.5387C275.571 20.2627 275.864 19.06 275.864 17.9014V16.6694C275.864 15.5107 275.571 14.308 274.999 13.032C274.397 11.6974 273.664 10.7 272.784 10.0254C272.74 9.99602 272.696 9.98136 272.681 9.98136C272.549 9.98136 272.476 10.0547 272.476 10.1867C272.476 10.2454 272.505 10.304 272.549 10.348C273.312 10.9347 273.928 11.9027 274.383 13.2374C274.779 14.396 274.984 15.54 274.984 16.6694V17.9014C274.984 19.0307 274.779 20.1747 274.383 21.3334C273.928 22.668 273.312 23.636 272.549 24.2227C272.505 24.2814 272.476 24.34 272.476 24.384C272.476 24.516 272.549 24.5894 272.681 24.5894C272.696 24.5894 272.74 24.5747 272.784 24.5454Z" fill="black"/>
<path d="M231.511 30.7787C231.511 30.3387 231.174 29.9574 230.734 29.9574C230.294 29.9574 229.957 30.3387 229.957 30.7787C229.957 31.2334 230.294 31.6147 230.734 31.6147C231.174 31.6147 231.511 31.2187 231.511 30.7787ZM231.511 34.8267C231.511 34.3867 231.174 34.0054 230.734 34.0054C230.294 34.0054 229.957 34.372 229.957 34.8267C229.957 35.2814 230.294 35.648 230.734 35.648C231.174 35.648 231.511 35.2667 231.511 34.8267ZM231.511 38.8747C231.511 38.42 231.174 38.0387 230.734 38.0387C230.294 38.0387 229.957 38.42 229.957 38.8747C229.957 39.3147 230.294 39.696 230.734 39.696C231.174 39.696 231.511 39.3147 231.511 38.8747Z" fill="black"/>
<path d="M181.318 46.4573C181.347 46.3253 181.362 46.2373 181.362 46.208C181.362 46.076 181.288 46.0173 181.127 46.0173H174.82C174.454 46.0173 174.41 46.0613 174.322 46.3547L173.53 48.9507C173.5 49.024 173.486 49.112 173.471 49.1853C173.515 49.3027 173.544 49.3907 173.706 49.3907C173.779 49.3907 173.867 49.332 173.955 49.2147C174.263 48.2613 174.674 47.572 175.187 47.176C175.7 46.78 176.463 46.5893 177.46 46.5893H179.69L171.667 55.5507L171.608 55.844C171.608 55.976 171.696 56.0347 171.858 56.0347H178.326C178.707 56.0347 178.751 56.0053 178.839 55.6973L179.866 52.4853C179.88 52.4267 179.924 52.324 179.924 52.2653C179.924 52.1187 179.836 52.0453 179.675 52.0453C179.572 52.0453 179.47 52.1773 179.382 52.456C179.059 53.4533 178.663 54.1867 178.179 54.656C177.666 55.1693 176.815 55.4187 175.642 55.4187H173.295L181.318 46.4573Z" fill="black"/>
<path d="M186.436 59.672C186.568 59.672 186.642 59.5987 186.642 59.4667C186.642 59.4227 186.612 59.364 186.568 59.3054C185.806 58.7187 185.19 57.7507 184.735 56.416C184.339 55.2574 184.134 54.1134 184.134 52.984V51.752C184.134 50.6227 184.339 49.4787 184.735 48.32C185.19 46.9854 185.806 46.0174 186.568 45.4307C186.612 45.3867 186.642 45.328 186.642 45.2694C186.642 45.1374 186.568 45.064 186.436 45.064C186.422 45.064 186.378 45.0787 186.334 45.108C185.454 45.7827 184.72 46.78 184.119 48.1147C183.547 49.3907 183.254 50.5934 183.254 51.752V52.984C183.254 54.1427 183.547 55.3454 184.119 56.6214C184.72 57.956 185.454 58.9534 186.334 59.628C186.378 59.6574 186.422 59.672 186.436 59.672Z" fill="black"/>
<path d="M195.618 46.0173H190.924C190.587 46.0173 190.426 46.032 190.426 46.3547C190.426 46.516 190.587 46.5893 190.91 46.5893C191.203 46.5893 191.79 46.5453 191.79 46.78C191.79 46.8093 191.775 46.8973 191.731 47.044L189.795 54.832C189.707 55.1547 189.56 55.3453 189.355 55.4187C189.252 55.448 188.988 55.4627 188.534 55.4627C188.211 55.4627 188.064 55.492 188.064 55.8C188.064 55.9613 188.152 56.0347 188.343 56.0347L190.176 55.9907L191.115 56.0053C191.276 56.0053 191.863 56.0347 192.054 56.0347C192.288 56.0347 192.406 55.9173 192.406 55.6827C192.406 55.536 192.244 55.4627 191.936 55.4627C191.35 55.4627 191.056 55.404 191.056 55.272C191.056 55.272 191.071 55.228 191.1 55.0373L191.98 51.4587H194.4C195.354 51.4587 196.263 51.1653 197.114 50.5933C198.067 49.9627 198.536 49.1853 198.536 48.2613C198.536 46.8093 197.158 46.0173 195.618 46.0173ZM195.163 46.5893C196.439 46.5893 197.07 47.0293 197.07 47.9093C197.07 48.7307 196.659 49.8307 196.234 50.212C195.676 50.7107 194.943 50.96 194.034 50.96H192.068L193.036 47.088C193.154 46.5893 193.154 46.5893 193.77 46.5893H195.163Z" fill="black"/>
<path d="M203.611 59.672C203.743 59.672 203.816 59.5987 203.816 59.4667C203.816 59.4227 203.787 59.364 203.743 59.3054C202.98 58.7187 202.364 57.7507 201.91 56.416C201.514 55.2574 201.308 54.1134 201.308 52.984V51.752C201.308 50.6227 201.514 49.4787 201.91 48.32C202.364 46.9854 202.98 46.0174 203.743 45.4307C203.787 45.3867 203.816 45.328 203.816 45.2694C203.816 45.1374 203.743 45.064 203.611 45.064C203.596 45.064 203.552 45.0787 203.508 45.108C202.628 45.7827 201.895 46.78 201.294 48.1147C200.722 49.3907 200.428 50.5934 200.428 51.752V52.984C200.428 54.1427 200.722 55.3454 201.294 56.6214C201.895 57.956 202.628 58.9534 203.508 59.628C203.552 59.6574 203.596 59.672 203.611 59.672Z" fill="black"/>
<path d="M212.528 54.0253C212.191 55.184 211.707 55.7707 211.106 55.7707C210.915 55.7707 210.812 55.624 210.812 55.3453C210.812 55.14 210.9 54.8027 211.076 54.348C211.663 52.7493 211.956 51.6933 211.956 51.1507C211.956 50.124 211.267 49.552 210.24 49.552C209.375 49.552 208.627 49.9333 208.026 50.7107C207.908 50.0653 207.395 49.552 206.647 49.552C205.826 49.552 205.503 50.3147 205.298 50.9747C205.151 51.444 205.078 51.7227 205.078 51.8253C205.078 51.9573 205.151 52.0307 205.312 52.0307C205.386 52.0307 205.43 52.016 205.474 51.9867C205.547 51.8547 205.591 51.752 205.606 51.6493C205.87 50.5347 206.207 49.9773 206.603 49.9773C206.867 49.9773 206.999 50.1827 206.999 50.5933C206.999 50.784 206.926 51.18 206.764 51.7813L205.928 55.1107C205.884 55.3013 205.796 55.6827 205.796 55.756C205.796 56.0493 205.958 56.196 206.28 56.196C206.559 56.196 206.764 56.0493 206.867 55.756C206.896 55.6827 206.984 55.316 207.146 54.6853L207.454 53.38L207.894 51.708C208.055 51.3707 208.304 51.0333 208.612 50.6813C209.038 50.212 209.566 49.9773 210.196 49.9773C210.68 49.9773 210.915 50.3 210.915 50.9307C210.915 51.488 210.607 52.6027 209.976 54.2747C209.874 54.5387 209.83 54.7587 209.83 54.9493C209.83 55.668 210.372 56.196 211.076 56.196C211.722 56.196 212.235 55.8293 212.602 55.096C212.88 54.5093 213.027 54.1133 213.027 53.9227C213.027 53.7907 212.954 53.7173 212.792 53.7173C212.748 53.7173 212.528 53.8493 212.528 54.0253Z" fill="black"/>
<path d="M226.949 52.0747H217.885C217.65 52.0747 217.533 52.1774 217.533 52.368C217.533 52.5587 217.65 52.6614 217.885 52.6614H226.949C227.184 52.6614 227.301 52.5587 227.301 52.368C227.301 52.192 227.125 52.0747 226.949 52.0747Z" fill="black"/>
<path d="M235.327 46.2667C234.726 46.8827 233.846 47.1907 232.687 47.1907V47.7627C233.45 47.7627 234.08 47.6453 234.564 47.4107V54.832C234.564 55.096 234.506 55.272 234.374 55.3453C234.242 55.4187 233.875 55.4627 233.288 55.4627H232.775V56.0347C233.142 56.0053 233.934 55.9907 235.151 55.9907C236.368 55.9907 237.16 56.0053 237.527 56.0347V55.4627H237.014C236.412 55.4627 236.046 55.4187 235.928 55.3453C235.811 55.272 235.738 55.096 235.738 54.832V46.7067C235.738 46.3547 235.708 46.2667 235.327 46.2667Z" fill="black"/>
<path d="M240.754 54.48C240.284 54.48 239.976 54.832 239.976 55.3014C239.976 55.7414 240.314 56.108 240.754 56.108C240.959 56.108 241.135 56.0494 241.267 55.9174L241.282 56.0347C241.282 56.9587 240.974 57.7507 240.358 58.3814C240.255 58.4987 240.196 58.5867 240.196 58.6454C240.196 58.792 240.255 58.8654 240.387 58.8654C240.519 58.8654 240.695 58.6894 240.944 58.352C241.443 57.648 241.692 56.8707 241.692 56.0347C241.692 55.2574 241.428 54.48 240.754 54.48Z" fill="black"/>
<path d="M253.113 54.0253C252.775 55.184 252.291 55.7707 251.69 55.7707C251.499 55.7707 251.397 55.624 251.397 55.3453C251.397 55.14 251.485 54.8027 251.661 54.348C252.247 52.7493 252.541 51.6933 252.541 51.1507C252.541 50.124 251.851 49.552 250.825 49.552C249.959 49.552 249.211 49.9333 248.61 50.7107C248.493 50.0653 247.979 49.552 247.231 49.552C246.41 49.552 246.087 50.3147 245.882 50.9747C245.735 51.444 245.662 51.7227 245.662 51.8253C245.662 51.9573 245.735 52.0307 245.897 52.0307C245.97 52.0307 246.014 52.016 246.058 51.9867C246.131 51.8547 246.175 51.752 246.19 51.6493C246.454 50.5347 246.791 49.9773 247.187 49.9773C247.451 49.9773 247.583 50.1827 247.583 50.5933C247.583 50.784 247.51 51.18 247.349 51.7813L246.513 55.1107C246.469 55.3013 246.381 55.6827 246.381 55.756C246.381 56.0493 246.542 56.196 246.865 56.196C247.143 56.196 247.349 56.0493 247.451 55.756C247.481 55.6827 247.569 55.316 247.73 54.6853L248.038 53.38L248.478 51.708C248.639 51.3707 248.889 51.0333 249.197 50.6813C249.622 50.212 250.15 49.9773 250.781 49.9773C251.265 49.9773 251.499 50.3 251.499 50.9307C251.499 51.488 251.191 52.6027 250.561 54.2747C250.458 54.5387 250.414 54.7587 250.414 54.9493C250.414 55.668 250.957 56.196 251.661 56.196C252.306 56.196 252.819 55.8293 253.186 55.096C253.465 54.5093 253.611 54.1133 253.611 53.9227C253.611 53.7907 253.538 53.7173 253.377 53.7173C253.333 53.7173 253.113 53.8493 253.113 54.0253Z" fill="black"/>
<path d="M267.533 52.0747H258.469C258.235 52.0747 258.117 52.1774 258.117 52.368C258.117 52.5587 258.235 52.6614 258.469 52.6614H267.533C267.768 52.6614 267.885 52.5587 267.885 52.368C267.885 52.192 267.709 52.0747 267.533 52.0747Z" fill="black"/>
<path d="M275.911 46.2667C275.31 46.8827 274.43 47.1907 273.271 47.1907V47.7627C274.034 47.7627 274.665 47.6453 275.149 47.4107V54.832C275.149 55.096 275.09 55.272 274.958 55.3453C274.826 55.4187 274.459 55.4627 273.873 55.4627H273.359V56.0347C273.726 56.0053 274.518 55.9907 275.735 55.9907C276.953 55.9907 277.745 56.0053 278.111 56.0347V55.4627H277.598C276.997 55.4627 276.63 55.4187 276.513 55.3453C276.395 55.272 276.322 55.096 276.322 54.832V46.7067C276.322 46.3547 276.293 46.2667 275.911 46.2667Z" fill="black"/>
<path d="M280.443 59.628C281.323 58.9534 282.057 57.956 282.658 56.6214C283.23 55.3454 283.523 54.1427 283.523 52.984V51.752C283.523 50.5934 283.23 49.3907 282.658 48.1147C282.057 46.78 281.323 45.7827 280.443 45.108C280.399 45.0787 280.355 45.064 280.341 45.064C280.209 45.064 280.135 45.1374 280.135 45.2694C280.135 45.328 280.165 45.3867 280.209 45.4307C280.971 46.0174 281.587 46.9854 282.042 48.32C282.438 49.4787 282.643 50.6227 282.643 51.752V52.984C282.643 54.1134 282.438 55.2574 282.042 56.416C281.587 57.7507 280.971 58.7187 280.209 59.3054C280.165 59.364 280.135 59.4227 280.135 59.4667C280.135 59.5987 280.209 59.672 280.341 59.672C280.355 59.672 280.399 59.6574 280.443 59.628Z" fill="black"/>
<path d="M286.149 59.628C287.029 58.9534 287.762 57.956 288.363 56.6214C288.935 55.3454 289.229 54.1427 289.229 52.984V51.752C289.229 50.5934 288.935 49.3907 288.363 48.1147C287.762 46.78 287.029 45.7827 286.149 45.108C286.105 45.0787 286.061 45.064 286.046 45.064C285.914 45.064 285.841 45.1374 285.841 45.2694C285.841 45.328 285.87 45.3867 285.914 45.4307C286.677 46.0174 287.293 46.9854 287.747 48.32C288.143 49.4787 288.349 50.6227 288.349 51.752V52.984C288.349 54.1134 288.143 55.2574 287.747 56.416C287.293 57.7507 286.677 58.7187 285.914 59.3054C285.87 59.364 285.841 59.4227 285.841 59.4667C285.841 59.5987 285.914 59.672 286.046 59.672C286.061 59.672 286.105 59.6574 286.149 59.628Z" fill="black"/>
<path d="M299.481 43.9406V40.2299H297.897V43.9406C297.897 46.1992 297.633 48.4726 297.119 50.7752C296.21 54.9112 294.318 59.4579 291.634 61.5112C291.531 61.5699 291.473 61.6579 291.473 61.7899C291.473 62.0392 291.59 62.1566 291.839 62.1566C291.913 62.1566 291.986 62.1272 292.045 62.0832C293.321 61.1152 294.538 59.6632 295.682 57.7126C297.706 54.2512 299.481 49.0739 299.481 43.9406Z" fill="black"/>
<path d="M297.897 41.238H299.481V33.934H297.897V41.238Z" fill="black"/>
<path d="M297.897 35.7194H299.481V28.4154H297.897V35.7194Z" fill="black"/>
<path d="M297.897 29.4235H299.481V25.7128C299.481 20.9022 297.853 15.9302 296.034 12.5568C294.831 10.3422 293.497 8.67015 292.045 7.57015C291.986 7.52615 291.913 7.49682 291.839 7.49682C291.59 7.49682 291.473 7.61415 291.473 7.86348C291.473 7.98082 291.517 8.08349 291.619 8.15682C292.807 9.05148 293.878 10.4742 294.861 12.4102C296.606 15.8715 297.897 20.7262 297.897 25.7128L297.897 29.4235Z" fill="black"/>
<path d="M317.855 33.1107H308.791C308.556 33.1107 308.439 33.228 308.439 33.448C308.439 33.668 308.556 33.7854 308.791 33.7854H317.855C318.089 33.7854 318.207 33.668 318.207 33.448C318.207 33.272 318.045 33.1107 317.855 33.1107ZM317.855 35.868H308.791C308.556 35.868 308.439 35.9854 308.439 36.2054C308.439 36.4254 308.556 36.5427 308.791 36.5427H317.855C318.089 36.5427 318.207 36.4254 318.207 36.2054C318.207 36.0147 318.045 35.868 317.855 35.868Z" fill="black"/>
<path d="M334.806 64.32C335.055 64.32 335.173 64.2027 335.173 63.9534C335.173 63.8214 335.114 63.7334 335.011 63.6747C333.823 62.7654 332.753 61.3574 331.785 59.4214C330.054 55.9747 328.749 51.076 328.749 46.104V42.3934H327.165V46.104C327.165 50.9147 328.793 55.8867 330.611 59.26C331.814 61.4894 333.149 63.1467 334.601 64.2467C334.659 64.2907 334.733 64.32 334.806 64.32Z" fill="black"/>
<path d="M327.165 43.5945H328.749V36.2905H327.165V43.5945Z" fill="black"/>
<path d="M327.165 38.4787H328.749V31.1747H327.165V38.4787Z" fill="black"/>
<path d="M327.165 33.3629H328.749V26.0589H327.165V33.3629Z" fill="black"/>
<path d="M335.026 5.99334C335.129 5.92001 335.173 5.81734 335.173 5.70001C335.173 5.45068 335.055 5.33334 334.806 5.33334C334.733 5.33334 334.659 5.36268 334.601 5.40668C333.325 6.38934 332.107 7.84134 330.963 9.77734C328.954 13.2387 327.165 18.416 327.165 23.5493V27.26H328.749V23.5493C328.749 21.2907 329.013 19.0173 329.526 16.7147C330.435 12.608 332.342 8.00268 335.026 5.99334Z" fill="black"/>
<path d="M351.869 8.96789H347C346.663 8.96789 346.501 8.98256 346.501 9.30522C346.501 9.46655 346.663 9.53989 346.985 9.53989C347.279 9.53989 347.865 9.49589 347.865 9.73055C347.865 9.75989 347.851 9.84789 347.807 9.99455L345.871 17.7826C345.797 18.1052 345.651 18.2959 345.431 18.3692C345.328 18.3986 345.064 18.4132 344.609 18.4132C344.287 18.4132 344.14 18.4426 344.14 18.7506C344.14 18.9119 344.301 18.9852 344.609 18.9852H349.405C350.403 18.9852 351.356 18.6919 352.28 18.0906C353.849 17.0786 355.345 15.0986 355.345 12.6932C355.345 10.5226 354.011 8.96789 351.869 8.96789ZM353.967 12.1506C353.967 13.8079 353.219 15.8172 352.456 16.7999C351.62 17.8706 350.52 18.4132 349.141 18.4132H347.513C347.352 18.4132 347.249 18.4132 347.191 18.3986C347.103 18.3986 347.059 18.3692 347.059 18.3252C347.059 18.2959 347.088 18.1932 347.132 18.0026L349.112 10.0386C349.244 9.55455 349.229 9.53989 349.845 9.53989H351.4C353.043 9.53989 353.967 10.5079 353.967 12.1506Z" fill="black"/>
<path d="M359.822 19.3328C359.822 18.1727 359.616 17.2897 359.216 16.684C358.887 16.1707 358.23 15.7908 357.44 15.7908C357.111 15.7908 356.813 15.8422 356.557 15.9551C355.427 16.4274 355.058 17.7415 355.058 19.3328C355.058 19.6819 355.078 20.0104 355.109 20.3287C355.284 21.6736 355.91 22.8132 357.44 22.8132C357.768 22.8132 358.066 22.7619 358.323 22.649C359.452 22.187 359.822 20.9036 359.822 19.3328ZM358.651 17.0536C358.764 17.4335 358.826 18.1419 358.826 19.1994C358.826 20.2055 358.785 20.9139 358.692 21.3348C358.569 21.9406 358.138 22.4436 357.44 22.4436C357.183 22.4436 356.926 22.3615 356.69 22.187C356.372 21.9508 356.177 21.4888 356.095 20.7804C356.064 20.5443 356.054 20.0207 356.054 19.1994C356.054 18.2035 356.105 17.5156 356.208 17.146C356.382 16.4889 356.793 16.1604 357.44 16.1604C358.056 16.1604 358.507 16.5608 358.651 17.0536Z" fill="black"/>
<path d="M362.101 21.4272C361.772 21.4272 361.516 21.6942 361.516 22.033C361.516 22.3923 361.762 22.6592 362.111 22.6592C362.244 22.6592 362.368 22.6182 362.47 22.5463C362.45 23.2239 362.203 23.7988 361.731 24.2608C361.68 24.3122 361.649 24.3532 361.649 24.4046C361.649 24.5278 361.711 24.5894 361.824 24.5894C361.895 24.5894 361.998 24.5072 362.152 24.343C362.491 23.9734 362.819 23.2239 362.819 22.5566C362.819 21.9919 362.614 21.4272 362.101 21.4272Z" fill="black"/>
<path d="M369.144 19.3328C369.144 18.1727 368.938 17.2897 368.538 16.684C368.209 16.1707 367.552 15.7908 366.762 15.7908C366.433 15.7908 366.136 15.8422 365.879 15.9551C364.75 16.4274 364.38 17.7415 364.38 19.3328C364.38 19.6819 364.4 20.0104 364.431 20.3287C364.606 21.6736 365.232 22.8132 366.762 22.8132C367.09 22.8132 367.388 22.7619 367.645 22.649C368.774 22.187 369.144 20.9036 369.144 19.3328ZM367.973 17.0536C368.086 17.4335 368.148 18.1419 368.148 19.1994C368.148 20.2055 368.107 20.9139 368.014 21.3348C367.891 21.9406 367.46 22.4436 366.762 22.4436C366.505 22.4436 366.248 22.3615 366.012 22.187C365.694 21.9508 365.499 21.4888 365.417 20.7804C365.386 20.5443 365.376 20.0207 365.376 19.1994C365.376 18.2035 365.427 17.5156 365.53 17.146C365.704 16.4889 366.115 16.1604 366.762 16.1604C367.378 16.1604 367.83 16.5608 367.973 17.0536Z" fill="black"/>
<path d="M357.809 30.7787C357.809 30.3387 357.471 29.9574 357.031 29.9574C356.591 29.9574 356.254 30.3387 356.254 30.7787C356.254 31.2334 356.591 31.6147 357.031 31.6147C357.471 31.6147 357.809 31.2187 357.809 30.7787ZM357.809 34.8267C357.809 34.3867 357.471 34.0054 357.031 34.0054C356.591 34.0054 356.254 34.372 356.254 34.8267C356.254 35.2814 356.591 35.648 357.031 35.648C357.471 35.648 357.809 35.2667 357.809 34.8267ZM357.809 38.8747C357.809 38.42 357.471 38.0387 357.031 38.0387C356.591 38.0387 356.254 38.42 356.254 38.8747C356.254 39.3147 356.591 39.696 357.031 39.696C357.471 39.696 357.809 39.3147 357.809 38.8747Z" fill="black"/>
<path d="M344.251 46.0173H339.382C339.045 46.0173 338.883 46.032 338.883 46.3547C338.883 46.516 339.045 46.5893 339.367 46.5893C339.661 46.5893 340.247 46.5453 340.247 46.78C340.247 46.8093 340.233 46.8973 340.189 47.044L338.253 54.832C338.179 55.1547 338.033 55.3453 337.813 55.4187C337.71 55.448 337.446 55.4627 336.991 55.4627C336.669 55.4627 336.522 55.492 336.522 55.8C336.522 55.9613 336.683 56.0347 336.991 56.0347H341.787C342.785 56.0347 343.738 55.7413 344.662 55.14C346.231 54.128 347.727 52.148 347.727 49.7427C347.727 47.572 346.393 46.0173 344.251 46.0173ZM346.349 49.2C346.349 50.8573 345.601 52.8667 344.838 53.8493C344.002 54.92 342.902 55.4627 341.523 55.4627H339.895C339.734 55.4627 339.631 55.4627 339.573 55.448C339.485 55.448 339.441 55.4187 339.441 55.3747C339.441 55.3453 339.47 55.2427 339.514 55.052L341.494 47.088C341.626 46.604 341.611 46.5893 342.227 46.5893H343.782C345.425 46.5893 346.349 47.5573 346.349 49.2Z" fill="black"/>
<path d="M348.59 55.1298C348.251 55.1298 347.974 55.3146 347.758 55.6944C347.614 55.9511 347.502 56.218 347.43 56.5158C347.399 56.6287 347.389 56.6903 347.389 56.7108C347.389 56.8238 347.46 56.8854 347.604 56.8854C347.799 56.8854 347.81 56.7724 347.861 56.5568C348.035 55.8484 348.272 55.4891 348.569 55.4891C348.764 55.4891 348.857 55.6431 348.857 55.9511C348.857 56.064 348.805 56.331 348.692 56.7724L348.148 58.9695C348.076 59.2467 348.046 59.3904 348.046 59.4007C348.046 59.6368 348.179 59.76 348.436 59.76C348.631 59.76 348.775 59.6779 348.867 59.5136C348.898 59.452 348.959 59.2364 349.052 58.8771L349.267 57.9736C349.391 57.4911 349.462 57.2242 349.483 57.1626C349.565 56.8956 349.688 56.639 349.863 56.4028C350.294 55.7971 350.787 55.4891 351.352 55.4891C351.721 55.4891 351.906 55.715 351.906 56.1564C351.906 56.5568 351.711 57.2652 351.31 58.2919C351.208 58.5588 351.156 58.7436 351.156 58.8566C351.156 59.411 351.608 59.76 352.163 59.76C352.645 59.76 353.035 59.5136 353.312 59.0208C353.549 58.5999 353.662 58.3227 353.662 58.179C353.662 58.066 353.59 58.0044 353.456 58.0044C353.384 58.0147 353.312 58.066 353.241 58.1687C353.23 58.179 353.23 58.1995 353.23 58.2098C352.994 59.0003 352.645 59.4007 352.193 59.4007C352.05 59.4007 351.978 59.298 351.978 59.0824C351.978 58.9387 352.06 58.6718 352.214 58.2816C352.573 57.3679 352.748 56.7108 352.748 56.3207C352.748 55.8484 352.584 55.5199 352.265 55.3454C352.009 55.2016 351.711 55.1298 351.393 55.1298C350.725 55.1298 350.161 55.4172 349.709 55.9922C349.616 55.4891 349.175 55.1298 348.59 55.1298Z" fill="black"/>
<path d="M361.3 56.8546H354.996C354.791 56.8546 354.729 56.9572 354.729 57.0907C354.729 57.2242 354.791 57.3268 354.996 57.3268H361.3C361.505 57.3268 361.567 57.2242 361.567 57.0907C361.567 56.9675 361.505 56.8546 361.3 56.8546Z" fill="black"/>
<path d="M365.253 52.8403C364.811 53.2715 364.154 53.4871 363.261 53.4871V53.9388C363.867 53.9388 364.349 53.8464 364.719 53.6719V58.7847C364.719 58.9182 364.708 59.0003 364.678 59.0414C364.626 59.1543 364.318 59.2159 363.754 59.2159H363.333V59.6574L365.16 59.6163L366.998 59.6574V59.2159H366.577C366.012 59.2159 365.704 59.1543 365.643 59.0414C365.622 59.0003 365.612 58.9182 365.612 58.7847V53.1688C365.612 52.8916 365.571 52.8403 365.253 52.8403Z" fill="black"/>
<path d="M369.719 58.4767C369.39 58.4767 369.133 58.7436 369.133 59.0824C369.133 59.4418 369.38 59.7087 369.729 59.7087C369.862 59.7087 369.986 59.6676 370.088 59.5958C370.068 60.2734 369.821 60.8483 369.349 61.3103C369.298 61.3616 369.267 61.4027 369.267 61.454C369.267 61.5772 369.328 61.6388 369.441 61.6388C369.513 61.6388 369.616 61.5567 369.77 61.3924C370.109 61.0228 370.437 60.2734 370.437 59.606C370.437 59.0414 370.232 58.4767 369.719 58.4767Z" fill="black"/>
<path d="M376.762 56.3823C376.762 55.2222 376.556 54.3392 376.156 53.7335C375.827 53.2202 375.17 52.8403 374.38 52.8403C374.051 52.8403 373.753 52.8916 373.497 53.0046C372.367 53.4768 371.998 54.791 371.998 56.3823C371.998 56.7314 372.018 57.0599 372.049 57.3782C372.224 58.7231 372.85 59.8627 374.38 59.8627C374.708 59.8627 375.006 59.8114 375.263 59.6984C376.392 59.2364 376.762 57.9531 376.762 56.3823ZM375.591 54.1031C375.704 54.483 375.766 55.1914 375.766 56.2488C375.766 57.255 375.725 57.9634 375.632 58.3843C375.509 58.99 375.078 59.4931 374.38 59.4931C374.123 59.4931 373.866 59.411 373.63 59.2364C373.312 59.0003 373.117 58.5383 373.035 57.8299C373.004 57.5938 372.994 57.0702 372.994 56.2488C372.994 55.253 373.045 54.5651 373.148 54.1955C373.322 53.5384 373.733 53.2099 374.38 53.2099C374.996 53.2099 375.447 53.6103 375.591 54.1031Z" fill="black"/>
<path d="M396.475 18.2079C396.475 17.7679 396.094 17.4306 395.654 17.4306C395.199 17.4306 394.818 17.7679 394.818 18.2079C394.818 18.6479 395.199 18.9852 395.654 18.9852C396.094 18.9852 396.475 18.6479 396.475 18.2079ZM392.427 18.2079C392.427 17.7679 392.046 17.4306 391.606 17.4306C391.151 17.4306 390.784 17.7679 390.784 18.2079C390.784 18.6479 391.151 18.9852 391.606 18.9852C392.046 18.9852 392.427 18.6479 392.427 18.2079ZM388.394 18.2079C388.394 17.7679 388.012 17.4306 387.558 17.4306C387.118 17.4306 386.736 17.7679 386.736 18.2079C386.736 18.6479 387.118 18.9852 387.558 18.9852C387.998 18.9852 388.394 18.6479 388.394 18.2079Z" fill="black"/>
<path d="M395.272 37.672C395.272 37.2174 394.906 36.8507 394.451 36.8507C393.982 36.8507 393.63 37.2027 393.63 37.672C393.63 38.1267 393.996 38.4934 394.451 38.4934C394.92 38.4934 395.272 38.1414 395.272 37.672ZM389.582 31.9814C389.582 31.5414 389.2 31.16 388.76 31.16C388.291 31.16 387.939 31.512 387.939 31.9814C387.939 32.436 388.306 32.8027 388.76 32.8027C389.23 32.8027 389.582 32.4507 389.582 31.9814ZM392.427 34.8267C392.427 34.3867 392.046 34.0054 391.606 34.0054C391.166 34.0054 390.784 34.3867 390.784 34.8267C390.784 35.2667 391.166 35.648 391.606 35.648C392.046 35.648 392.427 35.2667 392.427 34.8267Z" fill="black"/>
<path d="M396.475 55.2573C396.475 54.8173 396.094 54.48 395.654 54.48C395.199 54.48 394.818 54.8173 394.818 55.2573C394.818 55.6973 395.199 56.0347 395.654 56.0347C396.094 56.0347 396.475 55.6973 396.475 55.2573ZM392.427 55.2573C392.427 54.8173 392.046 54.48 391.606 54.48C391.151 54.48 390.784 54.8173 390.784 55.2573C390.784 55.6973 391.151 56.0347 391.606 56.0347C392.046 56.0347 392.427 55.6973 392.427 55.2573ZM388.394 55.2573C388.394 54.8173 388.012 54.48 387.558 54.48C387.118 54.48 386.736 54.8173 386.736 55.2573C386.736 55.6973 387.118 56.0347 387.558 56.0347C387.998 56.0347 388.394 55.6973 388.394 55.2573Z" fill="black"/>
<path d="M421.004 8.96789H416.134C415.797 8.96789 415.636 8.98256 415.636 9.30522C415.636 9.46655 415.797 9.53989 416.12 9.53989C416.413 9.53989 417 9.49589 417 9.73055C417 9.75989 416.985 9.84789 416.941 9.99455L415.005 17.7826C414.932 18.1052 414.785 18.2959 414.565 18.3692C414.462 18.3986 414.198 18.4132 413.744 18.4132C413.421 18.4132 413.274 18.4426 413.274 18.7506C413.274 18.9119 413.436 18.9852 413.744 18.9852H418.54C419.537 18.9852 420.49 18.6919 421.414 18.0906C422.984 17.0786 424.48 15.0986 424.48 12.6932C424.48 10.5226 423.145 8.96789 421.004 8.96789ZM423.101 12.1506C423.101 13.8079 422.353 15.8172 421.59 16.7999C420.754 17.8706 419.654 18.4132 418.276 18.4132H416.648C416.486 18.4132 416.384 18.4132 416.325 18.3986C416.237 18.3986 416.193 18.3692 416.193 18.3252C416.193 18.2959 416.222 18.1932 416.266 18.0026L418.246 10.0386C418.378 9.55455 418.364 9.53989 418.98 9.53989H420.534C422.177 9.53989 423.101 10.5079 423.101 12.1506Z" fill="black"/>
<path d="M428.956 19.3328C428.956 18.1727 428.75 17.2897 428.35 16.684C428.022 16.1707 427.364 15.7908 426.574 15.7908C426.245 15.7908 425.948 15.8422 425.691 15.9551C424.562 16.4274 424.192 17.7415 424.192 19.3328C424.192 19.6819 424.213 20.0104 424.243 20.3287C424.418 21.6736 425.044 22.8132 426.574 22.8132C426.902 22.8132 427.2 22.7619 427.457 22.649C428.586 22.187 428.956 20.9036 428.956 19.3328ZM427.785 17.0536C427.898 17.4335 427.96 18.1419 427.96 19.1994C427.96 20.2055 427.919 20.9139 427.826 21.3348C427.703 21.9406 427.272 22.4436 426.574 22.4436C426.317 22.4436 426.061 22.3615 425.824 22.187C425.506 21.9508 425.311 21.4888 425.229 20.7804C425.198 20.5443 425.188 20.0207 425.188 19.1994C425.188 18.2035 425.239 17.5156 425.342 17.146C425.516 16.4889 425.927 16.1604 426.574 16.1604C427.19 16.1604 427.642 16.5608 427.785 17.0536Z" fill="black"/>
<path d="M431.235 21.4272C430.906 21.4272 430.65 21.6942 430.65 22.033C430.65 22.3923 430.896 22.6592 431.245 22.6592C431.379 22.6592 431.502 22.6182 431.605 22.5463C431.584 23.2239 431.338 23.7988 430.865 24.2608C430.814 24.3122 430.783 24.3532 430.783 24.4046C430.783 24.5278 430.845 24.5894 430.958 24.5894C431.03 24.5894 431.132 24.5072 431.286 24.343C431.625 23.9734 431.954 23.2239 431.954 22.5566C431.954 21.9919 431.748 21.4272 431.235 21.4272Z" fill="black"/>
<path d="M434.664 18.0803C434.325 18.0803 434.048 18.2651 433.832 18.645C433.689 18.9016 433.576 19.1686 433.504 19.4663C433.473 19.5792 433.463 19.6408 433.463 19.6614C433.463 19.7743 433.535 19.8359 433.678 19.8359C433.874 19.8359 433.884 19.723 433.935 19.5074C434.11 18.799 434.346 18.4396 434.644 18.4396C434.839 18.4396 434.931 18.5936 434.931 18.9016C434.931 19.0146 434.88 19.2815 434.767 19.723L434.223 21.92C434.151 22.1972 434.12 22.341 434.12 22.3512C434.12 22.5874 434.253 22.7106 434.51 22.7106C434.705 22.7106 434.849 22.6284 434.941 22.4642C434.972 22.4026 435.034 22.187 435.126 21.8276L435.342 20.9242C435.465 20.4416 435.537 20.1747 435.557 20.1131C435.639 19.8462 435.763 19.5895 435.937 19.3534C436.368 18.7476 436.861 18.4396 437.426 18.4396C437.795 18.4396 437.98 18.6655 437.98 19.107C437.98 19.5074 437.785 20.2158 437.385 21.2424C437.282 21.5094 437.231 21.6942 437.231 21.8071C437.231 22.3615 437.682 22.7106 438.237 22.7106C438.719 22.7106 439.11 22.4642 439.387 21.9714C439.623 21.5504 439.736 21.2732 439.736 21.1295C439.736 21.0166 439.664 20.955 439.53 20.955C439.459 20.9652 439.387 21.0166 439.315 21.1192C439.305 21.1295 439.305 21.15 439.305 21.1603C439.068 21.9508 438.719 22.3512 438.268 22.3512C438.124 22.3512 438.052 22.2486 438.052 22.033C438.052 21.8892 438.134 21.6223 438.288 21.2322C438.648 20.3184 438.822 19.6614 438.822 19.2712C438.822 18.799 438.658 18.4704 438.34 18.2959C438.083 18.1522 437.785 18.0803 437.467 18.0803C436.8 18.0803 436.235 18.3678 435.783 18.9427C435.691 18.4396 435.249 18.0803 434.664 18.0803Z" fill="black"/>
<path d="M447.374 19.8051H441.071C440.865 19.8051 440.804 19.9078 440.804 20.0412C440.804 20.1747 440.865 20.2774 441.071 20.2774H447.374C447.58 20.2774 447.641 20.1747 447.641 20.0412C447.641 19.918 447.58 19.8051 447.374 19.8051Z" fill="black"/>
<path d="M451.327 15.7908C450.885 16.222 450.228 16.4376 449.335 16.4376V16.8894C449.941 16.8894 450.423 16.797 450.793 16.6224V21.7352C450.793 21.8687 450.783 21.9508 450.752 21.9919C450.701 22.1048 450.393 22.1664 449.828 22.1664H449.407V22.6079L451.235 22.5668L453.072 22.6079V22.1664H452.651C452.087 22.1664 451.779 22.1048 451.717 21.9919C451.697 21.9508 451.686 21.8687 451.686 21.7352V16.1194C451.686 15.8422 451.645 15.7908 451.327 15.7908Z" fill="black"/>
<path d="M434.561 30.7787C434.561 30.3387 434.223 29.9574 433.783 29.9574C433.343 29.9574 433.006 30.3387 433.006 30.7787C433.006 31.2334 433.343 31.6147 433.783 31.6147C434.223 31.6147 434.561 31.2187 434.561 30.7787ZM434.561 34.8267C434.561 34.3867 434.223 34.0054 433.783 34.0054C433.343 34.0054 433.006 34.372 433.006 34.8267C433.006 35.2814 433.343 35.648 433.783 35.648C434.223 35.648 434.561 35.2667 434.561 34.8267ZM434.561 38.8747C434.561 38.42 434.223 38.0387 433.783 38.0387C433.343 38.0387 433.006 38.42 433.006 38.8747C433.006 39.3147 433.343 39.696 433.783 39.696C434.223 39.696 434.561 39.3147 434.561 38.8747Z" fill="black"/>
<path d="M413.386 46.0173H408.516C408.179 46.0173 408.018 46.032 408.018 46.3547C408.018 46.516 408.179 46.5893 408.502 46.5893C408.795 46.5893 409.382 46.5453 409.382 46.78C409.382 46.8093 409.367 46.8973 409.323 47.044L407.387 54.832C407.314 55.1547 407.167 55.3453 406.947 55.4187C406.844 55.448 406.58 55.4627 406.126 55.4627C405.803 55.4627 405.656 55.492 405.656 55.8C405.656 55.9613 405.818 56.0347 406.126 56.0347H410.922C411.919 56.0347 412.872 55.7413 413.796 55.14C415.366 54.128 416.862 52.148 416.862 49.7427C416.862 47.572 415.527 46.0173 413.386 46.0173ZM415.483 49.2C415.483 50.8573 414.735 52.8667 413.972 53.8493C413.136 54.92 412.036 55.4627 410.658 55.4627H409.03C408.868 55.4627 408.766 55.4627 408.707 55.448C408.619 55.448 408.575 55.4187 408.575 55.3747C408.575 55.3453 408.604 55.2427 408.648 55.052L410.628 47.088C410.76 46.604 410.746 46.5893 411.362 46.5893H412.916C414.559 46.5893 415.483 47.5573 415.483 49.2Z" fill="black"/>
<path d="M417.724 55.1298C417.385 55.1298 417.108 55.3146 416.893 55.6944C416.749 55.9511 416.636 56.218 416.564 56.5158C416.533 56.6287 416.523 56.6903 416.523 56.7108C416.523 56.8238 416.595 56.8854 416.739 56.8854C416.934 56.8854 416.944 56.7724 416.995 56.5568C417.17 55.8484 417.406 55.4891 417.704 55.4891C417.899 55.4891 417.991 55.6431 417.991 55.9511C417.991 56.064 417.94 56.331 417.827 56.7724L417.283 58.9695C417.211 59.2467 417.18 59.3904 417.18 59.4007C417.18 59.6368 417.313 59.76 417.57 59.76C417.765 59.76 417.909 59.6779 418.001 59.5136C418.032 59.452 418.094 59.2364 418.186 58.8771L418.402 57.9736C418.525 57.4911 418.597 57.2242 418.617 57.1626C418.699 56.8956 418.823 56.639 418.997 56.4028C419.428 55.7971 419.921 55.4891 420.486 55.4891C420.855 55.4891 421.04 55.715 421.04 56.1564C421.04 56.5568 420.845 57.2652 420.445 58.2919C420.342 58.5588 420.291 58.7436 420.291 58.8566C420.291 59.411 420.743 59.76 421.297 59.76C421.779 59.76 422.17 59.5136 422.447 59.0208C422.683 58.5999 422.796 58.3227 422.796 58.179C422.796 58.066 422.724 58.0044 422.591 58.0044C422.519 58.0147 422.447 58.066 422.375 58.1687C422.365 58.179 422.365 58.1995 422.365 58.2098C422.129 59.0003 421.779 59.4007 421.328 59.4007C421.184 59.4007 421.112 59.298 421.112 59.0824C421.112 58.9387 421.194 58.6718 421.348 58.2816C421.708 57.3679 421.882 56.7108 421.882 56.3207C421.882 55.8484 421.718 55.5199 421.4 55.3454C421.143 55.2016 420.845 55.1298 420.527 55.1298C419.86 55.1298 419.295 55.4172 418.843 55.9922C418.751 55.4891 418.309 55.1298 417.724 55.1298Z" fill="black"/>
<path d="M430.434 56.8546H424.131C423.925 56.8546 423.864 56.9572 423.864 57.0907C423.864 57.2242 423.925 57.3268 424.131 57.3268H430.434C430.64 57.3268 430.701 57.2242 430.701 57.0907C430.701 56.9675 430.64 56.8546 430.434 56.8546Z" fill="black"/>
<path d="M434.387 52.8403C433.945 53.2715 433.288 53.4871 432.395 53.4871V53.9388C433.001 53.9388 433.483 53.8464 433.853 53.6719V58.7847C433.853 58.9182 433.843 59.0003 433.812 59.0414C433.761 59.1543 433.453 59.2159 432.888 59.2159H432.467V59.6574L434.294 59.6163L436.132 59.6574V59.2159H435.711C435.147 59.2159 434.839 59.1543 434.777 59.0414C434.756 59.0003 434.746 58.9182 434.746 58.7847V53.1688C434.746 52.8916 434.705 52.8403 434.387 52.8403Z" fill="black"/>
<path d="M438.853 58.4767C438.524 58.4767 438.268 58.7436 438.268 59.0824C438.268 59.4418 438.514 59.7087 438.863 59.7087C438.997 59.7087 439.12 59.6676 439.222 59.5958C439.202 60.2734 438.956 60.8483 438.483 61.3103C438.432 61.3616 438.401 61.4027 438.401 61.454C438.401 61.5772 438.463 61.6388 438.576 61.6388C438.648 61.6388 438.75 61.5567 438.904 61.3924C439.243 61.0228 439.572 60.2734 439.572 59.606C439.572 59.0414 439.366 58.4767 438.853 58.4767Z" fill="black"/>
<path d="M442.282 55.1298C441.943 55.1298 441.666 55.3146 441.45 55.6944C441.307 55.9511 441.194 56.218 441.122 56.5158C441.091 56.6287 441.081 56.6903 441.081 56.7108C441.081 56.8238 441.153 56.8854 441.296 56.8854C441.491 56.8854 441.502 56.7724 441.553 56.5568C441.728 55.8484 441.964 55.4891 442.261 55.4891C442.457 55.4891 442.549 55.6431 442.549 55.9511C442.549 56.064 442.498 56.331 442.385 56.7724L441.841 58.9695C441.769 59.2467 441.738 59.3904 441.738 59.4007C441.738 59.6368 441.871 59.76 442.128 59.76C442.323 59.76 442.467 59.6779 442.559 59.5136C442.59 59.452 442.652 59.2364 442.744 58.8771L442.96 57.9736C443.083 57.4911 443.155 57.2242 443.175 57.1626C443.257 56.8956 443.381 56.639 443.555 56.4028C443.986 55.7971 444.479 55.4891 445.044 55.4891C445.413 55.4891 445.598 55.715 445.598 56.1564C445.598 56.5568 445.403 57.2652 445.003 58.2919C444.9 58.5588 444.849 58.7436 444.849 58.8566C444.849 59.411 445.3 59.76 445.855 59.76C446.337 59.76 446.727 59.5136 447.005 59.0208C447.241 58.5999 447.354 58.3227 447.354 58.179C447.354 58.066 447.282 58.0044 447.148 58.0044C447.077 58.0147 447.005 58.066 446.933 58.1687C446.923 58.179 446.923 58.1995 446.923 58.2098C446.686 59.0003 446.337 59.4007 445.886 59.4007C445.742 59.4007 445.67 59.298 445.67 59.0824C445.67 58.9387 445.752 58.6718 445.906 58.2816C446.265 57.3679 446.44 56.7108 446.44 56.3207C446.44 55.8484 446.276 55.5199 445.957 55.3454C445.701 55.2016 445.403 55.1298 445.085 55.1298C444.417 55.1298 443.853 55.4172 443.401 55.9922C443.309 55.4891 442.867 55.1298 442.282 55.1298Z" fill="black"/>
<path d="M454.992 56.8546H448.688C448.483 56.8546 448.421 56.9572 448.421 57.0907C448.421 57.2242 448.483 57.3268 448.688 57.3268H454.992C455.197 57.3268 455.259 57.2242 455.259 57.0907C455.259 56.9675 455.197 56.8546 454.992 56.8546Z" fill="black"/>
<path d="M458.945 52.8403C458.503 53.2715 457.846 53.4871 456.953 53.4871V53.9388C457.559 53.9388 458.041 53.8464 458.411 53.6719V58.7847C458.411 58.9182 458.401 59.0003 458.37 59.0414C458.318 59.1543 458.01 59.2159 457.446 59.2159H457.025V59.6574L458.852 59.6163L460.69 59.6574V59.2159H460.269C459.704 59.2159 459.396 59.1543 459.335 59.0414C459.314 59.0003 459.304 58.9182 459.304 58.7847V53.1688C459.304 52.8916 459.263 52.8403 458.945 52.8403Z" fill="black"/>
<path d="M471.268 46.104V42.3934H469.684V46.104C469.684 48.3627 469.42 50.636 468.906 52.9387C467.997 57.0747 466.105 61.6214 463.421 63.6747C463.318 63.7334 463.26 63.8214 463.26 63.9534C463.26 64.2027 463.377 64.32 463.626 64.32C463.7 64.32 463.773 64.2907 463.832 64.2467C465.108 63.2787 466.325 61.8267 467.469 59.876C469.493 56.4147 471.268 51.2374 471.268 46.104Z" fill="black"/>
<path d="M469.684 43.5945H471.268V36.2905H469.684V43.5945Z" fill="black"/>
<path d="M469.684 38.4787H471.268V31.1747H469.684V38.4787Z" fill="black"/>
<path d="M469.684 33.3629H471.268V26.0589H469.684V33.3629Z" fill="black"/>
<path d="M469.684 27.26H471.268V23.5493C471.268 18.7387 469.64 13.7667 467.821 10.3933C466.618 8.17868 465.284 6.50668 463.832 5.40668C463.773 5.36268 463.7 5.33334 463.626 5.33334C463.377 5.33334 463.26 5.45068 463.26 5.70001C463.26 5.81734 463.304 5.92001 463.406 5.99334C464.594 6.88801 465.665 8.31068 466.648 10.2467C468.393 13.708 469.684 18.5627 469.684 23.5493L469.684 27.26Z" fill="black"/>
<path d="M500.847 52.3697H500.241V52.6983H500.847C501.247 52.6983 501.453 52.8112 501.453 53.0268C501.453 53.2321 501.196 53.3553 500.991 53.3553H498.968C498.609 53.3553 498.342 53.3964 498.157 53.4683C497.551 53.7147 497.182 54.4231 497.182 55.1417C497.182 55.9323 497.623 56.7125 498.362 56.7125C498.701 56.7125 498.876 56.538 498.876 56.1992C498.876 55.8604 498.711 55.6961 498.373 55.6961C498.075 55.6961 497.9 55.8501 497.87 56.1684C497.613 55.9425 497.479 55.6037 497.479 55.1623C497.479 54.5257 498.065 54.1356 498.732 54.1356H499.071C499.122 54.9364 499.245 55.5421 499.44 55.9631C499.759 56.6509 500.2 57 500.785 57C501.052 57 501.278 56.8973 501.453 56.7023C501.75 56.3737 501.894 55.922 501.894 55.3471C501.894 54.7413 501.637 54.3101 501.114 54.0432C501.504 53.9713 501.843 53.6839 501.843 53.2424C501.843 52.6983 501.412 52.3697 500.847 52.3697ZM501.596 55.2752C501.596 55.7475 501.247 56.1376 500.775 56.1376C499.82 56.1376 499.41 55.1417 499.358 54.1356H500.334C501.021 54.1356 501.596 54.5873 501.596 55.2752Z" fill="black"/>
<path d="M498.147 48.2117C498.198 48.2117 498.27 48.2322 498.373 48.2733L500.847 49.2589L498.126 50.3574C498.034 50.3985 497.983 50.419 497.972 50.419C497.818 50.419 497.746 50.224 497.746 49.8338H497.356L497.387 50.9837C497.397 51.2301 497.387 51.5689 497.356 52.0001H497.746C497.746 51.4252 497.726 51.3328 498.095 51.189L501.679 49.7312C501.822 49.6798 501.894 49.5977 501.894 49.4848C501.894 49.3718 501.822 49.2897 501.679 49.2384L498.403 47.914C498.291 47.8729 498.198 47.8318 498.116 47.7805C497.87 47.6368 497.746 47.3698 497.746 46.9797H497.356C497.387 47.3185 497.397 47.5854 497.387 47.7805L497.356 48.6942H497.746C497.757 48.3965 497.88 48.2117 498.147 48.2117Z" fill="black"/>
<path d="M499.204 42.5137C498.024 42.5137 497.182 43.2016 497.182 44.3514C497.182 44.9674 497.418 45.4808 497.9 45.9017C498.352 46.2918 498.896 46.4869 499.523 46.4869C500.169 46.4869 500.713 46.2713 501.186 45.8401C501.658 45.4089 501.894 44.875 501.894 44.2385C501.894 43.6533 501.689 43.2016 501.288 42.8936C500.95 42.6369 500.703 42.5137 500.539 42.5137C500.436 42.5137 500.385 42.5753 500.385 42.6882C500.385 42.7704 500.436 42.8217 500.549 42.8525C501.227 43.0784 501.566 43.5198 501.566 44.1769C501.566 44.6389 501.35 44.9982 500.909 45.2754C500.59 45.4705 500.108 45.5629 499.451 45.5732V42.8012C499.451 42.5753 499.43 42.5137 499.204 42.5137ZM498.198 43.4274C498.537 43.3145 498.865 43.2632 499.163 43.2632V45.5629C498.486 45.5321 498.024 45.3576 497.787 45.0496C497.582 44.7929 497.479 44.567 497.479 44.3514C497.479 43.8894 497.716 43.5814 498.198 43.4274Z" fill="black"/>
<path d="M497.9 38.4789C497.5 38.4789 497.243 38.8588 497.243 39.2592C497.243 39.7828 497.551 40.1832 498.178 40.4501H497.243L497.356 41.9285H497.746C497.746 41.5692 497.777 41.3536 497.839 41.2714C497.9 41.1893 498.034 41.1482 498.27 41.1482H500.97C501.165 41.1482 501.288 41.179 501.329 41.2509C501.371 41.3228 501.391 41.5486 501.391 41.9285H501.781L501.75 40.7478C501.74 40.3166 501.75 39.8752 501.781 39.4337H501.391V39.6801C501.391 40.0189 501.36 40.2345 501.309 40.3064C501.258 40.3782 501.134 40.409 500.95 40.409H499.399C498.958 40.409 498.557 40.3269 498.219 40.1729C497.777 39.9676 497.551 39.6698 497.541 39.2694C497.644 39.3721 497.767 39.4234 497.911 39.4234C498.229 39.4234 498.383 39.2694 498.383 38.9512C498.383 38.674 498.167 38.4789 497.9 38.4789Z" fill="black"/>
<path d="M500.847 33.2326H500.241V33.5612H500.847C501.247 33.5612 501.453 33.6741 501.453 33.8897C501.453 34.095 501.196 34.2182 500.991 34.2182H498.968C498.609 34.2182 498.342 34.2593 498.157 34.3312C497.551 34.5776 497.182 35.286 497.182 36.0046C497.182 36.7952 497.623 37.5754 498.362 37.5754C498.701 37.5754 498.876 37.4009 498.876 37.0621C498.876 36.7233 498.711 36.559 498.373 36.559C498.075 36.559 497.9 36.713 497.87 37.0313C497.613 36.8054 497.479 36.4666 497.479 36.0252C497.479 35.3886 498.065 34.9985 498.732 34.9985H499.071C499.122 35.7993 499.245 36.405 499.44 36.826C499.759 37.5138 500.2 37.8629 500.785 37.8629C501.052 37.8629 501.278 37.7602 501.453 37.5652C501.75 37.2366 501.894 36.7849 501.894 36.21C501.894 35.6042 501.637 35.173 501.114 34.9061C501.504 34.8342 501.843 34.5468 501.843 34.1053C501.843 33.5612 501.412 33.2326 500.847 33.2326ZM501.596 36.1381C501.596 36.6104 501.247 37.0005 500.775 37.0005C499.82 37.0005 499.41 36.0046 499.358 34.9985H500.334C501.021 34.9985 501.596 35.4502 501.596 36.1381Z" fill="black"/>
<path d="M497.13 28.6332C497.13 29.0233 497.284 29.3827 497.592 29.7112C497.356 30.0192 497.243 30.3683 497.243 30.7687C497.243 31.6516 497.9 32.4524 498.763 32.4524C499.194 32.4524 499.543 32.2984 499.81 31.9904C500.056 32.1855 500.334 32.2881 500.652 32.2881C501.042 32.2881 501.34 32.1547 501.535 31.898C501.679 32.3292 502.048 32.7707 502.572 32.7707C503.013 32.7707 503.362 32.4832 503.609 31.9185C503.804 31.4873 503.896 31.0151 503.896 30.5017C503.896 29.9781 503.804 29.4956 503.609 29.0644C503.362 28.4997 503.013 28.2225 502.551 28.2225C502.007 28.2225 501.607 28.4484 501.35 28.9001C501.093 29.3724 501.063 29.896 501.063 30.6557C501.063 31.1075 501.063 31.3539 501.052 31.4052C501.011 31.6927 500.734 31.898 500.416 31.898C500.262 31.898 500.118 31.8569 499.995 31.7645C500.19 31.4771 500.293 31.1485 500.293 30.7687C500.293 29.8857 499.635 29.0952 498.773 29.0952C498.373 29.0952 498.044 29.2287 497.787 29.4956C497.551 29.2389 497.438 28.9617 497.438 28.664C497.49 28.7153 497.572 28.7461 497.675 28.7461C497.9 28.7461 498.013 28.6332 498.013 28.4073C498.013 28.1917 497.9 28.0788 497.664 28.0788C497.346 28.0788 497.13 28.3252 497.13 28.6332ZM497.562 30.7687C497.562 30.2143 497.962 29.9371 498.763 29.9371C499.574 29.9371 499.985 30.2143 499.985 30.7687C499.985 31.3333 499.584 31.6105 498.773 31.6105C497.962 31.6105 497.562 31.3333 497.562 30.7687ZM501.74 31.3744V30.7789C501.74 30.2451 501.771 29.8139 501.843 29.4853C501.935 29.0439 502.182 28.8283 502.572 28.8283C502.9 28.8283 503.157 29.0336 503.352 29.4443C503.506 29.7625 503.578 30.1116 503.578 30.4915C503.578 30.8611 503.506 31.2101 503.352 31.5387C503.157 31.9596 502.9 32.1649 502.572 32.1649C502.141 32.1649 501.74 31.7953 501.74 31.3744Z" fill="black"/>
<path d="M495.611 25.9331C495.303 25.9331 495.036 26.1898 495.036 26.4978C495.036 26.8058 495.303 27.0727 495.611 27.0727C495.919 27.0727 496.196 26.816 496.196 26.508C496.196 26.1898 495.929 25.9331 495.611 25.9331ZM501.75 26.4567L501.781 25.389H501.381C501.381 25.7278 501.36 25.9331 501.319 25.9947C501.278 26.0563 501.165 26.0768 500.98 26.0768H497.213L497.336 27.545H497.726C497.726 27.2062 497.757 26.9906 497.808 26.9187C497.859 26.8468 498.003 26.816 498.239 26.816H500.97C501.165 26.816 501.288 26.8468 501.329 26.9187C501.371 26.9906 501.381 27.2164 501.381 27.586H501.781L501.75 26.4567Z" fill="black"/>
<path d="M497.541 21.8469C497.541 21.3849 497.9 21.1488 498.629 21.1488H500.97C501.165 21.1488 501.288 21.1796 501.329 21.2515C501.371 21.3233 501.391 21.5492 501.391 21.9291H501.781L501.75 20.7484L501.781 19.578H501.391C501.391 19.9065 501.381 20.1221 501.35 20.2248C501.319 20.3275 501.247 20.3685 501.124 20.3685H499.204C498.722 20.3685 498.383 20.3788 498.188 20.4096C497.562 20.5123 497.243 20.9743 497.243 21.7853C497.243 22.4321 497.551 22.9147 498.167 23.2329H497.243L497.356 24.7421H497.746C497.746 24.3725 497.777 24.1467 497.839 24.0645C497.9 23.9824 498.034 23.9516 498.27 23.9516H500.97C501.165 23.9516 501.288 23.9927 501.329 24.0645C501.371 24.1364 501.391 24.3623 501.391 24.7421H501.781L501.75 23.5615L501.781 22.3911H501.391C501.391 22.7709 501.371 22.9865 501.329 23.0584C501.288 23.1303 501.165 23.1713 500.97 23.1713H499.122C498.291 23.1713 497.541 22.6477 497.541 21.8469Z" fill="black"/>
<path d="M497.13 14.9374C497.13 15.3275 497.284 15.6869 497.592 16.0154C497.356 16.3234 497.243 16.6725 497.243 17.0729C497.243 17.9558 497.9 18.7566 498.763 18.7566C499.194 18.7566 499.543 18.6026 499.81 18.2946C500.056 18.4897 500.334 18.5923 500.652 18.5923C501.042 18.5923 501.34 18.4589 501.535 18.2022C501.679 18.6334 502.048 19.0749 502.572 19.0749C503.013 19.0749 503.362 18.7874 503.609 18.2227C503.804 17.7915 503.896 17.3193 503.896 16.8059C503.896 16.2823 503.804 15.7998 503.609 15.3686C503.362 14.8039 503.013 14.5267 502.551 14.5267C502.007 14.5267 501.607 14.7526 501.35 15.2043C501.093 15.6766 501.063 16.2002 501.063 16.9599C501.063 17.4117 501.063 17.6581 501.052 17.7094C501.011 17.9969 500.734 18.2022 500.416 18.2022C500.262 18.2022 500.118 18.1611 499.995 18.0687C500.19 17.7813 500.293 17.4527 500.293 17.0729C500.293 16.1899 499.635 15.3994 498.773 15.3994C498.373 15.3994 498.044 15.5329 497.787 15.7998C497.551 15.5431 497.438 15.2659 497.438 14.9682C497.49 15.0195 497.572 15.0503 497.675 15.0503C497.9 15.0503 498.013 14.9374 498.013 14.7115C498.013 14.4959 497.9 14.383 497.664 14.383C497.346 14.383 497.13 14.6294 497.13 14.9374ZM497.562 17.0729C497.562 16.5185 497.962 16.2413 498.763 16.2413C499.574 16.2413 499.985 16.5185 499.985 17.0729C499.985 17.6375 499.584 17.9147 498.773 17.9147C497.962 17.9147 497.562 17.6375 497.562 17.0729ZM501.74 17.6786V17.0831C501.74 16.5493 501.771 16.1181 501.843 15.7895C501.935 15.3481 502.182 15.1325 502.572 15.1325C502.9 15.1325 503.157 15.3378 503.352 15.7485C503.506 16.0667 503.578 16.4158 503.578 16.7957C503.578 17.1653 503.506 17.5143 503.352 17.8429C503.157 18.2638 502.9 18.4691 502.572 18.4691C502.141 18.4691 501.74 18.0995 501.74 17.6786Z" fill="black"/>
<path d="M520.545 31.9671C520.802 31.8952 521.13 31.731 521.53 31.4948L521.459 30.694C521.068 30.9712 520.75 31.1458 520.494 31.2279C520.237 31.31 519.898 31.3511 519.477 31.3511C518.769 31.3511 518.194 31.0226 517.752 30.3758C517.362 29.8008 517.167 29.1438 517.167 28.4046C517.167 27.6654 517.362 27.0083 517.752 26.4231C518.194 25.7763 518.769 25.4477 519.477 25.4477C520.124 25.4477 520.719 25.6428 521.264 26.0227L521.428 25.0987C520.791 24.842 520.144 24.7188 519.477 24.7188C518.522 24.7188 517.722 25.0987 517.085 25.8584C516.479 26.5771 516.182 27.4292 516.182 28.4046C516.182 29.3799 516.479 30.232 517.085 30.9404C517.722 31.7002 518.522 32.08 519.477 32.08C519.908 32.08 520.268 32.039 520.545 31.9671Z" fill="black"/>
<path d="M523.214 29.7598H526.315C526.315 28.343 525.791 27.2342 524.487 27.2342C523.882 27.2342 523.378 27.4908 522.978 28.0042C522.608 28.4764 522.424 29.0206 522.424 29.6468C522.424 30.3039 522.629 30.8686 523.029 31.3408C523.45 31.8336 523.984 32.08 524.631 32.08C525.226 32.08 525.771 31.8952 526.274 31.5359L526.212 30.7762C525.719 31.1766 525.196 31.3819 524.641 31.3819C523.81 31.3819 523.245 30.6016 523.214 29.7598ZM525.658 29.1232H523.266C523.399 28.5483 523.851 27.9323 524.487 27.9323C525.175 27.9323 525.555 28.4867 525.658 29.1232Z" fill="black"/>
<path d="M529.292 27.9939C529.959 27.9939 530.226 28.3224 530.226 28.9897V31.9671H531.089V28.9179C531.089 27.8399 530.616 27.2957 529.672 27.2957C529.107 27.2957 528.635 27.5216 528.255 27.9836V27.3471H527.454V31.9671H528.317V29.4517C528.317 28.7125 528.614 27.9939 529.292 27.9939Z" fill="black"/>
<path d="M533.84 32.08C534.333 32.08 534.836 31.9466 535.349 31.6796L535.165 30.9918C534.867 31.2279 534.559 31.3511 534.241 31.3511C533.922 31.3511 533.768 31.0842 533.768 30.5503V28.0555H535.175V27.3882H533.768V26.1048H532.998V27.3882H532.126V28.0555H532.968V30.7248C532.968 31.6283 533.255 32.08 533.84 32.08Z" fill="black"/>
<path d="M538.994 28.0555V27.2957C538.265 27.306 537.68 27.5935 537.259 28.1787V27.3471H536.479V31.9671H537.3V29.77C537.3 28.7639 538.008 28.0863 538.994 28.0555Z" fill="black"/>
<path d="M541.704 32.08C542.351 32.08 542.885 31.8439 543.316 31.3819C543.748 30.9199 543.963 30.3552 543.963 29.7084C543.963 29.0514 543.748 28.4764 543.327 27.9836C542.906 27.4908 542.362 27.2342 541.715 27.2342C541.068 27.2342 540.524 27.4908 540.082 27.9939C539.661 28.4764 539.456 29.0411 539.456 29.7084C539.456 30.3552 539.661 30.8994 540.093 31.3716C540.524 31.8439 541.058 32.08 541.704 32.08ZM543.101 29.6058C543.101 30.54 542.598 31.3511 541.704 31.3511C540.822 31.3511 540.318 30.54 540.318 29.6058C540.318 28.692 540.822 27.9323 541.704 27.9323C542.598 27.9323 543.101 28.6715 543.101 29.6058Z" fill="black"/>
<path d="M545.031 26.228H545.986V25.2424H545.031V26.228ZM545.092 31.9671H545.914V27.3779H545.092V31.9671Z" fill="black"/>
<path d="M550.328 31.9671H551.191V24.842H550.359V27.7783C549.918 27.4395 549.446 27.265 548.922 27.265C548.357 27.265 547.906 27.5319 547.556 28.076C547.259 28.538 547.105 29.0719 547.105 29.6776C547.105 30.2628 547.248 30.7967 547.536 31.2587C547.875 31.8028 548.316 32.08 548.881 32.08C549.415 32.08 549.897 31.885 550.328 31.4948V31.9671ZM549.292 31.3819C548.429 31.3819 547.967 30.6016 547.967 29.6879C547.967 28.7331 548.47 27.9734 549.394 27.9734C549.774 27.9734 550.082 28.1479 550.328 28.497V30.5195C550.328 30.9815 549.754 31.3819 549.292 31.3819Z" fill="black"/>
<path d="M560.492 31.9671C560.749 31.8952 561.078 31.731 561.478 31.4948L561.406 30.694C561.016 30.9712 560.698 31.1458 560.441 31.2279C560.184 31.31 559.846 31.3511 559.425 31.3511C558.716 31.3511 558.141 31.0226 557.7 30.3758C557.31 29.8008 557.115 29.1438 557.115 28.4046C557.115 27.6654 557.31 27.0083 557.7 26.4231C558.141 25.7763 558.716 25.4477 559.425 25.4477C560.072 25.4477 560.667 25.6428 561.211 26.0227L561.375 25.0987C560.739 24.842 560.092 24.7188 559.425 24.7188C558.47 24.7188 557.669 25.0987 557.033 25.8584C556.427 26.5771 556.129 27.4292 556.129 28.4046C556.129 29.3799 556.427 30.232 557.033 30.9404C557.669 31.7002 558.47 32.08 559.425 32.08C559.856 32.08 560.215 32.039 560.492 31.9671Z" fill="black"/>
<path d="M564.517 27.2342C563.952 27.2342 563.418 27.3882 562.895 27.6859L562.967 28.4456C563.47 28.0863 563.983 27.9118 564.517 27.9118C565.061 27.9118 565.349 28.4354 565.349 29.0206V29.4107C564.127 29.4518 562.566 29.7598 562.566 30.7864C562.566 31.4948 563.039 32.08 563.747 32.08C564.425 32.08 564.969 31.9363 565.379 31.6488V31.9671H566.211V29.0103C566.211 28.0247 565.503 27.2342 564.517 27.2342ZM563.367 30.7659C563.367 30.3347 564.024 30.0883 565.349 30.0164V30.5914C565.349 31.115 564.989 31.3819 564.26 31.3819C563.819 31.3819 563.367 31.1766 563.367 30.7659Z" fill="black"/>
<path d="M567.761 31.9671H568.572V24.842H567.761V31.9671Z" fill="black"/>
<path d="M570.636 29.6776C570.636 28.7331 571.098 27.9631 572.032 27.9631C572.515 27.9631 572.997 28.1171 573.48 28.4354L573.624 27.6859C573.09 27.3882 572.556 27.2342 572.022 27.2342C571.365 27.2342 570.831 27.4806 570.41 27.9631C569.989 28.4456 569.774 29.0206 569.774 29.6879C569.774 30.3347 569.979 30.8891 570.39 31.3511C570.81 31.8336 571.344 32.08 571.981 32.08C572.587 32.08 573.151 31.9055 573.665 31.5462L573.593 30.7659C573.1 31.156 572.566 31.3511 571.991 31.3511C571.129 31.3511 570.636 30.5811 570.636 29.6776Z" fill="black"/>
<path d="M576.395 31.4435C575.821 31.4435 575.656 31.3203 575.656 30.7864V27.4087H574.794V30.8275C574.794 31.6591 575.163 32.08 575.903 32.08C576.591 32.08 577.155 31.8952 577.597 31.5359V31.9671H578.428V27.4087H577.566V30.3758C577.566 31.0534 577.083 31.4435 576.395 31.4435Z" fill="black"/>
<path d="M580.081 31.9671H580.892V24.842H580.081V31.9671Z" fill="black"/>
<path d="M584.229 27.2342C583.664 27.2342 583.13 27.3882 582.607 27.6859L582.679 28.4456C583.182 28.0863 583.695 27.9118 584.229 27.9118C584.773 27.9118 585.061 28.4354 585.061 29.0206V29.4107C583.839 29.4518 582.278 29.7598 582.278 30.7864C582.278 31.4948 582.751 32.08 583.459 32.08C584.137 32.08 584.681 31.9363 585.091 31.6488V31.9671H585.923V29.0103C585.923 28.0247 585.215 27.2342 584.229 27.2342ZM583.079 30.7659C583.079 30.3347 583.736 30.0883 585.061 30.0164V30.5914C585.061 31.115 584.701 31.3819 583.972 31.3819C583.531 31.3819 583.079 31.1766 583.079 30.7659Z" fill="black"/>
<path d="M588.572 32.08C589.065 32.08 589.568 31.9466 590.081 31.6796L589.896 30.9918C589.598 31.2279 589.29 31.3511 588.972 31.3511C588.654 31.3511 588.5 31.0842 588.5 30.5503V28.0555H589.906V27.3882H588.5V26.1048H587.73V27.3882H586.857V28.0555H587.699V30.7248C587.699 31.6283 587.987 32.08 588.572 32.08Z" fill="black"/>
<path d="M591.118 26.228H592.073V25.2424H591.118V26.228ZM591.18 31.9671H592.001V27.3779H591.18V31.9671Z" fill="black"/>
<path d="M595.379 32.08C596.025 32.08 596.559 31.8439 596.99 31.3819C597.422 30.9199 597.637 30.3552 597.637 29.7084C597.637 29.0514 597.422 28.4764 597.001 27.9836C596.58 27.4908 596.036 27.2342 595.389 27.2342C594.742 27.2342 594.198 27.4908 593.756 27.9939C593.335 28.4764 593.13 29.0411 593.13 29.7084C593.13 30.3552 593.335 30.8994 593.767 31.3716C594.198 31.8439 594.732 32.08 595.379 32.08ZM596.775 29.6058C596.775 30.54 596.272 31.3511 595.379 31.3511C594.496 31.3511 593.993 30.54 593.993 29.6058C593.993 28.692 594.496 27.9323 595.379 27.9323C596.272 27.9323 596.775 28.6715 596.775 29.6058Z" fill="black"/>
<path d="M600.625 27.9939C601.292 27.9939 601.559 28.3224 601.559 28.9897V31.9671H602.421V28.9179C602.421 27.8399 601.949 27.2957 601.005 27.2957C600.44 27.2957 599.968 27.5216 599.588 27.9836V27.3471H598.787V31.9671H599.649V29.4517C599.649 28.7125 599.947 27.9939 600.625 27.9939Z" fill="black"/>
<path d="M612.441 46.8493C612.573 46.8493 612.647 46.776 612.647 46.644C612.647 46.5707 612.617 46.5267 612.573 46.4827C611.752 45.852 611.092 44.796 610.593 43.3147C610.168 42.0387 609.948 40.8067 609.948 39.5894V38.064C609.948 36.8467 610.168 35.6147 610.593 34.3387C611.092 32.8573 611.752 31.8013 612.573 31.1707C612.617 31.1267 612.647 31.0827 612.647 31.0093C612.647 30.8773 612.573 30.804 612.441 30.804C612.383 30.804 612.339 30.8187 612.324 30.848C611.371 31.5813 610.579 32.6667 609.948 34.1187C609.347 35.4973 609.039 36.8173 609.039 38.064V39.5893C609.039 40.836 609.347 42.156 609.948 43.5347C610.579 44.9867 611.371 46.072 612.324 46.8053C612.339 46.8347 612.383 46.8493 612.441 46.8493Z" fill="black"/>
<path d="M619.687 37.206C619.687 36.37 618.836 35.9153 617.927 35.9153C617.003 35.9153 616.343 36.194 615.947 36.7513C615.609 37.2353 615.433 37.6753 615.433 38.0713C615.433 38.8487 615.947 39.3473 616.959 39.5673C617.384 39.6407 617.707 39.7433 617.956 39.8607C618.264 39.9927 618.411 40.242 618.411 40.594C618.411 40.858 618.293 41.1513 618.044 41.4887C617.736 41.914 617.193 42.134 616.416 42.134C615.624 42.134 615.111 41.914 614.876 41.4887C615.345 41.5033 615.741 41.122 615.741 40.6527C615.741 40.286 615.551 40.0953 615.155 40.0953C614.627 40.0953 614.289 40.5793 614.289 41.1073C614.289 42.0753 615.345 42.5593 616.401 42.5593C617.501 42.5593 618.293 42.2367 618.763 41.5767C619.159 41.034 619.349 40.55 619.349 40.11C619.349 39.4793 619.041 39.01 618.44 38.702C617.985 38.5407 617.633 38.438 617.413 38.394C616.9 38.262 616.372 38.218 616.372 37.5873C616.372 36.81 617.105 36.3407 617.927 36.3407C618.543 36.3407 618.939 36.5313 619.129 36.898C618.807 36.9567 618.469 37.2353 618.469 37.602C618.469 37.91 618.631 38.0713 618.968 38.0713C619.423 38.0713 619.687 37.6607 619.687 37.206Z" fill="black"/>
<path d="M625.703 42.7456C625.703 41.5855 625.498 40.7026 625.097 40.0968C624.769 39.5835 624.112 39.2036 623.321 39.2036C622.993 39.2036 622.695 39.255 622.438 39.3679C621.309 39.8402 620.939 41.1543 620.939 42.7456C620.939 43.0947 620.96 43.4232 620.991 43.7415C621.165 45.0864 621.791 46.226 623.321 46.226C623.65 46.226 623.947 46.1747 624.204 46.0618C625.333 45.5998 625.703 44.3164 625.703 42.7456ZM624.533 40.4664C624.646 40.8463 624.707 41.5547 624.707 42.6122C624.707 43.6183 624.666 44.3267 624.574 44.7476C624.451 45.3534 624.019 45.8564 623.321 45.8564C623.065 45.8564 622.808 45.7743 622.572 45.5998C622.253 45.3636 622.058 44.9016 621.976 44.1932C621.945 43.9571 621.935 43.4335 621.935 42.6122C621.935 41.6163 621.987 40.9284 622.089 40.5588C622.264 39.9018 622.674 39.5732 623.321 39.5732C623.937 39.5732 624.389 39.9736 624.533 40.4664Z" fill="black"/>
<path d="M640.562 37.206C640.562 36.37 639.711 35.9153 638.802 35.9153C637.878 35.9153 637.218 36.194 636.822 36.7513C636.484 37.2353 636.308 37.6753 636.308 38.0713C636.308 38.8487 636.822 39.3473 637.834 39.5673C638.259 39.6407 638.582 39.7433 638.831 39.8607C639.139 39.9927 639.286 40.242 639.286 40.594C639.286 40.858 639.168 41.1513 638.919 41.4887C638.611 41.914 638.068 42.134 637.291 42.134C636.499 42.134 635.986 41.914 635.751 41.4887C636.22 41.5033 636.616 41.122 636.616 40.6527C636.616 40.286 636.426 40.0953 636.03 40.0953C635.502 40.0953 635.164 40.5793 635.164 41.1073C635.164 42.0753 636.22 42.5593 637.276 42.5593C638.376 42.5593 639.168 42.2367 639.638 41.5767C640.034 41.034 640.224 40.55 640.224 40.11C640.224 39.4793 639.916 39.01 639.315 38.702C638.86 38.5407 638.508 38.438 638.288 38.394C637.775 38.262 637.247 38.218 637.247 37.5873C637.247 36.81 637.98 36.3407 638.802 36.3407C639.418 36.3407 639.814 36.5313 640.004 36.898C639.682 36.9567 639.344 37.2353 639.344 37.602C639.344 37.91 639.506 38.0713 639.843 38.0713C640.298 38.0713 640.562 37.6607 640.562 37.206Z" fill="black"/>
<path d="M644.391 39.2036C643.95 39.6348 643.293 39.8504 642.4 39.8504V40.3022C643.005 40.3022 643.488 40.2098 643.857 40.0352V45.148C643.857 45.2815 643.847 45.3636 643.816 45.4047C643.765 45.5176 643.457 45.5792 642.892 45.5792H642.471V46.0207L644.299 45.9796L646.137 46.0207V45.5792H645.716C645.151 45.5792 644.843 45.5176 644.781 45.4047C644.761 45.3636 644.751 45.2815 644.751 45.148V39.5322C644.751 39.255 644.71 39.2036 644.391 39.2036Z" fill="black"/>
<path d="M666.292 41.6207C666.292 41.1807 665.91 40.8434 665.47 40.8434C665.016 40.8434 664.634 41.1807 664.634 41.6207C664.634 42.0607 665.016 42.398 665.47 42.398C665.91 42.398 666.292 42.0607 666.292 41.6207ZM662.244 41.6207C662.244 41.1807 661.862 40.8434 661.422 40.8434C660.968 40.8434 660.601 41.1807 660.601 41.6207C660.601 42.0607 660.968 42.398 661.422 42.398C661.862 42.398 662.244 42.0607 662.244 41.6207ZM658.21 41.6207C658.21 41.1807 657.829 40.8434 657.374 40.8434C656.934 40.8434 656.553 41.1807 656.553 41.6207C656.553 42.0607 656.934 42.398 657.374 42.398C657.814 42.398 658.21 42.0607 658.21 41.6207Z" fill="black"/>
<path d="M681.046 37.206C681.046 36.37 680.196 35.9153 679.286 35.9153C678.362 35.9153 677.702 36.194 677.306 36.7513C676.969 37.2353 676.793 37.6753 676.793 38.0713C676.793 38.8487 677.306 39.3473 678.318 39.5673C678.744 39.6407 679.066 39.7433 679.316 39.8607C679.624 39.9927 679.77 40.242 679.77 40.594C679.77 40.858 679.653 41.1513 679.404 41.4887C679.096 41.914 678.553 42.134 677.776 42.134C676.984 42.134 676.47 41.914 676.236 41.4887C676.705 41.5033 677.101 41.122 677.101 40.6527C677.101 40.286 676.91 40.0953 676.514 40.0953C675.986 40.0953 675.649 40.5793 675.649 41.1073C675.649 42.0753 676.705 42.5593 677.761 42.5593C678.861 42.5593 679.653 42.2367 680.122 41.5767C680.518 41.034 680.709 40.55 680.709 40.11C680.709 39.4793 680.401 39.01 679.8 38.702C679.345 38.5407 678.993 38.438 678.773 38.394C678.26 38.262 677.732 38.218 677.732 37.5873C677.732 36.81 678.465 36.3407 679.286 36.3407C679.902 36.3407 680.298 36.5313 680.489 36.898C680.166 36.9567 679.829 37.2353 679.829 37.602C679.829 37.91 679.99 38.0713 680.328 38.0713C680.782 38.0713 681.046 37.6607 681.046 37.206Z" fill="black"/>
<path d="M683.449 41.4931C683.11 41.4931 682.833 41.6779 682.617 42.0578C682.473 42.3144 682.36 42.5814 682.289 42.8791C682.258 42.992 682.247 43.0536 682.247 43.0742C682.247 43.1871 682.319 43.2487 682.463 43.2487C682.658 43.2487 682.668 43.1358 682.72 42.9202C682.894 42.2118 683.13 41.8524 683.428 41.8524C683.623 41.8524 683.716 42.0064 683.716 42.3144C683.716 42.4274 683.664 42.6943 683.551 43.1358L683.007 45.3328C682.935 45.61 682.905 45.7538 682.905 45.764C682.905 46.0002 683.038 46.1234 683.295 46.1234C683.49 46.1234 683.633 46.0412 683.726 45.877C683.757 45.8154 683.818 45.5998 683.911 45.2404L684.126 44.337C684.249 43.8544 684.321 43.5875 684.342 43.5259C684.424 43.259 684.547 43.0023 684.722 42.7662C685.153 42.1604 685.646 41.8524 686.21 41.8524C686.58 41.8524 686.765 42.0783 686.765 42.5198C686.765 42.9202 686.57 43.6286 686.169 44.6552C686.067 44.9222 686.015 45.107 686.015 45.2199C686.015 45.7743 686.467 46.1234 687.021 46.1234C687.504 46.1234 687.894 45.877 688.171 45.3842C688.407 44.9632 688.52 44.686 688.52 44.5423C688.52 44.4294 688.449 44.3678 688.315 44.3678C688.243 44.378 688.171 44.4294 688.099 44.532C688.089 44.5423 688.089 44.5628 688.089 44.5731C687.853 45.3636 687.504 45.764 687.052 45.764C686.909 45.764 686.837 45.6614 686.837 45.4458C686.837 45.302 686.919 45.0351 687.073 44.645C687.432 43.7312 687.607 43.0742 687.607 42.684C687.607 42.2118 687.442 41.8832 687.124 41.7087C686.867 41.565 686.57 41.4931 686.251 41.4931C685.584 41.4931 685.019 41.7806 684.568 42.3555C684.475 41.8524 684.034 41.4931 683.449 41.4931Z" fill="black"/>
<path d="M696.159 43.2179H689.855C689.65 43.2179 689.588 43.3205 689.588 43.454C689.588 43.5875 689.65 43.6901 689.855 43.6901H696.159C696.364 43.6901 696.426 43.5875 696.426 43.454C696.426 43.3308 696.364 43.2179 696.159 43.2179Z" fill="black"/>
<path d="M700.111 39.2036C699.67 39.6348 699.013 39.8504 698.12 39.8504V40.3022C698.725 40.3022 699.208 40.2098 699.578 40.0352V45.148C699.578 45.2815 699.567 45.3636 699.536 45.4047C699.485 45.5176 699.177 45.5792 698.612 45.5792H698.192V46.0207L700.019 45.9796L701.857 46.0207V45.5792H701.436C700.871 45.5792 700.563 45.5176 700.502 45.4047C700.481 45.3636 700.471 45.2815 700.471 45.148V39.5322C700.471 39.255 700.43 39.2036 700.111 39.2036Z" fill="black"/>
<path d="M704.866 46.8053C705.82 46.072 706.612 44.9867 707.242 43.5347C707.844 42.156 708.152 40.836 708.152 39.5893V38.064C708.152 36.8173 707.844 35.4973 707.242 34.1187C706.612 32.6667 705.82 31.5813 704.866 30.848C704.852 30.8187 704.808 30.804 704.749 30.804C704.617 30.804 704.544 30.8773 704.544 31.0093C704.544 31.0827 704.573 31.1267 704.617 31.1707C705.438 31.8013 706.098 32.8574 706.597 34.3387C707.022 35.6147 707.242 36.8467 707.242 38.064V39.5894C707.242 40.8067 707.022 42.0387 706.597 43.3147C706.098 44.796 705.438 45.852 704.617 46.4827C704.573 46.5267 704.544 46.5707 704.544 46.644C704.544 46.776 704.617 46.8493 704.749 46.8493C704.808 46.8493 704.852 46.8347 704.866 46.8053Z" fill="black"/>
<path d="M485.506 66.5303C485.799 66.8232 486.273 66.8232 486.566 66.5303L491.339 61.7574C491.632 61.4645 491.632 60.9896 491.339 60.6967C491.046 60.4038 490.572 60.4038 490.279 60.6967L486.036 64.9393L481.793 60.6967C481.5 60.4038 481.026 60.4038 480.733 60.6967C480.44 60.9896 480.44 61.4645 480.733 61.7574L485.506 66.5303ZM486.036 5H485.286V66H486.036H486.786V5H486.036Z" fill="black"/>
<path d="M589.566 40.5303C589.859 40.2374 589.859 39.7626 589.566 39.4697L584.793 34.6967C584.5 34.4038 584.026 34.4038 583.733 34.6967C583.44 34.9896 583.44 35.4645 583.733 35.7574L587.975 40L583.733 44.2426C583.44 44.5355 583.44 45.0104 583.733 45.3033C584.026 45.5962 584.5 45.5962 584.793 45.3033L589.566 40.5303ZM528.036 40V40.75L589.036 40.75V40V39.25L528.036 39.25V40Z" fill="black"/>
</g>
<defs>
<filter id="filter0_d_6_8292" x="332.036" y="7" width="52" height="69" filterUnits="userSpaceOnUse" color-interpolation-filters="sRGB">
<feFlood flood-opacity="0" result="BackgroundImageFix"/>
<feColorMatrix in="SourceAlpha" type="matrix" values="0 0 0 0 0 0 0 0 0 0 0 0 0 0 0 0 0 0 127 0" result="hardAlpha"/>
<feOffset dy="4"/>
<feGaussianBlur stdDeviation="2"/>
<feComposite in2="hardAlpha" operator="out"/>
<feColorMatrix type="matrix" values="0 0 0 0 0 0 0 0 0 0 0 0 0 0 0 0 0 0 0.25 0"/>
<feBlend mode="normal" in2="BackgroundImageFix" result="effect1_dropShadow_6_8292"/>
<feBlend mode="normal" in="SourceGraphic" in2="effect1_dropShadow_6_8292" result="shape"/>
</filter>
<filter id="filter1_d_6_8292" x="402.036" y="7" width="65" height="69" filterUnits="userSpaceOnUse" color-interpolation-filters="sRGB">
<feFlood flood-opacity="0" result="BackgroundImageFix"/>
<feColorMatrix in="SourceAlpha" type="matrix" values="0 0 0 0 0 0 0 0 0 0 0 0 0 0 0 0 0 0 127 0" result="hardAlpha"/>
<feOffset dy="4"/>
<feGaussianBlur stdDeviation="2"/>
<feComposite in2="hardAlpha" operator="out"/>
<feColorMatrix type="matrix" values="0 0 0 0 0 0 0 0 0 0 0 0 0 0 0 0 0 0 0.25 0"/>
<feBlend mode="normal" in2="BackgroundImageFix" result="effect1_dropShadow_6_8292"/>
<feBlend mode="normal" in="SourceGraphic" in2="effect1_dropShadow_6_8292" result="shape"/>
</filter>
</defs>
</svg>
