<svg width="6106" height="1876" viewBox="0 0 6106 1876" fill="none" xmlns="http://www.w3.org/2000/svg">
<rect width="6056" height="1850.8" transform="translate(25)" fill="white" fill-opacity="0.84"/>
<path d="M779.37 795.774C797.064 782.133 850.3 780.263 872.904 777.067C887.091 775.04 912.579 772.936 923.491 761.088C943.367 739.575 944.692 718.842 942.51 700.525C940.171 681.428 936.274 663.033 943.445 651.497C947.108 645.651 962.542 616.188 944.068 608.939C934.247 605.042 927.856 608.549 886.935 609.952C867.916 610.576 853.418 603.327 859.654 593.038C866.591 585.166 896.288 581.814 924.192 571.525C943.913 564.277 954.279 559.834 956.54 542.842C957.943 532.553 950.46 526.473 946.641 513.69C943.133 502.076 946.485 496.776 951.239 492.099C958.488 485.006 977.663 473.548 980.235 452.659C984.522 416.96 924.972 398.565 905.408 361.541C896.054 343.848 904.005 295.755 904.005 280.088C904.005 216.641 872.281 110.324 772.043 49.6044C681.939 -4.95724 568.918 -11.037 466.654 14.5291C417.782 26.7665 368.209 59.8152 336.018 88.7329C259.086 157.792 241.704 259.589 236.092 296.067C218.321 410.802 249.343 498.569 293.85 569.031C358.154 670.906 450.675 736.613 464.861 795.15C467.044 804.27 468.759 823.288 468.759 839.657C468.759 874.654 466.81 903.65 464.783 924.851H760.274C759.728 875.901 758.793 811.753 779.37 795.774Z" fill="black"/>
<path d="M1000.89 522.264C997.203 522.26 993.615 521.07 990.656 518.87C987.697 516.67 985.524 513.576 984.458 510.046C983.392 506.516 983.49 502.737 984.736 499.267C985.983 495.796 988.313 492.819 991.382 490.775L1109.39 412.907C1117.26 407.685 1127.94 409.868 1133.16 417.74C1138.39 425.612 1136.2 436.291 1128.33 441.513L1010.32 519.381C1007.44 521.329 1004.16 522.264 1000.89 522.264Z" fill="black"/>
<path d="M1118.9 732.716C1115.63 732.716 1112.35 731.781 1109.47 729.91L991.459 652.043C989.577 650.803 987.958 649.203 986.696 647.335C985.434 645.468 984.553 643.369 984.104 641.16C983.655 638.952 983.647 636.676 984.079 634.464C984.512 632.251 985.378 630.147 986.626 628.27C987.867 626.388 989.467 624.769 991.334 623.507C993.202 622.245 995.3 621.364 997.509 620.915C999.718 620.466 1001.99 620.457 1004.21 620.89C1006.42 621.323 1008.52 622.189 1010.4 623.437L1128.41 701.304C1136.36 706.527 1138.46 717.205 1133.24 725.078C1129.89 729.988 1124.43 732.716 1118.9 732.716Z" fill="black"/>
<path d="M1004.71 584.854C1000.16 584.895 995.784 583.128 992.539 579.942C989.294 576.755 987.448 572.41 987.406 567.862C987.365 563.314 989.132 558.936 992.318 555.691C995.505 552.446 999.85 550.6 1004.4 550.558L1145.71 548.064C1155.22 547.986 1163.02 555.469 1163.17 564.9C1163.33 574.332 1155.77 582.204 1146.34 582.36L1005.02 584.854H1004.71Z" fill="black"/>
<path d="M5374.08 327.504L5466 340.486L5384.27 383.741L5443.52 437.852L5357.73 427.024L5410.83 537.4L5304.61 457.325L5216.74 563.364L5257.61 431.389L5128.88 500.636L5218.76 403.271L5212.6 379.321C5188.33 391.408 5153.96 403.746 5118.02 402.319C5070.35 402.319 5011.15 369.081 4940.42 309.654C4940.42 309.654 4860.34 224.991 4793.02 224.991C4723.77 224.991 4730.54 329.127 4730.63 330.162H4809.06V401.004C4908.76 439.391 4976.13 535.805 4976.13 649.035C4976.13 795.923 4857 915 4710.05 915C4563.1 915 4444 795.867 4444 648.979C4444 535.777 4513.11 439.335 4612.81 400.948V330.106H4682.9C4682.82 329.575 4674.84 253.333 4715.09 211.029C4736.56 188.478 4762.79 177.203 4793.83 177.203C4887.23 177.203 4971.07 275.464 4971.07 275.464C5032.51 328.176 5082.61 354.504 5121.38 354.504C5137.11 354.504 5169.13 344.599 5185.59 339.143L5135.01 299.358L5222.87 305.821L5155.47 201.964L5265.78 279.857L5278.04 206.273L5298.45 273.366L5380.18 176L5361.79 284.193L5455.76 262.566L5374.08 327.504Z" fill="black"/>
<path d="M2453.28 608.854C2495.17 613.92 2571.67 605.126 2542.84 561.134C2529.39 553.302 2516 547.095 2509.94 547.095C2497.9 547.095 2488.15 537.339 2488.15 525.305C2488.15 513.267 2497.9 503.51 2509.94 503.51C2527.73 503.51 2550.3 514.641 2567.17 524.761C2581.07 517.886 2589.5 497.155 2589.5 497.155H3100.66L3138.91 461.535V493.517H3175.24V611.58H2911.99C2872.1 611.58 2809.53 633.733 2803.85 693.427C2804.49 697.737 2804.92 702.099 2804.92 706.548C2804.92 765.334 2747.92 813.162 2677.86 813.162C2637.79 813.162 2601.99 797.519 2578.69 773.136C2577.29 771.679 2576.03 770.147 2574.73 768.622L2574.72 768.677C2574.72 768.677 2574.66 768.56 2574.64 768.528C2537.63 632.455 2453.28 608.854 2453.28 608.854ZM2734.13 534.381H2630.6C2622.71 534.381 2616.3 540.784 2616.3 548.684C2616.3 556.579 2622.7 562.987 2630.6 562.987H2734.13C2742.02 562.987 2748.43 556.58 2748.43 548.684C2748.43 540.786 2742.02 534.381 2734.13 534.381ZM2734.13 582.057H2630.6C2622.71 582.057 2616.3 588.463 2616.3 596.36C2616.3 604.257 2622.7 610.662 2630.6 610.662H2734.13C2742.02 610.662 2748.43 604.259 2748.43 596.36C2748.43 588.463 2742.02 582.057 2734.13 582.057ZM2677.86 764.461C2720.33 764.461 2756.22 737.942 2756.22 706.548C2756.22 675.155 2720.33 648.624 2677.86 648.624C2667.35 648.624 2657.24 650.261 2647.97 653.186C2657.75 675.428 2675.17 704.566 2692.8 706.697C2701.76 707.781 2708.15 715.933 2707.06 724.896C2706.06 733.187 2699.01 739.276 2690.85 739.276C2690.19 739.276 2689.53 739.238 2688.86 739.158C2653.94 734.921 2630.5 694.247 2619.11 668.771C2607 679.01 2599.5 692.257 2599.5 706.549C2599.5 737.942 2635.39 764.461 2677.86 764.461Z" fill="black"/>
<path d="M2436.03 626.093C2532.29 656.064 2550.46 774.127 2550.46 774.127C2512.03 778.339 2505.05 913.984 2505.05 913.984C2517.94 982.49 2396.77 1072.53 2338.86 945.755C2259.94 773.014 2408.49 631.349 2436.03 626.093Z" fill="black"/>
<path d="M3984.17 550.465C3984.18 523.836 3925.59 495.429 3888.31 495.429C3851.03 495.429 3777.68 495.434 3777.68 495.434L3777.68 605.496C3777.68 605.496 3851.03 605.491 3888.32 605.495C3925.59 605.496 3984.17 577.089 3984.17 550.465Z" fill="black"/>
<path d="M3740.4 495.439L3740.39 605.496L3761.7 605.496L3761.7 495.434L3740.4 495.439Z" fill="black"/>
<path d="M3731.2 501.476C3731.6 501.477 3731.98 501.32 3732.26 501.039C3732.55 500.757 3732.7 500.375 3732.7 499.976C3732.7 499.577 3732.55 499.194 3732.26 498.913C3731.98 498.632 3731.6 498.475 3731.2 498.476C3722.54 498.501 3713.88 498.526 3705.22 498.551C3549.31 499.001 3393.4 499.451 3237.48 499.901C3228.82 499.926 3220.16 499.951 3211.5 499.976C3220.16 500.001 3228.82 500.026 3237.48 500.051C3393.4 500.501 3549.31 500.951 3705.22 501.401C3713.88 501.426 3722.54 501.451 3731.2 501.476Z" fill="black"/>
<path d="M3729.71 552.457C3730.5 552.462 3731.27 552.15 3731.83 551.587C3732.39 551.025 3732.71 550.258 3732.71 549.457C3732.71 548.657 3732.39 547.89 3731.83 547.328C3731.27 546.765 3730.5 546.453 3729.71 546.457C3720.63 546.507 3711.55 546.557 3702.47 546.607C3539.06 547.507 3375.64 548.407 3212.23 549.307C3203.15 549.357 3194.07 549.407 3184.99 549.457C3194.07 549.507 3203.15 549.557 3212.23 549.607C3375.64 550.507 3539.06 551.407 3702.47 552.307C3711.55 552.357 3720.63 552.407 3729.71 552.457Z" fill="black"/>
<path d="M3731.21 594.799C3731.61 594.801 3731.99 594.644 3732.27 594.362C3732.55 594.081 3732.71 593.698 3732.71 593.299C3732.71 592.9 3732.55 592.518 3732.27 592.236C3731.99 591.955 3731.61 591.798 3731.21 591.799C3722.8 591.824 3714.39 591.849 3705.97 591.874C3554.56 592.324 3403.15 592.774 3251.73 593.224C3243.32 593.249 3234.91 593.274 3226.5 593.299C3234.91 593.324 3243.32 593.349 3251.73 593.374C3403.15 593.824 3554.56 594.274 3705.97 594.724C3714.39 594.749 3722.8 594.774 3731.21 594.799Z" fill="black"/>
<g opacity="0.9">
<path d="M25 1850.8L2909.58 1849.49L3054.48 1846.54L3150.58 1842.09L3225.99 1836.08L3289.56 1828.43L3345.75 1819.04L3396.02 1807.99L3443.33 1794.83L3487.68 1779.67L3530.56 1762.05L3573.44 1741.22L3616.31 1716.89L3659.19 1688.85L3703.55 1655.79L3750.86 1615.95L3802.61 1567.12L3857.31 1510.08L3919.41 1439.79L4011.08 1329.84L4107.18 1216.03L4161.89 1156.8L4206.24 1113.94L4246.16 1080.45L4281.65 1055.44L4312.7 1037.64L4340.79 1025.08L4367.4 1016.43L4392.54 1011.27L4416.19 1009.13L4439.85 1009.64L4463.5 1012.8L4487.16 1018.59L4512.29 1027.54L4538.91 1040.08L4568.48 1057.51L4601.01 1080.65L4637.97 1111.51L4680.85 1152.54L4729.64 1204.67L4791.73 1276.7L4988.38 1508.75L5044.56 1567.38L5096.31 1616.18L5146.58 1658.33L5193.89 1693.12L5238.25 1721.5L5282.6 1745.94L5326.96 1766.7L5371.31 1784.09L5417.15 1798.91L5464.46 1811.25L5516.21 1821.84L5572.39 1830.5L5635.97 1837.51L5709.89 1842.91L5801.56 1846.84L5927.23 1849.37L6081 1850.43" stroke="#C74440" stroke-width="50" stroke-miterlimit="10" stroke-linecap="round" stroke-linejoin="round"/>
<path d="M25 1850.8L2300.44 1849.49L2402.45 1846.58L2470.46 1842.15L2523.69 1836.17L2569.53 1828.4L2609.45 1818.94L2646.41 1807.36L2680.41 1793.8L2714.42 1776.98L2746.95 1757.41L2779.47 1734.06L2813.48 1705.25L2848.96 1670.11L2884.45 1629.66L2921.41 1581.95L2961.33 1524.51L3005.69 1454.63L3067.79 1349.99L3150.58 1211.08L3190.5 1150.57L3223.03 1107.01L3251.12 1074.71L3277.73 1049.43L3301.39 1031.79L3322.09 1020.35L3341.31 1013.21L3359.05 1009.69L3375.32 1009.08L3391.58 1010.99L3409.32 1015.9L3427.06 1023.74L3447.76 1036.45L3469.94 1054.14L3496.55 1080.52L3524.65 1113.85L3555.7 1156.24L3592.66 1212.66L3642.93 1296.01L3759.73 1491.83L3804.09 1558.56L3842.53 1610.62L3879.49 1655.02L3914.97 1692.22L3950.46 1724.16L3985.94 1751.1L4019.95 1772.57L4053.96 1790.21L4089.44 1805.03L4126.4 1817.14L4164.84 1826.75L4207.72 1834.59L4256.51 1840.71L4315.65 1845.32L4392.54 1848.46L4506.38 1850.21L4759.21 1850.78L6081 1850.8" stroke="#2D70B3" stroke-width="50" stroke-miterlimit="10" stroke-linecap="round" stroke-linejoin="round"/>
<path d="M25 1850.79L255.648 1849.53L292.611 1846.57L316.268 1842.24L335.488 1836.16L353.23 1827.48L369.494 1815.94L385.758 1799.93L400.543 1780.53L415.328 1755.64L430.113 1724.46L446.377 1682.11L462.641 1630.89L480.383 1565.01L502.561 1469.79L536.566 1307.59L566.137 1171.52L583.879 1102.92L597.186 1061.81L609.014 1034.4L619.363 1018.32L628.234 1010.77L635.065 1009L641.541 1010.59L648.934 1016.28L657.805 1028.43L668.154 1049.6L679.982 1082.3L693.289 1128.47L711.031 1202.09L739.123 1334.52L777.564 1514.26L799.742 1603.37L818.963 1667.96L835.227 1712.89L851.49 1749.23L867.754 1777.76L884.018 1799.52L900.281 1815.64L918.023 1828.14L935.766 1836.6L954.986 1842.51L978.643 1846.72L1009.69 1849.31L1061.44 1850.57L1240.34 1850.79L6081 1850.8" stroke="#348543" stroke-width="50" stroke-miterlimit="10" stroke-linecap="round" stroke-linejoin="round"/>
<path d="M25 1850.8H247.053M388.36 1850.8H610.413M751.72 1850.8H973.773M1115.08 1850.8H1337.13M1478.44 1850.8H1700.49M1841.8 1850.8H2063.85M2205.16 1850.8H2427.21M2568.52 1850.8H2790.57M2931.88 1850.8H3153.93M3295.24 1850.8H3517.29M3658.6 1850.8H3880.65M4021.96 1850.8H4244.01M4385.32 1850.8H4607.37M4748.68 1850.8H4970.73M5112.04 1850.8H5334.09M5475.4 1850.8H5697.45M5838.76 1850.8H6060.81" stroke="#C74440" stroke-width="50" stroke-miterlimit="10" stroke-linecap="round" stroke-linejoin="round"/>
<path d="M25 1850.8L247.053 1850.69M388.36 1850.63L610.413 1850.53M751.72 1850.47L973.773 1850.36M1115.08 1850.3L1337.13 1850.2M1478.44 1850.14L1700.49 1850.04M1841.8 1849.97L2063.85 1849.87M2205.16 1849.81L2427.21 1849.71M2568.52 1849.64L2790.57 1849.54M2931.88 1849.03L3054.48 1846.54L3150.58 1842.09L3153.79 1841.84M3294.34 1827.63L3345.75 1819.04L3396.02 1807.99L3443.33 1794.83L3487.68 1779.67L3508.48 1771.13M3633.44 1705.69L3659.19 1688.85L3703.55 1655.79L3750.86 1615.95L3802.61 1567.12L3804.65 1564.99M3900.5 1461.2L3919.41 1439.79L4011.08 1329.84L4043.55 1291.39M4136.13 1184.69L4161.89 1156.8L4206.24 1113.94L4246.16 1080.45L4281.65 1055.44L4304.97 1042.07M4440.41 1009.71L4463.5 1012.8L4487.16 1018.59L4512.29 1027.54L4538.91 1040.08L4568.48 1057.51L4601.01 1080.65L4634.82 1108.88M4733.85 1209.56L4791.73 1276.7L4877.98 1378.47M4969.33 1486.27L4988.38 1508.75L5044.56 1567.38L5096.31 1616.18L5127.15 1642.04M5242.24 1723.7L5282.6 1745.94L5326.96 1766.7L5371.31 1784.09L5417.15 1798.91L5447.32 1806.78M5586.23 1832.02L5635.97 1837.51L5709.89 1842.91L5801.56 1846.84L5807.7 1846.96M5948.98 1849.52L6081 1850.43" stroke="#C74440" stroke-width="50" stroke-miterlimit="10" stroke-linecap="round" stroke-linejoin="round"/>
<path d="M25 1850.8H6081V1850.43L5927.23 1849.37L5801.56 1846.84L5709.89 1842.91L5635.97 1837.51L5572.39 1830.5L5516.21 1821.84L5464.46 1811.25L5417.15 1798.91L5371.31 1784.09L5326.96 1766.7L5282.6 1745.94L5238.25 1721.5L5193.89 1693.12L5146.58 1658.33L5096.31 1616.18L5044.56 1567.38L4988.38 1508.75L4791.73 1276.7L4729.64 1204.67L4680.85 1152.54L4637.97 1111.51L4601.01 1080.65L4568.48 1057.51L4538.91 1040.08L4512.29 1027.54L4487.16 1018.59L4463.5 1012.8L4439.85 1009.64L4416.19 1009.13L4392.54 1011.27L4367.4 1016.43L4340.79 1025.08L4312.7 1037.64L4281.65 1055.44L4246.16 1080.45L4206.24 1113.94L4161.89 1156.8L4107.18 1216.03L4011.08 1329.84L3919.41 1439.79L3857.31 1510.08L3802.61 1567.12L3750.86 1615.95L3703.55 1655.79L3659.19 1688.85L3616.31 1716.89L3573.44 1741.22L3530.56 1762.05L3487.68 1779.67L3443.33 1794.83L3396.02 1807.99L3345.75 1819.04L3289.56 1828.43L3225.99 1836.08L3150.58 1842.09L3054.48 1846.54L2909.58 1849.49L25 1850.8Z" fill="#C74440" fill-opacity="0.2"/>
<path d="M25 1850.8H247.053M388.36 1850.8H610.413M751.72 1850.8H973.773M1115.08 1850.8H1337.13M1478.44 1850.8H1700.49M1841.8 1850.8H2063.85M2205.16 1850.8H2427.21M2568.52 1850.8H2790.57M2931.88 1850.8H3153.93M3295.24 1850.8H3517.29M3658.6 1850.8H3880.65M4021.96 1850.8H4244.01M4385.32 1850.8H4607.37M4748.68 1850.8H4970.73M5112.04 1850.8H5334.09M5475.4 1850.8H5697.45M5838.76 1850.8H6060.81" stroke="#2D70B3" stroke-width="50" stroke-miterlimit="10" stroke-linecap="round" stroke-linejoin="round"/>
<path d="M25 1850.8L247.053 1850.67M388.36 1850.59L610.413 1850.46M751.72 1850.38L973.773 1850.25M1115.08 1850.17L1337.13 1850.04M1478.44 1849.96L1700.49 1849.83M1841.8 1849.75L2063.85 1849.63M2205.16 1849.55L2300.44 1849.49L2402.45 1846.58L2427.12 1844.97M2567.38 1828.76L2569.53 1828.4L2609.45 1818.94L2646.41 1807.36L2680.41 1793.8L2714.42 1776.98L2746.95 1757.41L2769.37 1741.31M2871.62 1644.29L2884.45 1629.66L2921.41 1581.95L2961.33 1524.51L3000.07 1463.48M3072.46 1342.14L3150.58 1211.08L3188.83 1153.1M3281.26 1046.81L3301.39 1031.79L3322.09 1020.35L3341.31 1013.21L3359.05 1009.69L3375.32 1009.08L3391.58 1010.99L3409.32 1015.9L3427.06 1023.74L3447.76 1036.45L3469.94 1054.14L3478.16 1062.29M3566.25 1172.36L3592.66 1212.66L3642.93 1296.01L3682.13 1361.73M3754.51 1483.08L3759.73 1491.83L3804.09 1558.56L3842.53 1610.62L3879.49 1655.02L3885.87 1661.7M3991.72 1754.75L4019.95 1772.57L4053.96 1790.21L4089.44 1805.03L4126.4 1817.14L4164.84 1826.75L4197.68 1832.75M4338.24 1846.24L4392.54 1848.46L4506.38 1850.21L4560.24 1850.33M4701.54 1850.65L4759.21 1850.78L4923.6 1850.78M5064.9 1850.78L5286.96 1850.79M5428.26 1850.79L5650.32 1850.79M5791.62 1850.79L6013.68 1850.79" stroke="#2D70B3" stroke-width="50" stroke-miterlimit="10" stroke-linecap="round" stroke-linejoin="round"/>
<path d="M25 1850.8H6081L4759.21 1850.78L4506.38 1850.21L4392.54 1848.46L4315.65 1845.32L4256.51 1840.71L4207.72 1834.59L4164.84 1826.75L4126.4 1817.14L4089.44 1805.03L4053.96 1790.21L4019.95 1772.57L3985.94 1751.1L3950.46 1724.16L3914.97 1692.22L3879.49 1655.02L3842.53 1610.62L3804.09 1558.56L3759.73 1491.83L3642.93 1296.01L3592.66 1212.66L3555.7 1156.24L3524.65 1113.85L3496.55 1080.52L3469.94 1054.14L3447.76 1036.45L3427.06 1023.74L3409.32 1015.9L3391.58 1010.99L3375.32 1009.08L3359.05 1009.69L3341.31 1013.21L3322.09 1020.35L3301.39 1031.79L3277.73 1049.43L3251.12 1074.71L3223.03 1107.01L3190.5 1150.57L3150.58 1211.08L3067.79 1349.99L3005.69 1454.63L2961.33 1524.51L2921.41 1581.95L2884.45 1629.66L2848.96 1670.11L2813.48 1705.25L2779.47 1734.06L2746.95 1757.41L2714.42 1776.98L2680.41 1793.8L2646.41 1807.36L2609.45 1818.94L2569.53 1828.4L2523.69 1836.17L2470.46 1842.15L2402.45 1846.58L2300.44 1849.49L25 1850.8Z" fill="#2D70B3" fill-opacity="0.2"/>
<path d="M25 1850.8H247.053M388.36 1850.8H610.413M751.72 1850.8H973.773M1115.08 1850.8H1337.13M1478.44 1850.8H1700.49M1841.8 1850.8H2063.85M2205.16 1850.8H2427.21M2568.52 1850.8H2790.57M2931.88 1850.8H3153.93M3295.24 1850.8H3517.29M3658.6 1850.8H3880.65M4021.96 1850.8H4244.01M4385.32 1850.8H4607.37" stroke="#348543" stroke-width="50" stroke-miterlimit="10" stroke-linecap="round" stroke-linejoin="round"/>
<path d="M25 1850.79L247.05 1849.58M377.848 1807.72L385.758 1799.93L400.543 1780.53L415.328 1755.64L430.113 1724.46L446.377 1682.11L462.641 1630.89L468.878 1607.73M502.399 1470.49L502.561 1469.79L536.566 1307.59L548.373 1253.26M580.57 1115.71L583.879 1102.92L597.186 1061.81L609.014 1034.4L619.363 1018.32L628.234 1010.77L635.065 1009L641.541 1010.59L648.934 1016.28L657.805 1028.43L668.154 1049.6L679.982 1082.3L682.353 1090.52M716.442 1227.6L739.123 1334.52L762.7 1444.76M794.524 1582.41L799.742 1603.37L818.963 1667.96L835.227 1712.89L851.49 1749.23L867.754 1777.76L875.301 1787.86M996.931 1848.24L1009.69 1849.31L1061.44 1850.57L1218.92 1850.77M1360.23 1850.79H1582.28M1723.59 1850.79H1945.64M2086.95 1850.79L2309 1850.8M2450.31 1850.8H2672.36M2813.67 1850.8H3035.72M3177.03 1850.8H3399.08M3540.39 1850.8H3762.44M3903.75 1850.8H4125.8M4267.11 1850.8H4489.16M4630.47 1850.8H4697.48" stroke="#348543" stroke-width="50" stroke-miterlimit="10" stroke-linecap="round" stroke-linejoin="round"/>
<path d="M25 1850.8H4697.48L1240.34 1850.79L1061.44 1850.57L1009.69 1849.31L978.643 1846.72L954.986 1842.51L935.766 1836.6L918.023 1828.14L900.281 1815.64L884.018 1799.52L867.754 1777.76L851.49 1749.23L835.227 1712.89L818.963 1667.96L799.742 1603.37L777.564 1514.26L739.123 1334.52L711.031 1202.09L693.289 1128.47L679.982 1082.3L668.154 1049.6L657.805 1028.43L648.934 1016.28L641.541 1010.59L635.065 1009L628.234 1010.77L619.363 1018.32L609.014 1034.4L597.186 1061.81L583.879 1102.92L566.137 1171.52L536.566 1307.59L502.561 1469.79L480.383 1565.01L462.641 1630.89L446.377 1682.11L430.113 1724.46L415.328 1755.64L400.543 1780.53L385.758 1799.93L369.494 1815.94L353.23 1827.48L335.488 1836.16L316.268 1842.24L292.611 1846.57L255.648 1849.53L25 1850.8Z" fill="#348543" fill-opacity="0.2"/>
</g>
</svg>
